<svg width="3" height="14" viewBox="0 0 3 14" fill="none" xmlns="http://www.w3.org/2000/svg">
<g clip-path="url(#clip0_576_98)">
<path d="M1.37486 14C1.13267 14 0.926315 13.9138 0.755789 13.7413C0.585263 13.5688 0.5 13.3615 0.5 13.1193C0.5 12.8771 0.586234 12.6692 0.758702 12.4956C0.93117 12.322 1.1385 12.2352 1.38068 12.2352C1.62287 12.2352 1.82923 12.3224 1.99975 12.4968C2.17028 12.6712 2.25554 12.8808 2.25554 13.1256C2.25554 13.368 2.16931 13.5743 1.99684 13.7446C1.82437 13.9149 1.61705 14 1.37486 14ZM1.37486 7.87777C1.13267 7.87777 0.926315 7.79154 0.755789 7.61907C0.585263 7.4466 0.5 7.23927 0.5 6.99709C0.5 6.7549 0.586234 6.54854 0.758702 6.37802C0.93117 6.20749 1.1385 6.12223 1.38068 6.12223C1.62287 6.12223 1.82923 6.20846 1.99975 6.38093C2.17028 6.5534 2.25554 6.76073 2.25554 7.00291C2.25554 7.2451 2.16931 7.45146 1.99684 7.62198C1.82437 7.79251 1.61705 7.87777 1.37486 7.87777ZM1.37486 1.76479C1.13267 1.76479 0.926315 1.6776 0.755789 1.50322C0.585263 1.32884 0.5 1.11922 0.5 0.874354C0.5 0.632038 0.586234 0.42573 0.758702 0.255429C0.93117 0.0851437 1.1385 0 1.38068 0C1.62287 0 1.82923 0.0862348 1.99975 0.258703C2.17028 0.431171 2.25554 0.638498 2.25554 0.880685C2.25554 1.12287 2.16931 1.33077 1.99684 1.50438C1.82437 1.67798 1.61705 1.76479 1.37486 1.76479Z" fill="white"/>
</g>
<defs>
<clipPath id="clip0_576_98">
<rect width="2" height="14" fill="white" transform="translate(0.5)"/>
</clipPath>
</defs>
</svg>
