<svg width="15" height="14" viewBox="0 0 15 14" fill="none" xmlns="http://www.w3.org/2000/svg">
<g clip-path="url(#clip0_576_130)">
<path d="M7.5035 14C6.53565 14 5.62557 13.8163 4.77326 13.449C3.92093 13.0817 3.17953 12.5832 2.54905 11.9535C1.91858 11.3238 1.41945 10.5834 1.05167 9.73213C0.683891 8.88089 0.5 7.97135 0.5 7.0035C0.5 6.03565 0.683656 5.12557 1.05097 4.27326C1.41829 3.42094 1.9168 2.67954 2.54647 2.04907C3.17617 1.41859 3.91663 0.919455 4.76787 0.551673C5.61911 0.183891 6.52865 0 7.4965 0C8.46435 0 9.37443 0.183656 10.2267 0.550968C11.0791 0.918294 11.8205 1.4168 12.4509 2.04647C13.0814 2.67617 13.5805 3.41663 13.9483 4.26787C14.3161 5.11911 14.5 6.02865 14.5 6.9965C14.5 7.96435 14.3163 8.87443 13.949 9.72674C13.5817 10.5791 13.0832 11.3205 12.4535 11.951C11.8238 12.5814 11.0834 13.0805 10.2321 13.4483C9.38089 13.8161 8.47135 14 7.5035 14ZM7.5 13.5575C9.32878 13.5575 10.8789 12.9218 12.1503 11.6503C13.4218 10.3789 14.0575 8.82878 14.0575 7C14.0575 6.16023 13.9033 5.36024 13.5948 4.60005C13.2864 3.83986 12.8506 3.14464 12.2874 2.51437L3.01437 11.7874C3.63123 12.364 4.32193 12.8032 5.08647 13.1049C5.85101 13.4066 6.65552 13.5575 7.5 13.5575ZM2.71264 11.4856L11.9856 2.21264C11.3822 1.63602 10.6948 1.19684 9.92359 0.895115C9.15234 0.593391 8.34448 0.442529 7.5 0.442529C5.67122 0.442529 4.12111 1.07824 2.84967 2.34967C1.57824 3.62111 0.942529 5.17122 0.942529 7C0.942529 7.84448 1.09674 8.64899 1.40517 9.41353C1.7136 10.1781 2.14943 10.8688 2.71264 11.4856Z" fill="black"/>
</g>
<defs>
<clipPath id="clip0_576_130">
<rect width="14" height="14" fill="white" transform="translate(0.5)"/>
</clipPath>
</defs>
</svg>
