<svg width="23" height="23" viewBox="0 0 23 23" fill="none" xmlns="http://www.w3.org/2000/svg">
<path id="Vector" d="M11.087 22.17C9.5538 22.17 8.1127 21.8791 6.76368 21.2972C5.41463 20.7153 4.24115 19.9257 3.24325 18.9282C2.24532 17.9307 1.4553 16.7578 0.87318 15.4093C0.29106 14.0609 0 12.6201 0 11.087C0 9.5538 0.290934 8.1127 0.8728 6.76368C1.45467 5.41463 2.24433 4.24115 3.24179 3.24325C4.23926 2.24532 5.41223 1.4553 6.76067 0.873181C8.1091 0.291061 9.54989 0 11.083 0C12.6162 0 14.0573 0.290935 15.4063 0.872801C16.7554 1.45467 17.9288 2.24433 18.9268 3.24179C19.9247 4.23926 20.7147 5.41223 21.2968 6.76067C21.8789 8.1091 22.17 9.54989 22.17 11.083C22.17 12.6162 21.8791 14.0573 21.2972 15.4063C20.7153 16.7554 19.9257 17.9288 18.9282 18.9268C17.9307 19.9247 16.7578 20.7147 15.4093 21.2968C14.0609 21.8789 12.6201 22.17 11.087 22.17ZM11.085 20.8461C13.8089 20.8461 16.1168 19.9002 18.0085 18.0085C19.9002 16.1168 20.8461 13.8089 20.8461 11.085C20.8461 9.8906 20.6344 8.74529 20.2111 7.64908C19.7877 6.55285 19.1916 5.5537 18.4226 4.65163L4.65163 18.4226C5.53425 19.211 6.52683 19.812 7.62936 20.2257C8.73191 20.6393 9.88379 20.8461 11.085 20.8461ZM3.76532 17.5184L17.5184 3.76532C16.6313 2.97694 15.6365 2.37294 14.5341 1.95333C13.4317 1.53371 12.282 1.3239 11.085 1.3239C8.36106 1.3239 6.05322 2.26977 4.16149 4.1615C2.26977 6.05322 1.3239 8.36106 1.3239 11.085C1.3239 12.2862 1.54157 13.4381 1.9769 14.5406C2.41221 15.6432 3.00835 16.6357 3.76532 17.5184Z" fill="#FF0000"/>
</svg>
