<svg width="23" height="24" viewBox="0 0 23 24" fill="none" xmlns="http://www.w3.org/2000/svg">
<g clip-path="url(#clip0_576_114)">
<path d="M2.31089 24C1.81853 24 1.39363 23.8213 1.03618 23.4638C0.678725 23.1064 0.5 22.6815 0.5 22.1891V4.00808C0.5 3.51572 0.678725 3.09082 1.03618 2.73337C1.39363 2.37592 1.81853 2.19719 2.31089 2.19719H4.6288V0H6.21028V2.19719H16.1821V0H17.7273V2.19719H20.0332C20.5255 2.19719 20.9504 2.37592 21.3079 2.73337C21.6653 3.09082 21.8441 3.51572 21.8441 4.00808V22.1891C21.8441 22.6815 21.6653 23.1064 21.3079 23.4638C20.9504 23.8213 20.5255 24 20.0332 24H2.31089ZM2.31089 22.5755H20.0332C20.1298 22.5755 20.2183 22.5352 20.2988 22.4547C20.3793 22.3742 20.4195 22.2857 20.4195 22.1891V9.71833H1.92453V22.1891C1.92453 22.2857 1.96477 22.3742 2.04525 22.4547C2.12575 22.5352 2.2143 22.5755 2.31089 22.5755ZM1.92453 8.29383H20.4195V4.00808C20.4195 3.91149 20.3793 3.82294 20.2988 3.74244C20.2183 3.66196 20.1298 3.62172 20.0332 3.62172H2.31089C2.2143 3.62172 2.12575 3.66196 2.04525 3.74244C1.96477 3.82294 1.92453 3.91149 1.92453 4.00808V8.29383ZM11.172 14.6801C10.8646 14.6801 10.6026 14.5718 10.3861 14.3553C10.1696 14.1388 10.0614 13.8769 10.0614 13.5694C10.0614 13.262 10.1696 13 10.3861 12.7835C10.6026 12.567 10.8646 12.4588 11.172 12.4588C11.4795 12.4588 11.7414 12.567 11.9579 12.7835C12.1744 13 12.2827 13.262 12.2827 13.5694C12.2827 13.8769 12.1744 14.1388 11.9579 14.3553C11.7414 14.5718 11.4795 14.6801 11.172 14.6801ZM6.14989 14.6801C5.84245 14.6801 5.58048 14.5718 5.36398 14.3553C5.14749 14.1388 5.03924 13.8769 5.03924 13.5694C5.03924 13.262 5.14749 13 5.36398 12.7835C5.58048 12.567 5.84245 12.4588 6.14989 12.4588C6.45732 12.4588 6.71929 12.567 6.93579 12.7835C7.15229 13 7.26053 13.262 7.26053 13.5694C7.26053 13.8769 7.15229 14.1388 6.93579 14.3553C6.71929 14.5718 6.45732 14.6801 6.14989 14.6801ZM16.1942 14.6801C15.8867 14.6801 15.6248 14.5718 15.4083 14.3553C15.1918 14.1388 15.0835 13.8769 15.0835 13.5694C15.0835 13.262 15.1918 13 15.4083 12.7835C15.6248 12.567 15.8867 12.4588 16.1942 12.4588C16.5016 12.4588 16.7636 12.567 16.9801 12.7835C17.1966 13 17.3048 13.262 17.3048 13.5694C17.3048 13.8769 17.1966 14.1388 16.9801 14.3553C16.7636 14.5718 16.5016 14.6801 16.1942 14.6801ZM11.172 19.6057C10.8646 19.6057 10.6026 19.4974 10.3861 19.2809C10.1696 19.0644 10.0614 18.8024 10.0614 18.495C10.0614 18.1876 10.1696 17.9256 10.3861 17.7091C10.6026 17.4926 10.8646 17.3843 11.172 17.3843C11.4795 17.3843 11.7414 17.4926 11.9579 17.7091C12.1744 17.9256 12.2827 18.1876 12.2827 18.495C12.2827 18.8024 12.1744 19.0644 11.9579 19.2809C11.7414 19.4974 11.4795 19.6057 11.172 19.6057ZM6.14989 19.6057C5.84245 19.6057 5.58048 19.4974 5.36398 19.2809C5.14749 19.0644 5.03924 18.8024 5.03924 18.495C5.03924 18.1876 5.14749 17.9256 5.36398 17.7091C5.58048 17.4926 5.84245 17.3843 6.14989 17.3843C6.45732 17.3843 6.71929 17.4926 6.93579 17.7091C7.15229 17.9256 7.26053 18.1876 7.26053 18.495C7.26053 18.8024 7.15229 19.0644 6.93579 19.2809C6.71929 19.4974 6.45732 19.6057 6.14989 19.6057ZM16.1942 19.6057C15.8867 19.6057 15.6248 19.4974 15.4083 19.2809C15.1918 19.0644 15.0835 18.8024 15.0835 18.495C15.0835 18.1876 15.1918 17.9256 15.4083 17.7091C15.6248 17.4926 15.8867 17.3843 16.1942 17.3843C16.5016 17.3843 16.7636 17.4926 16.9801 17.7091C17.1966 17.9256 17.3048 18.1876 17.3048 18.495C17.3048 18.8024 17.1966 19.0644 16.9801 19.2809C16.7636 19.4974 16.5016 19.6057 16.1942 19.6057Z" fill="black"/>
</g>
<defs>
<clipPath id="clip0_576_114">
<rect width="22" height="24" fill="white" transform="translate(0.5)"/>
</clipPath>
</defs>
</svg>
