<svg width="19" height="18" viewBox="0 0 19 18" fill="none" xmlns="http://www.w3.org/2000/svg">
<path d="M16.7643 17.3333C14.9343 17.3333 13.093 16.8635 11.2403 15.9239C9.38757 14.9843 7.71524 13.7701 6.22324 12.2813C4.73126 10.7924 3.51547 9.12324 2.57587 7.2737C1.63629 5.42417 1.1665 3.58441 1.1665 1.75441C1.1665 1.44362 1.2701 1.18463 1.47729 0.977437C1.68448 0.77023 1.94347 0.666626 2.25427 0.666626H5.06354C5.31439 0.666626 5.53318 0.747661 5.71991 0.909731C5.90663 1.0718 6.02773 1.29031 6.08323 1.56524L6.67158 4.20994C6.71068 4.45208 6.70501 4.67216 6.65456 4.87017C6.60411 5.06818 6.50753 5.23224 6.36482 5.36236L4.04577 7.63031C4.98915 9.19923 6.03532 10.5525 7.18427 11.6901C8.33323 12.8277 9.65748 13.8058 11.157 14.6243L13.3799 12.3182C13.5439 12.1378 13.7277 12.0123 13.9314 11.9417C14.135 11.8711 14.3466 11.8604 14.566 11.9095L16.9535 12.4355C17.2234 12.4908 17.4407 12.6188 17.6052 12.8194C17.7698 13.02 17.8521 13.2603 17.8521 13.5403V16.2455C17.8521 16.5563 17.7485 16.8153 17.5413 17.0225C17.3341 17.2297 17.0751 17.3333 16.7643 17.3333ZM3.47825 6.61822L5.50814 4.64886C5.53337 4.62362 5.55072 4.58894 5.56018 4.5448C5.56964 4.50065 5.57121 4.45966 5.5649 4.42183L5.02763 1.93412C5.02132 1.88367 5.00083 1.84584 4.96615 1.82062C4.93146 1.79539 4.88889 1.78277 4.83844 1.78277H2.41506C2.37722 1.78277 2.34569 1.79539 2.32047 1.82062C2.29524 1.84584 2.28262 1.87737 2.28262 1.91521C2.27002 2.56095 2.36682 3.27132 2.57302 4.04632C2.77923 4.82132 3.08097 5.67862 3.47825 6.61822ZM12.2032 15.1483C12.8754 15.4787 13.6113 15.736 14.4109 15.9201C15.2105 16.1043 15.9414 16.2064 16.6035 16.2266C16.6413 16.2266 16.6729 16.214 16.6981 16.1888C16.7233 16.1636 16.7359 16.132 16.7359 16.0942V13.6803C16.7359 13.6298 16.7233 13.5872 16.6981 13.5526C16.6729 13.5179 16.635 13.4974 16.5846 13.4911L14.3542 13.0314C14.3163 13.0251 14.2832 13.0266 14.2548 13.0361C14.2265 13.0456 14.1965 13.0629 14.165 13.0881L12.2032 15.1483Z" fill="black"/>
</svg>
