<svg width="16" height="14" viewBox="0 0 16 14" fill="none" xmlns="http://www.w3.org/2000/svg">
<g id="Group">
<g id="Group_2">
<path id="Vector" d="M0.430701 12.7278V13.9999H7.29296H7.6021H15.2683V12.5969C15.2683 12.0768 15.0895 11.5665 14.7649 11.1601C14.4403 10.7537 13.9822 10.4665 13.4749 10.3516L12.2467 10.0732L12.2468 9.56246C12.5203 9.44248 12.7722 9.27186 12.9898 9.05422C13.2594 8.78462 13.4639 8.45192 13.581 8.09235C13.6099 8.00449 13.6334 7.91515 13.652 7.82469C14.0566 7.77294 14.3704 7.42667 14.3704 7.00818C14.3704 6.78936 14.284 6.58208 14.1313 6.42847V4.54024C14.1313 3.41349 13.1649 2.45786 12.0032 2.41446V2.41239H11.9984C11.854 2.24013 11.6411 2.13913 11.4133 2.13879H11.4097C11.407 2.13879 11.4043 2.13879 11.4015 2.13879C10.6162 2.13879 9.87139 2.45032 9.30364 3.01652C8.72177 3.59682 8.40131 4.36399 8.40131 5.17677V6.4383C8.25468 6.59086 8.17158 6.79462 8.17158 7.00818C8.17158 7.4266 8.4853 7.77282 8.88985 7.82469C8.9084 7.91508 8.93192 8.00437 8.96074 8.0921C9.18341 8.77349 9.68463 9.30247 10.3144 9.57118V10.0732L9.08628 10.3516C8.68034 10.4436 8.30609 10.6461 8.00631 10.9315C8.01086 10.8786 8.0137 10.8254 8.0137 10.7721C8.0137 10.1949 7.75445 9.6574 7.30236 9.29718C7.15564 9.18045 7.07149 9.00717 7.07149 8.82181V5.67548C7.07149 4.84521 6.74423 4.06329 6.15002 3.47378C5.56672 2.89506 4.80013 2.58066 3.99196 2.58628C3.185 2.59265 2.42639 2.91039 1.85589 3.48092C1.27878 4.05775 0.960948 4.82496 0.960948 5.64117V8.80728C0.960948 8.99505 0.875129 9.16981 0.725533 9.28667C0.264443 9.64633 0 10.1877 0 10.7721C0 11.2616 0.19269 11.7336 0.531761 12.0833C0.466222 12.2867 0.430701 12.5034 0.430701 12.7278ZM7.29296 13.6908H0.739847V12.7279C0.739847 11.8964 1.30614 11.1875 2.11697 11.0037L3.44441 10.7028L3.44444 10.1091C3.62489 10.1531 3.81312 10.177 4.00693 10.177C4.20744 10.177 4.40214 10.1518 4.58831 10.1047L4.58828 10.7028L5.91578 11.0037C6.24975 11.0794 6.54204 11.2443 6.77053 11.4701C6.23791 11.7438 5.64549 11.8882 5.04519 11.8882H1.36945V12.1974H5.04519C5.71836 12.1974 6.38262 12.0301 6.97488 11.7124C7.17678 12.0011 7.2929 12.3519 7.2929 12.7279V13.6908H7.29296ZM1.94143 8.97156C2.05338 9.16858 2.19258 9.34807 2.35408 9.50487V9.80786C2.35408 10.0791 2.38796 10.3482 2.45393 10.6103L2.07437 10.6963C1.98623 10.4109 1.94143 10.1156 1.94143 9.8163V8.97156ZM2.75544 10.542C2.69445 10.3023 2.66326 10.0561 2.66326 9.80786V9.75877C2.80961 9.85961 2.96789 9.94413 3.13535 10.0105V10.4559L2.75544 10.542ZM6.02021 10.5556C6.01192 10.6051 6.00252 10.6547 5.99226 10.7042C5.98954 10.7035 5.98688 10.7028 5.98413 10.7022L5.57528 10.6095C5.64113 10.3478 5.67495 10.0789 5.67495 9.80789V9.49046C5.83005 9.33722 5.96385 9.16264 6.07233 8.97181V9.92626C6.07233 10.1366 6.05477 10.3484 6.02021 10.5556ZM5.36581 9.80786C5.36581 10.0558 5.33461 10.3018 5.27377 10.5412L4.89745 10.4559V10.003C5.06377 9.93547 5.22063 9.84966 5.36578 9.74798V9.80786H5.36581ZM13.6957 7.50037C13.6994 7.44562 13.7016 7.39068 13.7016 7.3355V7.27129C13.857 7.21333 13.9838 7.09832 14.0583 6.95343C14.0603 6.97151 14.0613 6.98975 14.0613 7.00814C14.0613 7.2401 13.907 7.43643 13.6957 7.50037ZM13.8222 4.54024V6.6551C13.8222 6.75842 13.7757 6.85302 13.7016 6.9176V6.7454C13.7016 6.48631 13.6246 6.23612 13.4787 6.02166C13.4242 5.94187 13.3819 5.85373 13.3529 5.75972C13.3242 5.66673 13.3097 5.57006 13.3097 5.47234V5.15176C13.3097 4.66748 12.9155 4.27347 12.4322 4.27347L12.0766 4.27088C12.1428 4.08054 12.1772 3.87873 12.1772 3.67651V2.90365C12.1772 2.84714 12.1711 2.79134 12.1591 2.73705C13.082 2.85314 13.8222 3.6315 13.8222 4.54024ZM8.71045 5.17674C8.71045 4.44669 8.99864 3.75723 9.52196 3.23536C10.0314 2.72735 10.6986 2.44788 11.402 2.44788C11.4044 2.44788 11.4069 2.44788 11.4093 2.44788H11.4131C11.566 2.44809 11.7079 2.52455 11.7928 2.65235C11.842 2.72663 11.8681 2.8135 11.8681 2.90356V3.67642C11.8681 3.91465 11.8136 4.14246 11.7063 4.35342C11.4494 4.85723 10.939 5.17021 10.3743 5.17021C9.96422 5.17021 9.579 5.32982 9.28964 5.61953C8.99991 5.90932 8.84032 6.29439 8.84032 6.70388V6.8907C8.75942 6.8144 8.71048 6.70654 8.71048 6.58857V5.17674H8.71045ZM8.48076 7.00818C8.48076 6.98224 8.48342 6.95667 8.48725 6.93135C8.56373 7.07418 8.6869 7.1893 8.84032 7.25466V7.33553C8.84032 7.39068 8.84255 7.44565 8.84623 7.50034C8.63502 7.43631 8.48076 7.24003 8.48076 7.00818ZM9.25458 7.9958C9.18484 7.78364 9.14947 7.56148 9.14947 7.33553V6.70395C9.14947 6.37702 9.27687 6.06958 9.5083 5.83812C9.73935 5.60682 10.0469 5.47942 10.3743 5.47942C11.0234 5.47942 11.613 5.13683 11.9355 4.57894L12.431 4.58259C12.745 4.58259 13.0005 4.83791 13.0005 5.15173V5.47231C13.0005 5.60095 13.0196 5.72828 13.0574 5.8508C13.0956 5.97445 13.1514 6.0906 13.2232 6.1958C13.334 6.35851 13.3925 6.54854 13.3925 6.74537V7.33553C13.3925 7.56148 13.3571 7.78364 13.2873 7.9962C13.185 8.31002 13.0066 8.60034 12.7713 8.83563C12.3705 9.23643 11.8377 9.45716 11.2712 9.45716C10.3506 9.45716 9.54023 8.86997 9.25458 7.9958ZM11.2711 9.76631C11.4998 9.76631 11.7235 9.73428 11.9377 9.67354V10.103L11.2807 10.4458L10.6236 10.103L10.6236 9.67898C10.8308 9.73592 11.0481 9.76631 11.2711 9.76631ZM9.15469 10.6531L10.4478 10.36L11.2806 10.7945L12.1134 10.36L13.4066 10.6531C14.3207 10.8603 14.9591 11.6596 14.9591 12.5969V13.6908H13.6455V12.7898H13.3363V13.6908H9.18626V12.7898H8.87711V13.6908H7.6021V12.7279V12.597C7.6021 11.6596 8.24055 10.8603 9.15469 10.6531ZM0.309269 10.7721C0.309269 10.2836 0.530308 9.83108 0.915874 9.53031C1.14106 9.35444 1.27022 9.09086 1.27022 8.80725V5.64113C1.27022 4.90753 1.55587 4.21798 2.07461 3.69951C2.58742 3.1867 3.26928 2.90112 3.99453 2.8954C4.7196 2.88856 5.40807 3.17298 5.93241 3.69321C6.46766 4.22423 6.76246 4.92821 6.76246 5.67548V8.82181C6.76246 9.10193 6.88915 9.36337 7.10991 9.53903C7.48791 9.84016 7.70465 10.2896 7.70465 10.7721C7.70465 11.1347 7.58405 11.4758 7.36174 11.7531C7.13418 11.3223 6.75783 10.98 6.28882 10.7962C6.30236 10.7331 6.31457 10.6697 6.32515 10.6065C6.36252 10.3825 6.38147 10.1536 6.38147 9.92623V7.36567C6.38147 6.42074 5.77648 5.59516 4.87603 5.31137L4.7831 5.6062C5.55423 5.84925 6.07233 6.55633 6.07233 7.36567V7.80243C6.07233 8.94129 5.14582 9.86783 4.00696 9.86783C2.8681 9.86783 1.94156 8.94129 1.94156 7.80243H1.94143V7.40806C1.94143 6.73214 2.33454 6.11196 2.94449 5.82276L2.96177 5.81481C3.69049 5.47917 4.16138 4.74356 4.16138 3.94077V3.6763H3.85223V3.94077C3.85223 4.61666 3.45962 5.23656 2.85035 5.52564L2.83214 5.53402C2.10327 5.86999 1.63229 6.60561 1.63229 7.40802V9.81627C1.63229 10.145 1.68135 10.4694 1.77768 10.783C1.28802 10.9651 0.89612 11.3191 0.663952 11.7665C0.43673 11.4875 0.309269 11.1356 0.309269 10.7721Z" fill="url(#paint0_linear_1273_567)"/>
<path id="Vector_2" d="M3.73774 8.66211L3.45874 8.7952C3.5607 9.00891 3.7796 9.14701 4.01644 9.14701C4.25306 9.14701 4.47193 9.00894 4.57408 8.79532L4.29519 8.66199C4.24412 8.7688 4.13472 8.83783 4.01644 8.83783C3.89807 8.83783 3.78866 8.76886 3.73774 8.66211Z" fill="url(#paint1_linear_1273_567)"/>
<path id="Vector_3" d="M3.14152 7.19873C3.0596 7.19873 2.99316 7.26514 2.99316 7.34709V7.52516C2.99316 7.60708 3.05957 7.67352 3.14152 7.67352C3.22342 7.67352 3.28985 7.60711 3.28985 7.52516V7.34709C3.28985 7.26514 3.22342 7.19873 3.14152 7.19873Z" fill="url(#paint2_linear_1273_567)"/>
<path id="Vector_4" d="M4.87224 7.67352C4.95413 7.67352 5.02056 7.60711 5.02056 7.52516V7.34709C5.02056 7.26517 4.95416 7.19873 4.87224 7.19873C4.79031 7.19873 4.72388 7.26513 4.72388 7.34709V7.52516C4.72388 7.60711 4.79031 7.67352 4.87224 7.67352Z" fill="url(#paint3_linear_1273_567)"/>
<path id="Vector_5" d="M11.8491 8.33991L11.5702 8.20654C11.5172 8.31746 11.4036 8.38909 11.2809 8.38909C11.158 8.38909 11.0445 8.3175 10.9917 8.20667L10.7126 8.33982C10.8166 8.55755 11.0396 8.69827 11.2809 8.69827C11.522 8.69824 11.745 8.55758 11.8491 8.33991Z" fill="url(#paint4_linear_1273_567)"/>
<path id="Vector_6" d="M10.3838 6.70483C10.2998 6.70483 10.2317 6.77294 10.2317 6.85693V7.03951C10.2317 7.12351 10.2998 7.19161 10.3838 7.19161C10.4678 7.19161 10.5359 7.12351 10.5359 7.03951V6.85693C10.5359 6.77294 10.4678 6.70483 10.3838 6.70483Z" fill="url(#paint5_linear_1273_567)"/>
<path id="Vector_7" d="M12.1582 7.19161C12.2423 7.19161 12.3103 7.12351 12.3103 7.03951V6.85693C12.3103 6.77294 12.2423 6.70483 12.1582 6.70483C12.0742 6.70483 12.0061 6.77294 12.0061 6.85693V7.03951C12.0061 7.12351 12.0742 7.19161 12.1582 7.19161Z" fill="url(#paint6_linear_1273_567)"/>
<path id="Vector_8" d="M8.55095 0.00507644C8.25442 -0.024076 7.95866 0.0733048 7.73939 0.272116C7.66448 0.340036 7.60052 0.417817 7.54867 0.502646C7.49686 0.417817 7.43287 0.340036 7.35796 0.272085C7.13872 0.0733048 6.8429 -0.0240451 6.54639 0.00507644C6.07702 0.0511391 5.69451 0.406996 5.61624 0.870436C5.60752 0.922064 5.60248 0.974835 5.60131 1.0273C5.59614 1.25953 5.6776 1.49309 5.83063 1.68494L6.03343 1.93918L7.24744 3.25852C7.32185 3.34895 7.43129 3.4007 7.54871 3.4007C7.66612 3.4007 7.77559 3.34895 7.85 3.25852L9.05684 1.9475L9.26675 1.68497C9.41981 1.49309 9.50124 1.25953 9.49607 1.0273C9.49493 0.97502 9.48989 0.922249 9.48117 0.870436C9.40284 0.406996 9.02033 0.05117 8.55095 0.00507644ZM9.02506 1.49222L8.82569 1.74216L7.61931 3.05269L7.6122 3.06101C7.59097 3.0876 7.56333 3.09158 7.54871 3.09158C7.53411 3.09158 7.50648 3.08763 7.48524 3.06104L6.27169 1.7422L6.07232 1.49225C5.96437 1.35688 5.90683 1.1942 5.91039 1.03428C5.91122 0.996753 5.91487 0.958976 5.92112 0.922033C5.97621 0.595792 6.24578 0.345291 6.57663 0.3128C6.78954 0.29184 6.99333 0.358801 7.15037 0.501193C7.30532 0.641669 7.39416 0.842088 7.39416 1.05107V1.2637H7.70331V1.05107C7.70331 0.842088 7.79216 0.641669 7.9471 0.501193C8.10415 0.358832 8.30794 0.291871 8.52084 0.3128C8.85169 0.34526 9.12127 0.595792 9.17639 0.922002C9.18263 0.959099 9.18622 0.996846 9.18708 1.03425C9.19058 1.19417 9.13304 1.35681 9.02506 1.49222Z" fill="url(#paint7_linear_1273_567)"/>
</g>
</g>
<defs>
<linearGradient id="paint0_linear_1273_567" x1="4" y1="2.13879" x2="9.72444" y2="15.2017" gradientUnits="userSpaceOnUse">
<stop stop-color="#0F52BA"/>
<stop offset="1" stop-color="#8225AF"/>
</linearGradient>
<linearGradient id="paint1_linear_1273_567" x1="3.75094" y1="8.66199" x2="3.89827" y2="9.26259" gradientUnits="userSpaceOnUse">
<stop stop-color="#0F52BA"/>
<stop offset="1" stop-color="#8225AF"/>
</linearGradient>
<linearGradient id="paint2_linear_1273_567" x1="3.07089" y1="7.19873" x2="3.38092" y2="7.54217" gradientUnits="userSpaceOnUse">
<stop stop-color="#0F52BA"/>
<stop offset="1" stop-color="#8225AF"/>
</linearGradient>
<linearGradient id="paint3_linear_1273_567" x1="4.8016" y1="7.19873" x2="5.11163" y2="7.54217" gradientUnits="userSpaceOnUse">
<stop stop-color="#0F52BA"/>
<stop offset="1" stop-color="#8225AF"/>
</linearGradient>
<linearGradient id="paint4_linear_1273_567" x1="11.0104" y1="8.20654" x2="11.1591" y2="8.81579" gradientUnits="userSpaceOnUse">
<stop stop-color="#0F52BA"/>
<stop offset="1" stop-color="#8225AF"/>
</linearGradient>
<linearGradient id="paint5_linear_1273_567" x1="10.3114" y1="6.70483" x2="10.6292" y2="7.05696" gradientUnits="userSpaceOnUse">
<stop stop-color="#0F52BA"/>
<stop offset="1" stop-color="#8225AF"/>
</linearGradient>
<linearGradient id="paint6_linear_1273_567" x1="12.0858" y1="6.70483" x2="12.4037" y2="7.057" gradientUnits="userSpaceOnUse">
<stop stop-color="#0F52BA"/>
<stop offset="1" stop-color="#8225AF"/>
</linearGradient>
<linearGradient id="paint7_linear_1273_567" x1="6.62155" y1="-5.18887e-08" x2="8.39107" y2="3.59304" gradientUnits="userSpaceOnUse">
<stop stop-color="#0F52BA"/>
<stop offset="1" stop-color="#8225AF"/>
</linearGradient>
</defs>
</svg>
