<svg width="17" height="14" viewBox="0 0 17 14" fill="none" xmlns="http://www.w3.org/2000/svg">
<g clip-path="url(#clip0_576_153)">
<path d="M0.930701 12.7277V13.9998H7.79296H8.1021H15.7683V12.5968C15.7683 12.0766 15.5895 11.5664 15.2649 11.16C14.9403 10.7536 14.4822 10.4664 13.9749 10.3514L12.7467 10.0731L12.7468 9.56234C13.0203 9.44236 13.2722 9.27174 13.4898 9.0541C13.7594 8.7845 13.9639 8.45179 14.081 8.09223C14.1099 8.00437 14.1334 7.91502 14.152 7.82457C14.5566 7.77282 14.8704 7.42654 14.8704 7.00805C14.8704 6.78924 14.784 6.58196 14.6313 6.42834V4.54011C14.6313 3.41337 13.6649 2.45774 12.5032 2.41434V2.41227H12.4984C12.354 2.24001 12.1411 2.13901 11.9133 2.13867H11.9097C11.907 2.13867 11.9043 2.13867 11.9015 2.13867C11.1162 2.13867 10.3714 2.4502 9.80364 3.0164C9.22177 3.59669 8.90131 4.36387 8.90131 5.17664V6.43817C8.75468 6.59074 8.67158 6.7945 8.67158 7.00805C8.67158 7.42648 8.9853 7.77269 9.38985 7.82457C9.4084 7.91496 9.43192 8.00424 9.46074 8.09198C9.68341 8.77337 10.1846 9.30235 10.8144 9.57106V10.0731L9.58628 10.3515C9.18034 10.4435 8.80609 10.646 8.50631 10.9314C8.51086 10.8785 8.5137 10.8253 8.5137 10.772C8.5137 10.1948 8.25445 9.65728 7.80236 9.29706C7.65564 9.18033 7.57149 9.00705 7.57149 8.82169V5.67536C7.57149 4.84509 7.24423 4.06316 6.65002 3.47365C6.06672 2.89493 5.30013 2.58053 4.49196 2.58616C3.685 2.59253 2.92639 2.91027 2.35589 3.4808C1.77878 4.05763 1.46095 4.82484 1.46095 5.64104V8.80716C1.46095 8.99493 1.37513 9.16969 1.22553 9.28655C0.764443 9.64621 0.5 10.1876 0.5 10.772C0.5 11.2614 0.69269 11.7335 1.03176 12.0831C0.966222 12.2866 0.930701 12.5033 0.930701 12.7277ZM7.79296 13.6907H1.23985V12.7277C1.23985 11.8963 1.80614 11.1873 2.61697 11.0036L3.94441 10.7027L3.94444 10.109C4.12489 10.153 4.31312 10.1769 4.50693 10.1769C4.70744 10.1769 4.90214 10.1517 5.08831 10.1046L5.08828 10.7027L6.41578 11.0036C6.74975 11.0793 7.04204 11.2442 7.27053 11.47C6.73791 11.7437 6.14549 11.8881 5.54519 11.8881H1.86945V12.1972H5.54519C6.21836 12.1972 6.88262 12.0299 7.47488 11.7123C7.67678 12.001 7.7929 12.3518 7.7929 12.7277L7.79296 13.6907ZM2.44143 8.97144C2.55338 9.16846 2.69258 9.34795 2.85408 9.50474V9.80774C2.85408 10.079 2.88796 10.3481 2.95393 10.6102L2.57437 10.6962C2.48623 10.4108 2.44143 10.1154 2.44143 9.81618V8.97144ZM3.25544 10.5418C3.19445 10.3022 3.16326 10.056 3.16326 9.80774V9.75864C3.30961 9.85949 3.46789 9.94401 3.63535 10.0104V10.4557L3.25544 10.5418ZM6.52021 10.5555C6.51192 10.605 6.50252 10.6546 6.49226 10.7041C6.48954 10.7034 6.48688 10.7027 6.48413 10.7021L6.07528 10.6094C6.14113 10.3476 6.17495 10.0788 6.17495 9.80777V9.49034C6.33005 9.33709 6.46385 9.16252 6.57233 8.97168V9.92614C6.57233 10.1365 6.55477 10.3482 6.52021 10.5555ZM5.86581 9.80774C5.86581 10.0557 5.83461 10.3017 5.77377 10.541L5.39745 10.4557V10.0029C5.56377 9.93535 5.72063 9.84953 5.86578 9.74786L5.86581 9.80774ZM14.1957 7.50024C14.1994 7.44549 14.2016 7.39056 14.2016 7.33538V7.27117C14.357 7.2132 14.4838 7.0982 14.5583 6.9533C14.5603 6.97139 14.5613 6.98963 14.5613 7.00802C14.5613 7.23997 14.407 7.43631 14.1957 7.50024ZM14.3222 4.54011V6.65498C14.3222 6.75829 14.2757 6.85289 14.2016 6.91747V6.74528C14.2016 6.48619 14.1246 6.23599 13.9787 6.02154C13.9242 5.94175 13.8819 5.85361 13.8529 5.7596C13.8242 5.66661 13.8097 5.56994 13.8097 5.47222V5.15163C13.8097 4.66736 13.4155 4.27335 12.9322 4.27335L12.5766 4.27076C12.6428 4.08042 12.6772 3.8786 12.6772 3.67639V2.90353C12.6772 2.84702 12.6711 2.79122 12.6591 2.73693C13.582 2.85301 14.3222 3.63138 14.3222 4.54011ZM9.21045 5.17661C9.21045 4.44657 9.49864 3.75711 10.022 3.23524C10.5314 2.72722 11.1986 2.44776 11.902 2.44776C11.9044 2.44776 11.9069 2.44776 11.9093 2.44776H11.9131C12.066 2.44797 12.2079 2.52442 12.2928 2.65222C12.342 2.72651 12.3681 2.81338 12.3681 2.90344V3.6763C12.3681 3.91453 12.3136 4.14234 12.2063 4.3533C11.9494 4.85711 11.439 5.17009 10.8743 5.17009C10.4642 5.17009 10.079 5.3297 9.78964 5.6194C9.49991 5.9092 9.34032 6.29427 9.34032 6.70376V6.89058C9.25942 6.81428 9.21048 6.70642 9.21048 6.58845L9.21045 5.17661ZM8.98076 7.00805C8.98076 6.98212 8.98342 6.95655 8.98725 6.93123C9.06373 7.07406 9.1869 7.18918 9.34032 7.25453V7.33541C9.34032 7.39056 9.34255 7.44553 9.34623 7.50021C9.13502 7.43619 8.98076 7.23991 8.98076 7.00805ZM9.75458 7.99568C9.68484 7.78351 9.64947 7.56136 9.64947 7.33541V6.70382C9.64947 6.3769 9.77687 6.06946 10.0083 5.838C10.2393 5.6067 10.5469 5.4793 10.8743 5.4793C11.5234 5.4793 12.113 5.1367 12.4355 4.57882L12.931 4.58247C13.245 4.58247 13.5005 4.83779 13.5005 5.1516V5.47219C13.5005 5.60082 13.5196 5.72816 13.5574 5.85067C13.5956 5.97433 13.6514 6.09048 13.7232 6.19568C13.834 6.35838 13.8925 6.54842 13.8925 6.74525V7.33541C13.8925 7.56136 13.8571 7.78351 13.7873 7.99608C13.685 8.3099 13.5066 8.60021 13.2713 8.83551C12.8705 9.23631 12.3377 9.45704 11.7712 9.45704C10.8506 9.45704 10.0402 8.86985 9.75458 7.99568ZM11.7711 9.76619C11.9998 9.76619 12.2235 9.73416 12.4377 9.67341V10.1029L11.7807 10.4457L11.1236 10.1029V9.67885C11.3308 9.7358 11.5481 9.76619 11.7711 9.76619ZM9.65469 10.653L10.9478 10.3599L11.7806 10.7944L12.6134 10.3599L13.9066 10.653C14.8207 10.8602 15.4591 11.6595 15.4591 12.5968V13.6907H14.1455V12.7897H13.8363V13.6907H9.68626V12.7897H9.37711V13.6907H8.1021V12.7277V12.5968C8.1021 11.6595 8.74055 10.8602 9.65469 10.653ZM0.809269 10.772C0.809269 10.2835 1.03031 9.83095 1.41587 9.53019C1.64106 9.35431 1.77022 9.09074 1.77022 8.80713V5.64101C1.77022 4.90741 2.05587 4.21786 2.57461 3.69939C3.08742 3.18658 3.76928 2.90099 4.49453 2.89527C5.2196 2.88844 5.90807 3.17286 6.43241 3.69309C6.96766 4.22411 7.26246 4.92809 7.26246 5.67536V8.82169C7.26246 9.1018 7.38915 9.36325 7.60991 9.5389C7.98791 9.84004 8.20465 10.2895 8.20465 10.772C8.20465 11.1346 8.08405 11.4757 7.86174 11.753C7.63418 11.3222 7.25783 10.9798 6.78882 10.796C6.80236 10.733 6.81457 10.6696 6.82515 10.6064C6.86252 10.3824 6.88147 10.1535 6.88147 9.92611V7.36555C6.88147 6.42062 6.27648 5.59504 5.37603 5.31125L5.2831 5.60608C6.05423 5.84913 6.57233 6.55621 6.57233 7.36555V7.80231C6.57233 8.94117 5.64582 9.86771 4.50696 9.86771C3.3681 9.86771 2.44156 8.94117 2.44156 7.80231L2.44143 7.40793C2.44143 6.73202 2.83454 6.11184 3.44449 5.82263L3.46177 5.81469C4.19049 5.47905 4.66138 4.74344 4.66138 3.94065V3.67618H4.35223V3.94065C4.35223 4.61653 3.95962 5.23643 3.35035 5.52552L3.33214 5.53389C2.60327 5.86987 2.13229 6.60548 2.13229 7.4079V9.81615C2.13229 10.1449 2.18135 10.4693 2.27768 10.7828C1.78802 10.965 1.39612 11.3189 1.16395 11.7664C0.93673 11.4874 0.809269 11.1355 0.809269 10.772Z" fill="black"/>
<path d="M4.23774 8.66199L3.95874 8.79508C4.0607 9.00879 4.2796 9.14688 4.51644 9.14688C4.75306 9.14688 4.97193 9.00882 5.07408 8.7952L4.79519 8.66187C4.74412 8.76867 4.63472 8.83771 4.51644 8.83771C4.39807 8.83771 4.28866 8.76874 4.23774 8.66199Z" fill="black"/>
<path d="M3.64152 7.19873C3.5596 7.19873 3.49316 7.26514 3.49316 7.34709V7.52516C3.49316 7.60708 3.55957 7.67352 3.64152 7.67352C3.72342 7.67352 3.78985 7.60711 3.78985 7.52516V7.34709C3.78985 7.26514 3.72342 7.19873 3.64152 7.19873Z" fill="black"/>
<path d="M5.37224 7.67352C5.45413 7.67352 5.52056 7.60711 5.52056 7.52516V7.34709C5.52056 7.26517 5.45416 7.19873 5.37224 7.19873C5.29031 7.19873 5.22388 7.26513 5.22388 7.34709V7.52516C5.22388 7.60711 5.29031 7.67352 5.37224 7.67352Z" fill="black"/>
<path d="M12.3491 8.33991L12.0702 8.20654C12.0172 8.31746 11.9036 8.38909 11.7809 8.38909C11.658 8.38909 11.5445 8.3175 11.4917 8.20667L11.2126 8.33982C11.3166 8.55755 11.5396 8.69827 11.7809 8.69827C12.022 8.69824 12.245 8.55758 12.3491 8.33991Z" fill="black"/>
<path d="M10.8838 6.70483C10.7998 6.70483 10.7317 6.77294 10.7317 6.85693V7.03951C10.7317 7.12351 10.7998 7.19161 10.8838 7.19161C10.9678 7.19161 11.0359 7.12351 11.0359 7.03951V6.85693C11.0359 6.77294 10.9678 6.70483 10.8838 6.70483Z" fill="black"/>
<path d="M12.6582 7.19161C12.7423 7.19161 12.8103 7.12351 12.8103 7.03951V6.85693C12.8103 6.77294 12.7423 6.70483 12.6582 6.70483C12.5742 6.70483 12.5061 6.77294 12.5061 6.85693V7.03951C12.5061 7.12351 12.5742 7.19161 12.6582 7.19161Z" fill="black"/>
<path d="M9.05095 0.00507645C8.75442 -0.024076 8.45866 0.0733048 8.23939 0.272116C8.16448 0.340036 8.10052 0.417817 8.04867 0.502646C7.99686 0.417817 7.93287 0.340036 7.85796 0.272085C7.63872 0.0733048 7.3429 -0.0240451 7.04639 0.00507645C6.57702 0.0511391 6.19451 0.406996 6.11624 0.870436C6.10752 0.922064 6.10248 0.974835 6.10131 1.0273C6.09614 1.25953 6.1776 1.49309 6.33063 1.68494L6.53343 1.93918L7.74744 3.25852C7.82185 3.34895 7.93129 3.4007 8.04871 3.4007C8.16612 3.4007 8.27559 3.34895 8.35 3.25852L9.55684 1.9475L9.76675 1.68497C9.91981 1.49309 10.0012 1.25953 9.99607 1.0273C9.99493 0.97502 9.98989 0.922249 9.98117 0.870436C9.90284 0.406996 9.52033 0.05117 9.05095 0.00507645ZM9.52506 1.49222L9.32569 1.74216L8.11931 3.05269L8.1122 3.06101C8.09097 3.0876 8.06333 3.09158 8.04871 3.09158C8.03411 3.09158 8.00648 3.08763 7.98524 3.06104L6.77169 1.7422L6.57232 1.49225C6.46437 1.35688 6.40683 1.1942 6.41039 1.03428C6.41122 0.996753 6.41487 0.958976 6.42112 0.922033C6.47621 0.595792 6.74578 0.345291 7.07663 0.3128C7.28954 0.29184 7.49333 0.358801 7.65037 0.501193C7.80532 0.641669 7.89416 0.842088 7.89416 1.05107V1.2637H8.20331V1.05107C8.20331 0.842088 8.29216 0.641669 8.4471 0.501193C8.60415 0.358832 8.80794 0.291871 9.02084 0.3128C9.35169 0.34526 9.62127 0.595792 9.67639 0.922002C9.68263 0.959099 9.68622 0.996846 9.68708 1.03425C9.69058 1.19417 9.63304 1.35681 9.52506 1.49222Z" fill="black"/>
</g>
<defs>
<clipPath id="clip0_576_153">
<rect width="16" height="14" fill="white" transform="translate(0.5)"/>
</clipPath>
</defs>
</svg>
