<svg width="19" height="14" viewBox="0 0 19 14" fill="none" xmlns="http://www.w3.org/2000/svg">
<g clip-path="url(#clip0_576_106)">
<path d="M7.59638 5.82178C6.80995 5.82178 6.14996 5.5471 5.61641 4.99772C5.08286 4.44835 4.81608 3.75274 4.81608 2.91089C4.81608 2.08752 5.08286 1.39653 5.61641 0.83792C6.14996 0.279306 6.80995 0 7.59638 0C8.3828 0 9.04279 0.279306 9.57634 0.83792C10.1099 1.39653 10.3767 2.08752 10.3767 2.91089C10.3767 3.75274 10.1099 4.44835 9.57634 4.99772C9.04279 5.5471 8.3828 5.82178 7.59638 5.82178ZM0.5 13.6119V12.3089C0.5 11.8284 0.614742 11.431 0.844227 11.1168C1.07371 10.8026 1.40911 10.5347 1.85043 10.3129C2.82133 9.85083 3.72161 9.49967 4.55129 9.25941C5.38097 9.01914 6.39599 8.89901 7.59638 8.89901H7.79497C7.85675 8.89901 7.92295 8.88977 7.99356 8.87129C7.95826 9.00066 7.93178 9.11155 7.91412 9.20396C7.89647 9.29637 7.87882 9.39802 7.86117 9.50891H7.59638C6.48426 9.50891 5.51336 9.60594 4.68368 9.8C3.85401 9.99406 3.00668 10.3406 2.1417 10.8396C1.71803 11.0614 1.43559 11.2878 1.29437 11.5188C1.15315 11.7498 1.08254 12.0132 1.08254 12.3089V13.002H7.88765C7.9053 13.0944 7.93178 13.196 7.96708 13.3069C8.00239 13.4178 8.03769 13.5195 8.073 13.6119H0.5ZM14.4544 14L14.375 12.7802C14.022 12.7248 13.6865 12.6046 13.3688 12.4198C13.0511 12.235 12.7863 12.004 12.5744 11.7267L11.5682 12.1426L11.4094 11.8931L12.3096 11.1723C12.1861 10.8766 12.1243 10.5347 12.1243 10.1465C12.1243 9.75842 12.1861 9.40726 12.3096 9.09307L11.4358 8.34455L11.5947 8.09505L12.5744 8.53861C12.7686 8.2429 13.029 8.00726 13.3556 7.83168C13.6821 7.65611 14.022 7.54059 14.375 7.48515L14.4544 6.26535H14.7722L14.8516 7.48515C15.187 7.54059 15.518 7.65611 15.8446 7.83168C16.1712 8.00726 16.4404 8.23366 16.6522 8.51089L17.6319 8.09505L17.7643 8.31683L16.8905 9.06535C17.0317 9.40386 17.1023 9.7611 17.1023 10.1371C17.1023 10.513 17.0317 10.8581 16.8905 11.1723L17.7908 11.8931L17.6584 12.1426L16.6522 11.7267C16.4227 12.004 16.1491 12.235 15.8313 12.4198C15.5136 12.6046 15.187 12.7248 14.8516 12.7802L14.7722 14H14.4544ZM14.5892 12.0871C15.1349 12.0871 15.5798 11.9015 15.924 11.5302C16.2683 11.1589 16.4404 10.6969 16.4404 10.1441C16.4404 9.57277 16.2675 9.10693 15.9217 8.74653C15.5759 8.38614 15.1302 8.20594 14.5845 8.20594C14.0565 8.20594 13.6159 8.38696 13.2629 8.749C12.9098 9.11102 12.7333 9.57769 12.7333 10.149C12.7333 10.7018 12.9106 11.163 13.2652 11.5327C13.6198 11.9023 14.0612 12.0871 14.5892 12.0871ZM7.59638 5.21188C8.21422 5.21188 8.73497 4.99472 9.15864 4.5604C9.5823 4.12607 9.79413 3.57624 9.79413 2.91089C9.79413 2.26403 9.5823 1.71881 9.15864 1.27525C8.73497 0.831683 8.21422 0.609901 7.59638 0.609901C6.97853 0.609901 6.45778 0.831683 6.03411 1.27525C5.61045 1.71881 5.39862 2.26403 5.39862 2.91089C5.39862 3.57624 5.61045 4.12607 6.03411 4.5604C6.45778 4.99472 6.97853 5.21188 7.59638 5.21188Z" fill="black"/>
</g>
<defs>
<clipPath id="clip0_576_106">
<rect width="18" height="14" fill="white" transform="translate(0.5)"/>
</clipPath>
</defs>
</svg>
