<svg width="14" height="14" viewBox="0 0 14 14" fill="none" xmlns="http://www.w3.org/2000/svg">
<g clip-path="url(#clip0_576_112)">
<path d="M2.67881 14C2.34272 14 2.05008 13.8754 1.80091 13.6262C1.55174 13.3771 1.42715 13.0844 1.42715 12.7483V1.0894H0.5V0.57947H3.83775V0H9.58609V0.57947H12.9238V1.0894H11.9967V12.7483C11.9967 13.1003 11.8761 13.3969 11.6348 13.6381C11.3936 13.8794 11.097 14 10.745 14H2.67881ZM11.4868 1.0894H1.93709V12.7483C1.93709 12.9647 2.01049 13.1424 2.15728 13.2815C2.30408 13.4205 2.47792 13.4901 2.67881 13.4901H10.745C10.9305 13.4901 11.1004 13.4128 11.255 13.2583C11.4095 13.1038 11.4868 12.9338 11.4868 12.7483V1.0894ZM4.95033 11.5894H5.46027V2.96689H4.95033V11.5894ZM7.96358 11.5894H8.47351V2.96689H7.96358V11.5894Z"
fill="black"/>
</g>
<defs>
<clipPath id="clip0_576_112">
<rect width="13" height="14" fill="white" transform="translate(0.5)"/>
</clipPath>
</defs>
</svg>