<svg width="25" height="22" viewBox="0 0 25 22" fill="none" xmlns="http://www.w3.org/2000/svg">
<g clip-path="url(#clip0_576_87)">
<path d="M15.7668 0.166992H6.16683C5.2815 0.166992 4.52416 0.700325 4.20416 1.46833L0.982829 8.98833C0.886829 9.23366 0.833496 9.48966 0.833496 9.76699V11.9003C0.833496 13.0737 1.7935 14.0337 2.96683 14.0337H9.6975L8.68416 18.9083L8.65216 19.2497C8.65216 19.687 8.8335 20.0923 9.1215 20.3803L10.2522 21.5003L17.2815 14.471C17.6655 14.087 17.9002 13.5537 17.9002 12.967V2.30033C17.9002 1.12699 16.9402 0.166992 15.7668 0.166992ZM15.7668 12.967L11.1375 17.5963L12.5668 11.9003H2.96683V9.76699L6.16683 2.30033H15.7668V12.967ZM20.0335 0.166992H24.3002V12.967H20.0335V0.166992Z" fill="black"/>
</g>
<defs>
<clipPath id="clip0_576_87">
<rect width="24" height="22" fill="white" transform="translate(0.5)"/>
</clipPath>
</defs>
</svg>
