<svg width="17" height="14" viewBox="0 0 17 14" fill="none" xmlns="http://www.w3.org/2000/svg">
<g clip-path="url(#clip0_576_100)">
<path d="M4.26439 0H12.6376V8.86238L7.45719 14L7.37117 13.9538C7.30008 13.8847 7.24312 13.8038 7.20031 13.711C7.15749 13.6182 7.13609 13.5219 7.13609 13.422V13.3792L7.99235 8.86238H1.65596C1.36198 8.86238 1.09582 8.74322 0.857492 8.50489C0.619164 8.26656 0.5 8.00041 0.5 7.70642V6.59327C0.5 6.50765 0.514271 6.42915 0.542813 6.3578L2.85474 0.920489C2.9529 0.660041 3.14267 0.441514 3.42405 0.264908C3.70542 0.0883027 3.98554 0 4.26439 0ZM12.1667 0.470948H4.18196C4.02497 0.470948 3.86442 0.513761 3.70031 0.599388C3.53619 0.685015 3.41131 0.827727 3.32569 1.02752L0.970948 6.59327V7.70642C0.970948 7.89195 1.03517 8.0525 1.16361 8.18807C1.29205 8.32365 1.45617 8.39144 1.65596 8.39144H8.54893L7.60703 13.2294L12.1667 8.64832V0.470948ZM12.6376 8.86238V8.39144H15.763V0.470948H12.6376V0H16.2339V8.86238H12.6376Z" fill="black"/>
</g>
<defs>
<clipPath id="clip0_576_100">
<rect width="16" height="14" fill="white" transform="translate(0.5)"/>
</clipPath>
</defs>
</svg>