<svg width="24" height="23" viewBox="0 0 24 23" fill="none" xmlns="http://www.w3.org/2000/svg">
<path id="Vector" d="M5.70044 0H18.3278V14.1365L10.4548 22.17L9.6935 21.5767C9.58207 21.4786 9.49655 21.3496 9.43694 21.1899C9.37733 21.0302 9.34753 20.8441 9.34753 20.6317V20.4253L10.6314 14.1365H1.75418C1.30329 14.1365 0.903989 13.9627 0.556267 13.6149C0.208546 13.2672 0.0346845 12.8679 0.0346845 12.417V10.447C0.0346845 10.3206 0.0255146 10.1886 0.00717476 10.051C-0.0111651 9.91349 0.00565475 9.7828 0.0576342 9.65899L3.60666 1.42833C3.76779 1.02903 4.05034 0.691152 4.45434 0.414703C4.85831 0.138234 5.27368 0 5.70044 0ZM16.9752 1.35266H5.41786C5.33379 1.35266 5.24782 1.37559 5.15993 1.42145C5.07203 1.46731 5.00515 1.54374 4.95929 1.65073L1.38734 10.1152V12.417C1.38734 12.5164 1.42174 12.6024 1.49053 12.675C1.5593 12.7476 1.64718 12.7839 1.75418 12.7839H12.2867L10.8102 19.9416L16.9752 13.5634V1.35266ZM18.3278 14.1365V12.7839H22.4409V1.35266H18.3278V0H23.7935V14.1365H18.3278Z" fill="#FF0000"/>
</svg>
