<svg width="15" height="14" viewBox="0 0 15 14" fill="none" xmlns="http://www.w3.org/2000/svg">
<g clip-path="url(#clip0_576_128)">
<path d="M1.72727 14C1.3822 14 1.09139 13.8817 0.854841 13.6452C0.61828 13.4086 0.5 13.1178 0.5 12.7727V1.22727C0.5 0.882197 0.61828 0.591379 0.854841 0.354818C1.09139 0.118273 1.3822 0 1.72727 0H13.2727C13.6178 0 13.9086 0.118273 14.1452 0.354818C14.3817 0.591379 14.5 0.882197 14.5 1.22727V12.7727C14.5 13.1178 14.3817 13.4086 14.1452 13.6452C13.9086 13.8817 13.6178 14 13.2727 14H1.72727ZM1.72727 13.5H13.2727C13.4848 13.5 13.6591 13.4318 13.7955 13.2955C13.9318 13.1591 14 12.9848 14 12.7727V10.2045H10.4091C10.1364 10.7955 9.73331 11.25 9.19993 11.5682C8.66654 11.8864 8.09836 12.0455 7.49539 12.0455C6.8924 12.0455 6.32576 11.8864 5.79545 11.5682C5.26515 11.25 4.86364 10.7955 4.59091 10.2045H1V12.7727C1 12.9848 1.06818 13.1591 1.20455 13.2955C1.34091 13.4318 1.51515 13.5 1.72727 13.5ZM7.50395 11.5455C8.09223 11.5455 8.625 11.375 9.10227 11.0341C9.57955 10.6932 9.93182 10.25 10.1591 9.70455H14V1.22727C14 1.01515 13.9318 0.840909 13.7955 0.704545C13.6591 0.568182 13.4848 0.5 13.2727 0.5H1.72727C1.51515 0.5 1.34091 0.568182 1.20455 0.704545C1.06818 0.840909 1 1.01515 1 1.22727V9.70455H4.84091C5.06818 10.25 5.42177 10.6932 5.90168 11.0341C6.38159 11.375 6.91568 11.5455 7.50395 11.5455ZM7.5 7.84091L4.72727 5.06818L5.09091 4.72727L7.25 6.88636V2.31818H7.75V6.88636L9.90909 4.72727L10.2727 5.06818L7.5 7.84091ZM1.72727 13.5H1H14H1.72727Z" fill="black"/>
</g>
<defs>
<clipPath id="clip0_576_128">
<rect width="14" height="14" fill="white" transform="translate(0.5)"/>
</clipPath>
</defs>
</svg>