<svg width="33" height="32" viewBox="0 0 33 32" fill="none" xmlns="http://www.w3.org/2000/svg">
<path d="M9.36641 24.9333C8.8603 24.9333 8.43377 24.7599 8.08684 24.4129C7.73988 24.066 7.56641 23.6395 7.56641 23.1333V19.9667H8.29974V23.1333C8.29974 23.4 8.41085 23.6445 8.63307 23.8667C8.8553 24.0889 9.09974 24.2 9.36641 24.2H23.6331C23.8997 24.2 24.1442 24.0889 24.3664 23.8667C24.5886 23.6445 24.6997 23.4 24.6997 23.1333V19.9667H25.4331V23.1333C25.4331 23.6395 25.2596 24.066 24.9127 24.4129C24.5657 24.7599 24.1392 24.9333 23.6331 24.9333H9.36641ZM16.4997 20.0667L12.4331 16L12.9664 15.5L16.1331 18.6333V6.46667H16.8664V18.6333L20.0331 15.5L20.5664 16L16.4997 20.0667Z" fill="black"/>
</svg>
