<svg width="21" height="20" viewBox="0 0 21 20" fill="none" xmlns="http://www.w3.org/2000/svg">
<path d="M4.25 16.25H5.16667L14.3958 7.02079L13.4792 6.10413L4.25 15.3333V16.25ZM17.0417 6.12496L14.375 3.45829L15.25 2.58329C15.4861 2.34718 15.7778 2.22913 16.125 2.22913C16.4722 2.22913 16.7639 2.34718 17 2.58329L17.9167 3.49996C18.1528 3.73607 18.2708 4.02774 18.2708 4.37496C18.2708 4.72218 18.1528 5.01385 17.9167 5.24996L17.0417 6.12496ZM16.1667 6.99996L5.66667 17.5H3V14.8333L13.5 4.33329L16.1667 6.99996ZM13.9375 6.56246L13.4792 6.10413L14.3958 7.02079L13.9375 6.56246Z" fill="black"/>
</svg>
