<svg width="15" height="14" viewBox="0 0 15 14" fill="none" xmlns="http://www.w3.org/2000/svg">
<g clip-path="url(#clip0_576_108)">
<path d="M9.59195 11.6063V13.477C9.59195 13.6245 9.53496 13.7486 9.42098 13.8491C9.30699 13.9497 9.17625 14 9.02874 14H1.02299C0.875479 14 0.751437 13.9497 0.650862 13.8491C0.550287 13.7486 0.5 13.6245 0.5 13.477V8.79023C0.5 8.64272 0.550287 8.51868 0.650862 8.4181C0.751437 8.31753 0.875479 8.26724 1.02299 8.26724H3.75862V3.72126C3.75862 2.68423 4.11957 1.80476 4.84147 1.08285C5.56338 0.360949 6.44956 0 7.5 0H10.7989C11.8359 0 12.712 0.360949 13.4272 1.08285C14.1424 1.80476 14.5 2.68423 14.5 3.72126V14H14.0575V11.6063H9.59195ZM9.59195 11.1638H14.0575V3.72126C14.0575 2.80939 13.739 2.03496 13.102 1.39799C12.465 0.761015 11.6973 0.442529 10.7989 0.442529H7.5C6.58812 0.442529 5.81035 0.761015 5.16667 1.39799C4.52299 2.03496 4.20115 2.80939 4.20115 3.72126V8.26724H9.02874C9.17625 8.26724 9.30699 8.31753 9.42098 8.4181C9.53496 8.51868 9.59195 8.64272 9.59195 8.79023V11.1638ZM6.41379 4.76724V4.32471H11.8448V4.76724H6.41379ZM5.04598 11.0431L9.14943 8.70977H0.942529L5.04598 11.0431ZM5.04598 11.6063L0.942529 9.25287V13.5575H9.14943V9.25287L5.04598 11.6063Z" fill="black"/>
</g>
<defs>
<clipPath id="clip0_576_108">
<rect width="14" height="14" fill="white" transform="translate(0.5)"/>
</clipPath>
</defs>
</svg>
