<svg width="19" height="18" viewBox="0 0 19 18" fill="none" xmlns="http://www.w3.org/2000/svg">
<g clip-path="url(#clip0_576_91)">
<path d="M16.0743 0H2.92554C1.58598 0 0.5 1.08593 0.5 2.42554V15.5744C0.5 16.914 1.58593 17.9999 2.92554 17.9999H9.41044L9.42149 11.5677H7.75041C7.53324 11.5677 7.35698 11.3921 7.35614 11.1749L7.34813 9.10158C7.34729 8.88323 7.52408 8.70577 7.74244 8.70577H9.41048V6.70238C9.41048 4.37746 10.8304 3.11152 12.9044 3.11152H14.6062C14.824 3.11152 15.0006 3.28805 15.0006 3.50583V5.2541C15.0006 5.4718 14.8241 5.64828 14.6065 5.64841L13.5621 5.6489C12.4342 5.6489 12.2158 6.18486 12.2158 6.97142V8.70582H14.6941C14.9303 8.70582 15.1135 8.91202 15.0857 9.14654L14.8399 11.2199C14.8164 11.4183 14.6482 11.5678 14.4484 11.5678H12.2268L12.2158 18H16.0744C17.4139 18 18.4999 16.9141 18.4999 15.5745V2.42554C18.4998 1.08593 17.4139 0 16.0743 0Z" fill="#475993"/>
</g>
<defs>
<clipPath id="clip0_576_91">
<rect width="18" height="18" fill="white" transform="translate(0.5)"/>
</clipPath>
</defs>
</svg>
