<svg width="19" height="18" viewBox="0 0 19 18" fill="none" xmlns="http://www.w3.org/2000/svg">
<g clip-path="url(#clip0_576_93)">
<path d="M18.14 9.20009C18.14 8.4601 18.08 7.9201 17.95 7.36011H9.5V10.7001H14.46C14.36 11.5301 13.82 12.7801 12.62 13.6201L12.6032 13.7319L15.2749 15.8016L15.46 15.8201C17.16 14.2501 18.14 11.9401 18.14 9.20009Z" fill="#4285F4"/>
<path d="M9.49998 18C11.9299 18 13.9699 17.2 15.46 15.82L12.62 13.62C11.86 14.15 10.84 14.52 9.49998 14.52C7.12 14.52 5.10001 12.95 4.37995 10.78L4.2744 10.789L1.49629 12.939L1.45996 13.04C2.93995 15.98 5.97995 18 9.49998 18Z" fill="#34A853"/>
<path d="M4.37996 10.7801C4.18997 10.2201 4.08001 9.62004 4.08001 9.00008C4.08001 8.38004 4.18997 7.78006 4.36997 7.22007L4.36493 7.1008L1.55201 4.91626L1.45998 4.96004C0.850004 6.18005 0.5 7.55008 0.5 9.00008C0.5 10.4501 0.850004 11.82 1.45998 13.04L4.37996 10.7801Z" fill="#FBBC05"/>
<path d="M9.49998 3.47998C11.19 3.47998 12.3299 4.20997 12.98 4.82002L15.52 2.34C13.96 0.890004 11.9299 0 9.49998 0C5.97995 0 2.93995 2.01998 1.45996 4.95996L4.36995 7.21999C5.10001 5.05 7.12 3.47998 9.49998 3.47998Z" fill="#EB4335"/>
</g>
<defs>
<clipPath id="clip0_576_93">
<rect width="18" height="18" fill="white" transform="translate(0.5)"/>
</clipPath>
</defs>
</svg>
