<svg width="23" height="14" viewBox="0 0 23 14" fill="none" xmlns="http://www.w3.org/2000/svg">
<g clip-path="url(#clip0_576_102)">
<path d="M16.3857 4.82857V4.2H21.7V4.82857H16.3857ZM8.15714 6C7.30857 6 6.59643 5.71214 6.02071 5.13643C5.445 4.56072 5.15714 3.84381 5.15714 2.98571C5.15714 2.12762 5.445 1.41548 6.02071 0.849285C6.59643 0.283095 7.30857 0 8.15714 0C9.00571 0 9.71786 0.283095 10.2936 0.849285C10.8693 1.41548 11.1571 2.12762 11.1571 2.98571C11.1571 3.84381 10.8693 4.56072 10.2936 5.13643C9.71786 5.71214 9.00571 6 8.15714 6ZM0.5 14V12.6571C0.5 12.2381 0.628571 11.8429 0.885714 11.4714C1.14286 11.1 1.5 10.8095 1.95714 10.6C3.08095 10.1048 4.1455 9.7381 5.15077 9.5C6.15605 9.2619 7.15605 9.14286 8.15077 9.14286C9.1455 9.14286 10.1476 9.2619 11.1571 9.5C12.1667 9.7381 13.2333 10.1048 14.3571 10.6C14.8143 10.8286 15.1714 11.1238 15.4286 11.4857C15.6857 11.8476 15.8143 12.2381 15.8143 12.6571V14H0.5ZM1.12857 13.3714H15.1857V12.6571C15.1857 12.3714 15.0857 12.0952 14.8857 11.8286C14.6857 11.5619 14.4048 11.3333 14.0429 11.1429C13.0333 10.6667 12.0554 10.319 11.1089 10.1C10.1625 9.88095 9.17859 9.77143 8.15714 9.77143C7.1357 9.77143 6.147 9.88095 5.19106 10.1C4.23511 10.319 3.2619 10.6667 2.27143 11.1429C1.89048 11.3333 1.60476 11.5619 1.41429 11.8286C1.22381 12.0952 1.12857 12.3714 1.12857 12.6571V13.3714ZM8.15714 5.37143C8.82381 5.37143 9.38571 5.14286 9.84286 4.68571C10.3 4.22857 10.5286 3.66667 10.5286 3C10.5286 2.33333 10.3 1.77143 9.84286 1.31429C9.38571 0.857143 8.82381 0.628571 8.15714 0.628571C7.49048 0.628571 6.92857 0.857143 6.47143 1.31429C6.01429 1.77143 5.78571 2.33333 5.78571 3C5.78571 3.66667 6.01429 4.22857 6.47143 4.68571C6.92857 5.14286 7.49048 5.37143 8.15714 5.37143Z" fill="black"/>
</g>
<defs>
<clipPath id="clip0_576_102">
<rect width="22" height="14" fill="white" transform="translate(0.5)"/>
</clipPath>
</defs>
</svg>
