<svg width="19" height="18" viewBox="0 0 19 18" fill="none" xmlns="http://www.w3.org/2000/svg">
<path d="M2.17574 8.50233H5.31512C5.22965 7.77246 5.02778 7.07435 4.7095 6.40802C4.39124 5.74169 3.98863 5.16785 3.50167 4.68651C3.12605 5.22633 2.81707 5.81563 2.57471 6.4544C2.33236 7.09319 2.19937 7.77583 2.17574 8.50233ZM13.6855 8.50233H16.8249C16.8013 7.78145 16.6683 7.10302 16.4259 6.46706C16.1836 5.83109 15.8746 5.2432 15.499 4.70339C14.9625 5.22858 14.5475 5.81057 14.254 6.44936C13.9605 7.08813 13.771 7.77246 13.6855 8.50233ZM3.50167 13.283C4.02125 12.7578 4.43201 12.1781 4.73397 11.5438C5.03593 10.9095 5.22965 10.2275 5.31512 9.49759H2.17574C2.20498 10.2241 2.33938 10.9017 2.57893 11.5303C2.81847 12.159 3.12605 12.7432 3.50167 13.283ZM15.499 13.283C15.8746 12.7432 16.1836 12.1576 16.4259 11.5261C16.6683 10.8946 16.8013 10.2185 16.8249 9.49759H13.6855C13.771 10.2275 13.9605 10.9095 14.254 11.5438C14.5475 12.1781 14.9625 12.7578 15.499 13.283ZM6.31543 8.50233H9.00269V1.67538C8.0569 1.7496 7.17465 1.98212 6.35593 2.37292C5.5372 2.76373 4.80789 3.28583 4.16799 3.93922C4.77303 4.53864 5.25998 5.23028 5.62885 6.01414C5.99772 6.79799 6.22658 7.62738 6.31543 8.50233ZM9.99796 8.50233H12.6852C12.7741 7.62738 13.0038 6.79658 13.3743 6.00991C13.7449 5.22325 14.2355 4.53303 14.8462 3.93922C14.2119 3.28583 13.4817 2.76373 12.6557 2.37292C11.8297 1.98212 10.9437 1.7496 9.99796 1.67538V8.50233ZM9.00269 16.3245V9.49759H6.31543C6.22658 10.3838 5.99913 11.2123 5.63308 11.9833C5.26701 12.7542 4.77865 13.4365 4.16799 14.0303C4.80789 14.6837 5.52173 15.2109 6.30953 15.6118C7.09732 16.0127 7.99504 16.2503 9.00269 16.3245ZM9.99796 16.3245C11 16.2503 11.8999 16.0155 12.6979 15.6202C13.4958 15.2249 14.2119 14.7006 14.8462 14.0472C14.2355 13.4534 13.7449 12.7682 13.3743 11.9917C13.0038 11.2151 12.7741 10.3838 12.6852 9.49759H9.99796V16.3245ZM9.50033 17.3333C8.34873 17.3333 7.26601 17.1143 6.25218 16.6762C5.23835 16.2382 4.35638 15.6441 3.60627 14.894C2.85616 14.1439 2.26208 13.2619 1.82406 12.2481C1.38601 11.2343 1.16699 10.1516 1.16699 8.99996C1.16699 7.84836 1.38601 6.76565 1.82406 5.75182C2.26208 4.73798 2.85616 3.85601 3.60627 3.10591C4.35638 2.35579 5.23835 1.76172 6.25218 1.32369C7.26601 0.885648 8.34873 0.666626 9.50033 0.666626C10.6519 0.666626 11.7346 0.885648 12.7485 1.32369C13.7623 1.76172 14.6443 2.35579 15.3944 3.10591C16.1445 3.85601 16.7386 4.73798 17.1766 5.75182C17.6146 6.76565 17.8337 7.84836 17.8337 8.99996C17.8337 10.1516 17.6146 11.2343 17.1766 12.2481C16.7386 13.2619 16.1445 14.1439 15.3944 14.894C14.6443 15.6441 13.7623 16.2382 12.7485 16.6762C11.7346 17.1143 10.6519 17.3333 9.50033 17.3333Z" fill="black"/>
</svg>
