<svg width="15" height="18" viewBox="0 0 15 18" fill="none" xmlns="http://www.w3.org/2000/svg">
<g clip-path="url(#clip0_576_151)">
<path d="M7.64036 8.71754C8.03329 8.71754 8.36829 8.57763 8.64536 8.29783C8.92244 8.01802 9.06099 7.68165 9.06099 7.28874C9.06099 6.8958 8.92108 6.56081 8.64126 6.28374C8.36145 6.00665 8.02508 5.86811 7.63216 5.86811C7.23923 5.86811 6.90423 6.00802 6.62717 6.28784C6.35008 6.56765 6.21154 6.90402 6.21154 7.29693C6.21154 7.68986 6.35145 8.02486 6.63126 8.30193C6.91108 8.579 7.24745 8.71754 7.64036 8.71754ZM7.63626 16.0148C9.46732 14.3816 10.8623 12.8242 11.8211 11.3428C12.7799 9.86127 13.2593 8.56694 13.2593 7.45975C13.2593 5.7675 12.7218 4.37664 11.6469 3.28717C10.572 2.19769 9.23512 1.65295 7.63626 1.65295C6.0374 1.65295 4.70052 2.19769 3.62563 3.28717C2.55071 4.37664 2.01326 5.7675 2.01326 7.45975C2.01326 8.56694 2.50081 9.86127 3.47592 11.3428C4.45103 12.8242 5.83781 14.3816 7.63626 16.0148ZM7.63626 17.3333C5.42978 15.4213 3.7752 13.642 2.67251 11.9953C1.56983 10.3485 1.01849 8.8367 1.01849 7.45975C1.01849 5.43649 1.67297 3.79849 2.98191 2.54575C4.29085 1.293 5.8423 0.666626 7.63626 0.666626C9.43023 0.666626 10.9817 1.293 12.2906 2.54575C13.5996 3.79849 14.254 5.43649 14.254 7.45975C14.254 8.8367 13.7027 10.3485 12.6 11.9953C11.4973 13.642 9.84274 15.4213 7.63626 17.3333Z" fill="black"/>
</g>
<defs>
<clipPath id="clip0_576_151">
<rect width="14" height="18" fill="white" transform="translate(0.5)"/>
</clipPath>
</defs>
</svg>
