<svg width="12" height="14" viewBox="0 0 12 14" fill="none" xmlns="http://www.w3.org/2000/svg">
<g clip-path="url(#clip0_576_146)">
<path d="M1.60526 14C1.30848 14 1.05007 13.89 0.830044 13.67C0.610015 13.4499 0.5 13.1915 0.5 12.8947V5.81287C0.5 5.50551 0.610015 5.24445 0.830044 5.0297C1.05007 4.81497 1.30848 4.7076 1.60526 4.7076H3.01754V2.96784C3.01754 2.13882 3.30527 1.43692 3.88073 0.862146C4.45619 0.287382 5.15892 0 5.98892 0C6.81892 0 7.52047 0.287382 8.09357 0.862146C8.66667 1.43692 8.95322 2.13882 8.95322 2.96784V4.7076H10.3655C10.6623 4.7076 10.9207 4.81497 11.1407 5.0297C11.3607 5.24445 11.4708 5.50551 11.4708 5.81287V12.8947C11.4708 13.1915 11.3607 13.4499 11.1407 13.67C10.9207 13.89 10.6623 14 10.3655 14H1.60526ZM1.60526 13.5497H10.3655C10.5565 13.5497 10.7135 13.4883 10.8363 13.3655C10.9591 13.2427 11.0205 13.0858 11.0205 12.8947V5.81287C11.0205 5.62183 10.9591 5.46491 10.8363 5.34211C10.7135 5.2193 10.5565 5.15789 10.3655 5.15789H1.60526C1.41423 5.15789 1.25731 5.2193 1.1345 5.34211C1.0117 5.46491 0.950292 5.62183 0.950292 5.81287V12.8947C0.950292 13.0858 1.0117 13.2427 1.1345 13.3655C1.25731 13.4883 1.41423 13.5497 1.60526 13.5497ZM5.98882 10.4386C6.28672 10.4386 6.54142 10.3326 6.75292 10.1207C6.96443 9.90879 7.07018 9.65315 7.07018 9.3538C7.07018 9.06725 6.96328 8.81481 6.74949 8.59649C6.53569 8.37817 6.27984 8.26901 5.98194 8.26901C5.68404 8.26901 5.42934 8.37817 5.21784 8.59649C5.00634 8.81481 4.90058 9.07066 4.90058 9.36404C4.90058 9.65741 5.00748 9.90984 5.22127 10.1213C5.43507 10.3328 5.69092 10.4386 5.98882 10.4386ZM3.46784 4.7076H8.50292V2.96784C8.50292 2.26852 8.25852 1.6741 7.7697 1.18458C7.28088 0.695054 6.6873 0.450292 5.98898 0.450292C5.29067 0.450292 4.69591 0.695054 4.20468 1.18458C3.71345 1.6741 3.46784 2.26852 3.46784 2.96784V4.7076Z" fill="black"/>
</g>
<defs>
<clipPath id="clip0_576_146">
<rect width="11" height="14" fill="white" transform="translate(0.5)"/>
</clipPath>
</defs>
</svg>
