<svg width="27" height="20" viewBox="0 0 27 20" fill="none" xmlns="http://www.w3.org/2000/svg">
<g clip-path="url(#clip0_576_162)">
<path d="M2.51493 20C1.94838 20 1.47093 19.8058 1.08258 19.4174C0.694192 19.0291 0.5 18.5516 0.5 17.9851V2.01493C0.5 1.44838 0.694192 0.97092 1.08258 0.582537C1.47093 0.194179 1.94838 0 2.51493 0H24.4552C25.0218 0 25.4992 0.194179 25.8876 0.582537C26.276 0.97092 26.4701 1.44838 26.4701 2.01493V17.9851C26.4701 18.5516 26.276 19.0291 25.8876 19.4174C25.4992 19.8058 25.0218 20 24.4552 20H2.51493ZM13.4851 9.51493L1.3209 1.34328V17.9851C1.3209 18.3333 1.43284 18.6194 1.65672 18.8433C1.8806 19.0672 2.16667 19.1791 2.51493 19.1791H24.4552C24.8035 19.1791 25.0896 19.0672 25.3134 18.8433C25.5373 18.6194 25.6493 18.3333 25.6493 17.9851V1.34328L13.4851 9.51493ZM13.4851 8.47015L25.0149 0.820895H1.99254L13.4851 8.47015ZM1.3209 1.34328V0.820895V17.9851C1.3209 18.3333 1.43284 18.6194 1.65672 18.8433C1.8806 19.0672 2.16667 19.1791 2.51493 19.1791H1.3209V1.34328Z" fill="black"/>
</g>
<defs>
<clipPath id="clip0_576_162">
<rect width="26" height="20" fill="white" transform="translate(0.5)"/>
</clipPath>
</defs>
</svg>
