<svg width="21" height="20" viewBox="0 0 21 20" fill="none" xmlns="http://www.w3.org/2000/svg">
<g clip-path="url(#clip0_576_180)">
<path d="M1.98288 20C1.57718 20 1.22861 19.8542 0.937165 19.5625C0.645722 19.2708 0.5 18.922 0.5 18.516C0.5 18.1099 0.645722 17.7611 0.937165 17.4694C1.22861 17.1777 1.57718 17.0319 1.98288 17.0319C2.38861 17.0319 2.7372 17.1777 3.02864 17.4694C3.32006 17.7611 3.46577 18.1099 3.46577 18.516C3.46577 18.922 3.32006 19.2708 3.02864 19.5625C2.7372 19.8542 2.38861 20 1.98288 20ZM10.4922 20C10.0865 20 9.73795 19.8542 9.4465 19.5625C9.15506 19.2708 9.00934 18.922 9.00934 18.516C9.00934 18.1099 9.15506 17.7611 9.4465 17.4694C9.73795 17.1777 10.0865 17.0319 10.4922 17.0319C10.8979 17.0319 11.2465 17.1777 11.5379 17.4694C11.8294 17.7611 11.9751 18.1099 11.9751 18.516C11.9751 18.922 11.8294 19.2708 11.5379 19.5625C11.2465 19.8542 10.8979 20 10.4922 20ZM19.0016 20C18.5958 20 18.2473 19.8542 17.9558 19.5625C17.6644 19.2708 17.5187 18.922 17.5187 18.516C17.5187 18.1099 17.6644 17.7611 17.9558 17.4694C18.2473 17.1777 18.5958 17.0319 19.0016 17.0319C19.4073 17.0319 19.7558 17.1777 20.0473 17.4694C20.3387 17.7611 20.4844 18.1099 20.4844 18.516C20.4844 18.922 20.3387 19.2708 20.0473 19.5625C19.7558 19.8542 19.4073 20 19.0016 20ZM1.98288 11.484C1.57718 11.484 1.22861 11.3382 0.937165 11.0465C0.645722 10.7549 0.5 10.406 0.5 10C0.5 9.59398 0.645722 9.24514 0.937165 8.95347C1.22861 8.6618 1.57718 8.51596 1.98288 8.51596C2.38861 8.51596 2.7372 8.6618 3.02864 8.95347C3.32006 9.24514 3.46577 9.59398 3.46577 10C3.46577 10.406 3.32006 10.7549 3.02864 11.0465C2.7372 11.3382 2.38861 11.484 1.98288 11.484ZM10.4922 11.484C10.0865 11.484 9.73795 11.3382 9.4465 11.0465C9.15506 10.7549 9.00934 10.406 9.00934 10C9.00934 9.59398 9.15506 9.24514 9.4465 8.95347C9.73795 8.6618 10.0865 8.51596 10.4922 8.51596C10.8979 8.51596 11.2465 8.6618 11.5379 8.95347C11.8294 9.24514 11.9751 9.59398 11.9751 10C11.9751 10.406 11.8294 10.7549 11.5379 11.0465C11.2465 11.3382 10.8979 11.484 10.4922 11.484ZM19.0016 11.484C18.5958 11.484 18.2473 11.3382 17.9558 11.0465C17.6644 10.7549 17.5187 10.406 17.5187 10C17.5187 9.59398 17.6644 9.24514 17.9558 8.95347C18.2473 8.6618 18.5958 8.51596 19.0016 8.51596C19.4073 8.51596 19.7558 8.6618 20.0473 8.95347C20.3387 9.24514 20.4844 9.59398 20.4844 10C20.4844 10.406 20.3387 10.7549 20.0473 11.0465C19.7558 11.3382 19.4073 11.484 19.0016 11.484ZM1.98288 2.96808C1.57718 2.96808 1.22861 2.82225 0.937165 2.53061C0.645722 2.23894 0.5 1.89008 0.5 1.48404C0.5 1.07802 0.645722 0.729175 0.937165 0.437505C1.22861 0.145835 1.57718 0 1.98288 0C2.38861 0 2.7372 0.145835 3.02864 0.437505C3.32006 0.729175 3.46577 1.07802 3.46577 1.48404C3.46577 1.89008 3.32006 2.23894 3.02864 2.53061C2.7372 2.82225 2.38861 2.96808 1.98288 2.96808ZM10.4922 2.96808C10.0865 2.96808 9.73795 2.82225 9.4465 2.53061C9.15506 2.23894 9.00934 1.89008 9.00934 1.48404C9.00934 1.07802 9.15506 0.729175 9.4465 0.437505C9.73795 0.145835 10.0865 0 10.4922 0C10.8979 0 11.2465 0.145835 11.5379 0.437505C11.8294 0.729175 11.9751 1.07802 11.9751 1.48404C11.9751 1.89008 11.8294 2.23894 11.5379 2.53061C11.2465 2.82225 10.8979 2.96808 10.4922 2.96808ZM19.0016 2.96808C18.5958 2.96808 18.2473 2.82225 17.9558 2.53061C17.6644 2.23894 17.5187 1.89008 17.5187 1.48404C17.5187 1.07802 17.6644 0.729175 17.9558 0.437505C18.2473 0.145835 18.5958 0 19.0016 0C19.4073 0 19.7558 0.145835 20.0473 0.437505C20.3387 0.729175 20.4844 1.07802 20.4844 1.48404C20.4844 1.89008 20.3387 2.23894 20.0473 2.53061C19.7558 2.82225 19.4073 2.96808 19.0016 2.96808Z" fill="black"/>
</g>
<defs>
<clipPath id="clip0_576_180">
<rect width="20" height="20" fill="white" transform="translate(0.5)"/>
</clipPath>
</defs>
</svg>
