<svg width="18" height="20" viewBox="0 0 18 20" fill="none" xmlns="http://www.w3.org/2000/svg">
<g clip-path="url(#clip0_576_142)">
<path d="M0.5 16.8815V16.0499H2.70617V7.61331C2.70617 6.16609 3.15869 4.89126 4.06374 3.78881C4.9688 2.68636 6.13663 2.0097 7.56725 1.75884V0.995837C7.56725 0.691152 7.66385 0.449009 7.85705 0.269406C8.05025 0.0898022 8.2985 0 8.60179 0C8.90509 0 9.15333 0.0898022 9.34654 0.269406C9.53974 0.449009 9.63634 0.691152 9.63634 0.995837V1.75884C11.067 2.0097 12.2358 2.68636 13.143 3.78881C14.0501 4.89126 14.5037 6.16609 14.5037 7.61331V16.0499H16.7036V16.8815H0.5ZM8.60179 20C8.13646 20 7.72929 19.8333 7.38029 19.5C7.0313 19.1666 6.8568 18.7512 6.8568 18.2536H10.3468C10.3468 18.7512 10.1802 19.1666 9.84717 19.5C9.5141 19.8333 9.09897 20 8.60179 20ZM3.53715 16.0498H13.6727V7.61329C13.6727 6.19679 13.1824 4.99581 12.2019 4.01037C11.2214 3.02493 10.0234 2.53221 8.60803 2.53221C7.19263 2.53221 5.99364 3.02493 5.01105 4.01037C4.02845 4.99581 3.53715 6.19679 3.53715 7.61329V16.0498Z" fill="black"/>
</g>
<defs>
<clipPath id="clip0_576_142">
<rect width="17" height="20" fill="white" transform="translate(0.5)"/>
</clipPath>
</defs>
</svg>
