<svg width="25" height="24" viewBox="0 0 25 24" fill="none" xmlns="http://www.w3.org/2000/svg">
<path d="M10.5671 15.1654L15.5462 11.9856L10.5671 8.80589V15.1654ZM12.3708 20.5635C11.1848 20.5635 10.0737 20.3385 9.03745 19.8883C8.00122 19.4382 7.09272 18.8232 6.31188 18.0434C5.53107 17.2636 4.91534 16.3562 4.46466 15.3213C4.01399 14.2864 3.78862 13.1759 3.78862 11.9899C3.78862 10.8039 4.0137 9.68867 4.4638 8.64423C4.91393 7.59978 5.52891 6.69128 6.30872 5.91869C7.08857 5.1461 7.99595 4.53444 9.03085 4.08376C10.0657 3.63308 11.1762 3.40774 12.3622 3.40774C13.5482 3.40774 14.6635 3.63279 15.7079 4.0829C16.7523 4.53303 17.6609 5.14391 18.4334 5.91551C19.206 6.68713 19.8177 7.59451 20.2684 8.63763C20.7191 9.68074 20.9444 10.7953 20.9444 11.9813C20.9444 13.1673 20.7193 14.2785 20.2692 15.3147C19.8191 16.3509 19.2082 17.2594 18.4366 18.0403C17.665 18.8211 16.7576 19.4368 15.7145 19.8875C14.6714 20.3382 13.5568 20.5635 12.3708 20.5635ZM12.3665 20.0212C14.6014 20.0212 16.4994 19.2407 18.0605 17.6795C19.6216 16.1185 20.4021 14.2205 20.4021 11.9856C20.4021 9.75076 19.6216 7.8528 18.0605 6.29168C16.4994 4.73058 14.6014 3.95001 12.3665 3.95001C10.1317 3.95001 8.23368 4.73058 6.67259 6.29168C5.11146 7.8528 4.33092 9.75076 4.33092 11.9856C4.33092 14.2205 5.11146 16.1185 6.67259 17.6795C8.23368 19.2407 10.1317 20.0212 12.3665 20.0212Z" fill="black"/>
</svg>
