<svg width="33" height="32" viewBox="0 0 33 32" fill="none" xmlns="http://www.w3.org/2000/svg">
<path d="M22.0004 11.6667V7.53332H11.0004V11.6667H10.2671V6.79999H22.7337V11.6667H22.0004ZM24.0171 15.6667C24.3615 15.6667 24.6559 15.5442 24.9004 15.2994C25.1448 15.0546 25.2671 14.7657 25.2671 14.4327C25.2671 14.0998 25.1447 13.8111 24.9 13.5667C24.6552 13.3222 24.3665 13.2 24.0337 13.2C23.6782 13.2 23.3837 13.3224 23.1504 13.5673C22.9171 13.8121 22.8004 14.101 22.8004 14.4339C22.8004 14.7669 22.9171 15.0555 23.1504 15.3C23.3837 15.5444 23.6726 15.6667 24.0171 15.6667ZM22.0004 25.5333V18.9333H11.0004V25.5333H22.0004ZM22.7337 26.2667H10.2671V20.7667H5.90039V13.7667C5.90039 13.19 6.10595 12.6958 6.51706 12.2842C6.92817 11.8725 7.43372 11.6667 8.03372 11.6667H24.9671C25.5715 11.6667 26.0782 11.8725 26.4871 12.2842C26.8959 12.6958 27.1004 13.19 27.1004 13.7667V20.7667H22.7337V26.2667ZM26.3671 20.0333V13.7595C26.3671 13.3865 26.2329 13.0667 25.9646 12.8C25.6962 12.5333 25.3637 12.4 24.9671 12.4H8.03372C7.63706 12.4 7.30456 12.5358 7.03622 12.8075C6.76789 13.0792 6.63372 13.3989 6.63372 13.7667V20.0333H10.2671V18.2H22.7337V20.0333H26.3671Z" fill="black"/>
</svg>
