<svg width="20" height="18" viewBox="0 0 20 18" fill="none" xmlns="http://www.w3.org/2000/svg">
<g clip-path="url(#clip0_576_164)">
<mask id="mask0_576_164" style="mask-type:luminance" maskUnits="userSpaceOnUse" x="0" y="0" width="20" height="18">
<path d="M19.5 0H0.5V18H19.5V0Z" fill="white"/>
</mask>
<g mask="url(#mask0_576_164)">
<path d="M9.929 8.41801C8.8045 8.41801 7.87742 8.05319 7.14777 7.32354C6.41813 6.5939 6.05331 5.66495 6.05331 4.53671C6.05331 3.40845 6.41813 2.48136 7.14777 1.75546C7.87742 1.02957 8.8045 0.666626 9.929 0.666626C11.0535 0.666626 11.9806 1.02957 12.7102 1.75546C13.4398 2.48136 13.8047 3.40845 13.8047 4.53671C13.8047 5.66495 13.4398 6.5939 12.7102 7.32354C11.9806 8.05319 11.0535 8.41801 9.929 8.41801ZM1.1665 17.3333V15.1157C1.1665 14.4881 1.33277 13.9414 1.6653 13.4756C1.99783 13.0098 2.42996 12.6518 2.96171 12.4016C4.19145 11.8549 5.37688 11.443 6.51801 11.1659C7.65917 10.8888 8.79604 10.7502 9.92865 10.7502C11.0613 10.7502 12.1952 10.8918 13.3306 11.1749C14.466 11.458 15.6461 11.8695 16.871 12.4096C17.4235 12.6591 17.865 13.0155 18.1956 13.4791C18.5262 13.9426 18.6915 14.4881 18.6915 15.1157V17.3333H1.1665ZM2.4921 16.0077H17.3659V15.1157C17.3659 14.8117 17.2696 14.5203 17.0772 14.2417C16.8847 13.9631 16.6334 13.7444 16.3233 13.5856C15.1745 13.0269 14.0908 12.6356 13.0724 12.4117C12.0539 12.1878 11.0061 12.0758 9.929 12.0758C8.85183 12.0758 7.79616 12.1878 6.76199 12.4117C5.72782 12.6356 4.64604 13.0269 3.51664 13.5856C3.20659 13.7444 2.95832 13.9631 2.77183 14.2417C2.58534 14.5203 2.4921 14.8117 2.4921 15.1157V16.0077ZM9.929 7.09245C10.6584 7.09245 11.2658 6.84978 11.7511 6.36446C12.2364 5.87915 12.4791 5.27177 12.4791 4.54232C12.4791 3.81287 12.2364 3.20549 11.7511 2.72018C11.2658 2.23487 10.6584 1.99222 9.929 1.99222C9.19955 1.99222 8.59217 2.23487 8.10686 2.72018C7.62155 3.20549 7.3789 3.81287 7.3789 4.54232C7.3789 5.27177 7.62155 5.87915 8.10686 6.36446C8.59217 6.84978 9.19955 7.09245 9.929 7.09245Z" fill="black"/>
</g>
</g>
<defs>
<clipPath id="clip0_576_164">
<rect width="19" height="18" fill="white" transform="translate(0.5)"/>
</clipPath>
</defs>
</svg>
