<svg width="20" height="18" viewBox="0 0 20 18" fill="none" xmlns="http://www.w3.org/2000/svg">
<g clip-path="url(#clip0_576_140)">
<path d="M2.61486 17.3333C2.24138 17.3333 1.91907 17.1977 1.64793 16.9266C1.37678 16.6554 1.24121 16.3331 1.24121 15.9596V5.21422C1.24121 4.84076 1.37678 4.51846 1.64793 4.24731C1.91907 3.97617 2.24138 3.8406 2.61486 3.8406H7.12953V2.04025C7.12953 1.66677 7.2651 1.34447 7.53625 1.07334C7.80738 0.802199 8.12968 0.666626 8.50316 0.666626H12.0746C12.448 0.666626 12.7703 0.802199 13.0415 1.07334C13.3126 1.34447 13.4482 1.66677 13.4482 2.04025V3.8406H17.9629C18.3363 3.8406 18.6586 3.97617 18.9298 4.24731C19.2009 4.51846 19.3365 4.84076 19.3365 5.21422V15.9596C19.3365 16.3331 19.2009 16.6554 18.9298 16.9266C18.6586 17.1977 18.3363 17.3333 17.9629 17.3333H2.61486ZM8.21011 3.8406H12.3676V2.04025C12.3676 1.96698 12.3371 1.89982 12.276 1.83878C12.215 1.77771 12.1478 1.74718 12.0746 1.74718H8.50316C8.42989 1.74718 8.36273 1.77771 8.30168 1.83878C8.24063 1.89982 8.21011 1.96698 8.21011 2.04025V3.8406ZM18.2559 11.6684H12.1625V12.9871H8.44454V11.6684H2.32179V15.9596C2.32179 16.0329 2.35231 16.1001 2.41336 16.1611C2.47442 16.2222 2.54159 16.2527 2.61486 16.2527H17.9629C18.0361 16.2527 18.1033 16.2222 18.1644 16.1611C18.2254 16.1001 18.2559 16.0329 18.2559 15.9596V11.6684ZM9.52512 11.9065H11.0819V10.3498H9.52512V11.9065ZM2.32179 10.5879H8.44454V9.2692H12.1625V10.5879H18.2559V5.21422C18.2559 5.14097 18.2254 5.07381 18.1644 5.01275C18.1033 4.9517 18.0361 4.92117 17.9629 4.92117H2.61486C2.54159 4.92117 2.47442 4.9517 2.41336 5.01275C2.35231 5.07381 2.32179 5.14097 2.32179 5.21422V10.5879Z" fill="black"/>
</g>
<defs>
<clipPath id="clip0_576_140">
<rect width="19" height="18" fill="white" transform="translate(0.5)"/>
</clipPath>
</defs>
</svg>
