<svg width="20" height="18" viewBox="0 0 20 18" fill="none" xmlns="http://www.w3.org/2000/svg">
<path d="M9.92918 8.41801C8.80468 8.41801 7.8776 8.05319 7.14795 7.32354C6.41831 6.5939 6.05349 5.66495 6.05349 4.53671C6.05349 3.40845 6.41831 2.48136 7.14795 1.75546C7.8776 1.02957 8.80468 0.666626 9.92918 0.666626C11.0537 0.666626 11.9808 1.02957 12.7104 1.75546C13.44 2.48136 13.8049 3.40845 13.8049 4.53671C13.8049 5.66495 13.44 6.5939 12.7104 7.32354C11.9808 8.05319 11.0537 8.41801 9.92918 8.41801ZM1.16669 17.3333V15.1157C1.16669 14.4881 1.33295 13.9414 1.66548 13.4756C1.99801 13.0098 2.43014 12.6518 2.96189 12.4016C4.19163 11.8549 5.37706 11.443 6.51819 11.1659C7.65935 10.8888 8.79622 10.7502 9.92883 10.7502C11.0615 10.7502 12.1954 10.8918 13.3308 11.1749C14.4662 11.458 15.6463 11.8695 16.8712 12.4096C17.4237 12.6591 17.8652 13.0155 18.1958 13.4791C18.5264 13.9426 18.6917 14.4881 18.6917 15.1157V17.3333H1.16669ZM2.49228 16.0077H17.3661V15.1157C17.3661 14.8117 17.2698 14.5203 17.0774 14.2417C16.8849 13.9631 16.6336 13.7444 16.3235 13.5856C15.1747 13.0269 14.091 12.6356 13.0726 12.4117C12.0541 12.1878 11.0063 12.0758 9.92918 12.0758C8.85201 12.0758 7.79634 12.1878 6.76217 12.4117C5.728 12.6356 4.64622 13.0269 3.51682 13.5856C3.20677 13.7444 2.9585 13.9631 2.77201 14.2417C2.58552 14.5203 2.49228 14.8117 2.49228 15.1157V16.0077ZM9.92918 7.09245C10.6586 7.09245 11.266 6.84978 11.7513 6.36446C12.2366 5.87915 12.4793 5.27177 12.4793 4.54232C12.4793 3.81287 12.2366 3.20549 11.7513 2.72018C11.266 2.23487 10.6586 1.99222 9.92918 1.99222C9.19973 1.99222 8.59235 2.23487 8.10704 2.72018C7.62173 3.20549 7.37908 3.81287 7.37908 4.54232C7.37908 5.27177 7.62173 5.87915 8.10704 6.36446C8.59235 6.84978 9.19973 7.09245 9.92918 7.09245Z" fill="black"/>
</svg>
