<svg width="8" height="10" viewBox="0 0 8 10" fill="none" xmlns="http://www.w3.org/2000/svg">
<path id="Vector" d="M4.00111 4.875C4.24204 4.875 4.44792 4.78921 4.61875 4.61764C4.78958 4.44607 4.875 4.23982 4.875 3.99889C4.875 3.75796 4.78921 3.55208 4.61764 3.38125C4.44607 3.21042 4.23982 3.125 3.99889 3.125C3.75796 3.125 3.55208 3.21079 3.38125 3.38236C3.21042 3.55393 3.125 3.76018 3.125 4.00111C3.125 4.24204 3.21079 4.44792 3.38236 4.61875C3.55393 4.78958 3.76018 4.875 4.00111 4.875ZM4 9.0125C5.10833 8.00417 5.92708 7.08958 6.45625 6.26875C6.98542 5.44792 7.25 4.725 7.25 4.1C7.25 3.11842 6.93628 2.31469 6.30885 1.68881C5.68143 1.06294 4.91181 0.75 4 0.75C3.08819 0.75 2.31857 1.06294 1.69115 1.68881C1.06372 2.31469 0.75 3.11842 0.75 4.1C0.75 4.725 1.02083 5.44792 1.5625 6.26875C2.10417 7.08958 2.91667 8.00417 4 9.0125ZM4 10C2.65833 8.85833 1.65625 7.79792 0.99375 6.81875C0.33125 5.83958 0 4.93333 0 4.1C0 2.85 0.402083 1.85417 1.20625 1.1125C2.01042 0.370833 2.94167 0 4 0C5.05833 0 5.98958 0.370833 6.79375 1.1125C7.59792 1.85417 8 2.85 8 4.1C8 4.93333 7.66875 5.83958 7.00625 6.81875C6.34375 7.79792 5.34167 8.85833 4 10Z" fill="black"/>
</svg>
