<svg width="15" height="14" viewBox="0 0 15 14" fill="none" xmlns="http://www.w3.org/2000/svg">
<g clip-path="url(#clip0_576_184)">
<path d="M6.35278 10.0154L11.3321 5.03611L10.8714 4.57991L6.35278 9.11346L4.07928 6.83995L3.63802 7.29616L6.35278 10.0154ZM7.50261 14C6.53762 14 5.63154 13.8163 4.78439 13.449C3.93722 13.0816 3.19521 12.5798 2.55837 11.9435C1.92154 11.3073 1.41927 10.566 1.05156 9.71962C0.683854 8.87325 0.5 7.96758 0.5 7.00261C0.5 6.03462 0.683679 5.12456 1.05104 4.27241C1.41841 3.42026 1.92022 2.67901 2.55646 2.04865C3.19271 1.4183 3.93402 0.919269 4.78038 0.551562C5.62675 0.183854 6.53242 0 7.49739 0C8.46538 0 9.37544 0.183679 10.2276 0.551036C11.0797 0.918406 11.821 1.41697 12.4514 2.04674C13.0817 2.67651 13.5807 3.41706 13.9484 4.26841C14.3161 5.11976 14.5 6.02942 14.5 6.99739C14.5 7.96238 14.3163 8.86846 13.949 9.71561C13.5816 10.5628 13.083 11.3048 12.4533 11.9416C11.8235 12.5785 11.0829 13.0807 10.2316 13.4484C9.38024 13.8161 8.47058 14 7.50261 14ZM7.5 13.4017C9.28092 13.4017 10.7931 12.7792 12.0365 11.5343C13.28 10.2894 13.9017 8.77792 13.9017 7C13.9017 5.21908 13.28 3.7069 12.0365 2.46346C10.7931 1.22001 9.28092 0.598286 7.5 0.598286C5.72208 0.598286 4.21065 1.22001 2.96571 2.46346C1.72076 3.7069 1.09829 5.21908 1.09829 7C1.09829 8.77792 1.72076 10.2894 2.96571 11.5343C4.21065 12.7792 5.72208 13.4017 7.5 13.4017Z" fill="white"/>
</g>
<defs>
<clipPath id="clip0_576_184">
<rect width="14" height="14" fill="white" transform="translate(0.5)"/>
</clipPath>
</defs>
</svg>