<svg width="15" height="14" viewBox="0 0 15 14" fill="none" xmlns="http://www.w3.org/2000/svg">
<g clip-path="url(#clip0_576_132)">
<path d="M13.9296 14L9.98889 9.9037C9.4772 10.3717 8.88046 10.7263 8.19868 10.9677C7.51689 11.209 6.84326 11.3296 6.17778 11.3296C4.5909 11.3296 3.24789 10.7823 2.14873 9.68756C1.04958 8.59283 0.5 7.25332 0.5 5.66904C0.5 4.08474 1.04736 2.74383 2.14207 1.6463C3.2368 0.548765 4.57435 0 6.1547 0C7.73506 0 9.08029 0.547772 10.1904 1.64332C11.3005 2.73884 11.8556 4.07751 11.8556 5.65932C11.8556 6.36298 11.7259 7.05617 11.4667 7.73889C11.2074 8.42161 10.8531 9.00494 10.4037 9.48889L14.3444 13.5593L13.9296 14ZM6.17778 10.7593C7.61378 10.7593 8.82402 10.271 9.8085 9.29445C10.793 8.3179 11.2852 7.10802 11.2852 5.66481C11.2852 4.2216 10.793 3.01173 9.8085 2.03519C8.82402 1.05864 7.61378 0.57037 6.17778 0.57037C4.74178 0.57037 3.53154 1.05864 2.54706 2.03519C1.5626 3.01173 1.07037 4.2216 1.07037 5.66481C1.07037 7.10802 1.5626 8.3179 2.54706 9.29445C3.53154 10.271 4.74178 10.7593 6.17778 10.7593Z" fill="black"/>
</g>
<defs>
<clipPath id="clip0_576_132">
<rect width="14" height="14" fill="white" transform="translate(0.5)"/>
</clipPath>
</defs>
</svg>