<svg width="25" height="24" viewBox="0 0 25 24" fill="none" xmlns="http://www.w3.org/2000/svg">
<g clip-path="url(#clip0_576_136)">
<path d="M17.0137 9.95131C17.39 9.95131 17.7148 9.81274 17.9878 9.53563C18.2609 9.25853 18.3974 8.93184 18.3974 8.55552C18.3974 8.1792 18.2589 7.85448 17.9818 7.58141C17.7047 7.30834 17.378 7.17178 17.0017 7.17178C16.6253 7.17178 16.3006 7.31035 16.0276 7.58746C15.7545 7.86456 15.6179 8.19125 15.6179 8.56757C15.6179 8.94389 15.7565 9.26861 16.0336 9.54168C16.3107 9.81475 16.6374 9.95131 17.0137 9.95131ZM7.99832 9.95131C8.37469 9.95131 8.69936 9.81274 8.97243 9.53563C9.2455 9.25853 9.38206 8.93184 9.38206 8.55552C9.38206 8.1792 9.24349 7.85448 8.96638 7.58141C8.68933 7.30834 8.36259 7.17178 7.98627 7.17178C7.60995 7.17178 7.28523 7.31035 7.01216 7.58746C6.73909 7.86456 6.60258 8.19125 6.60258 8.56757C6.60258 8.94389 6.7411 9.26861 7.01821 9.54168C7.29531 9.81475 7.622 9.95131 7.99832 9.95131ZM12.5 18.5052C13.7615 18.5052 14.9235 18.1662 15.9859 17.4885C17.0483 16.8107 17.8487 15.9051 18.3872 14.7718H6.6128C7.1564 15.9051 7.9581 16.8107 9.01794 17.4885C10.0778 18.1662 11.2385 18.5052 12.5 18.5052ZM12.5045 24C10.8451 24 9.28496 23.6851 7.82413 23.0554C6.3633 22.4256 5.09259 21.5709 4.01197 20.4913C2.93137 19.4117 2.07589 18.1422 1.44553 16.6827C0.815178 15.2232 0.5 13.6638 0.5 12.0045C0.5 10.3451 0.814878 8.78496 1.44464 7.32413C2.07441 5.8633 2.9291 4.59259 4.0087 3.51197C5.0883 2.43137 6.35782 1.57589 7.81726 0.945533C9.27675 0.315179 10.8362 0 12.4955 0C14.1549 0 15.715 0.314878 17.1759 0.944635C18.6367 1.57441 19.9074 2.4291 20.988 3.5087C22.0687 4.5883 22.9241 5.85782 23.5544 7.31726C24.1848 8.77675 24.5 10.3362 24.5 11.9955C24.5 13.6549 24.1851 15.215 23.5554 16.6759C22.9256 18.1367 22.0709 19.4074 20.9913 20.488C19.9117 21.5687 18.6422 22.4241 17.1827 23.0544C15.7232 23.6848 14.1638 24 12.5045 24ZM12.4975 22.9744C15.5605 22.9744 18.1557 21.9115 20.2832 19.7856C22.4107 17.6599 23.4744 15.0655 23.4744 12.0025C23.4744 8.93952 22.4115 6.34426 20.2856 4.21683C18.1599 2.08937 15.5655 1.02563 12.5025 1.02563C9.43952 1.02563 6.84426 2.08853 4.71683 4.21433C2.58937 6.34013 1.52564 8.93453 1.52564 11.9975C1.52564 15.0605 2.58853 17.6557 4.71433 19.7832C6.84013 21.9107 9.43453 22.9744 12.4975 22.9744Z" fill="black"/>
</g>
<defs>
<clipPath id="clip0_576_136">
<rect width="24" height="24" fill="white" transform="translate(0.5)"/>
</clipPath>
</defs>
</svg>
