<svg width="16" height="14" viewBox="0 0 16 14" fill="none" xmlns="http://www.w3.org/2000/svg">
<g clip-path="url(#clip0_576_176)">
<path fill-rule="evenodd" clip-rule="evenodd" d="M10.7399 3.5023L13.8866 4.22619C14.701 4.41452 15.2086 5.22747 15.0202 6.04193C14.9599 6.30248 14.8317 6.54237 14.6486 6.73729L12.5704 9.12543L12.8545 12.3518V12.3656C12.9183 13.197 12.2999 13.9244 11.469 13.9952C11.1789 14.0182 10.8881 13.9581 10.6308 13.822L7.77338 12.6098L4.7947 13.8723C4.02821 14.1962 3.1443 13.8374 2.82037 13.0709L2.81872 13.067C2.77162 12.9559 2.73789 12.8396 2.71828 12.7206C2.70244 12.6204 2.69663 12.5189 2.70096 12.4176C2.69919 12.3974 2.69919 12.3771 2.70096 12.357L2.98498 9.12716L0.868727 6.6888C0.32265 6.05838 0.391012 5.10468 1.02139 4.55861C1.19894 4.40478 1.40996 4.29455 1.63764 4.23658L1.67228 4.22619H1.68613L4.82068 3.50057L6.4832 0.729701C6.91528 0.0152499 7.84473 -0.213693 8.55923 0.218389C8.77436 0.34849 8.95364 0.530155 9.08088 0.747019L9.09128 0.762605L10.7399 3.5023ZM14.1378 6.25944C14.1875 6.20761 14.23 6.14938 14.2642 6.08626C14.4765 5.68998 14.3273 5.19668 13.9311 4.98441C13.8674 4.95029 13.7995 4.92483 13.7291 4.90864L10.4387 4.14665C10.3458 4.1257 10.2656 4.06746 10.217 3.98559V3.98386L8.49385 1.10909L8.48346 1.09177C8.25214 0.706317 7.75217 0.581368 7.36672 0.812692C7.2522 0.881401 7.15635 0.977256 7.08764 1.09177L5.35585 3.97174C5.30827 4.0598 5.22488 4.12293 5.12725 4.14492L1.84897 4.90171H1.82819C1.39039 5.00371 1.1182 5.44134 1.2202 5.87914C1.25012 6.00755 1.31077 6.12674 1.39697 6.22653L3.59288 8.76188C3.66709 8.83474 3.70458 8.93713 3.69506 9.04069L3.40758 12.3657C3.40897 12.3836 3.40897 12.4015 3.40758 12.4194C3.39966 12.4844 3.39966 12.5501 3.40758 12.6151C3.41628 12.6707 3.43079 12.7253 3.45088 12.7779C3.45902 12.7935 3.46599 12.8097 3.47166 12.8264C3.65116 13.2147 4.1006 13.3978 4.50034 13.2455C4.51757 13.2365 4.53554 13.2289 4.55403 13.223L7.64008 11.9155C7.72641 11.8789 7.82391 11.8789 7.91024 11.9155L10.908 13.1797C10.9271 13.1861 10.9456 13.1942 10.9634 13.2039C11.0989 13.2774 11.2532 13.3093 11.4067 13.2957H11.4171C11.8579 13.2562 12.1859 12.8712 12.1549 12.4298V12.4125L11.8639 9.04069C11.8554 8.94696 11.8854 8.85379 11.947 8.78266L14.1187 6.28022L14.1378 6.25944Z" fill="black"/>
</g>
<defs>
<clipPath id="clip0_576_176">
<rect width="15" height="14" fill="white" transform="translate(0.5)"/>
</clipPath>
</defs>
</svg>