<svg width="20" height="23" viewBox="0 0 20 23" fill="none" xmlns="http://www.w3.org/2000/svg">
<path id="Vector" d="M3.22704 22.17C2.71067 22.17 2.26595 21.9835 1.89287 21.6104C1.51979 21.2373 1.33326 20.7925 1.33326 20.2762V2.41142H0V0.921651H5.61572V0H14.0797V0.921651H19.6955V2.41142H18.3622V20.2762C18.3622 20.7911 18.1753 21.2354 17.8015 21.6093C17.4277 21.9831 16.9833 22.17 16.4684 22.17H3.22704ZM16.8725 2.41142H2.82299V20.2762C2.82299 20.394 2.86297 20.4908 2.94294 20.5666C3.02292 20.6424 3.11762 20.6802 3.22704 20.6802H16.4684C16.5694 20.6802 16.662 20.6381 16.7462 20.554C16.8304 20.4698 16.8725 20.3772 16.8725 20.2762V2.41142ZM6.60558 17.9077H8.09532V5.1511H6.60558V17.9077ZM11.6001 17.9077H13.0899V5.1511H11.6001V17.9077Z" fill="#ADADAD"/>
</svg>
