<svg width="18" height="14" viewBox="0 0 18 14" fill="none" xmlns="http://www.w3.org/2000/svg">
<path id="Vector" d="M11.936 7.41279V6.35466H17.2267V7.41279H11.936ZM7.40696 6.34885C6.534 6.34885 5.78669 6.03802 5.16503 5.41637C4.54338 4.79471 4.23255 4.0474 4.23255 3.17444C4.23255 2.30146 4.54338 1.55414 5.16503 0.932483C5.78669 0.310828 6.534 0 7.40696 0C8.27992 0 9.02723 0.310828 9.64889 0.932483C10.2705 1.55414 10.5814 2.30146 10.5814 3.17444C10.5814 4.0474 10.2705 4.79471 9.64889 5.41637C9.02723 6.03802 8.27992 6.34885 7.40696 6.34885ZM0 14V12.2581C0 11.8213 0.127179 11.4126 0.381538 11.0321C0.635896 10.6516 0.978098 10.3562 1.40814 10.1459C2.40658 9.66704 3.4057 9.30789 4.4055 9.06845C5.40532 8.82901 6.4058 8.70929 7.40696 8.70929C8.40811 8.70929 9.4086 8.82901 10.4084 9.06845C11.4082 9.30789 12.4073 9.66704 13.4058 10.1459C13.8358 10.3562 14.178 10.6516 14.4324 11.0321C14.6867 11.4126 14.8139 11.8213 14.8139 12.2581V14H0ZM1.05814 12.9418H13.7558V12.2581C13.7558 12.0234 13.6801 11.803 13.5289 11.5968C13.3776 11.3906 13.1684 11.2163 12.9011 11.0738C12.0302 10.6519 11.1322 10.3287 10.2072 10.1042C9.28221 9.87969 8.34879 9.76742 7.40696 9.76742C6.46513 9.76742 5.53171 9.87969 4.6067 10.1042C3.68168 10.3287 2.78371 10.6519 1.91279 11.0738C1.64554 11.2163 1.43629 11.3906 1.28503 11.5968C1.13377 11.803 1.05814 12.0234 1.05814 12.2581V12.9418ZM7.40696 5.29071C7.98893 5.29071 8.48714 5.08349 8.90158 4.66906C9.31601 4.25462 9.52323 3.75641 9.52323 3.17444C9.52323 2.59246 9.31601 2.09426 8.90158 1.67982C8.48714 1.26538 7.98893 1.05816 7.40696 1.05816C6.82498 1.05816 6.32678 1.26538 5.91234 1.67982C5.4979 2.09426 5.29068 2.59246 5.29068 3.17444C5.29068 3.75641 5.4979 4.25462 5.91234 4.66906C6.32678 5.08349 6.82498 5.29071 7.40696 5.29071Z" fill="black"/>
</svg>
