<svg width="35" height="24" viewBox="0 0 35 24" fill="none" xmlns="http://www.w3.org/2000/svg">
<g clip-path="url(#clip0_576_174)">
<path d="M8.01958 23.6426C5.9352 23.6426 4.16084 22.9183 2.69652 21.4699C1.23217 20.0214 0.5 18.2656 0.5 16.2025C0.5 14.2228 1.21293 12.5036 2.63877 11.0448C4.06464 9.58598 5.73842 8.82845 7.66007 8.77211C7.96793 6.25745 9.07493 4.16675 10.9812 2.50005C12.8875 0.833345 15.128 0 17.7027 0C20.5208 0 22.8898 0.983498 24.8095 2.9505C26.7293 4.9175 27.6893 7.29229 27.6893 10.0749V12.2582H28.7446C30.4288 12.1803 31.8591 12.6887 33.0354 13.7836C34.2117 14.8785 34.7999 16.262 34.7999 17.9342C34.7999 19.5088 34.2447 20.8539 33.1343 21.9694C32.024 23.0848 30.6696 23.6426 29.0711 23.6426H19.3649C18.7059 23.6426 18.1453 23.415 17.6833 22.9599C17.2213 22.5047 16.9903 21.9526 16.9903 21.3033V10.4714L13.003 14.4318L12.0498 13.5254L17.6499 8.00864L23.2501 13.5254L22.2969 14.4318L18.3096 10.4714V21.3033C18.3096 21.5632 18.4195 21.8015 18.6394 22.0181C18.8592 22.2347 19.1011 22.343 19.3649 22.343H29.0052C30.2475 22.343 31.3039 21.9124 32.1746 21.0512C33.0453 20.1899 33.4806 19.1546 33.4806 17.9451C33.4806 16.7357 33.0453 15.7021 32.1746 14.8444C31.3039 13.9867 30.2436 13.5578 28.9936 13.5578H26.37V10.0749C26.37 7.67678 25.5219 5.61469 23.8255 3.88865C22.1292 2.1626 20.0586 1.29957 17.6136 1.29957C15.1687 1.29957 13.0909 2.1626 11.3803 3.88865C9.66969 5.61469 8.81442 7.67678 8.81442 10.0749H7.90084C6.2606 10.0749 4.83696 10.6711 3.62986 11.8635C2.42277 13.0559 1.81921 14.515 1.81921 16.241C1.81921 17.9106 2.42449 19.345 3.63505 20.5442C4.84558 21.7434 6.30707 22.343 8.01958 22.343H13.0986V23.6426H8.01958Z" fill="black"/>
</g>
<defs>
<clipPath id="clip0_576_174">
<rect width="34.3636" height="24" fill="white" transform="translate(0.5)"/>
</clipPath>
</defs>
</svg>
