<svg width="14" height="12" viewBox="0 0 14 12" fill="none" xmlns="http://www.w3.org/2000/svg">
<path id="Vector" d="M0.989029 12C0.720124 12 0.48806 11.9024 0.292836 11.7072C0.097612 11.5119 0 11.2799 0 11.011V3.27427C0 3.00538 0.097612 2.77332 0.292836 2.57809C0.48806 2.38287 0.720124 2.28526 0.989029 2.28526H4.23959V0.989012C4.23959 0.720107 4.3372 0.488049 4.53243 0.292836C4.72764 0.0976125 4.9597 0 5.2286 0H7.80001C8.06892 0 8.30097 0.0976125 8.49619 0.292836C8.69141 0.488049 8.78902 0.720107 8.78902 0.989012V2.28526H12.0396C12.3085 2.28526 12.5406 2.38287 12.7358 2.57809C12.931 2.77332 13.0286 3.00538 13.0286 3.27427V11.011C13.0286 11.2799 12.931 11.5119 12.7358 11.7072C12.5406 11.9024 12.3085 12 12.0396 12H0.989029ZM5.01761 2.28526H8.01101V0.989012C8.01101 0.936257 7.98903 0.887902 7.94507 0.843947C7.90112 0.799981 7.85277 0.777999 7.80001 0.777999H5.2286C5.17585 0.777999 5.12749 0.799981 5.08354 0.843947C5.03958 0.887902 5.01761 0.936257 5.01761 0.989012V2.28526ZM12.2506 7.9213H7.8633V8.87076H5.1864V7.9213H0.778016V11.011C0.778016 11.0637 0.799993 11.1121 0.843948 11.1561C0.887914 11.2 0.936274 11.222 0.989029 11.222H12.0396C12.0923 11.222 12.1407 11.2 12.1847 11.1561C12.2286 11.1121 12.2506 11.0637 12.2506 11.011V7.9213ZM5.96441 8.09274H7.0853V6.97185H5.96441V8.09274ZM0.778016 7.1433H5.1864V6.19385H7.8633V7.1433H12.2506V3.27427C12.2506 3.22153 12.2286 3.17317 12.1847 3.12921C12.1407 3.08525 12.0923 3.06327 12.0396 3.06327H0.989029C0.936274 3.06327 0.887914 3.08525 0.843948 3.12921C0.799993 3.17317 0.778016 3.22153 0.778016 3.27427V7.1433Z" fill="#BDBDBD"/>
</svg>
