<svg width="34" height="34" viewBox="0 0 34 34" fill="none" xmlns="http://www.w3.org/2000/svg">
<g id="no_accounts_FILL0_wght200_GRAD0_opsz24 1">
<path id="Vector" d="M20.716 15.567L14.9186 9.76955C15.1947 9.59157 15.5084 9.45353 15.8599 9.35545C16.2113 9.25737 16.6095 9.20833 17.0545 9.20833C18.2296 9.20833 19.2226 9.61835 20.0336 10.4384C20.8445 11.2584 21.25 12.2651 21.25 13.4583C21.25 13.8488 21.1964 14.2425 21.0893 14.6393C20.9821 15.0362 20.8577 15.3454 20.716 15.567ZM8.77788 24.7699C10.0365 23.8672 11.3279 23.1729 12.6519 22.6871C13.976 22.2013 15.4253 21.9583 17 21.9583C18.1152 21.9583 19.1309 22.0941 20.0472 22.3656C20.9635 22.6372 21.7159 22.9173 22.3043 23.2061L16.7902 17.692C15.6623 17.6048 14.7302 17.1975 13.9937 16.4701C13.2572 15.7427 12.8544 14.8151 12.7854 13.6872L8.5572 9.45898C7.69268 10.427 6.99479 11.5408 6.46354 12.8004C5.93229 14.06 5.66667 15.4598 5.66667 17C5.66667 18.5747 5.94682 20.0031 6.50714 21.2854C7.06743 22.5677 7.82434 23.7292 8.77788 24.7699ZM25.5436 24.432C26.3355 23.464 26.9984 22.3683 27.5324 21.1451C28.0664 19.9219 28.3333 18.5402 28.3333 17C28.3333 13.8597 27.2295 11.1858 25.0219 8.97813C22.8142 6.77049 20.1403 5.66667 17 5.66667C15.5506 5.66667 14.1962 5.91549 12.9366 6.41314C11.6771 6.9108 10.5542 7.59188 9.56795 8.4564L25.5436 24.432ZM17 29.75C15.2273 29.75 13.5655 29.419 12.0144 28.757C10.4633 28.095 9.11252 27.1886 7.96195 26.038C6.81136 24.8875 5.90504 23.5367 5.24301 21.9856C4.581 20.4345 4.25 18.7727 4.25 17C4.25 15.2219 4.581 13.5587 5.24301 12.0103C5.90504 10.462 6.81136 9.11251 7.96195 7.96191C9.11252 6.81135 10.4633 5.90505 12.0144 5.24301C13.5655 4.58101 15.2273 4.25 17 4.25C18.7781 4.25 20.4413 4.58101 21.9897 5.24301C23.538 5.90505 24.8875 6.81135 26.0381 7.96191C27.1887 9.11251 28.095 10.462 28.757 12.0103C29.419 13.5587 29.75 15.2219 29.75 17C29.75 18.7727 29.419 20.4345 28.757 21.9856C28.095 23.5367 27.1887 24.8875 26.0381 26.038C24.8875 27.1886 23.538 28.095 21.9897 28.757C20.4413 29.419 18.7781 29.75 17 29.75ZM17 28.3333C18.324 28.3333 19.6136 28.0959 20.8686 27.6209C22.1236 27.146 23.2297 26.5298 24.1869 25.7724C23.266 25.0332 22.1508 24.4489 20.8413 24.0193C19.5318 23.5898 18.2514 23.375 17 23.375C15.7486 23.375 14.4909 23.5762 13.2268 23.9785C11.9627 24.3808 10.8248 24.9787 9.81314 25.7724C10.7703 26.5298 11.8764 27.146 13.1314 27.6209C14.3864 28.0959 15.676 28.3333 17 28.3333Z" fill="black"/>
</g>
</svg>
