<svg width="17" height="14" viewBox="0 0 17 14" fill="none" xmlns="http://www.w3.org/2000/svg">
<path id="Vector" d="M8.26 3.4838C7.31354 3.4838 6.53917 2.69994 6.53917 1.7419C6.53917 0.762255 7.31354 0 8.26 0C9.20646 0 9.98083 0.762255 9.98083 1.7419C9.98083 2.69994 9.20646 3.4838 8.26 3.4838ZM1.39801 2.76474C2.15104 2.76474 2.75333 3.39601 2.75333 4.15826C2.75333 4.94212 2.15104 5.55178 1.39801 5.55178C0.62363 5.55178 0 4.94212 0 4.15826C0 3.39601 0.62363 2.76474 1.39801 2.76474ZM15.1647 2.76474C15.9177 2.76474 16.52 3.39601 16.52 4.15826C16.52 4.94212 15.9177 5.55178 15.1647 5.55178C14.3903 5.55178 13.7667 4.94212 13.7667 4.15826C13.7667 3.39601 14.3903 2.76474 15.1647 2.76474ZM2.90408 12.3891L1.7642 6.07435C2.10837 6.00886 2.43119 5.81307 2.68932 5.59498C3.39899 6.24854 4.30277 6.87981 5.16319 6.87981C6.19569 6.87981 7.03477 5.2682 7.61572 3.91858C7.80914 3.98407 8.04593 4.04957 8.26138 4.04957C8.47682 4.04957 8.71292 3.98407 8.90703 3.91858C9.48799 5.2689 10.3271 6.87981 11.3596 6.87981C12.22 6.87981 13.1238 6.24854 13.8334 5.59498C14.0916 5.81307 14.4144 6.00886 14.7586 6.07435L13.6187 12.3891H2.90614H2.90408ZM2.66729 12.9333H13.8527V14H2.66729V12.9333Z" fill="white"/>
</svg>
