<svg width="50" height="50" viewBox="0 0 50 50" fill="none" xmlns="http://www.w3.org/2000/svg">
<g id="Group 473">
<circle id="Ellipse 53" cx="25" cy="25" r="25" fill="#E3F3FF"/>
<path id="Vector" d="M28.2668 14.167H18.6668C17.7815 14.167 17.0242 14.7003 16.7042 15.4683L13.4828 22.9883C13.3868 23.2337 13.3335 23.4897 13.3335 23.767V25.9003C13.3335 27.0737 14.2935 28.0337 15.4668 28.0337H22.1975L21.1842 32.9083L21.1522 33.2497C21.1522 33.687 21.3335 34.0923 21.6215 34.3803L22.7522 35.5003L29.7815 28.471C30.1655 28.087 30.4002 27.5537 30.4002 26.967V16.3003C30.4002 15.127 29.4402 14.167 28.2668 14.167ZM28.2668 26.967L23.6375 31.5963L25.0668 25.9003H15.4668V23.767L18.6668 16.3003H28.2668V26.967ZM32.5335 14.167H36.8002V26.967H32.5335V14.167Z" fill="#0F52BA"/>
</g>
</svg>
