<svg width="20" height="20" viewBox="0 0 20 20" fill="none" xmlns="http://www.w3.org/2000/svg">
<g id="edit_FILL0_wght400_GRAD0_opsz48 1">
<path id="Vector" d="M3.75 16.2501H4.66667L13.8958 7.02092L12.9792 6.10425L3.75 15.3334V16.2501ZM16.5417 6.12508L13.875 3.45841L14.75 2.58341C14.9861 2.3473 15.2778 2.22925 15.625 2.22925C15.9722 2.22925 16.2639 2.3473 16.5 2.58341L17.4167 3.50008C17.6528 3.73619 17.7708 4.02786 17.7708 4.37508C17.7708 4.7223 17.6528 5.01397 17.4167 5.25008L16.5417 6.12508ZM15.6667 7.00008L5.16667 17.5001H2.5V14.8334L13 4.33341L15.6667 7.00008ZM13.4375 6.56258L12.9792 6.10425L13.8958 7.02092L13.4375 6.56258Z" fill="black"/>
</g>
</svg>
