<svg width="16" height="14" viewBox="0 0 16 14" fill="none" xmlns="http://www.w3.org/2000/svg">
<path id="Vector" d="M7.63984 13.6732L6.85675 12.983C5.51 11.7752 4.3966 10.7333 3.51654 9.85734C2.63648 8.98137 1.93543 8.1983 1.41337 7.50811C0.891314 6.81792 0.525239 6.19302 0.315143 5.63341C0.105048 5.0738 0 4.50797 0 3.93593C0 2.81478 0.385175 1.87851 1.15553 1.12711C1.92588 0.375703 2.87767 0 4.01091 0C4.7367 0 5.40837 0.167883 6.02592 0.50365C6.64347 0.839416 7.18145 1.32441 7.63984 1.95864C8.17462 1.2871 8.74125 0.792782 9.3397 0.475669C9.93815 0.158556 10.5812 0 11.2688 0C12.402 0 13.3538 0.375703 14.1241 1.12711C14.8945 1.87851 15.2797 2.81478 15.2797 3.93593C15.2797 4.50797 15.1746 5.0738 14.9645 5.63341C14.7544 6.19302 14.3884 6.81792 13.8663 7.50811C13.3442 8.1983 12.6432 8.98137 11.7631 9.85734C10.8831 10.7333 9.76967 11.7752 8.42292 12.983L7.63984 13.6732ZM7.63984 12.1995C8.92888 11.043 9.98966 10.0513 10.8222 9.22429C11.6547 8.39728 12.3161 7.67288 12.8063 7.05109C13.2965 6.4293 13.6403 5.87507 13.8377 5.3884C14.035 4.90171 14.1337 4.41846 14.1337 3.93863C14.1337 3.11607 13.8663 2.44052 13.3315 1.912C12.7967 1.38348 12.1106 1.11922 11.2731 1.11922C10.617 1.11922 10.0098 1.31508 9.45143 1.70681C8.89309 2.09854 8.44202 2.64882 8.09823 3.35766H7.16235C6.83129 2.66126 6.38658 2.11408 5.82824 1.71614C5.26988 1.31819 4.66267 1.11922 4.00662 1.11922C3.1691 1.11922 2.48295 1.38348 1.94816 1.912C1.41337 2.44052 1.14598 3.11713 1.14598 3.94182C1.14598 4.42289 1.24466 4.90903 1.44202 5.40024C1.63938 5.89146 1.98317 6.45107 2.4734 7.07907C2.96362 7.70708 3.62892 8.43147 4.4693 9.25223C5.30969 10.073 6.36653 11.0554 7.63984 12.1995Z" fill="#D2D2D2"/>
</svg>
