<svg width="40" height="40" viewBox="0 0 40 40" fill="none" xmlns="http://www.w3.org/2000/svg">
<g id="Group 1509">
<circle id="Ellipse 53" cx="20" cy="20" r="19.5" stroke="url(#paint0_linear_4122_346)"/>
<path id="Vector" d="M22.6134 11.3336H14.9334C14.2251 11.3336 13.6193 11.7603 13.3633 12.3747L10.7862 18.3907C10.7094 18.587 10.6667 18.7918 10.6667 19.0136V20.7203C10.6667 21.659 11.4347 22.427 12.3734 22.427H17.7579L16.9473 26.3267L16.9217 26.5998C16.9217 26.9496 17.0667 27.2739 17.2971 27.5043L18.2017 28.4003L23.8251 22.7768C24.1323 22.4696 24.3201 22.043 24.3201 21.5736V13.0403C24.3201 12.1016 23.5521 11.3336 22.6134 11.3336ZM22.6134 21.5736L18.9099 25.2771L20.0534 20.7203H12.3734V19.0136L14.9334 13.0403H22.6134V21.5736ZM26.0267 11.3336H29.4401V21.5736H26.0267V11.3336Z" fill="url(#paint1_linear_4122_346)"/>
</g>
<defs>
<linearGradient id="paint0_linear_4122_346" x1="2.5" y1="-3.5" x2="40" y2="43.5" gradientUnits="userSpaceOnUse">
<stop stop-color="#0F52BA"/>
<stop offset="0.979167" stop-color="#8225AF"/>
</linearGradient>
<linearGradient id="paint1_linear_4122_346" x1="12" y1="9" x2="26" y2="31.5" gradientUnits="userSpaceOnUse">
<stop stop-color="#0F52BA"/>
<stop offset="1" stop-color="#8126AF"/>
</linearGradient>
</defs>
</svg>