<svg width="10" height="12" viewBox="0 0 10 12" fill="none" xmlns="http://www.w3.org/2000/svg">
<path id="Vector" d="M4.80133 5.85C5.09044 5.85 5.3375 5.74706 5.5425 5.54116C5.7475 5.33529 5.85 5.08779 5.85 4.79867C5.85 4.50955 5.74705 4.2625 5.54116 4.0575C5.33528 3.8525 5.08778 3.75 4.79866 3.75C4.50955 3.75 4.2625 3.85294 4.0575 4.05883C3.8525 4.26471 3.75 4.51221 3.75 4.80133C3.75 5.09044 3.85294 5.3375 4.05883 5.5425C4.26471 5.7475 4.51221 5.85 4.80133 5.85ZM4.8 10.815C6.13 9.605 7.1125 8.5075 7.7475 7.5225C8.3825 6.5375 8.7 5.67 8.7 4.92C8.7 3.7421 8.32354 2.77762 7.57062 2.02657C6.81771 1.27552 5.89417 0.9 4.8 0.9C3.70583 0.9 2.78229 1.27552 2.02938 2.02657C1.27646 2.77762 0.9 3.7421 0.9 4.92C0.9 5.67 1.225 6.5375 1.875 7.5225C2.525 8.5075 3.5 9.605 4.8 10.815ZM4.8 12C3.19 10.63 1.9875 9.3575 1.1925 8.1825C0.3975 7.0075 0 5.92 0 4.92C0 3.42 0.4825 2.225 1.4475 1.335C2.4125 0.445 3.53 0 4.8 0C6.07 0 7.1875 0.445 8.1525 1.335C9.1175 2.225 9.6 3.42 9.6 4.92C9.6 5.92 9.2025 7.0075 8.4075 8.1825C7.6125 9.3575 6.41 10.63 4.8 12Z" fill="#BDBDBD"/>
</svg>
