<svg width="34" height="34" viewBox="0 0 34 34" fill="none" xmlns="http://www.w3.org/2000/svg">
<path id="Vector" d="M23.2564 14.3846C23.844 14.3846 24.3406 14.1789 24.7463 13.7676C25.1519 13.3563 25.3547 12.8568 25.3547 12.2692C25.3547 11.6816 25.149 11.185 24.7377 10.7794C24.3264 10.3738 23.8269 10.171 23.2393 10.171C22.6517 10.171 22.1551 10.3766 21.7495 10.7879C21.3438 11.1993 21.141 11.6987 21.141 12.2863C21.141 12.8739 21.3467 13.3705 21.758 13.7762C22.1694 14.1818 22.6688 14.3846 23.2564 14.3846ZM10.7607 14.3846C11.3483 14.3846 11.8449 14.1789 12.2505 13.7676C12.6562 13.3563 12.859 12.8568 12.859 12.2692C12.859 11.6816 12.6533 11.185 12.242 10.7794C11.8306 10.3738 11.3312 10.171 10.7436 10.171C10.156 10.171 9.65935 10.3766 9.25371 10.7879C8.84811 11.1993 8.6453 11.6987 8.6453 12.2863C8.6453 12.8739 8.85096 13.3705 9.26226 13.7762C9.6736 14.1818 10.1731 14.3846 10.7607 14.3846ZM17 19.8333C15.1983 19.8333 13.5388 20.3304 12.0217 21.3245C10.5045 22.3186 9.36451 23.6378 8.60172 25.2821H10.4833C11.1759 24.1173 12.0968 23.1964 13.2458 22.5196C14.3949 21.8427 15.6463 21.5043 17 21.5043C18.3537 21.5043 19.6051 21.8427 20.7542 22.5196C21.9032 23.1964 22.8241 24.1173 23.5167 25.2821H25.3983C24.6355 23.6378 23.4955 22.3186 21.9783 21.3245C20.4612 20.3304 18.8017 19.8333 17 19.8333ZM17.0063 34C14.6555 34 12.4454 33.5539 10.3759 32.6618C8.30636 31.7696 6.50617 30.5588 4.97529 29.0293C3.44444 27.4999 2.23251 25.7014 1.33951 23.6339C0.446502 21.5663 0 19.3571 0 17.0063C0 14.6555 0.446077 12.4454 1.33823 10.3759C2.23042 8.30636 3.44123 6.50617 4.97066 4.97529C6.50009 3.44444 8.29858 2.23251 10.3661 1.33951C12.4337 0.446503 14.6429 0 16.9937 0C19.3445 0 21.5546 0.446076 23.6241 1.33823C25.6936 2.23042 27.4938 3.44122 29.0247 4.97066C30.5556 6.50009 31.7675 8.29858 32.6605 10.3661C33.5535 12.4337 34 14.6429 34 16.9937C34 19.3445 33.5539 21.5546 32.6618 23.6241C31.7696 25.6936 30.5588 27.4938 29.0293 29.0247C27.4999 30.5556 25.7014 31.7675 23.6339 32.6605C21.5663 33.5535 19.3571 34 17.0063 34ZM17 32.1111C21.2185 32.1111 24.7917 30.6472 27.7194 27.7194C30.6472 24.7917 32.1111 21.2185 32.1111 17C32.1111 12.7815 30.6472 9.20833 27.7194 6.28056C24.7917 3.35278 21.2185 1.88889 17 1.88889C12.7815 1.88889 9.20833 3.35278 6.28056 6.28056C3.35278 9.20833 1.88889 12.7815 1.88889 17C1.88889 21.2185 3.35278 24.7917 6.28056 27.7194C9.20833 30.6472 12.7815 32.1111 17 32.1111Z" fill="#B3CBF1"/>
</svg>
