<svg width="17" height="20" viewBox="0 0 17 20" fill="none" xmlns="http://www.w3.org/2000/svg">
<path id="Vector" d="M0 16.8815V16.0499H2.20617V7.61331C2.20617 6.16609 2.65869 4.89126 3.56374 3.78881C4.4688 2.68636 5.63663 2.0097 7.06725 1.75884V0.995837C7.06725 0.691153 7.16385 0.449009 7.35705 0.269406C7.55025 0.0898022 7.7985 0 8.10179 0C8.40509 0 8.65334 0.0898022 8.84654 0.269406C9.03974 0.449009 9.13634 0.691153 9.13634 0.995837V1.75884C10.567 2.0097 11.7358 2.68636 12.643 3.78881C13.5501 4.89126 14.0037 6.16609 14.0037 7.61331V16.0499H16.2036V16.8815H0ZM8.10179 20C7.63646 20 7.22929 19.8333 6.88029 19.5C6.5313 19.1666 6.3568 18.7512 6.3568 18.2536H9.84678C9.84678 18.7512 9.68025 19.1666 9.34717 19.5C9.0141 19.8333 8.59897 20 8.10179 20ZM3.03715 16.0498H13.1727V7.61329C13.1727 6.19679 12.6824 4.99581 11.7019 4.01037C10.7214 3.02493 9.52341 2.53221 8.10803 2.53221C6.69263 2.53221 5.49364 3.02493 4.51105 4.01037C3.52845 4.99581 3.03715 6.19679 3.03715 7.61329V16.0498Z" fill="white"/>
</svg>