<svg width="35" height="24" viewBox="0 0 35 24" fill="none" xmlns="http://www.w3.org/2000/svg">
<path id="Vector" d="M7.63329 24C5.51737 24 3.71619 23.2648 2.22973 21.7944C0.743243 20.3241 0 18.5417 0 16.4474C0 14.4378 0.723701 12.6926 2.1711 11.2118C3.61854 9.73093 5.31762 8.96192 7.26835 8.90476C7.58081 6.35205 8.70459 4.22974 10.6397 2.53785C12.5748 0.845947 14.8492 0 17.4628 0C20.3235 0 22.7283 0.998369 24.6771 2.99511C26.6259 4.99185 27.6003 7.40257 27.6003 10.2273V12.4436H28.6716C30.3813 12.3644 31.8332 12.8806 33.0273 13.992C34.2214 15.1035 34.8184 16.5079 34.8184 18.2053C34.8184 19.8038 34.2549 21.1692 33.1277 22.3015C32.0006 23.4338 30.6257 24 29.0031 24H19.1501C18.4811 24 17.9121 23.769 17.4431 23.307C16.9741 22.845 16.7396 22.2845 16.7396 21.6254V10.6297L12.692 14.65L11.7244 13.7298L17.4092 8.12971L23.094 13.7298L22.1265 14.65L18.0788 10.6297V21.6254C18.0788 21.8892 18.1904 22.1311 18.4136 22.351C18.6368 22.5709 18.8823 22.6808 19.1501 22.6808H28.9361C30.1972 22.6808 31.2696 22.2437 32.1535 21.3694C33.0373 20.4952 33.4793 19.4442 33.4793 18.2164C33.4793 16.9887 33.0373 15.9395 32.1535 15.0688C31.2696 14.1982 30.1933 13.7628 28.9243 13.7628H26.2612V10.2273C26.2612 7.79287 25.4002 5.69959 23.6782 3.94744C21.9562 2.19529 19.8543 1.31921 17.3724 1.31921C14.8905 1.31921 12.7813 2.19529 11.0448 3.94744C9.30835 5.69959 8.44012 7.79287 8.44012 10.2273H7.51273C5.84771 10.2273 4.40253 10.8325 3.17718 12.0429C1.95183 13.2533 1.33916 14.7345 1.33916 16.4865C1.33916 18.1814 1.95359 19.6375 3.18245 20.8548C4.41128 22.0721 5.89489 22.6808 7.63329 22.6808H12.7891V24H7.63329Z" fill="#B3CBF1"/>
</svg>
