<svg width="14" height="14" viewBox="0 0 14 14" fill="none" xmlns="http://www.w3.org/2000/svg">
<path id="Vector" d="M7 10.8694C7.18148 10.8694 7.34028 10.8014 7.47639 10.6653C7.6125 10.5292 7.68056 10.3704 7.68056 10.1889C7.68056 10.0074 7.6125 9.84861 7.47639 9.7125C7.34028 9.57639 7.18148 9.50833 7 9.50833C6.81852 9.50833 6.65972 9.57639 6.52361 9.7125C6.3875 9.84861 6.31944 10.0074 6.31944 10.1889C6.31944 10.3704 6.3875 10.5292 6.52361 10.6653C6.65972 10.8014 6.81852 10.8694 7 10.8694ZM6.41667 8.06944H7.58333V2.95556H6.41667V8.06944ZM4.08333 14L0 9.91667V4.08333L4.08333 0H9.91667L14 4.08333V9.91667L9.91667 14H4.08333ZM4.56944 12.8333H9.43056L12.8333 9.43056V4.56944L9.43056 1.16667H4.56944L1.16667 4.56944V9.43056L4.56944 12.8333Z" fill="black"/>
</svg>
