<svg width="14" height="14" viewBox="0 0 14 14" fill="none" xmlns="http://www.w3.org/2000/svg">
<path id="Vector" d="M13.4296 14L9.48889 9.9037C8.9772 10.3717 8.38046 10.7263 7.69868 10.9677C7.01689 11.209 6.34326 11.3296 5.67778 11.3296C4.0909 11.3296 2.74789 10.7823 1.64873 9.68756C0.549578 8.59283 0 7.25332 0 5.66904C0 4.08474 0.547357 2.74383 1.64207 1.6463C2.7368 0.548765 4.07435 0 5.6547 0C7.23506 0 8.58029 0.547772 9.69038 1.64332C10.8005 2.73884 11.3556 4.07751 11.3556 5.65932C11.3556 6.36298 11.2259 7.05617 10.9667 7.73889C10.7074 8.42161 10.3531 9.00494 9.9037 9.48889L13.8444 13.5593L13.4296 14ZM5.67778 10.7593C7.11378 10.7593 8.32402 10.271 9.3085 9.29445C10.293 8.3179 10.7852 7.10802 10.7852 5.66481C10.7852 4.2216 10.293 3.01173 9.3085 2.03519C8.32402 1.05864 7.11378 0.57037 5.67778 0.57037C4.24178 0.57037 3.03154 1.05864 2.04706 2.03519C1.0626 3.01173 0.57037 4.2216 0.57037 5.66481C0.57037 7.10802 1.0626 8.3179 2.04706 9.29445C3.03154 10.271 4.24178 10.7593 5.67778 10.7593Z" fill="url(#paint0_linear_1273_781)"/>
<defs>
<linearGradient id="paint0_linear_1273_781" x1="4.5" y1="-2" x2="9.5" y2="16" gradientUnits="userSpaceOnUse">
<stop stop-color="#0F52BA"/>
<stop offset="1" stop-color="#8225AF"/>
</linearGradient>
</defs>
</svg>
