<svg width="13" height="14" viewBox="0 0 13 14" fill="none" xmlns="http://www.w3.org/2000/svg">
<path id="Vector" d="M10.6225 14C10.0683 14 9.59729 13.8055 9.20937 13.4164C8.82146 13.0274 8.6275 12.555 8.6275 11.9992C8.6275 11.9214 8.63625 11.8262 8.65375 11.7137C8.67125 11.6012 8.6975 11.5 8.7325 11.41L3.43 8.33C3.255 8.52833 3.03917 8.68875 2.7825 8.81125C2.52583 8.93375 2.26333 8.995 1.995 8.995C1.44083 8.995 0.969792 8.80104 0.581875 8.41313C0.193958 8.02521 0 7.55417 0 7C0 6.44583 0.193958 5.97479 0.581875 5.58687C0.969792 5.19896 1.44083 5.005 1.995 5.005C2.26333 5.005 2.52 5.0575 2.765 5.1625C3.01 5.2675 3.23167 5.41917 3.43 5.6175L8.7325 2.5725C8.6975 2.49001 8.67125 2.39719 8.65375 2.29406C8.63625 2.19094 8.6275 2.09125 8.6275 1.995C8.6275 1.44083 8.82146 0.969792 9.20937 0.581875C9.59729 0.193958 10.0683 0 10.6225 0C11.1767 0 11.6477 0.193958 12.0356 0.581875C12.4235 0.969792 12.6175 1.44083 12.6175 1.995C12.6175 2.54917 12.4235 3.02021 12.0356 3.40812C11.6477 3.79604 11.1767 3.99 10.6225 3.99C10.35 3.99 10.0894 3.94625 9.84065 3.85875C9.59188 3.77125 9.38 3.62833 9.205 3.43L3.9025 6.37C3.92583 6.46333 3.94625 6.57125 3.96375 6.69375C3.98125 6.81625 3.99 6.91974 3.99 7.00422C3.99 7.08871 3.98125 7.17621 3.96375 7.26672C3.94625 7.35724 3.92583 7.44917 3.9025 7.5425L9.205 10.5525C9.38 10.3892 9.58417 10.2579 9.8175 10.1587C10.0508 10.0596 10.3192 10.01 10.6225 10.01C11.1767 10.01 11.6477 10.204 12.0356 10.5919C12.4235 10.9798 12.6175 11.4508 12.6175 12.005C12.6175 12.5592 12.4235 13.0302 12.0356 13.4181C11.6477 13.806 11.1767 14 10.6225 14ZM10.6231 2.94C10.891 2.94 11.1154 2.84938 11.2962 2.66814C11.4771 2.4869 11.5675 2.26231 11.5675 1.99439C11.5675 1.72646 11.4769 1.50208 11.2956 1.32125C11.1144 1.14042 10.8898 1.05 10.6219 1.05C10.354 1.05 10.1296 1.14062 9.94875 1.32186C9.76792 1.5031 9.6775 1.72769 9.6775 1.99561C9.6775 2.26354 9.76812 2.48792 9.94936 2.66875C10.1306 2.84958 10.3552 2.94 10.6231 2.94ZM1.99561 7.945C2.26354 7.945 2.48792 7.85438 2.66875 7.67314C2.84958 7.4919 2.94 7.26731 2.94 6.99939C2.94 6.73146 2.84938 6.50708 2.66814 6.32625C2.4869 6.14542 2.26231 6.055 1.99439 6.055C1.72646 6.055 1.50208 6.14562 1.32125 6.32686C1.14042 6.5081 1.05 6.73269 1.05 7.00061C1.05 7.26854 1.14062 7.49292 1.32186 7.67375C1.5031 7.85458 1.72769 7.945 1.99561 7.945ZM10.6231 12.95C10.891 12.95 11.1154 12.8594 11.2962 12.6781C11.4771 12.4969 11.5675 12.2723 11.5675 12.0044C11.5675 11.7365 11.4769 11.5121 11.2956 11.3313C11.1144 11.1504 10.8898 11.06 10.6219 11.06C10.354 11.06 10.1296 11.1506 9.94875 11.3319C9.76792 11.5131 9.6775 11.7377 9.6775 12.0056C9.6775 12.2735 9.76812 12.4979 9.94936 12.6788C10.1306 12.8596 10.3552 12.95 10.6231 12.95Z" fill="black"/>
</svg>
