<svg width="23" height="23" viewBox="0 0 23 23" fill="none" xmlns="http://www.w3.org/2000/svg">
<path id="Vector" d="M9.36247 15.999L17.224 8.13747L16.2077 7.1391L9.36247 13.9955L5.90736 10.5404L4.92018 11.5387L9.36247 15.999ZM11.0853 22.1666C9.56429 22.1666 8.13127 21.8757 6.78618 21.2939C5.44109 20.7122 4.26481 19.9178 3.25733 18.9107C2.24984 17.9037 1.45508 16.7279 0.873046 15.3834C0.291015 14.0389 0 12.6062 0 11.0853C0 9.55234 0.290889 8.11146 0.872667 6.76264C1.45444 5.4138 2.24885 4.2405 3.25588 3.24275C4.26292 2.24498 5.43869 1.45508 6.78317 0.873047C8.12768 0.291017 9.56041 0 11.0814 0C12.6143 0 14.0551 0.29089 15.404 0.872668C16.7528 1.45445 17.9261 2.24399 18.9239 3.24129C19.9216 4.23862 20.7115 5.4114 21.2936 6.75964C21.8756 8.10786 22.1666 9.54843 22.1666 11.0814C22.1666 12.6023 21.8757 14.0353 21.2939 15.3804C20.7122 16.7255 19.9226 17.9018 18.9253 18.9093C17.928 19.9168 16.7552 20.7115 15.407 21.2936C14.0588 21.8756 12.6182 22.1666 11.0853 22.1666ZM11.0833 20.8429C13.7995 20.8429 16.1052 19.8924 18.0003 17.9913C19.8954 16.0903 20.8429 13.7876 20.8429 11.0833C20.8429 8.36707 19.8954 6.06141 18.0003 4.16631C16.1052 2.27124 13.7995 1.3237 11.0833 1.3237C8.37903 1.3237 6.07636 2.27124 4.1753 4.16631C2.27423 6.06141 1.3237 8.36707 1.3237 11.0833C1.3237 13.7876 2.27423 16.0903 4.1753 17.9913C6.07636 19.8924 8.37903 20.8429 11.0833 20.8429Z" fill="url(#paint0_linear_308_274)"/>
<defs>
<linearGradient id="paint0_linear_308_274" x1="-2.5" y1="-5" x2="14.5" y2="25" gradientUnits="userSpaceOnUse">
<stop stop-color="#0F52BA"/>
<stop offset="1" stop-color="#8225AF"/>
</linearGradient>
</defs>
</svg>
