<svg width="24" height="24" viewBox="0 0 24 24" fill="none" xmlns="http://www.w3.org/2000/svg">
<path id="Vector" d="M11.5359 18H12.5615V12.5692H18V11.5436H12.5615V6H11.5359V11.5436H6V12.5692H11.5359V18ZM12.0133 24C10.3428 24 8.78393 23.6851 7.33687 23.0554C5.88978 22.4256 4.62037 21.5653 3.52863 20.4746C2.43692 19.3839 1.57589 18.1149 0.945533 16.6675C0.315178 15.2202 0 13.6602 0 11.9878C0 10.3324 0.314878 8.77612 0.944634 7.31883C1.57441 5.86155 2.43466 4.59259 3.52537 3.51197C4.61608 2.43137 5.88511 1.57589 7.33247 0.945534C8.77985 0.315179 10.3398 0 12.0122 0C13.6676 0 15.2239 0.314877 16.6812 0.944633C18.1385 1.57441 19.4074 2.4291 20.488 3.5087C21.5686 4.5883 22.4241 5.85782 23.0545 7.31727C23.6848 8.77673 24 10.3332 24 11.9867C24 13.6572 23.6851 15.2161 23.0554 16.6631C22.4256 18.1102 21.5709 19.3776 20.4913 20.4652C19.4117 21.5528 18.1422 22.4139 16.6827 23.0483C15.2233 23.6828 13.6668 24 12.0133 24ZM12.0167 22.9744C15.0586 22.9744 17.6453 21.9073 19.7769 19.7731C21.9086 17.6389 22.9744 15.0423 22.9744 11.9833C22.9744 8.94144 21.9106 6.35469 19.7832 4.22307C17.6557 2.09145 15.0613 1.02563 12 1.02563C8.95213 1.02563 6.36111 2.08937 4.22693 4.21683C2.09273 6.34428 1.02563 8.93867 1.02563 12C1.02563 15.0479 2.09273 17.6389 4.22693 19.7731C6.36111 21.9073 8.95769 22.9744 12.0167 22.9744Z" fill="url(#paint0_linear_21_118)"/>
</svg>
