<svg width="41" height="28" viewBox="0 0 41 28" fill="none" xmlns="http://www.w3.org/2000/svg">
<path id="Vector" d="M8.78781 28C6.35186 28 4.27825 27.1423 2.56697 25.4268C0.855657 23.7114 0 21.632 0 19.1887C0 16.8441 0.83316 14.808 2.49948 13.0804C4.16583 11.3527 6.1219 10.4556 8.36767 10.3889C8.7274 7.41072 10.0211 4.9347 12.2489 2.96082C14.4767 0.986938 17.0951 0 20.104 0C23.3974 0 26.1659 1.16476 28.4095 3.49429C30.653 5.82382 31.7748 8.63633 31.7748 11.9318V14.5175H33.0082C34.9764 14.4251 36.6479 15.0273 38.0226 16.324C39.3973 17.6207 40.0847 19.2592 40.0847 21.2395C40.0847 23.1044 39.4359 24.6974 38.1382 26.0184C36.8406 27.3395 35.2578 28 33.3898 28H22.0466C21.2763 28 20.6213 27.7305 20.0814 27.1915C19.5414 26.6525 19.2715 25.9985 19.2715 25.2297V12.4013L14.6116 17.0917L13.4977 16.0182L20.0423 9.48466L26.587 16.0182L25.4731 17.0917L20.8132 12.4013V25.2297C20.8132 25.5375 20.9417 25.8196 21.1986 26.0762C21.4556 26.3327 21.7382 26.4609 22.0466 26.4609H33.3127C34.7645 26.4609 35.9991 25.9509 37.0166 24.931C38.0342 23.911 38.543 22.6849 38.543 21.2525C38.543 19.8202 38.0342 18.5961 37.0166 17.5803C35.9991 16.5645 34.7599 16.0566 33.2991 16.0566H30.2331V11.9318C30.2331 9.09168 29.2419 6.64952 27.2595 4.60535C25.2771 2.56117 22.8572 1.53908 19.9999 1.53908C17.1426 1.53908 14.7144 2.56117 12.7153 4.60535C10.7162 6.64952 9.71667 9.09168 9.71667 11.9318H8.64902C6.73217 11.9318 5.0684 12.6379 3.65773 14.05C2.24705 15.4621 1.54171 17.1902 1.54171 19.2343C1.54171 21.2116 2.24907 22.9104 3.66379 24.3306C5.07848 25.7508 6.78648 26.4609 8.78781 26.4609H14.7234V28H8.78781Z" fill="url(#paint0_linear_1197_236)"/>
<defs>
<linearGradient id="paint0_linear_1197_236" x1="11.5" y1="7.77906e-08" x2="27" y2="30.5" gradientUnits="userSpaceOnUse">
<stop stop-color="#0F52BA"/>
<stop offset="1" stop-color="#8225AF"/>
</linearGradient>
</defs>
</svg>
