<svg width="450" height="112" viewBox="0 0 450 112" fill="none" xmlns="http://www.w3.org/2000/svg">
<rect width="450" height="112" fill="url(#paint0_linear_2004_4)"/>
<path d="M444.589 59.2923C444.589 60.0351 445.191 60.6372 445.934 60.6372C446.677 60.6372 447.279 60.0351 447.279 59.2923C447.279 58.5494 446.677 57.9474 445.934 57.9474C445.191 57.9474 444.589 58.5494 444.589 59.2923Z" fill="#E21FCE"/>
<path d="M444.589 66.3195C444.589 67.0623 445.191 67.6644 445.934 67.6644C446.677 67.6644 447.279 67.0623 447.279 66.3195C447.279 65.5766 446.677 64.9745 445.934 64.9745C445.191 64.9745 444.589 65.5766 444.589 66.3195Z" fill="#E21FCE"/>
<path d="M437.745 59.2923C437.745 60.0351 438.347 60.6372 439.09 60.6372C439.833 60.6372 440.435 60.0351 440.435 59.2923C440.435 58.5494 439.833 57.9474 439.09 57.9474C438.347 57.9474 437.745 58.5494 437.745 59.2923Z" fill="#E21FCE"/>
<path d="M437.745 66.3195C437.745 67.0623 438.347 67.6644 439.09 67.6644C439.833 67.6644 440.435 67.0623 440.435 66.3195C440.435 65.5766 439.833 64.9745 439.09 64.9745C438.347 64.9745 437.745 65.5766 437.745 66.3195Z" fill="#E21FCE"/>
<path d="M416.908 59.2923C416.908 60.0351 417.51 60.6372 418.253 60.6372C418.995 60.6372 419.597 60.0351 419.597 59.2923C419.597 58.5494 418.995 57.9474 418.253 57.9474C417.51 57.9474 416.908 58.5494 416.908 59.2923Z" fill="#E21FCE"/>
<path d="M416.908 66.3195C416.908 67.0623 417.51 67.6644 418.253 67.6644C418.996 67.6644 419.598 67.0623 419.598 66.3195C419.598 65.5766 418.996 64.9745 418.253 64.9745C417.51 64.9745 416.908 65.5766 416.908 66.3195Z" fill="#E21FCE"/>
<path d="M410.063 59.2923C410.063 60.0351 410.665 60.6372 411.408 60.6372C412.151 60.6372 412.753 60.0351 412.753 59.2923C412.753 58.5494 412.151 57.9474 411.408 57.9474C410.665 57.9474 410.063 58.5494 410.063 59.2923Z" fill="#E21FCE"/>
<path d="M410.063 66.3195C410.063 67.0623 410.665 67.6644 411.408 67.6644C412.151 67.6644 412.753 67.0623 412.753 66.3195C412.753 65.5766 412.151 64.9745 411.408 64.9745C410.665 64.9745 410.063 65.5766 410.063 66.3195Z" fill="#E21FCE"/>
<path d="M430.761 59.2923C430.761 60.0351 431.363 60.6372 432.106 60.6372C432.849 60.6372 433.451 60.0351 433.451 59.2923C433.451 58.5494 432.849 57.9474 432.106 57.9474C431.363 57.9474 430.761 58.5494 430.761 59.2923Z" fill="#E21FCE"/>
<path d="M430.761 66.3195C430.761 67.0623 431.363 67.6644 432.106 67.6644C432.849 67.6644 433.451 67.0623 433.451 66.3195C433.451 65.5766 432.849 64.9745 432.106 64.9745C431.363 64.9745 430.761 65.5766 430.761 66.3195Z" fill="#E21FCE"/>
<path d="M423.917 59.2923C423.917 60.0351 424.519 60.6372 425.262 60.6372C426.004 60.6372 426.606 60.0351 426.606 59.2923C426.606 58.5494 426.004 57.9474 425.262 57.9474C424.519 57.9474 423.917 58.5494 423.917 59.2923Z" fill="#E21FCE"/>
<path d="M423.917 66.3195C423.917 67.0623 424.519 67.6644 425.262 67.6644C426.004 67.6644 426.606 67.0623 426.606 66.3195C426.606 65.5766 426.004 64.9745 425.262 64.9745C424.519 64.9745 423.917 65.5766 423.917 66.3195Z" fill="#E21FCE"/>
<path d="M409.909 112V72.0422L449.867 72.0422V112H409.909Z" fill="#74229C"/>
<path d="M369.951 72.0422H409.909V112C387.841 112 369.951 94.1101 369.951 72.0422Z" fill="#74229C"/>
<path d="M409.909 32.6807L369.951 72.0422V32.6807H409.909Z" fill="#DE0EC9"/>
<path d="M449.866 72.0422L409.909 112V72.0422H449.866Z" fill="#E21FCE"/>
<path d="M409.909 13H429.589V32.6807H409.909V13Z" fill="#BA0FA9"/>
<path d="M363.844 22.312C363.844 23.0549 364.446 23.6569 365.189 23.6569C365.932 23.6569 366.534 23.0549 366.534 22.312C366.534 21.5692 365.932 20.9671 365.189 20.9671C364.446 20.9671 363.844 21.5692 363.844 22.312Z" fill="#E21FCE"/>
<path d="M363.844 29.3392C363.844 30.082 364.446 30.6841 365.189 30.6841C365.932 30.6841 366.534 30.082 366.534 29.3392C366.534 28.5963 365.932 27.9943 365.189 27.9943C364.446 27.9943 363.844 28.5963 363.844 29.3392Z" fill="#E21FCE"/>
<path d="M357 22.312C357 23.0549 357.602 23.6569 358.345 23.6569C359.088 23.6569 359.69 23.0549 359.69 22.312C359.69 21.5692 359.088 20.9671 358.345 20.9671C357.602 20.9671 357 21.5692 357 22.312Z" fill="#E21FCE"/>
<path d="M357 29.3392C357 30.082 357.602 30.6841 358.345 30.6841C359.088 30.6841 359.69 30.082 359.69 29.3392C359.69 28.5963 359.088 27.9943 358.345 27.9943C357.602 27.9943 357 28.5963 357 29.3392Z" fill="#E21FCE"/>
<defs>
<linearGradient id="paint0_linear_2004_4" x1="-23" y1="-21.2738" x2="339.602" y2="305.394" gradientUnits="userSpaceOnUse">
<stop stop-color="#0F52BA"/>
<stop offset="0.467179" stop-color="#8225AF"/>
<stop offset="1" stop-color="#8225AF"/>
</linearGradient>
</defs>
</svg>
