<svg width="16" height="16" viewBox="0 0 16 16" fill="none" xmlns="http://www.w3.org/2000/svg">
<path id="Vector" d="M14.8942 16C13.2814 16 11.5958 15.5718 9.8375 14.7154C8.07917 13.859 6.4282 12.6558 4.8846 11.1058C3.34102 9.55577 2.14102 7.90481 1.2846 6.15287C0.4282 4.40096 0 2.71859 0 1.10578C0 0.789842 0.103475 0.526559 0.310425 0.315926C0.517392 0.105309 0.776092 0 1.08652 0H3.29283C3.58094 0 3.82116 0.0865326 4.01347 0.259599C4.20578 0.432683 4.34167 0.663459 4.42115 0.951926L4.94053 3.16987C4.97504 3.43482 4.96186 3.67275 4.90098 3.88365C4.84008 4.09455 4.73464 4.26855 4.58467 4.40565L2.35962 6.4827C2.81859 7.28013 3.30257 8.01475 3.81155 8.68655C4.32052 9.35833 4.86026 9.98397 5.43077 10.5634C6.06026 11.2096 6.7359 11.7984 7.4577 12.3298C8.17948 12.8612 8.96666 13.359 9.81922 13.8231L11.9827 11.6039C12.1494 11.4205 12.3295 11.2987 12.5232 11.2385C12.7169 11.1782 12.9323 11.1647 13.1692 11.1981L15.0481 11.6173C15.3365 11.6712 15.5673 11.8085 15.7404 12.0295C15.9135 12.2503 16 12.5034 16 12.7885V14.9135C16 15.2239 15.8947 15.4826 15.6841 15.6896C15.4734 15.8965 15.2102 16 14.8942 16ZM1.975 5.8L4.07692 3.84615C4.12821 3.79487 4.16347 3.72436 4.1827 3.63463C4.20192 3.54488 4.20512 3.46154 4.1923 3.38463L3.675 1.07693C3.66218 0.974359 3.62052 0.897434 3.55 0.84615C3.47948 0.794867 3.39294 0.769225 3.29037 0.769225H1.03845C0.961533 0.769225 0.897433 0.794867 0.84615 0.84615C0.794867 0.897434 0.769225 0.961534 0.769225 1.03845C0.764092 1.72563 0.866975 2.46634 1.07788 3.26057C1.28878 4.05481 1.58782 4.90128 1.975 5.8ZM10.5654 14.1827C11.2487 14.5378 12.0032 14.8026 12.8288 14.9769C13.6545 15.1513 14.3654 15.2423 14.9615 15.25C15.0385 15.25 15.1026 15.2244 15.1538 15.1731C15.2051 15.1218 15.2308 15.0577 15.2308 14.9808V12.7481C15.2308 12.6455 15.2051 12.559 15.1538 12.4885C15.1026 12.418 15.0256 12.3763 14.9231 12.3635L12.9635 11.9538C12.8865 11.941 12.8192 11.9442 12.7615 11.9635C12.7038 11.9827 12.643 12.0179 12.5788 12.0692L10.5654 14.1827Z" fill="black"/>
</svg>
