<svg width="42" height="42" viewBox="0 0 42 42" fill="none" xmlns="http://www.w3.org/2000/svg">
<g id="Group 1378">
<g id="Group 1377">
<path id="Vector" d="M26.2935 0.0375691C24.8984 0.201699 23.3966 0.554577 22.3544 0.973107C17.8737 2.75391 14.6157 6.5453 13.5325 11.2476C13.3191 12.1667 13.434 12.0847 12.1702 12.1667C10.7915 12.257 8.92863 12.7904 7.46787 13.529C4.27556 15.1293 1.81361 17.9605 0.697532 21.3334C-0.845285 25.9782 0.205144 30.9596 3.51235 34.6607L4.17708 35.3993V38.0664C4.17708 40.4791 4.19349 40.7663 4.333 41.0617C4.69409 41.8496 5.58859 42.2107 6.37641 41.8742C6.56516 41.8003 7.26271 41.1684 8.2557 40.1837L9.83134 38.6162L10.4714 38.7475C12.2276 39.1168 14.1397 39.166 15.781 38.887C20.0812 38.1567 23.7906 35.35 25.6698 31.4191C26.0555 30.6067 26.5808 29.1624 26.5808 28.908C26.5808 28.8177 26.7859 28.7931 27.6804 28.7931C28.895 28.7931 29.6992 28.7028 30.7989 28.4484L31.5211 28.2843L33.2198 29.9666C34.1471 30.8857 35.0334 31.7064 35.1893 31.7884C35.3945 31.8869 35.6079 31.9197 35.9772 31.8951C36.568 31.8623 36.9373 31.6489 37.2574 31.1894L37.4543 30.8939L37.479 27.9068L37.5036 24.9114L38.0452 24.3287C40.2527 21.9489 41.574 19.0684 41.9187 15.8925C42.2141 13.25 41.7053 10.4352 40.5071 8.03068C40.1461 7.3003 40.0312 7.14438 39.7768 7.02128C39.4239 6.84894 39.1449 6.89818 38.8494 7.18541C38.5622 7.48084 38.5868 7.83372 38.9397 8.53948C40.3923 11.4282 40.7369 14.6533 39.9163 17.6979C39.35 19.7988 38.2422 21.7601 36.7322 23.2947C36.3629 23.6804 36.0182 24.0497 35.9772 24.1154C35.9279 24.181 35.8787 25.5515 35.8541 27.2338L35.813 30.2292L34.0076 28.4402C33.0146 27.4554 32.1201 26.6101 32.0134 26.5691C31.8821 26.5199 31.5621 26.5691 30.9056 26.7332C29.5515 27.0861 28.5831 27.1846 27.0403 27.1271C24.6769 27.0451 22.6663 26.4132 20.6721 25.1248C17.7998 23.2619 15.8385 20.4142 15.0671 16.9921C14.9194 16.311 14.8947 15.9417 14.8947 14.3907C14.8947 12.7248 14.9111 12.5114 15.1081 11.6826C15.9205 8.26046 17.8901 5.46205 20.8034 3.58277C21.9359 2.85239 23.7085 2.16305 25.2103 1.85941C26.5233 1.5968 28.7801 1.5968 30.0275 1.86761C31.1682 2.1056 32.1776 2.45027 33.2198 2.95087C33.6876 3.17244 34.1553 3.35299 34.262 3.35299C34.8118 3.35299 35.1976 2.83598 35.0334 2.32718C34.9185 1.9825 34.6805 1.80196 33.786 1.38343C32.3253 0.702294 30.7004 0.250937 29.1084 0.0786015C28.3616 -0.0034633 26.8598 -0.0280827 26.2935 0.0375691ZM13.2288 15.1047C13.3109 17.4025 13.7951 19.1094 15.0753 21.5878C15.0917 21.6288 15.026 21.6534 14.9358 21.6534C14.6403 21.6534 13.7704 21.9817 13.4258 22.2197L13.0975 22.4495L12.638 22.1704C11.9568 21.7601 11.4234 21.6288 10.5781 21.6698C9.97085 21.6945 9.77389 21.7437 9.29792 21.9817C7.91923 22.6546 7.115 24.1646 7.36119 25.6254C7.54173 26.7414 7.64842 26.881 10.3155 29.5481C12.6872 31.9279 12.7611 31.9936 13.0811 31.9936C13.393 31.9936 13.4668 31.9279 15.7318 29.6712C18.0706 27.3405 18.4317 26.9138 18.6697 26.2244L18.7928 25.8551L19.5888 26.3886C20.9839 27.3159 23.0027 28.1858 24.4307 28.4648C24.7097 28.5222 24.9395 28.6125 24.9395 28.6618C24.9395 28.9162 24.4142 30.262 24.0039 31.058C22.7401 33.5282 20.4669 35.588 17.9393 36.581C16.3637 37.1965 15.182 37.4181 13.4832 37.4181C12.2605 37.4181 11.5465 37.3278 10.3894 37.0242C9.88878 36.9011 9.50308 36.8436 9.36357 36.8764C9.23227 36.9093 8.50189 37.5658 7.48429 38.5834L5.81837 40.2329V37.5412C5.81837 35.6783 5.78555 34.8002 5.7281 34.6771C5.67066 34.5786 5.30957 34.1601 4.90745 33.7416C3.35643 32.1085 2.36345 30.1882 1.86285 27.8575C1.62486 26.725 1.60845 24.6816 1.83003 23.4999C2.28959 21.0297 3.36464 19.0027 5.15365 17.2219C6.57337 15.8022 8.05053 14.8913 9.83955 14.3168C10.8489 13.9886 12.8513 13.6439 13.1303 13.7506C13.155 13.7588 13.2042 14.3743 13.2288 15.1047ZM11.5219 23.4178C11.686 23.4835 12.0143 23.7297 12.2687 23.9677C12.679 24.3534 12.7693 24.4026 13.0811 24.4026C13.393 24.4026 13.4832 24.3534 13.8935 23.9677C14.4434 23.4506 14.7798 23.2947 15.3543 23.2947C16.7248 23.3029 17.6193 24.7473 17.0038 25.9618C16.9381 26.0931 16.0272 27.0697 14.985 28.1201L13.0811 30.024L11.2511 28.2022C10.2417 27.1928 9.33074 26.2244 9.22406 26.0439C8.66602 25.1001 9.06814 23.861 10.0857 23.426C10.455 23.2701 11.1608 23.2619 11.5219 23.4178Z" fill="#0F52BA"/>
</g>
<path id="Vector_2" d="M36.6418 4.22284C36.2233 4.64958 36.3874 5.40457 36.9455 5.55229C37.3065 5.64256 37.5363 5.58512 37.7825 5.34713C38.078 5.0517 38.0698 4.52648 37.7743 4.22284C37.602 4.05871 37.4707 4.00947 37.2081 4.00947C36.9455 4.00947 36.8142 4.05871 36.6418 4.22284Z" fill="#0F52BA"/>
<path id="Vector_3" d="M24.3649 9.86098C23.2735 10.1072 22.3461 10.8458 21.8455 11.8716C21.5419 12.4871 21.5337 12.5117 21.5337 13.439C21.5337 14.3663 21.5419 14.4074 21.8455 15.0393C22.1328 15.6465 22.2887 15.8271 24.5537 18.1003C25.8667 19.4297 27.0484 20.5704 27.1715 20.6361C27.2946 20.7017 27.5162 20.751 27.6639 20.751C27.9101 20.751 28.1727 20.513 30.528 18.1413C33.3674 15.2855 33.4577 15.1706 33.6547 14.0135C33.9173 12.4871 33.0474 10.8211 31.6441 10.1646C30.4049 9.58196 29.2232 9.64762 28.0414 10.3698L27.5737 10.657L27.2044 10.4026C26.4083 9.86919 25.2758 9.65582 24.3649 9.86098ZM25.7354 11.5187C26.0308 11.609 26.3099 11.7895 26.6956 12.1342C27.1715 12.5691 27.2782 12.6266 27.5737 12.6266C27.8609 12.6266 27.9758 12.5691 28.3615 12.2162C29.018 11.609 29.3873 11.4448 30.0274 11.4448C30.6921 11.4366 31.3158 11.7485 31.6687 12.2573C32.0872 12.8646 32.1693 13.4636 31.9477 14.153C31.8246 14.5058 31.5374 14.8259 29.7073 16.6724L27.6147 18.7814L25.5385 16.7134C24.25 15.425 23.3966 14.5141 23.2981 14.3007C22.7975 13.2667 23.413 11.8716 24.5291 11.5187C25.0132 11.371 25.2348 11.371 25.7354 11.5187Z" fill="#0F52BA"/>
</g>
</svg>
