<svg width="21" height="16" viewBox="0 0 21 16" fill="none" xmlns="http://www.w3.org/2000/svg">
<path id="Vector" d="M1.5824 16C1.14322 16 0.769686 15.8461 0.4618 15.5382C0.153933 15.2303 0 14.8568 0 14.4176V1.5824C0 1.14322 0.153933 0.769686 0.4618 0.461801C0.769686 0.153934 1.14322 0 1.5824 0H18.989C19.4282 0 19.8017 0.153934 20.1096 0.461801C20.4175 0.769686 20.5714 1.14322 20.5714 1.5824V14.4176C20.5714 14.8568 20.4175 15.2303 20.1096 15.5382C19.8017 15.8461 19.4282 16 18.989 16H1.5824ZM10.2857 7.83297L0.879114 1.54946V14.4176C0.879114 14.6227 0.945048 14.7912 1.07691 14.9231C1.20878 15.055 1.37728 15.1209 1.5824 15.1209H18.989C19.1942 15.1209 19.3626 15.055 19.4945 14.9231C19.6264 14.7912 19.6923 14.6227 19.6923 14.4176V1.54946L10.2857 7.83297ZM10.2857 6.82197L19.2923 0.879114H1.30769L10.2857 6.82197ZM0.879114 1.54946V0.879114V14.4176C0.879114 14.6227 0.945048 14.7912 1.07691 14.9231C1.20878 15.055 1.37728 15.1209 1.5824 15.1209H0.879114V1.54946Z" fill="black"/>
</svg>
