<svg width="44" height="42" viewBox="0 0 44 42" fill="none" xmlns="http://www.w3.org/2000/svg">
<g id="Group">
<path id="Vector" d="M22.3885 0.247624C21.9103 0.67456 21.953 0.836795 23.3704 3.53503L24.6171 5.92586L23.7034 6.23326C21.0564 7.12982 18.6144 8.79487 16.9066 10.8612L16.2406 11.6724L14.772 11.7236C12.2787 11.809 10.4087 12.2701 8.3167 13.3204C4.44866 15.2587 1.46866 18.9474 0.435474 23.0972C0.085387 24.489 0 25.2319 0 26.8542C0 28.4766 0.085387 29.2194 0.435474 30.6113C0.85387 32.2934 1.6992 34.1207 2.74946 35.6064C3.47525 36.6481 5.30254 38.4754 6.3528 39.2183C7.32621 39.9099 9.26449 40.8919 10.3233 41.2334C14.883 42.7021 19.5963 42.0446 23.5839 39.3976C24.6427 38.6889 26.2651 37.1861 26.9738 36.2553L27.4007 35.6918L27.9984 35.743C29.2878 35.8455 31.6957 35.5039 33.1985 35.0002C38.9109 33.096 42.9241 28.1436 43.573 22.1836C44.2646 15.882 40.8321 9.72559 35.0855 6.95905C34.3 6.58334 33.873 6.41257 32.6776 6.01979C32.6179 6.00271 33.0106 5.08053 33.7364 3.56918C35.0514 0.836795 35.1026 0.666021 34.633 0.247624L34.3597 1.91417e-06H28.5107H22.6617L22.3885 0.247624ZM32.1653 2.87755C31.8579 3.52649 31.4395 4.41451 31.2346 4.85852C30.9186 5.53308 30.8333 5.64409 30.7137 5.58431C30.6283 5.55016 29.6037 5.50747 28.4424 5.50747L26.3163 5.49893L25.3343 3.60334L24.3609 1.70774H28.5449H32.7289L32.1653 2.87755ZM31.2175 7.42014C35.4954 8.34232 39.0731 11.2455 40.815 15.1989C41.9763 17.8288 42.2495 20.7917 41.6006 23.6095C40.4222 28.7157 36.3407 32.7032 31.2004 33.762C30.4917 33.9072 28.5705 34.1121 28.5022 34.0438C28.4851 34.0267 28.6132 33.6937 28.801 33.318C28.9804 32.9338 29.1768 32.5068 29.2194 32.3617C29.3048 32.1397 29.3561 32.1055 29.6208 32.1055C30.116 32.1055 31.542 31.7896 32.3702 31.4993C36.2297 30.1331 39.0048 26.9311 39.8843 22.7983C40.0978 21.7737 40.0978 19.3743 39.8757 18.3668C39.0902 14.7549 36.8787 11.8603 33.6852 10.255C32.0714 9.44381 30.3978 9.05103 28.5107 9.05103C27.1616 9.05103 26.0601 9.2218 24.9074 9.60604C20.8942 10.9466 18.0594 14.1401 17.1457 18.3668C16.9237 19.3743 16.9237 21.7737 17.1372 22.7983C17.4787 24.378 18.1447 25.9577 19.0157 27.2385C19.972 28.6303 21.7481 30.1587 23.3277 30.9443L23.9511 31.2602L23.7205 31.6615C23.3448 32.3105 23.0033 32.7886 22.9093 32.7886C22.6703 32.7886 21.0991 31.8664 20.3136 31.2602C14.6439 26.8969 13.3972 18.7852 17.4958 12.8849C18.196 11.8773 19.9464 10.1525 20.954 9.4865C22.4739 8.47894 24.1475 7.77022 25.8125 7.43721C27.0079 7.18959 27.0848 7.18959 28.8096 7.21521C30.005 7.24082 30.5856 7.28352 31.2175 7.42014ZM30.4576 10.9381C32.3019 11.3052 33.9157 12.142 35.2819 13.4399C38.4412 16.4285 39.2695 21.0991 37.3227 24.9757C36.8445 25.9406 36.392 26.5724 35.6149 27.3836C34.5305 28.5193 33.3266 29.3219 31.9262 29.8428C31.3029 30.0819 29.9538 30.4063 29.894 30.338C29.8684 30.3209 29.8855 30.1758 29.9282 30.0306C29.9623 29.8769 30.0562 29.3048 30.1331 28.7498C30.8247 23.4217 28.5705 18.0764 24.2414 14.7634C23.6095 14.2853 22.8923 13.8242 22.3031 13.5253L21.8591 13.2948L22.1494 13.0471C22.9606 12.3555 24.3951 11.5529 25.377 11.2284C26.914 10.7332 28.8864 10.6136 30.4576 10.9381ZM14.7207 14.3194C14.3194 15.2245 14.3023 15.2416 13.9779 15.3014C13.7985 15.3355 13.3118 15.4209 12.902 15.4978C11.4419 15.7625 9.94759 16.3858 8.61555 17.2653C7.72753 17.8459 6.0881 19.4853 5.50746 20.3648C4.64506 21.6712 4.07296 23.046 3.73995 24.6C3.51795 25.6076 3.51795 28.0923 3.73141 29.0999C4.24374 31.4481 5.27692 33.3436 6.94197 35.0172C9.07664 37.1519 11.6639 38.279 14.678 38.3986C17.9227 38.5352 20.9284 37.3483 23.268 35.0172C25.915 32.3702 27.0933 28.8096 26.5383 25.1209C26.1882 22.7642 25.1294 20.6124 23.4644 18.8791C22.5336 17.9057 21.6371 17.2226 20.5014 16.6078L19.6817 16.1723L20.0574 15.5319C20.6722 14.5073 20.6039 14.55 21.1248 14.8147C22.4995 15.5063 23.6864 16.4029 24.8476 17.6068C28.7157 21.6285 29.6464 27.691 27.1616 32.7801C25.3258 36.5542 21.62 39.3378 17.4104 40.0978C16.215 40.3112 13.9608 40.3112 12.7995 40.0978C7.2579 39.0731 2.99709 34.8721 1.89559 29.3475C1.62235 27.9813 1.62235 25.7271 1.89559 24.3609C2.67261 20.4844 4.95245 17.2567 8.32524 15.2416C10.1013 14.1913 12.5861 13.4655 14.6012 13.4143L15.1306 13.4058L14.7207 14.3194ZM13.5936 17.9057C13.3801 19.0755 13.3118 20.9284 13.4314 22.0726C13.9693 27.0079 16.6334 31.1577 20.8942 33.6852L21.731 34.1804L21.4919 34.3854C20.9625 34.8294 19.8354 35.5381 19.2035 35.8199C14.6695 37.8862 9.31573 36.2468 6.68581 31.986C6.17348 31.1492 5.80632 30.2697 5.516 29.2109C5.31961 28.4766 5.30254 28.2375 5.30254 26.8542C5.30254 25.4624 5.31961 25.2404 5.52454 24.4805C6.48088 20.9198 9.18765 18.196 12.6885 17.2909C13.8583 16.992 13.7729 16.9323 13.5936 17.9057ZM19.6134 18.0679C20.9454 18.751 22.4226 20.0574 23.2594 21.2955C24.4805 23.1143 25.044 25.1465 24.9416 27.3239C24.9074 28.118 24.6854 29.4927 24.5829 29.6122C24.5659 29.6293 24.2926 29.5098 23.9767 29.3475C20.6039 27.6312 18.529 24.0706 18.6741 20.2367C18.7168 19.1779 18.9474 17.8459 19.0925 17.8459C19.1352 17.8459 19.3658 17.9484 19.6134 18.0679Z" fill="#0F52BA"/>
</g>
</svg>
