<svg width="17" height="16" viewBox="0 0 17 16" fill="none" xmlns="http://www.w3.org/2000/svg">
<path id="Vector" d="M3.27928 9.84325H9.76396V9.12251H3.27928V9.84325ZM3.27928 6.92431H13.5856V6.2036H3.27928V6.92431ZM3.27928 4.0054H13.5856V3.28469H3.27928V4.0054ZM0 16V1.29728C0 0.937233 0.126197 0.631004 0.378593 0.378593C0.631003 0.126198 0.937234 0 1.29728 0H15.5676C15.9276 0 16.2339 0.126198 16.4863 0.378593C16.7387 0.631004 16.8649 0.937233 16.8649 1.29728V11.8198C16.8649 12.1799 16.7387 12.4861 16.4863 12.7385C16.2339 12.9909 15.9276 13.1171 15.5676 13.1171H2.88288L0 16ZM2.56217 12.3964H15.5676C15.7117 12.3964 15.8438 12.3363 15.964 12.2162C16.0841 12.0961 16.1441 11.964 16.1441 11.8198V1.29728C16.1441 1.15315 16.0841 1.02102 15.964 0.900888C15.8438 0.780773 15.7117 0.720715 15.5676 0.720715H1.29728C1.15315 0.720715 1.02102 0.780773 0.900888 0.900888C0.780773 1.02102 0.720715 1.15315 0.720715 1.29728V14.3063L2.56217 12.3964Z" fill="black"/>
</svg>
