<svg width="38" height="38" viewBox="0 0 38 38" fill="none" xmlns="http://www.w3.org/2000/svg">
<path id="Vector" d="M15.9633 27.2496L29.4663 13.7466L27.9722 12.2526L15.9633 24.2615L9.94661 18.2449L8.45257 19.7389L15.9633 27.2496ZM19.0071 38C16.3797 38 13.9095 37.5014 11.5965 36.5043C9.28358 35.5072 7.2716 34.1539 5.56061 32.4446C3.84966 30.7352 2.49516 28.7251 1.49709 26.4143C0.499031 24.1035 0 21.6344 0 19.0071C0 16.3797 0.498557 13.9095 1.49567 11.5965C2.49282 9.28358 3.84608 7.2716 5.55544 5.56061C7.26481 3.84966 9.27489 2.49516 11.5857 1.4971C13.8965 0.499033 16.3656 0 18.9929 0C21.6203 0 24.0905 0.498556 26.4035 1.49567C28.7164 2.49282 30.7284 3.84607 32.4394 5.55544C34.1503 7.26481 35.5048 9.27489 36.5029 11.5857C37.501 13.8965 38 16.3656 38 18.9929C38 21.6203 37.5014 24.0905 36.5043 26.4035C35.5072 28.7164 34.1539 30.7284 32.4446 32.4394C30.7352 34.1503 28.7251 35.5048 26.4143 36.5029C24.1035 37.501 21.6344 38 19.0071 38ZM19 35.8889C23.7148 35.8889 27.7083 34.2528 30.9806 30.9806C34.2528 27.7083 35.8889 23.7148 35.8889 19C35.8889 14.2852 34.2528 10.2917 30.9806 7.01944C27.7083 3.74722 23.7148 2.11111 19 2.11111C14.2852 2.11111 10.2917 3.74722 7.01944 7.01944C3.74722 10.2917 2.11111 14.2852 2.11111 19C2.11111 23.7148 3.74722 27.7083 7.01944 30.9806C10.2917 34.2528 14.2852 35.8889 19 35.8889Z" fill="url(#paint0_linear_69_109)"/>
<defs>
<linearGradient id="paint0_linear_69_109" x1="2.87879" y1="0.575757" x2="29.9394" y2="38.5758" gradientUnits="userSpaceOnUse">
<stop stop-color="#0F52BA"/>
<stop offset="1" stop-color="#8225AF"/>
</linearGradient>
</defs>
</svg>
