<svg width="24" height="24" viewBox="0 0 24 24" fill="none" xmlns="http://www.w3.org/2000/svg">
<g id="restaurant_FILL0_wght200_GRAD0_opsz24 1">
<path id="Vector" d="M7.50006 21.5V12.4654C6.72698 12.3474 6.07217 11.993 5.53563 11.4019C4.9991 10.8109 4.73083 10.0872 4.73083 9.23078V2.5H5.73083V9.23078H7.50006V2.5H8.50006V9.23078H10.2693V2.5H11.2693V9.23078C11.2693 10.0872 11.001 10.8109 10.4645 11.4019C9.92795 11.993 9.27314 12.3474 8.50006 12.4654V21.5H7.50006ZM16.7308 21.5V13.5H14.2693V7C14.2693 5.8859 14.5837 4.89904 15.2126 4.03943C15.8414 3.17981 16.6808 2.67948 17.7308 2.53845V21.5H16.7308Z" fill="black"/>
</g>
</svg>
