<svg width="38" height="38" viewBox="0 0 38 38" fill="none" xmlns="http://www.w3.org/2000/svg">
<path id="Vector" d="M16.05 23.9923L10.9769 18.9C10.741 18.6769 10.4608 18.5622 10.1365 18.5558C9.81213 18.5494 9.52175 18.6744 9.26535 18.9308C9.02945 19.1667 8.9115 19.4468 8.9115 19.7711C8.9115 20.0955 9.02945 20.3756 9.26535 20.6115L15.0384 26.4153C15.3256 26.7153 15.6628 26.8653 16.05 26.8653C16.4371 26.8653 16.7743 26.7153 17.0615 26.4153L28.6653 14.8307C28.9089 14.5743 29.0339 14.2839 29.0403 13.9596C29.0467 13.6352 28.9217 13.3449 28.6653 13.0885C28.4089 12.8526 28.1134 12.7397 27.7788 12.75C27.4442 12.7602 27.159 12.8833 26.9231 13.1192L16.05 23.9923ZM19.0033 37.9999C16.3959 37.9999 13.9393 37.5012 11.6335 36.5039C9.32758 35.5066 7.3111 34.1447 5.584 32.4184C3.85687 30.692 2.49442 28.6764 1.49665 26.3716C0.498884 24.0667 0 21.6106 0 19.0033C0 16.3754 0.498667 13.9054 1.496 11.5931C2.49333 9.2808 3.85517 7.26944 5.5815 5.559C7.30787 3.84854 9.32347 2.49442 11.6283 1.49665C13.9332 0.498886 16.3893 0 18.9966 0C21.6245 0 24.0945 0.498669 26.4068 1.496C28.7191 2.49334 30.7305 3.84683 32.4409 5.5565C34.1514 7.2662 35.5055 9.27669 36.5033 11.588C37.501 13.8992 37.9999 16.3687 37.9999 18.9966C37.9999 21.604 37.5012 24.0606 36.5039 26.3665C35.5066 28.6723 34.1531 30.6888 32.4434 32.4159C30.7337 34.143 28.7232 35.5055 26.412 36.5033C24.1007 37.501 21.6312 37.9999 19.0033 37.9999ZM19 35.7307C23.6564 35.7307 27.6089 34.1012 30.8577 30.8423C34.1064 27.5833 35.7307 23.6359 35.7307 19C35.7307 14.3436 34.1064 10.391 30.8577 7.14225C27.6089 3.89355 23.6564 2.2692 19 2.2692C14.3641 2.2692 10.4166 3.89355 7.15765 7.14225C3.89868 10.391 2.2692 14.3436 2.2692 19C2.2692 23.6359 3.89868 27.5833 7.15765 30.8423C10.4166 34.1012 14.3641 35.7307 19 35.7307Z" fill="white"/>
</svg>
