<svg width="24" height="24" viewBox="0 0 24 24" fill="none" xmlns="http://www.w3.org/2000/svg">
<g id="emoji_transportation_FILL0_wght200_GRAD0_opsz24 1">
<path id="Vector" d="M10.1154 20.1962V14.6544L11.4769 10.7654C11.5218 10.6847 11.5753 10.6202 11.6375 10.5722C11.6997 10.5241 11.7961 10.5 11.9269 10.5H19.0731C19.185 10.5 19.2809 10.5241 19.3609 10.5722C19.4408 10.6202 19.4949 10.6847 19.5231 10.7654L20.8846 14.6544V20.1962C20.8846 20.3144 20.8443 20.4139 20.7637 20.4945C20.683 20.5751 20.5836 20.6154 20.4654 20.6154H20.3038C20.1856 20.6154 20.0861 20.5751 20.0055 20.4945C19.9249 20.4139 19.8846 20.3144 19.8846 20.1962V18.9231H11.1154V20.1962C11.1154 20.3144 11.0751 20.4139 10.9944 20.4945C10.9138 20.5751 10.8144 20.6154 10.6961 20.6154H10.5346C10.4164 20.6154 10.3169 20.5751 10.2363 20.4945C10.1557 20.4139 10.1154 20.3144 10.1154 20.1962ZM11.3461 13.8462H19.6538L18.8 11.3847H12.2L11.3461 13.8462ZM12.5769 17.1924C12.8275 17.1924 13.0376 17.1076 13.2072 16.938C13.3768 16.7685 13.4615 16.5584 13.4615 16.3077C13.4615 16.0571 13.3768 15.847 13.2072 15.6774C13.0376 15.5079 12.8275 15.4231 12.5769 15.4231C12.3263 15.4231 12.1162 15.5079 11.9466 15.6774C11.7771 15.847 11.6923 16.0571 11.6923 16.3077C11.6923 16.5584 11.7771 16.7685 11.9466 16.938C12.1162 17.1076 12.3263 17.1924 12.5769 17.1924ZM18.4231 17.1924C18.6737 17.1924 18.8838 17.1076 19.0534 16.938C19.2229 16.7685 19.3077 16.5584 19.3077 16.3077C19.3077 16.0571 19.2229 15.847 19.0534 15.6774C18.8838 15.5079 18.6737 15.4231 18.4231 15.4231C18.1724 15.4231 17.9623 15.5079 17.7928 15.6774C17.6232 15.847 17.5385 16.0571 17.5385 16.3077C17.5385 16.5584 17.6232 16.7685 17.7928 16.938C17.9623 17.1076 18.1724 17.1924 18.4231 17.1924ZM6.34613 12.6154V11.077H7.88461V12.6154H6.34613ZM10.3461 7.61542V6.07697H11.8846V7.61542H10.3461ZM6.34613 16.6154V15.077H7.88461V16.6154H6.34613ZM6.34613 20.6154V19.077H7.88461V20.6154H6.34613ZM3.11536 20.6154V7.84619H7.11536V2.84619H15.1154V8.26927H14.1154V3.84619H8.11538V8.84619H4.11536V20.6154H3.11536ZM11 18.0385H20V14.7308H11V18.0385Z" fill="black"/>
</g>
</svg>
