<svg width="36" height="36" viewBox="0 0 36 36" fill="none" xmlns="http://www.w3.org/2000/svg">
<path d="M14.3496 24.4501L24.4496 18.0001L14.3496 11.5501V24.4501ZM18.0083 35.4001C15.6025 35.4001 13.3486 34.9436 11.2467 34.0305C9.14474 33.1175 7.30183 31.87 5.71796 30.2881C4.13413 28.7062 2.88511 26.8657 1.97091 24.7664C1.05671 22.6671 0.599609 20.4146 0.599609 18.0088C0.599609 15.603 1.05613 13.3408 1.96916 11.2222C2.88223 9.10357 4.12969 7.26066 5.71156 5.6935C7.29346 4.1263 9.13404 2.8856 11.2333 1.9714C13.3326 1.0572 15.5851 0.600098 17.9909 0.600098C20.3967 0.600098 22.6589 1.05661 24.7775 1.96965C26.8961 2.88271 28.739 4.12185 30.3062 5.68705C31.8734 7.25228 33.1141 9.09286 34.0283 11.2088C34.9425 13.3247 35.3996 15.5856 35.3996 17.9914C35.3996 20.3972 34.9431 22.6511 34.0301 24.753C33.117 26.855 31.8779 28.6979 30.3127 30.2817C28.7474 31.8656 26.9068 33.1146 24.7909 34.0288C22.675 34.943 20.4141 35.4001 18.0083 35.4001ZM17.9996 34.3001C22.5329 34.3001 26.3829 32.7168 29.5496 29.5501C32.7163 26.3834 34.2996 22.5334 34.2996 18.0001C34.2996 13.4668 32.7163 9.61676 29.5496 6.4501C26.3829 3.28343 22.5329 1.7001 17.9996 1.7001C13.4663 1.7001 9.61628 3.28343 6.44961 6.4501C3.28294 9.61676 1.69961 13.4668 1.69961 18.0001C1.69961 22.5334 3.28294 26.3834 6.44961 29.5501C9.61628 32.7168 13.4663 34.3001 17.9996 34.3001Z" fill="white"/>
</svg>
