<svg width="20" height="18" viewBox="0 0 20 18" fill="none" xmlns="http://www.w3.org/2000/svg">
<path d="M1.48354 18C1.08019 18 0.73209 17.8536 0.439254 17.5607C0.146418 17.2679 0 16.9198 0 16.5165V4.91141C0 4.50807 0.146418 4.15998 0.439254 3.86714C0.73209 3.57431 1.08019 3.42789 1.48354 3.42789H6.35939V1.48352C6.35939 1.08016 6.5058 0.732074 6.79864 0.439255C7.09146 0.146419 7.43955 0 7.8429 0H11.7C12.1034 0 12.4515 0.146419 12.7443 0.439255C13.0371 0.732074 13.1835 1.08016 13.1835 1.48352V3.42789H18.0594C18.4627 3.42789 18.8108 3.57431 19.1037 3.86714C19.3965 4.15998 19.5429 4.50807 19.5429 4.91141V16.5165C19.5429 16.9198 19.3965 17.2679 19.1037 17.5607C18.8108 17.8536 18.4627 18 18.0594 18H1.48354ZM7.52641 3.42789H12.0165V1.48352C12.0165 1.40439 11.9835 1.33185 11.9176 1.26592C11.8517 1.19997 11.7792 1.167 11.7 1.167H7.8429C7.76377 1.167 7.69124 1.19997 7.62531 1.26592C7.55938 1.33185 7.52641 1.40439 7.52641 1.48352V3.42789ZM18.3759 11.8819H11.795V13.3061H7.77959V11.8819H1.16702V16.5165C1.16702 16.5956 1.19999 16.6681 1.26592 16.7341C1.33187 16.8 1.40441 16.833 1.48354 16.833H18.0594C18.1385 16.833 18.2111 16.8 18.277 16.7341C18.3429 16.6681 18.3759 16.5956 18.3759 16.5165V11.8819ZM8.94662 12.1391H10.628V10.4578H8.94662V12.1391ZM1.16702 10.7149H7.77959V9.29078H11.795V10.7149H18.3759V4.91141C18.3759 4.83229 18.3429 4.75976 18.277 4.69381C18.2111 4.62788 18.1385 4.59491 18.0594 4.59491H1.48354C1.40441 4.59491 1.33187 4.62788 1.26592 4.69381C1.19999 4.75976 1.16702 4.83229 1.16702 4.91141V10.7149Z" fill="black"/>
</svg>