<svg width="19" height="18" viewBox="0 0 19 18" fill="none" xmlns="http://www.w3.org/2000/svg">
<path d="M16.8456 18C14.8692 18 12.8806 17.4926 10.8797 16.4779C8.87876 15.4631 7.07263 14.1518 5.46128 12.5438C3.84994 10.9359 2.53689 9.13314 1.52212 7.13564C0.507374 5.13815 0 3.1512 0 1.17481C0 0.839154 0.111883 0.559442 0.335649 0.335676C0.559415 0.111892 0.839127 0 1.17479 0H4.2088C4.47972 0 4.71601 0.0875181 4.91768 0.262554C5.11933 0.43759 5.25012 0.673573 5.31006 0.970506L5.94548 3.82678C5.98771 4.0883 5.98158 4.32598 5.9271 4.53983C5.87261 4.75368 5.76831 4.93087 5.61419 5.07139L3.10961 7.52078C4.12846 9.21521 5.25832 10.6767 6.49919 11.9054C7.74006 13.134 9.17025 14.1903 10.7898 15.0743L13.1905 12.5837C13.3675 12.3889 13.5661 12.2534 13.786 12.1771C14.006 12.1008 14.2345 12.0892 14.4715 12.1424L17.0499 12.7104C17.3415 12.7701 17.5761 12.9083 17.7538 13.125C17.9315 13.3416 18.0204 13.6012 18.0204 13.9036V16.8252C18.0204 17.1608 17.9085 17.4406 17.6847 17.6643C17.461 17.8881 17.1813 18 16.8456 18ZM2.49669 6.42772L4.68897 4.30081C4.71622 4.27356 4.73495 4.2361 4.74517 4.18843C4.75539 4.14074 4.75709 4.09648 4.75027 4.05562L4.17002 1.36889C4.1632 1.31441 4.14107 1.27355 4.10362 1.24631C4.06615 1.21906 4.02017 1.20544 3.96569 1.20544H1.34844C1.30757 1.20544 1.27352 1.21906 1.24629 1.24631C1.21903 1.27355 1.20541 1.3076 1.20541 1.34847C1.19179 2.04587 1.29634 2.81307 1.51904 3.65007C1.74174 4.48707 2.06763 5.41295 2.49669 6.42772ZM11.9196 15.6402C12.6456 15.9971 13.4404 16.2749 14.304 16.4738C15.1675 16.6727 15.9569 16.783 16.672 16.8048C16.7128 16.8048 16.7469 16.7912 16.7741 16.7639C16.8014 16.7367 16.815 16.7026 16.815 16.6618V14.0547C16.815 14.0002 16.8014 13.9543 16.7741 13.9168C16.7469 13.8793 16.706 13.8572 16.6515 13.8504L14.2427 13.3539C14.2018 13.3471 14.166 13.3488 14.1354 13.359C14.1047 13.3692 14.0724 13.388 14.0383 13.4152L11.9196 15.6402Z" fill="black"/>
</svg>