<svg width="63" height="44" viewBox="0 0 63 44" fill="none" xmlns="http://www.w3.org/2000/svg">
<path d="M13.7859 43.3447C9.96453 43.3447 6.71154 42.0169 4.02695 39.3614C1.34232 36.7059 0 33.4869 0 29.7045C0 26.0751 1.30703 22.9232 3.92107 20.2488C6.53518 17.5743 9.60377 16.1855 13.1268 16.0822C13.6912 11.472 15.7207 7.63904 19.2156 4.58342C22.7105 1.5278 26.818 0 31.5383 0C36.7048 0 41.0479 1.80308 44.5675 5.40925C48.0871 9.01541 49.847 13.3692 49.847 18.4707V22.4734H51.7818C54.8695 22.3305 57.4916 23.2627 59.6482 25.27C61.8048 27.2773 62.8831 29.8137 62.8831 32.8793C62.8831 35.7661 61.8653 38.2321 59.8296 40.2772C57.794 42.3222 55.3109 43.3447 52.3804 43.3447H34.5857C33.3774 43.3447 32.3498 42.9275 31.5028 42.0931C30.6557 41.2587 30.2322 40.2464 30.2322 39.0561V19.1975L22.9221 26.4583L21.1746 24.7965L31.4415 14.6825L41.7085 24.7965L39.961 26.4583L32.6509 19.1975V39.0561C32.6509 39.5326 32.8524 39.9694 33.2555 40.3665C33.6586 40.7636 34.102 40.9621 34.5857 40.9621H52.2595C54.537 40.9621 56.4739 40.1727 58.0701 38.5938C59.6664 37.0149 60.4645 35.1167 60.4645 32.8994C60.4645 30.6821 59.6664 28.7872 58.0701 27.2147C56.4739 25.6423 54.5299 24.856 52.2382 24.856H47.4284V18.4707C47.4284 14.0741 45.8734 10.2936 42.7635 7.12919C39.6536 3.96476 35.8575 2.38254 31.375 2.38254C26.8926 2.38254 23.0833 3.96476 19.9472 7.12919C16.8111 10.2936 15.2431 14.0741 15.2431 18.4707H13.5682C10.5611 18.4707 7.95109 19.5637 5.73808 21.7497C3.52507 23.9358 2.41856 26.6109 2.41856 29.7751C2.41856 32.8361 3.52824 35.4659 5.74759 37.6643C7.96689 39.8629 10.6463 40.9621 13.7859 40.9621H23.0974V43.3447H13.7859Z" fill="#0091FF"/>
</svg>
