<svg width="15" height="18" viewBox="0 0 15 18" xmlns="http://www.w3.org/2000/svg">
<path d="M7.15162 8.69498C7.57598 8.69498 7.93778 8.54389 8.23702 8.2417C8.53627 7.9395 8.68589 7.57623 8.68589 7.15188C8.68589 6.72751 8.53479 6.36571 8.23259 6.06648C7.93039 5.76723 7.56711 5.61761 7.14276 5.61761C6.7184 5.61761 6.3566 5.76871 6.05737 6.07091C5.75812 6.37311 5.60849 6.73638 5.60849 7.16073C5.60849 7.5851 5.75959 7.9469 6.06179 8.24613C6.36399 8.54537 6.72727 8.69498 7.15162 8.69498ZM7.14719 16.5761C9.12473 14.8122 10.6313 13.1302 11.6668 11.5302C12.7023 9.93022 13.22 8.53234 13.22 7.33657C13.22 5.50894 12.6396 4.00681 11.4787 2.83019C10.3178 1.65355 8.87396 1.06523 7.14719 1.06523C5.42042 1.06523 3.97659 1.65355 2.8157 2.83019C1.6548 4.00681 1.07434 5.50894 1.07434 7.33657C1.07434 8.53234 1.6009 9.93022 2.65402 11.5302C3.70714 13.1302 5.20486 14.8122 7.14719 16.5761ZM7.14719 18C4.76419 15.935 2.97724 14.0134 1.78634 12.2349C0.595445 10.4565 0 8.82368 0 7.33657C0 5.15146 0.706831 3.38242 2.12049 2.02945C3.53414 0.676484 5.20971 0 7.14719 0C9.08467 0 10.7602 0.676484 12.1739 2.02945C13.5876 3.38242 14.2944 5.15146 14.2944 7.33657C14.2944 8.82368 13.6989 10.4565 12.508 12.2349C11.3171 14.0134 9.53019 15.935 7.14719 18Z"/>
</svg>