<svg width="23" height="20" viewBox="0 0 23 20" fill="none" xmlns="http://www.w3.org/2000/svg">
<path id="Vector" d="M11.2464 15.8221C12.5244 15.8221 13.5978 15.3878 14.4663 14.5192C15.3349 13.6506 15.7693 12.5773 15.7693 11.2993C15.7693 10.0212 15.3349 8.94912 14.4663 8.08294C13.5978 7.21675 12.5244 6.78366 11.2464 6.78366C9.96834 6.78366 8.89622 7.21675 8.03003 8.08294C7.16384 8.94912 6.73075 10.0212 6.73075 11.2993C6.73075 12.5773 7.16384 13.6506 8.03003 14.5192C8.89622 15.3878 9.96834 15.8221 11.2464 15.8221ZM11.2464 14.8606C10.2328 14.8606 9.38702 14.5204 8.70912 13.8402C8.03125 13.1599 7.69231 12.3129 7.69231 11.2993C7.69231 10.2857 8.03125 9.43991 8.70912 8.76203C9.38702 8.08414 10.2328 7.74519 11.2464 7.74519C12.26 7.74519 13.107 8.08414 13.7873 8.76203C14.4675 9.43991 14.8077 10.2857 14.8077 11.2993C14.8077 12.3129 14.4675 13.1599 13.7873 13.8402C13.107 14.5204 12.26 14.8606 11.2464 14.8606ZM1.73075 20C1.2504 20 0.841844 19.8316 0.505094 19.4949C0.168364 19.1582 0 18.7496 0 18.2692V4.32931C0 3.85015 0.168364 3.4419 0.505094 3.10456C0.841844 2.76723 1.2504 2.59856 1.73075 2.59856H5.72356L8.02884 0H14.4712L16.7764 2.59856H20.7693C21.2484 2.59856 21.6567 2.76723 21.994 3.10456C22.3313 3.4419 22.5 3.85015 22.5 4.32931V18.2692C22.5 18.7496 22.3313 19.1582 21.994 19.4949C21.6567 19.8316 21.2484 20 20.7693 20H1.73075ZM20.7693 19.0385C20.9936 19.0385 21.1779 18.9664 21.3221 18.8221C21.4664 18.6779 21.5385 18.4936 21.5385 18.2692V4.32931C21.5385 4.12098 21.4664 3.9407 21.3221 3.78847C21.1779 3.63622 20.9936 3.56009 20.7693 3.56009H16.3341L14.0288 0.961531H8.47116L6.16588 3.56009H1.73075C1.5064 3.56009 1.3221 3.63622 1.17788 3.78847C1.03365 3.9407 0.961531 4.12098 0.961531 4.32931V18.2692C0.961531 18.4936 1.03365 18.6779 1.17788 18.8221C1.3221 18.9664 1.5064 19.0385 1.73075 19.0385H20.7693Z" fill="black"/>
</svg>
