<svg width="11" height="20" viewBox="0 0 11 20" fill="none" xmlns="http://www.w3.org/2000/svg">
<path id="Vector" d="M11 14.55C11 16.0694 10.4625 17.3576 9.3875 18.4145C8.3125 19.4715 7.01667 20 5.5 20C3.98333 20 2.6875 19.4792 1.6125 18.4375C0.5375 17.3958 -1.69746e-07 16.1167 -2.36042e-07 14.6L-7.05939e-07 3.85C-7.52218e-07 2.79125 0.379533 1.88489 1.1386 1.13092C1.89768 0.376974 2.81018 -1.22837e-07 3.8761 -1.6943e-07C4.94203 -2.16023e-07 5.85417 0.376974 6.6125 1.13092C7.37083 1.88489 7.75 2.79125 7.75 3.85L7.75 13.725C7.75 14.362 7.53216 14.9004 7.09648 15.3402C6.66079 15.7801 6.12746 16 5.49648 16C4.86549 16 4.33333 15.7708 3.9 15.3125C3.46667 14.8542 3.25 14.3083 3.25 13.675L3.25 3.85L4.25 3.85L4.25 13.7C4.25 14.05 4.36938 14.3542 4.60813 14.6125C4.84686 14.8708 5.14269 15 5.49563 15C5.84854 15 6.14583 14.875 6.3875 14.625C6.62917 14.375 6.75 14.075 6.75 13.725L6.75 3.85C6.75 3.052 6.47259 2.3775 5.91777 1.8265C5.36297 1.2755 4.68381 1 3.88027 1C3.07676 1 2.39583 1.2755 1.8375 1.8265C1.27917 2.3775 0.999999 3.052 0.999999 3.85L1 14.65C1 15.8667 1.44062 16.8958 2.32187 17.7375C3.20313 18.5792 4.2625 19 5.5 19C6.75 19 7.8125 18.5708 8.6875 17.7125C9.5625 16.8542 10 15.8083 10 14.575L10 3.85L11 3.85L11 14.55Z" fill="black"/>
</svg>
