<svg width="37" height="32" viewBox="0 0 37 32" fill="none" xmlns="http://www.w3.org/2000/svg">
<path id="Vector" d="M3.17881 32C2.26049 32 1.5011 31.6998 0.900662 31.0993C0.300221 30.4989 0 29.7395 0 28.8212V8.90066C0 7.98234 0.300221 7.22296 0.900662 6.62252C1.5011 6.02208 2.26049 5.72185 3.17881 5.72185H12.7152V3.17881C12.7152 2.26049 13.0155 1.5011 13.6159 0.900662C14.2163 0.300221 14.9757 0 15.894 0H20.9801C21.8985 0 22.6578 0.300221 23.2583 0.900662C23.8587 1.5011 24.1589 2.26049 24.1589 3.17881V5.72185H33.6954C34.6137 5.72185 35.3731 6.02208 35.9735 6.62252C36.5739 7.22296 36.8742 7.98234 36.8742 8.90066V28.8212C36.8742 29.7395 36.5739 30.4989 35.9735 31.0993C35.3731 31.6998 34.6137 32 33.6954 32H3.17881ZM14.1987 5.72185H22.6755V3.17881C22.6755 2.75497 22.4989 2.36645 22.1457 2.01325C21.7925 1.66004 21.404 1.48344 20.9801 1.48344H15.894C15.4702 1.48344 15.0817 1.66004 14.7285 2.01325C14.3753 2.36645 14.1987 2.75497 14.1987 3.17881V5.72185ZM35.3907 20.6623H22.0397V23.5232H14.8344V20.6623H1.48344V28.8212C1.48344 29.245 1.66004 29.6336 2.01324 29.9868C2.36645 30.34 2.75497 30.5166 3.17881 30.5166H33.6954C34.1192 30.5166 34.5077 30.34 34.8609 29.9868C35.2141 29.6336 35.3907 29.245 35.3907 28.8212V20.6623ZM16.3179 22.0397H20.5563V17.8013H16.3179V22.0397ZM1.48344 19.1788H14.8344V16.3179H22.0397V19.1788H35.3907V8.90066C35.3907 8.47682 35.2141 8.0883 34.8609 7.7351C34.5077 7.3819 34.1192 7.2053 33.6954 7.2053H3.17881C2.75497 7.2053 2.36645 7.3819 2.01324 7.7351C1.66004 8.0883 1.48344 8.47682 1.48344 8.90066V19.1788Z" fill="url(#paint0_linear_1830_187)"/>
<defs>
<linearGradient id="paint0_linear_1830_187" x1="3.2" y1="-3.2" x2="32" y2="37.6" gradientUnits="userSpaceOnUse">
<stop stop-color="#0F52BA"/>
<stop offset="1" stop-color="#8225AF"/>
</linearGradient>
</defs>
</svg>
