<svg width="25" height="32" viewBox="0 0 25 32" fill="none" xmlns="http://www.w3.org/2000/svg">
<path id="Vector" d="M2.75862 32C1.96169 32 1.30268 31.7395 0.781609 31.2184C0.260536 30.6973 0 30.0383 0 29.2414V10.1149C0 9.31801 0.260536 8.659 0.781609 8.13793C1.30268 7.61686 1.96169 7.35632 2.75862 7.35632H6.16092V6.16092C6.16092 4.44444 6.75862 2.98851 7.95402 1.7931C9.14943 0.597701 10.6054 0 12.3218 0C14.0383 0 15.4943 0.597701 16.6897 1.7931C17.8851 2.98851 18.4828 4.44444 18.4828 6.16092V7.35632H21.8851C22.682 7.35632 23.341 7.61686 23.8621 8.13793C24.3831 8.659 24.6437 9.31801 24.6437 10.1149V29.2414C24.6437 30.0383 24.3831 30.6973 23.8621 31.2184C23.341 31.7395 22.682 32 21.8851 32H2.75862ZM2.75862 30.7126H21.8851C22.2529 30.7126 22.59 30.5594 22.8966 30.2529C23.2031 29.9464 23.3563 29.6092 23.3563 29.2414V10.1149C23.3563 9.74713 23.2031 9.40996 22.8966 9.10345C22.59 8.79694 22.2529 8.64368 21.8851 8.64368H18.4828V13.5172C18.4828 13.7011 18.4215 13.8544 18.2989 13.977C18.1762 14.0996 18.023 14.1609 17.8391 14.1609C17.6552 14.1609 17.5019 14.0996 17.3793 13.977C17.2567 13.8544 17.1954 13.7011 17.1954 13.5172V8.64368H7.44828V13.5172C7.44828 13.7011 7.38697 13.8544 7.26437 13.977C7.14176 14.0996 6.98851 14.1609 6.8046 14.1609C6.62069 14.1609 6.46743 14.0996 6.34483 13.977C6.22222 13.8544 6.16092 13.7011 6.16092 13.5172V8.64368H2.75862C2.3908 8.64368 2.05364 8.79694 1.74713 9.10345C1.44061 9.40996 1.28736 9.74713 1.28736 10.1149V29.2414C1.28736 29.6092 1.44061 29.9464 1.74713 30.2529C2.05364 30.5594 2.3908 30.7126 2.75862 30.7126ZM7.44828 7.35632H17.1954V6.16092C17.1954 4.78161 16.728 3.62452 15.7931 2.68966C14.8582 1.75479 13.7011 1.28736 12.3218 1.28736C10.9425 1.28736 9.78544 1.75479 8.85057 2.68966C7.91571 3.62452 7.44828 4.78161 7.44828 6.16092V7.35632Z" fill="url(#paint0_linear_1830_192)"/>
<defs>
<linearGradient id="paint0_linear_1830_192" x1="2.13862" y1="-3.2" x2="32.6577" y2="25.695" gradientUnits="userSpaceOnUse">
<stop stop-color="#0F52BA"/>
<stop offset="1" stop-color="#8225AF"/>
</linearGradient>
</defs>
</svg>
