<svg width="148" height="36" viewBox="0 0 148 36" fill="none" xmlns="http://www.w3.org/2000/svg">
<g clip-path="url(#clip0_1_89)">
<path d="M2.88573 21.4197H0V1.21387H2.88573V21.4197ZM14.7493 12.4132H2.59944V9.90254H14.7521V12.4132H14.7493ZM14.4887 1.21387H17.3745V21.4197H14.4887V1.21387Z" fill="white"/>
<path d="M25.0554 21.5915C23.9189 21.5915 22.9226 21.3997 22.0666 21.0132C21.2107 20.6296 20.5522 20.0942 20.0884 19.41C19.6275 18.7287 19.3956 17.9528 19.3956 17.0854C19.3956 16.218 19.5932 15.508 19.9882 14.8352C20.3833 14.1625 21.0274 13.6214 21.9235 13.2177C22.8196 12.8141 24.0248 12.6108 25.545 12.6108H30.3946V14.6033H25.6595C24.2739 14.6033 23.3406 14.8352 22.8596 15.2961C22.3787 15.7571 22.1382 16.3153 22.1382 16.9709C22.1382 17.7209 22.4359 18.3221 23.0343 18.7745C23.6297 19.2268 24.4571 19.453 25.5163 19.453C26.5756 19.453 27.4659 19.2211 28.2446 18.7602C29.0233 18.2992 29.5873 17.6236 29.9337 16.739L30.4833 18.6456C30.1169 19.5503 29.4728 20.266 28.5481 20.7956C27.6234 21.3252 26.4611 21.5886 25.0554 21.5886V21.5915ZM30.0768 21.4169V18.1847L29.9337 17.5778V12.064C29.9337 10.8903 29.5901 9.97988 28.9088 9.33574C28.2246 8.69161 27.1997 8.36811 25.8341 8.36811C24.9295 8.36811 24.0449 8.51697 23.1774 8.81471C22.3128 9.11244 21.58 9.51324 20.9845 10.0114L19.8308 7.93296C20.6209 7.29741 21.5685 6.81359 22.6736 6.47578C23.7815 6.13797 24.9381 5.97192 26.1519 5.97192C28.2475 5.97192 29.865 6.48151 31.0015 7.50067C32.1381 8.51984 32.7049 10.0801 32.7049 12.1757V21.414H30.0768V21.4169Z" fill="white"/>
<path d="M35.3902 27.0194V6.12075H38.0469V10.2489L37.8723 13.7988L38.1614 17.3487V27.0194H35.3902ZM43.5006 21.5914C42.2295 21.5914 41.07 21.2994 40.0222 20.7097C38.9745 20.1228 38.1356 19.2525 37.5115 18.0988C36.8846 16.9451 36.5725 15.5022 36.5725 13.7702C36.5725 12.0382 36.876 10.5953 37.4829 9.44162C38.0898 8.2879 38.9172 7.42047 39.965 6.84504C41.0128 6.26961 42.1923 5.98047 43.5006 5.98047C45.0007 5.98047 46.329 6.30683 47.4828 6.96242C48.6365 7.618 49.5526 8.52552 50.2253 9.69069C50.8981 10.8559 51.2359 12.2157 51.2359 13.7759C51.2359 15.3362 50.8981 16.7017 50.2253 17.8755C49.5526 19.0493 48.6393 19.9625 47.4828 20.6181C46.329 21.2737 45.0007 21.6 43.5006 21.6V21.5914ZM43.2687 19.1666C44.2506 19.1666 45.1295 18.9462 45.9111 18.5025C46.6898 18.0587 47.3053 17.4289 47.7576 16.613C48.2099 15.7942 48.4361 14.8466 48.4361 13.7702C48.4361 12.6938 48.2099 11.7262 47.7576 10.9274C47.3053 10.1287 46.6898 9.50747 45.9111 9.06659C45.1324 8.62285 44.2506 8.40242 43.2687 8.40242C42.2867 8.40242 41.4365 8.62285 40.6578 9.06659C39.8791 9.51033 39.2636 10.1316 38.8113 10.9274C38.3589 11.7262 38.1328 12.6737 38.1328 13.7702C38.1328 14.8667 38.3589 15.7971 38.8113 16.613C39.2636 17.4318 39.8791 18.0616 40.6578 18.5025C41.4365 18.9462 42.3068 19.1666 43.2687 19.1666Z" fill="white"/>
<path d="M52.6215 27.0194V6.12075H55.2782V10.2489L55.1036 13.7988L55.3927 17.3487V27.0194H52.6215ZM60.7319 21.5914C59.4608 21.5914 58.3014 21.2994 57.2536 20.7097C56.2058 20.1228 55.367 19.2525 54.7429 18.0988C54.1159 16.9451 53.8039 15.5022 53.8039 13.7702C53.8039 12.0382 54.1073 10.5953 54.7142 9.44162C55.3212 8.2879 56.1485 7.42047 57.1963 6.84504C58.2441 6.26961 59.4236 5.98047 60.7319 5.98047C62.232 5.98047 63.5604 6.30683 64.7141 6.96242C65.8678 7.618 66.7839 8.52552 67.4567 9.69069C68.1294 10.8559 68.4672 12.2157 68.4672 13.7759C68.4672 15.3362 68.1294 16.7017 67.4567 17.8755C66.7839 19.0493 65.8707 19.9625 64.7141 20.6181C63.5604 21.2737 62.232 21.6 60.7319 21.6V21.5914ZM60.5 19.1666C61.482 19.1666 62.3608 18.9462 63.1424 18.5025C63.9211 18.0587 64.5366 17.4289 64.9889 16.613C65.4412 15.7942 65.6674 14.8466 65.6674 13.7702C65.6674 12.6938 65.4412 11.7262 64.9889 10.9274C64.5366 10.1287 63.9211 9.50747 63.1424 9.06659C62.3637 8.62285 61.482 8.40242 60.5 8.40242C59.5181 8.40242 58.6678 8.62285 57.8891 9.06659C57.1104 9.51033 56.4949 10.1316 56.0426 10.9274C55.5903 11.7262 55.3641 12.6737 55.3641 13.7702C55.3641 14.8667 55.5903 15.7971 56.0426 16.613C56.4949 17.4318 57.1104 18.0616 57.8891 18.5025C58.6678 18.9462 59.5381 19.1666 60.5 19.1666Z" fill="white"/>
<path d="M70.0848 27.1912C69.3548 27.1912 68.6419 27.0709 67.9491 26.8304C67.2563 26.59 66.6608 26.2378 66.1599 25.7769L67.3422 23.6985C67.7258 24.065 68.1495 24.3427 68.6133 24.5345C69.0742 24.7263 69.5666 24.8236 70.0848 24.8236C70.7575 24.8236 71.3158 24.649 71.7595 24.3026C72.2033 23.9562 72.6155 23.3407 72.9991 22.4561L73.9525 20.349L74.2416 20.0026L80.2449 6.11792H82.9589L75.5413 22.9456C75.0976 24.022 74.6023 24.8694 74.0555 25.4849C73.5059 26.1004 72.9047 26.5384 72.2519 26.799C71.5964 27.0595 70.8749 27.1883 70.0876 27.1883L70.0848 27.1912ZM73.7206 21.9093L66.7353 6.12078H69.621L75.5671 19.745L73.7206 21.9093Z" fill="white"/>
<path d="M85.5784 21.4197V1.21387H86.3857L95.9103 17.7524H95.478L104.945 1.21387H105.753L105.781 21.4197H104.828L104.799 2.65673H105.117L95.9389 18.6198H95.4207L86.1824 2.65673H86.5288V21.4197H85.5755H85.5784Z" fill="white"/>
<path d="M110.691 2.5107C110.442 2.5107 110.219 2.41337 110.027 2.22156C109.835 2.02975 109.738 1.8179 109.738 1.58601C109.738 1.31691 109.835 1.09074 110.027 0.907521C110.219 0.724301 110.439 0.63269 110.691 0.63269C110.96 0.63269 111.186 0.724301 111.37 0.907521C111.553 1.09074 111.644 1.30832 111.644 1.55738C111.644 1.80645 111.553 2.02975 111.37 2.22156C111.186 2.41337 110.96 2.5107 110.691 2.5107ZM110.23 21.4168V6.4385H111.183V21.4196H110.23V21.4168Z" fill="white"/>
<path d="M115.134 21.4196V0H116.087V21.4196H115.134Z" fill="white"/>
<path d="M123.997 21.5056C122.861 21.5056 121.896 21.3309 121.097 20.9874C120.299 20.641 119.689 20.1457 119.265 19.5016C118.841 18.8575 118.63 18.1217 118.63 17.2944C118.63 16.5643 118.804 15.8859 119.148 15.2589C119.494 14.6348 120.067 14.1338 120.866 13.7588C121.664 13.3838 122.738 13.1948 124.083 13.1948H129.886V13.9735H124.083C122.446 13.9735 121.289 14.2827 120.605 14.8982C119.921 15.5137 119.58 16.2924 119.58 17.2371C119.58 18.2964 119.975 19.138 120.762 19.7621C121.553 20.3891 122.649 20.7011 124.052 20.7011C125.455 20.7011 126.583 20.3891 127.487 19.7621C128.392 19.138 129.076 18.2477 129.537 17.0911L129.855 17.7267C129.468 18.8632 128.775 19.7764 127.776 20.4692C126.777 21.162 125.515 21.5084 123.995 21.5084L123.997 21.5056ZM129.568 21.4197V17.9271L129.54 17.406V11.7205C129.54 10.2375 129.145 9.11242 128.358 8.34232C127.567 7.57222 126.422 7.1886 124.922 7.1886C123.826 7.1886 122.824 7.37755 121.919 7.75258C121.014 8.12761 120.236 8.61429 119.58 9.20975L119.059 8.51695C119.772 7.84419 120.645 7.30884 121.687 6.91377C122.726 6.5187 123.814 6.32117 124.948 6.32117C126.737 6.32117 128.108 6.77922 129.062 7.69246C130.015 8.6057 130.49 9.94836 130.49 11.7205V21.4197H129.566H129.568Z" fill="white"/>
<path d="M141.346 6.32117C142.577 6.32117 143.642 6.56164 144.535 7.0426C145.431 7.52355 146.127 8.23067 146.628 9.16395C147.129 10.0972 147.378 11.2481 147.378 12.6137V21.4168H146.425V12.6709C146.425 10.8816 145.972 9.52467 145.068 8.59997C144.163 7.67528 142.892 7.21437 141.257 7.21437C140.006 7.21437 138.93 7.46343 138.025 7.96443C137.121 8.46542 136.428 9.1754 135.947 10.1001C135.466 11.0248 135.225 12.1012 135.225 13.3322V21.414H134.272V6.43854H135.197V10.6526L135.082 10.3921C135.543 9.14105 136.31 8.15051 137.378 7.41763C138.446 6.68761 139.769 6.32117 141.346 6.32117Z" fill="white"/>
<path d="M50.1767 33.9503C36.438 33.9503 24.0849 31.1046 15.5366 26.5785C23.2404 32.2812 35.8855 36 50.1767 36C64.4679 36 77.113 32.2812 84.8169 26.5785C76.2685 31.1046 63.9154 33.9503 50.1767 33.9503Z" fill="#0F52BA"/>
</g>
<defs>
<clipPath id="clip0_1_89">
<rect width="147.378" height="36" fill="white"/>
</clipPath>
</defs>
</svg>
