<svg width="43" height="41" viewBox="0 0 43 41" fill="none" xmlns="http://www.w3.org/2000/svg">
<path fill-rule="evenodd" clip-rule="evenodd" d="M29.9884 10.2567L39.2036 12.3767C41.5887 12.9282 43.0751 15.309 42.5234 17.6942C42.3469 18.4572 41.9715 19.1598 41.4352 19.7306L35.3492 26.7245L36.1809 36.173V36.2136C36.3679 38.6485 34.5568 40.7787 32.1236 40.986C31.2738 41.0532 30.4224 40.8773 29.6689 40.4788L21.3006 36.9287L12.5773 40.6259C10.3326 41.5744 7.74403 40.5238 6.79537 38.2791L6.79055 38.2676C6.6526 37.9424 6.55383 37.6018 6.49639 37.2532C6.44999 36.9599 6.433 36.6625 6.44568 36.3657C6.44048 36.3066 6.44048 36.2473 6.44568 36.1882L7.27743 26.7295L1.07984 19.5886C-0.519382 17.7424 -0.319178 14.9494 1.52691 13.3502C2.04689 12.8997 2.66487 12.5769 3.33167 12.4071L3.4331 12.3767H3.47367L12.6534 10.2516L17.5222 2.13697C18.7876 0.0446489 21.5096 -0.625826 23.602 0.639557C24.232 1.02057 24.7571 1.55258 25.1297 2.18769L25.1602 2.23333L29.9884 10.2567ZM39.9386 18.3308C40.0841 18.1791 40.2087 18.0085 40.3088 17.8237C40.9305 16.6631 40.4937 15.2185 39.3333 14.5968C39.1468 14.4969 38.9478 14.4224 38.7417 14.3749L29.1055 12.1434C28.8335 12.082 28.5987 11.9115 28.4563 11.6717V11.6667L23.41 3.24768L23.3796 3.19696C22.7021 2.06813 21.2379 1.70221 20.1091 2.37966C19.7737 2.58088 19.493 2.86159 19.2918 3.19696L14.2201 11.6312C14.0808 11.8891 13.8366 12.0739 13.5507 12.1383L3.94998 14.3546H3.88912C2.607 14.6534 1.80986 15.935 2.10858 17.2171C2.19619 17.5932 2.37383 17.9422 2.62627 18.2345L9.05716 25.6594C9.27448 25.8728 9.38428 26.1727 9.35639 26.4759L8.51449 36.2136C8.51854 36.2659 8.51854 36.3184 8.51449 36.3708C8.49128 36.5611 8.49128 36.7536 8.51449 36.9439C8.53997 37.1068 8.58245 37.2666 8.64128 37.4206C8.66512 37.4664 8.68553 37.5138 8.70214 37.5626C9.22782 38.6998 10.544 39.2362 11.7147 38.79C11.7652 38.7636 11.8178 38.7415 11.8719 38.724L20.9097 34.8949C21.1625 34.7878 21.448 34.7878 21.7008 34.8949L30.4799 38.5973C30.536 38.6161 30.5902 38.6399 30.6422 38.6683C31.0392 38.8835 31.4908 38.977 31.9406 38.9371H31.971C33.2617 38.8214 34.2223 37.6939 34.1315 36.4012V36.3505L33.2795 26.4759C33.2546 26.2014 33.3425 25.9286 33.5229 25.7203L39.8828 18.3917L39.9386 18.3308Z" fill="#EF4136"/>
</svg>
