<svg width="148" height="36" viewBox="0 0 148 36" fill="none" xmlns="http://www.w3.org/2000/svg">
<g id="Asset 1 1" clip-path="url(#clip0_612_1192)">
<g id="Layer 1">
<g id="Group">
<g id="Group_2">
<path id="Vector" d="M2.88573 21.4197H0V1.21387H2.88573V21.4197ZM14.7493 12.4132H2.59944V9.90254H14.7521V12.4132H14.7493ZM14.4887 1.21387H17.3745V21.4197H14.4887V1.21387Z" fill="white"/>
<path id="Vector_2" d="M25.0553 21.5915C23.9188 21.5915 22.9225 21.3997 22.0665 21.0132C21.2105 20.6296 20.5521 20.0942 20.0883 19.41C19.6274 18.7287 19.3955 17.9528 19.3955 17.0854C19.3955 16.218 19.593 15.508 19.9881 14.8352C20.3832 14.1625 21.0273 13.6214 21.9234 13.2177C22.8194 12.8141 24.0247 12.6108 25.5449 12.6108H30.3945V14.6033H25.6594C24.2738 14.6033 23.3405 14.8352 22.8595 15.2961C22.3786 15.7571 22.1381 16.3153 22.1381 16.9709C22.1381 17.7209 22.4358 18.3221 23.0342 18.7745C23.6296 19.2268 24.457 19.453 25.5162 19.453C26.5755 19.453 27.4658 19.2211 28.2445 18.7602C29.0232 18.2992 29.5872 17.6236 29.9336 16.739L30.4832 18.6456C30.1168 19.5503 29.4726 20.266 28.548 20.7956C27.6233 21.3252 26.461 21.5886 25.0553 21.5886V21.5915ZM30.0767 21.4169V18.1847L29.9336 17.5778V12.064C29.9336 10.8903 29.59 9.97988 28.9087 9.33574C28.2245 8.69161 27.1996 8.36811 25.834 8.36811C24.9293 8.36811 24.0447 8.51697 23.1773 8.81471C22.3127 9.11244 21.5798 9.51324 20.9844 10.0114L19.8307 7.93296C20.6208 7.29741 21.5684 6.81359 22.6734 6.47578C23.7814 6.13797 24.9379 5.97192 26.1518 5.97192C28.2474 5.97192 29.8649 6.48151 31.0014 7.50067C32.1379 8.51984 32.7048 10.0801 32.7048 12.1757V21.414H30.0767V21.4169Z" fill="white"/>
<path id="Vector_3" d="M35.3901 27.0194V6.12075H38.0468V10.2489L37.8722 13.7988L38.1613 17.3487V27.0194H35.3901ZM43.5005 21.5914C42.2294 21.5914 41.07 21.2994 40.0222 20.7097C38.9744 20.1228 38.1356 19.2525 37.5115 18.0988C36.8845 16.9451 36.5725 15.5022 36.5725 13.7702C36.5725 12.0382 36.8759 10.5953 37.4829 9.44162C38.0898 8.2879 38.9171 7.42047 39.9649 6.84504C41.0127 6.26961 42.1922 5.98047 43.5005 5.98047C45.0006 5.98047 46.329 6.30683 47.4827 6.96242C48.6364 7.618 49.5525 8.52552 50.2253 9.69069C50.898 10.8559 51.2359 12.2157 51.2359 13.7759C51.2359 15.3362 50.898 16.7017 50.2253 17.8755C49.5525 19.0493 48.6393 19.9625 47.4827 20.6181C46.329 21.2737 45.0006 21.6 43.5005 21.6V21.5914ZM43.2686 19.1666C44.2506 19.1666 45.1295 18.9462 45.911 18.5025C46.6897 18.0587 47.3052 17.4289 47.7575 16.613C48.2099 15.7942 48.436 14.8466 48.436 13.7702C48.436 12.6938 48.2099 11.7262 47.7575 10.9274C47.3052 10.1287 46.6897 9.50747 45.911 9.06659C45.1323 8.62285 44.2506 8.40242 43.2686 8.40242C42.2867 8.40242 41.4364 8.62285 40.6577 9.06659C39.879 9.51033 39.2635 10.1316 38.8112 10.9274C38.3589 11.7262 38.1327 12.6737 38.1327 13.7702C38.1327 14.8667 38.3589 15.7971 38.8112 16.613C39.2635 17.4318 39.879 18.0616 40.6577 18.5025C41.4364 18.9462 42.3067 19.1666 43.2686 19.1666Z" fill="white"/>
<path id="Vector_4" d="M52.6216 27.0194V6.12075H55.2783V10.2489L55.1036 13.7988L55.3928 17.3487V27.0194H52.6216ZM60.732 21.5914C59.4609 21.5914 58.3014 21.2994 57.2536 20.7097C56.2058 20.1228 55.367 19.2525 54.7429 18.0988C54.116 16.9451 53.8039 15.5022 53.8039 13.7702C53.8039 12.0382 54.1074 10.5953 54.7143 9.44162C55.3212 8.2879 56.1486 7.42047 57.1964 6.84504C58.2442 6.26961 59.4236 5.98047 60.732 5.98047C62.2321 5.98047 63.5604 6.30683 64.7141 6.96242C65.8679 7.618 66.784 8.52552 67.4567 9.69069C68.1295 10.8559 68.4673 12.2157 68.4673 13.7759C68.4673 15.3362 68.1295 16.7017 67.4567 17.8755C66.784 19.0493 65.8707 19.9625 64.7141 20.6181C63.5604 21.2737 62.2321 21.6 60.732 21.6V21.5914ZM60.5001 19.1666C61.482 19.1666 62.3609 18.9462 63.1425 18.5025C63.9211 18.0587 64.5367 17.4289 64.989 16.613C65.4413 15.7942 65.6675 14.8466 65.6675 13.7702C65.6675 12.6938 65.4413 11.7262 64.989 10.9274C64.5367 10.1287 63.9211 9.50747 63.1425 9.06659C62.3638 8.62285 61.482 8.40242 60.5001 8.40242C59.5181 8.40242 58.6679 8.62285 57.8892 9.06659C57.1105 9.51033 56.495 10.1316 56.0427 10.9274C55.5903 11.7262 55.3642 12.6737 55.3642 13.7702C55.3642 14.8667 55.5903 15.7971 56.0427 16.613C56.495 17.4318 57.1105 18.0616 57.8892 18.5025C58.6679 18.9462 59.5382 19.1666 60.5001 19.1666Z" fill="white"/>
<path id="Vector_5" d="M70.0846 27.1912C69.3546 27.1912 68.6417 27.0709 67.9489 26.8304C67.2561 26.59 66.6607 26.2378 66.1597 25.7769L67.342 23.6985C67.7256 24.065 68.1493 24.3427 68.6131 24.5345C69.074 24.7263 69.5664 24.8236 70.0846 24.8236C70.7574 24.8236 71.3156 24.649 71.7593 24.3026C72.2031 23.9562 72.6153 23.3407 72.999 22.4561L73.9523 20.349L74.2414 20.0026L80.2448 6.11792H82.9587L75.5411 22.9456C75.0974 24.022 74.6021 24.8694 74.0553 25.4849C73.5057 26.1004 72.9045 26.5384 72.2518 26.799C71.5962 27.0595 70.8747 27.1883 70.0875 27.1883L70.0846 27.1912ZM73.7204 21.9093L66.7351 6.12078H69.6208L75.5669 19.745L73.7204 21.9093Z" fill="white"/>
</g>
<g id="Group_3">
<path id="Vector_6" d="M85.5785 21.4197V1.21387H86.3859L95.9105 17.7524H95.4782L104.946 1.21387H105.753L105.781 21.4197H104.828L104.8 2.65673H105.117L95.9391 18.6198H95.4209L86.1826 2.65673H86.529V21.4197H85.5757H85.5785Z" fill="white"/>
<path id="Vector_7" d="M110.691 2.5107C110.442 2.5107 110.219 2.41337 110.027 2.22156C109.835 2.02975 109.738 1.8179 109.738 1.58601C109.738 1.31691 109.835 1.09074 110.027 0.907521C110.219 0.724301 110.439 0.63269 110.691 0.63269C110.96 0.63269 111.186 0.724301 111.37 0.907521C111.553 1.09074 111.644 1.30832 111.644 1.55738C111.644 1.80645 111.553 2.02975 111.37 2.22156C111.186 2.41337 110.96 2.5107 110.691 2.5107ZM110.23 21.4168V6.4385H111.184V21.4196H110.23V21.4168Z" fill="white"/>
<path id="Vector_8" d="M115.134 21.4196V0H116.088V21.4196H115.134Z" fill="white"/>
<path id="Vector_9" d="M123.998 21.5056C122.861 21.5056 121.896 21.3309 121.098 20.9874C120.299 20.641 119.689 20.1457 119.265 19.5016C118.842 18.8575 118.63 18.1217 118.63 17.2944C118.63 16.5643 118.805 15.8859 119.148 15.2589C119.494 14.6348 120.067 14.1338 120.866 13.7588C121.664 13.3838 122.738 13.1948 124.084 13.1948H129.887V13.9735H124.084C122.446 13.9735 121.289 14.2827 120.605 14.8982C119.921 15.5137 119.58 16.2924 119.58 17.2371C119.58 18.2964 119.975 19.138 120.763 19.7621C121.553 20.3891 122.649 20.7011 124.052 20.7011C125.455 20.7011 126.583 20.3891 127.487 19.7621C128.392 19.138 129.076 18.2477 129.537 17.0911L129.855 17.7267C129.469 18.8632 128.776 19.7764 127.777 20.4692C126.777 21.162 125.515 21.5084 123.995 21.5084L123.998 21.5056ZM129.569 21.4197V17.9271L129.54 17.406V11.7205C129.54 10.2375 129.145 9.11242 128.358 8.34232C127.568 7.57222 126.422 7.1886 124.922 7.1886C123.826 7.1886 122.824 7.37755 121.919 7.75258C121.015 8.12761 120.236 8.61429 119.58 9.20975L119.059 8.51695C119.772 7.84419 120.645 7.30884 121.687 6.91377C122.727 6.5187 123.814 6.32117 124.948 6.32117C126.737 6.32117 128.109 6.77922 129.062 7.69246C130.015 8.6057 130.491 9.94836 130.491 11.7205V21.4197H129.566H129.569Z" fill="white"/>
<path id="Vector_10" d="M141.347 6.32117C142.578 6.32117 143.642 6.56164 144.536 7.0426C145.432 7.52355 146.127 8.23067 146.628 9.16395C147.129 10.0972 147.378 11.2481 147.378 12.6137V21.4168H146.425V12.6709C146.425 10.8816 145.973 9.52467 145.068 8.59997C144.164 7.67528 142.892 7.21437 141.258 7.21437C140.007 7.21437 138.93 7.46343 138.026 7.96443C137.121 8.46542 136.428 9.1754 135.947 10.1001C135.466 11.0248 135.226 12.1012 135.226 13.3322V21.414H134.272V6.43854H135.197V10.6526L135.083 10.3921C135.544 9.14105 136.311 8.15051 137.379 7.41763C138.446 6.68761 139.769 6.32117 141.347 6.32117Z" fill="white"/>
</g>
<path id="Vector_11" d="M50.1768 33.9503C36.4381 33.9503 24.085 31.1046 15.5366 26.5785C23.2405 32.2812 35.8856 36 50.1768 36C64.468 36 77.1131 32.2812 84.8169 26.5785C76.2685 31.1046 63.9155 33.9503 50.1768 33.9503Z" fill="#EF4136"/>
</g>
</g>
</g>
<defs>
<clipPath id="clip0_612_1192">
<rect width="147.378" height="36" fill="white"/>
</clipPath>
</defs>
</svg>
