<svg width="26" height="26" viewBox="0 0 26 26" fill="none" xmlns="http://www.w3.org/2000/svg">
<path id="Vector" d="M25.2538 11.6635C25.0556 11.5515 2.47179 0.210521 2.26212 0.117194C1.96477 -0.0171954 1.43868 -0.0395938 1.08414 0.0686649C0.680039 0.195589 0.222568 0.628624 0.0891375 1.01313C-0.0137923 1.30057 -0.0290413 1.74107 0.0510149 1.99865C0.0853265 2.09198 1.1337 4.17128 2.3803 6.6239L4.6524 11.0737L5.01456 11.1372C7.27142 11.5329 15.3343 12.9626 15.403 12.9776C15.5249 13.0074 15.8452 12.9477 10.1649 13.9332C7.33242 14.4222 4.93832 14.8403 4.84303 14.859C4.67147 14.8926 4.66765 14.8963 2.39936 19.335C1.15276 21.7801 0.100573 23.8706 0.0624529 23.9751C-0.0290423 24.2514 -0.0176055 24.6807 0.0891375 24.9867C0.222565 25.3712 0.680037 25.8044 1.08414 25.9314C1.43868 26.0396 1.96477 26.0172 2.26212 25.8827C2.38411 25.8305 7.59929 23.2173 13.8514 20.0816C24.6782 14.6462 25.2347 14.3625 25.5055 14.0975C25.9743 13.6458 26.1117 13.0933 25.9095 12.5072C25.8067 12.2123 25.4789 11.7867 25.2538 11.6635Z" fill="url(#paint0_linear_1280_476)"/>
<defs>
<linearGradient id="paint0_linear_1280_476" x1="-3.5" y1="-8" x2="19" y2="29.5" gradientUnits="userSpaceOnUse">
<stop stop-color="#0F52BA"/>
<stop offset="1" stop-color="#8225AF"/>
</linearGradient>
</defs>
</svg>
