<svg width="50" height="50" viewBox="0 0 50 50" fill="none" xmlns="http://www.w3.org/2000/svg">
<g id="Group 1427">
<circle id="Ellipse 113" cx="25" cy="25" r="24.5" stroke="#D4D4D4"/>
<path id="Vector" d="M33.5714 35C31.6017 35 29.5238 34.4589 27.3377 33.3766C25.1515 32.2944 23.0898 30.7792 21.1526 28.8312C19.2154 26.8831 17.7056 24.8214 16.6234 22.6461C15.5411 20.4708 15 18.3983 15 16.4286C15 16.0204 15.133 15.6803 15.3989 15.4081C15.6648 15.136 15.9972 15 16.3961 15H18.7574C19.1529 15 19.4805 15.1136 19.7403 15.3409C20 15.5682 20.184 15.8766 20.2922 16.2662L20.9068 18.787C20.9516 19.1411 20.9307 19.4589 20.8442 19.7403C20.7576 20.0216 20.6144 20.2514 20.4146 20.4294L17.6299 22.9545C18.2359 24.0152 18.8745 24.9892 19.5455 25.8766C20.2165 26.7641 20.9199 27.5866 21.6558 28.3442C22.4784 29.1883 23.3658 29.9567 24.3182 30.6494C25.2706 31.342 26.3203 32.0022 27.4675 32.6299L30.1948 29.8377C30.4113 29.5996 30.6403 29.4426 30.8819 29.3669C31.1235 29.2911 31.4032 29.2749 31.7208 29.3182L33.7338 29.7727C34.1234 29.8377 34.4318 30.0175 34.6591 30.3123C34.8864 30.607 35 30.9466 35 31.3312V33.6039C35 34.0028 34.864 34.3352 34.5919 34.6011C34.3197 34.867 33.9796 35 33.5714 35ZM17.2727 22.3377L20.0325 19.8377C20.119 19.7511 20.1786 19.632 20.211 19.4805C20.2435 19.329 20.2489 19.1883 20.2273 19.0584L19.5779 16.2338C19.5563 16.0606 19.4859 15.9307 19.3669 15.8442C19.2478 15.7576 19.1017 15.7143 18.9286 15.7143H16.1688C16.039 15.7143 15.9307 15.7576 15.8442 15.8442C15.7576 15.9307 15.7143 16.039 15.7143 16.1688C15.6926 17.0563 15.8225 18.0195 16.1039 19.0584C16.3853 20.0974 16.7749 21.1905 17.2727 22.3377ZM28.1818 32.9545C29.0693 33.4307 30.0541 33.7771 31.1364 33.9935C32.2186 34.21 33.1169 34.3182 33.8312 34.3182C33.961 34.3182 34.0693 34.2749 34.1558 34.1883C34.2424 34.1017 34.2857 33.9935 34.2857 33.8636V31.1364C34.2857 30.9632 34.2424 30.8171 34.1558 30.6981C34.0693 30.579 33.9394 30.5087 33.7662 30.487L31.461 30C31.3312 29.9784 31.2175 29.9838 31.1201 30.0162C31.0227 30.0487 30.9199 30.1082 30.8117 30.1948L28.1818 32.9545Z" fill="#0F52BA"/>
</g>
</svg>
