<svg width="50" height="50" viewBox="0 0 50 50" fill="none" xmlns="http://www.w3.org/2000/svg">
<g id="Group 1424">
<circle id="Ellipse 113" cx="25" cy="25" r="24.5" stroke="#D4D4D4"/>
<path id="Vector" d="M25.0514 15C19.5003 15 15 19.5003 15 25.0514C15 30.0908 18.7122 34.2516 23.5492 34.9785V27.7155H21.0624V25.0733H23.5492V23.3152C23.5492 20.4045 24.9673 19.1266 27.3865 19.1266C28.5452 19.1266 29.1579 19.2124 29.448 19.2517V21.5581H27.7977C26.7706 21.5581 26.412 22.5317 26.412 23.6291V25.0733H29.4219L29.0135 27.7155H26.412V35C31.318 34.3343 35.1028 30.1397 35.1028 25.0514C35.1028 19.5003 30.6025 15 25.0514 15Z" fill="#0F52BA"/>
</g>
</svg>
