<svg width="50" height="50" viewBox="0 0 50 50" fill="none" xmlns="http://www.w3.org/2000/svg">
<g id="Group 1425">
<circle id="Ellipse 112" cx="25" cy="25" r="24.5" stroke="#D4D4D4"/>
<g id="Group 1423">
<path id="Vector" d="M34.8055 23.0415H34V23H25V27H30.6515C29.827 29.3285 27.6115 31 25 31C21.6865 31 19 28.3135 19 25C19 21.6865 21.6865 19 25 19C26.5295 19 27.921 19.577 28.9805 20.5195L31.809 17.691C30.023 16.0265 27.634 15 25 15C19.4775 15 15 19.4775 15 25C15 30.5225 19.4775 35 25 35C30.5225 35 35 30.5225 35 25C35 24.3295 34.931 23.675 34.8055 23.0415Z" fill="#FFC107"/>
<path id="Vector_2" d="M16.1528 20.3455L19.4383 22.755C20.3273 20.554 22.4803 19 24.9998 19C26.5293 19 27.9208 19.577 28.9803 20.5195L31.8088 17.691C30.0228 16.0265 27.6338 15 24.9998 15C21.1588 15 17.8278 17.1685 16.1528 20.3455Z" fill="#FF3D00"/>
<path id="Vector_3" d="M25.0002 34.9999C27.5832 34.9999 29.9302 34.0114 31.7047 32.4039L28.6097 29.7849C27.6057 30.5454 26.3577 30.9999 25.0002 30.9999C22.3992 30.9999 20.1907 29.3414 19.3587 27.0269L16.0977 29.5394C17.7527 32.7779 21.1137 34.9999 25.0002 34.9999Z" fill="#4CAF50"/>
<path id="Vector_4" d="M34.8055 23.0415H34V23H25V27H30.6515C30.2555 28.1185 29.536 29.083 28.608 29.7855L28.6095 29.7845L31.7045 32.4035C31.4855 32.6025 35 30 35 25C35 24.3295 34.931 23.675 34.8055 23.0415Z" fill="#1976D2"/>
</g>
</g>
</svg>
