<svg width="55" height="55" viewBox="0 0 55 55" fill="none" xmlns="http://www.w3.org/2000/svg">
<g id="Google">
<path id="Vector" fill-rule="evenodd" clip-rule="evenodd" d="M11.8529 27.4999C11.8529 25.7137 12.1494 24.0009 12.6792 22.3948L3.41082 15.3174C1.60441 18.9848 0.586914 23.1175 0.586914 27.4999C0.586914 31.8788 1.60355 36.0086 3.40695 39.6738L12.6702 32.5827C12.1455 30.9838 11.8529 29.2775 11.8529 27.4999Z" fill="#FBBC05"/>
<path id="Vector_2" fill-rule="evenodd" clip-rule="evenodd" d="M28.1258 11.2501C32.0063 11.2501 35.5113 12.6251 38.2652 14.8749L46.2763 6.875C41.3946 2.62496 35.1358 0 28.1258 0C17.2427 0 7.88928 6.22359 3.41064 15.3175L12.6786 22.3949C14.8141 15.9126 20.9015 11.2501 28.1258 11.2501Z" fill="#EA4335"/>
<path id="Vector_3" fill-rule="evenodd" clip-rule="evenodd" d="M28.1258 43.7503C20.9019 43.7503 14.8145 39.0877 12.679 32.6055L3.41064 39.6816C7.88928 48.7768 17.2427 55.0004 28.1258 55.0004C34.8427 55.0004 41.2558 52.6152 46.0687 48.1464L37.2713 41.3453C34.789 42.9089 31.663 43.7503 28.1258 43.7503Z" fill="#34A853"/>
<path id="Vector_4" fill-rule="evenodd" clip-rule="evenodd" d="M54.413 27.4998C54.413 25.8748 54.1625 24.1246 53.7869 22.5H28.126V33.1249H42.8969C42.1583 36.7476 40.1482 39.5324 37.2714 41.3448L46.0689 48.1459C51.1246 43.4537 54.413 36.4636 54.413 27.4998Z" fill="#4285F4"/>
</g>
</svg>
