<svg width="55" height="55" viewBox="0 0 55 55" fill="none" xmlns="http://www.w3.org/2000/svg">
<g id="317750_linkedin_icon" clip-path="url(#clip0_2135_64)">
<g id="Group">
<path id="Vector" d="M27.5 55C42.6878 55 55 42.6878 55 27.5C55 12.3122 42.6878 0 27.5 0C12.3122 0 0 12.3122 0 27.5C0 42.6878 12.3122 55 27.5 55Z" fill="#007BB5"/>
<g id="Group_2">
<path id="Vector_2" d="M18.9062 18.9062H12.0312V42.9688H18.9062V18.9062Z" fill="white"/>
<path id="Vector_3" d="M35.2327 18.9062C30.4356 18.9062 29.6106 20.6559 29.2188 22.3438V18.9062H22.3438V42.9688H29.2188V29.2188C29.2188 26.9895 30.427 25.7812 32.6562 25.7812C34.8322 25.7812 36.0938 26.9637 36.0938 29.2188V42.9688H42.9688V30.9375C42.9688 24.0625 42.0733 18.9062 35.2327 18.9062Z" fill="white"/>
<path id="Vector_4" d="M15.4688 17.1875C17.3672 17.1875 18.9062 15.6485 18.9062 13.75C18.9062 11.8515 17.3672 10.3125 15.4688 10.3125C13.5703 10.3125 12.0312 11.8515 12.0312 13.75C12.0312 15.6485 13.5703 17.1875 15.4688 17.1875Z" fill="white"/>
</g>
</g>
</g>
<defs>
<clipPath id="clip0_2135_64">
<rect width="55" height="55" fill="white"/>
</clipPath>
</defs>
</svg>
