<svg width="55" height="55" viewBox="0 0 55 55" fill="none" xmlns="http://www.w3.org/2000/svg">
<g id="Group 306">
<g id="Group">
<g id="Dark_Blue">
<path id="Vector" d="M27.5 0C42.6855 0 55 12.3145 55 27.5C55 42.6855 42.6855 55 27.5 55C12.3145 55 0 42.6855 0 27.5C0 12.3145 12.3145 0 27.5 0Z" fill="#1DA1F2"/>
</g>
<g id="Logo_FIXED">
<path id="Vector_2" d="M21.1202 41.4696C34.0892 41.4696 41.1897 30.7226 41.1897 21.4001C41.1897 21.0976 41.1897 20.7896 41.1677 20.4871C42.5482 19.4861 43.7417 18.2541 44.6877 16.8351C43.4007 17.4071 42.0367 17.7811 40.6397 17.9461C42.1137 17.0661 43.2137 15.6801 43.7417 14.0466C42.3557 14.8661 40.8432 15.4491 39.2647 15.7571C36.5917 12.9191 32.1257 12.7816 29.2877 15.4491C27.4562 17.1706 26.6807 19.7391 27.2472 22.1866C21.5767 21.9006 16.2912 19.2221 12.7107 14.8166C10.8407 18.0396 11.7922 22.1591 14.8942 24.2326C13.7722 24.1996 12.6722 23.8971 11.6932 23.3526C11.6932 23.3801 11.6932 23.4131 11.6932 23.4406C11.6932 26.7956 14.0582 29.6886 17.3527 30.3541C16.3132 30.6346 15.2242 30.6786 14.1682 30.4751C15.0922 33.3461 17.7377 35.3151 20.7572 35.3756C18.2602 37.3391 15.1747 38.4061 12.0012 38.4006C11.4402 38.4006 10.8792 38.3676 10.3237 38.2961C13.5357 40.3696 17.2922 41.4696 21.1202 41.4641" fill="white"/>
</g>
</g>
</g>
</svg>
