<svg width="55" height="55" viewBox="0 0 55 55" fill="none" xmlns="http://www.w3.org/2000/svg">
<g id="3225179_app_logo_media_popular_social_icon 1" clip-path="url(#clip0_2135_56)">
<g id="Group">
<path id="Vector" d="M27.5 55C12.3145 55 0 42.6855 0 27.5C0 12.3145 12.3145 0 27.5 0C42.6855 0 55 12.3145 55 27.5C55 42.6855 42.6855 55 27.5 55Z" fill="#25D366"/>
<g id="Group_2">
<g id="WA_Logo">
<g id="Group_3">
<path id="Vector_2" fill-rule="evenodd" clip-rule="evenodd" d="M40.3645 14.6956C36.9545 11.2801 32.4115 9.39905 27.577 9.39355C17.6165 9.39355 9.50397 17.5006 9.50397 27.4666C9.50397 30.6511 10.3345 33.7641 11.9185 36.5031L9.35547 45.8696L18.9365 43.3561C21.5765 44.7971 24.5465 45.5561 27.5715 45.5561H27.577C37.5375 45.5561 45.6445 37.4491 45.65 27.4831C45.6555 22.6541 43.78 18.1111 40.3645 14.6956ZM27.5825 42.5036H27.577C24.882 42.5036 22.2365 41.7776 19.932 40.4081L19.382 40.0836L13.695 41.5741L15.213 36.0301L14.8555 35.4636C13.354 33.0711 12.5565 30.3101 12.5565 27.4666C12.562 19.1836 19.2995 12.4461 27.588 12.4461C31.603 12.4461 35.3705 14.0136 38.2085 16.8516C41.0465 19.6896 42.6085 23.4681 42.603 27.4776C42.603 35.7661 35.86 42.5036 27.5825 42.5036ZM35.8215 31.2506C35.3705 31.0251 33.1485 29.9306 32.736 29.7821C32.3235 29.6336 32.021 29.5566 31.7185 30.0076C31.416 30.4586 30.5525 31.4761 30.2885 31.7786C30.0245 32.0811 29.7605 32.1196 29.3095 31.8941C28.8585 31.6686 27.401 31.1901 25.6795 29.6501C24.3375 28.4511 23.43 26.9716 23.166 26.5206C22.902 26.0696 23.1385 25.8221 23.364 25.5966C23.5675 25.3931 23.815 25.0686 24.0405 24.8046C24.266 24.5406 24.343 24.3536 24.4915 24.0511C24.64 23.7486 24.5685 23.4846 24.453 23.2591C24.3375 23.0336 23.4355 20.8116 23.0615 19.9041C22.693 19.0241 22.3245 19.1451 22.044 19.1286C21.78 19.1176 21.4775 19.1121 21.1805 19.1121C20.878 19.1121 20.3885 19.2276 19.976 19.6786C19.5635 20.1296 18.3975 21.2241 18.3975 23.4461C18.3975 25.6681 20.0145 27.8186 20.24 28.1156C20.4655 28.4181 23.4245 32.9776 27.9565 34.9356C29.0345 35.4031 29.876 35.6781 30.5305 35.8871C31.614 36.2336 32.5985 36.1841 33.374 36.0686C34.243 35.9366 36.047 34.9741 36.421 33.9236C36.795 32.8676 36.795 31.9656 36.685 31.7786C36.575 31.5916 36.2725 31.4816 35.8215 31.2506Z" fill="white"/>
</g>
</g>
</g>
</g>
</g>
<defs>
<clipPath id="clip0_2135_56">
<rect width="55" height="55" fill="white"/>
</clipPath>
</defs>
</svg>
