<svg width="27" height="24" viewBox="0 0 27 24" fill="none" xmlns="http://www.w3.org/2000/svg">
<path id="Vector" d="M2.06897 24C1.47126 24 0.977012 23.8046 0.586207 23.4138C0.195402 23.023 0 22.5287 0 21.931V7.58621C0 6.98851 0.195402 6.49425 0.586207 6.10345C0.977012 5.71264 1.47126 5.51724 2.06897 5.51724H6.06897L8.62069 2.75862H15.4483V3.72414H9.03448L6.48276 6.48276H2.06897C1.74713 6.48276 1.48276 6.58621 1.27586 6.7931C1.06897 7 0.965517 7.26437 0.965517 7.58621V21.931C0.965517 22.2529 1.06897 22.5172 1.27586 22.7241C1.48276 22.931 1.74713 23.0345 2.06897 23.0345H21.931C22.2529 23.0345 22.5172 22.931 22.7241 22.7241C22.931 22.5172 23.0345 22.2529 23.0345 21.931V11.3103H24V21.931C24 22.5287 23.8046 23.023 23.4138 23.4138C23.023 23.8046 22.5287 24 21.931 24H2.06897ZM23.0345 6.48276V3.72414H20.2759V2.75862H23.0345V0H24V2.75862H26.7586V3.72414H24V6.48276H23.0345ZM12 19.5862C13.3563 19.5862 14.5 19.1207 15.431 18.1897C16.3621 17.2586 16.8276 16.1149 16.8276 14.7586C16.8276 13.4023 16.3621 12.2586 15.431 11.3276C14.5 10.3966 13.3563 9.93103 12 9.93103C10.6437 9.93103 9.5 10.3966 8.56897 11.3276C7.63793 12.2586 7.17241 13.4023 7.17241 14.7586C7.17241 16.1149 7.63793 17.2586 8.56897 18.1897C9.5 19.1207 10.6437 19.5862 12 19.5862ZM12 18.6207C10.8966 18.6207 9.97701 18.2529 9.24138 17.5172C8.50575 16.7816 8.13793 15.8621 8.13793 14.7586C8.13793 13.6552 8.50575 12.7356 9.24138 12C9.97701 11.2644 10.8966 10.8966 12 10.8966C13.1034 10.8966 14.023 11.2644 14.7586 12C15.4943 12.7356 15.8621 13.6552 15.8621 14.7586C15.8621 15.8621 15.4943 16.7816 14.7586 17.5172C14.023 18.2529 13.1034 18.6207 12 18.6207Z" fill="url(#paint0_linear_1280_642)"/>
<defs>
<linearGradient id="paint0_linear_1280_642" x1="5.57471" y1="-2.5" x2="14.7403" y2="26.6243" gradientUnits="userSpaceOnUse">
<stop stop-color="#0F52BA"/>
<stop offset="1" stop-color="#8225AF"/>
</linearGradient>
</defs>
</svg>
