<svg width="29" height="24" viewBox="0 0 29 24" fill="none" xmlns="http://www.w3.org/2000/svg">
<path id="Vector" d="M2.41791 24C1.73806 24 1.16512 23.767 0.69909 23.3009C0.23303 22.8349 0 22.2619 0 21.5821V2.41791C0 1.73806 0.23303 1.1651 0.69909 0.699045C1.16512 0.233015 1.73806 0 2.41791 0H21.5821C22.2619 0 22.8349 0.233015 23.301 0.699045C23.767 1.1651 24 1.73806 24 2.41791V11.2836L28.9254 6.35821V17.597L24 12.6716V21.5821C24 22.2619 23.767 22.8349 23.301 23.3009C22.8349 23.767 22.2619 24 21.5821 24H2.41791ZM2.41791 23.0149H21.5821C22 23.0149 22.3433 22.8806 22.6119 22.6119C22.8806 22.3433 23.0149 22 23.0149 21.5821V2.41791C23.0149 2 22.8806 1.65672 22.6119 1.38806C22.3433 1.1194 22 0.985075 21.5821 0.985075H2.41791C2 0.985075 1.65672 1.1194 1.38806 1.38806C1.1194 1.65672 0.985075 2 0.985075 2.41791V21.5821C0.985075 22 1.1194 22.3433 1.38806 22.6119C1.65672 22.8806 2 23.0149 2.41791 23.0149Z" fill="url(#paint0_linear_1280_632)"/>
<defs>
<linearGradient id="paint0_linear_1280_632" x1="6.02612" y1="-2.5" x2="14.6167" y2="27.0078" gradientUnits="userSpaceOnUse">
<stop stop-color="#0F52BA"/>
<stop offset="1" stop-color="#8225AF"/>
</linearGradient>
</defs>
</svg>
