<svg width="24" height="24" viewBox="0 0 24 24" fill="none" xmlns="http://www.w3.org/2000/svg">
<path id="Vector" d="M2.1039 24C1.51234 24 1.01381 23.7972 0.608299 23.3917C0.202766 22.9862 0 22.4877 0 21.8961V2.1039C0 1.51234 0.202766 1.01379 0.608299 0.60826C1.01381 0.202753 1.51234 0 2.1039 0H21.8961C22.4877 0 22.9862 0.202753 23.3917 0.60826C23.7972 1.01379 24 1.51234 24 2.1039V21.8961C24 22.4877 23.7972 22.9862 23.3917 23.3917C22.9862 23.7972 22.4877 24 21.8961 24H2.1039ZM2.1039 23.1429H21.8961C22.2078 23.1429 22.4935 23.013 22.7532 22.7532C23.013 22.4935 23.1429 22.2078 23.1429 21.8961V2.1039C23.1429 1.79221 23.013 1.50649 22.7532 1.24675C22.4935 0.987013 22.2078 0.857143 21.8961 0.857143H2.1039C1.79221 0.857143 1.50649 0.987013 1.24675 1.24675C0.987013 1.50649 0.857143 1.79221 0.857143 2.1039V21.8961C0.857143 22.2078 0.987013 22.4935 1.24675 22.7532C1.50649 23.013 1.79221 23.1429 2.1039 23.1429ZM5.64935 18.8182H18.7013L14.7273 13.5584L10.7143 18.5065L8.18182 15.5455L5.64935 18.8182ZM6.55231 7.75325C6.8854 7.75325 7.16883 7.63406 7.4026 7.3957C7.63636 7.15736 7.75325 6.87165 7.75325 6.53856C7.75325 6.20549 7.63408 5.92208 7.39574 5.68831C7.15738 5.45455 6.87166 5.33766 6.5386 5.33766C6.20551 5.33766 5.92208 5.45684 5.68831 5.69521C5.45455 5.93355 5.33766 6.21926 5.33766 6.55235C5.33766 6.88542 5.45683 7.16883 5.69517 7.4026C5.93353 7.63636 6.21925 7.75325 6.55231 7.75325Z" fill="url(#paint0_linear_1280_633)"/>
<defs>
<linearGradient id="paint0_linear_1280_633" x1="5" y1="-2.5" x2="15" y2="26" gradientUnits="userSpaceOnUse">
<stop stop-color="#0F52BA"/>
<stop offset="1" stop-color="#8225AF"/>
</linearGradient>
</defs>
</svg>
