<svg width="19" height="24" viewBox="0 0 19 24" fill="none" xmlns="http://www.w3.org/2000/svg">
<path d="M1.79512 24C1.31019 24 0.889771 23.817 0.533862 23.451C0.177954 23.0849 0 22.6526 0 22.1539V9.94357C0 9.43161 0.177954 8.99593 0.533862 8.63653C0.889771 8.27713 1.31019 8.09743 1.79512 8.09743H4.03906V5.17947C4.03906 3.73655 4.52819 2.51259 5.50646 1.50757C6.48472 0.502522 7.67609 0 9.08056 0C10.485 0 11.6747 0.502522 12.6495 1.50757C13.6244 2.51259 14.1118 3.73655 14.1118 5.17947V8.09743H16.3558C16.8407 8.09743 17.2611 8.27713 17.617 8.63653C17.9729 8.99593 18.1509 9.43161 18.1509 9.94357V22.1539C18.1509 22.6526 17.9729 23.0849 17.617 23.451C17.2611 23.817 16.8407 24 16.3558 24H1.79512ZM1.79512 22.9744H16.3558C16.5885 22.9744 16.7796 22.8974 16.9292 22.7436C17.0788 22.5898 17.1536 22.3932 17.1536 22.1539V9.94357C17.1536 9.70426 17.0788 9.50768 16.9292 9.35383C16.7796 9.19999 16.5885 9.12307 16.3558 9.12307H1.79512C1.56242 9.12307 1.37128 9.19999 1.22168 9.35383C1.07209 9.50768 0.997293 9.70426 0.997293 9.94357V22.1539C0.997293 22.3932 1.07209 22.5898 1.22168 22.7436C1.37128 22.8974 1.56242 22.9744 1.79512 22.9744ZM9.08088 18C9.6025 18 10.0482 17.8108 10.4181 17.4323C10.7879 17.0538 10.9728 16.5978 10.9728 16.0641C10.9728 15.5513 10.7861 15.0953 10.4126 14.6962C10.0391 14.297 9.59159 14.0974 9.06999 14.0974C8.54837 14.0974 8.10265 14.297 7.73282 14.6962C7.36298 15.0953 7.17806 15.5568 7.17806 16.0808C7.17806 16.6047 7.36479 17.0556 7.73827 17.4333C8.11175 17.8111 8.55928 18 9.08088 18ZM5.03638 8.09743H13.1145V5.17947C13.1145 4.02562 12.7223 3.04486 11.938 2.23717C11.1536 1.42948 10.2012 1.02563 9.08072 1.02563C7.96023 1.02563 7.00604 1.42948 6.21817 2.23717C5.43031 3.04486 5.03638 4.02562 5.03638 5.17947V8.09743Z" fill="url(#paint0_linear_1747_308)"/>
<defs>
<linearGradient id="paint0_linear_1747_308" x1="0.648246" y1="1.15532" x2="21.3921" y2="23.8439" gradientUnits="userSpaceOnUse">
<stop stop-color="#0F52BA"/>
<stop offset="1" stop-color="#8225AF"/>
</linearGradient>
</defs>
</svg>
