<svg width="24" height="14" viewBox="0 0 24 14" fill="none" xmlns="http://www.w3.org/2000/svg">
<g clip-path="url(#clip0_576_138)">
<path d="M0.5 13.9324V13.1884H12.9444V13.9324H0.5ZM0.5 7.47343V6.72947H6.18116V7.47343H0.5ZM0.5 1.01449V0.270531H6.18116V1.01449H0.5ZM22.9541 14L17.7464 8.79227C17.2955 9.17552 16.7939 9.47423 16.2415 9.68841C15.6892 9.90258 15.1087 10.0097 14.5 10.0097C13.1023 10.0097 11.9187 9.52496 10.9493 8.55556C9.97987 7.58615 9.49517 6.40258 9.49517 5.00483C9.49517 3.60709 9.97987 2.42351 10.9493 1.45411C11.9187 0.484702 13.1023 0 14.5 0C15.8977 0 17.0813 0.484702 18.0507 1.45411C19.0201 2.42351 19.5048 3.60709 19.5048 5.00483C19.5048 5.61353 19.3977 6.19404 19.1836 6.74638C18.9694 7.29871 18.6707 7.80032 18.2874 8.25121L23.4952 13.4589L22.9541 14ZM14.4881 9.2657C15.6683 9.2657 16.6755 8.85261 17.5097 8.02643C18.3438 7.20025 18.7609 6.19703 18.7609 5.01677C18.7609 3.83651 18.3478 2.82931 17.5216 1.99517C16.6954 1.16103 15.6922 0.743961 14.5119 0.743961C13.3317 0.743961 12.3245 1.15705 11.4903 1.98323C10.6562 2.80941 10.2391 3.81263 10.2391 4.99289C10.2391 6.17315 10.6522 7.18035 11.4784 8.01449C12.3046 8.84863 13.3078 9.2657 14.4881 9.2657Z" fill="black"/>
</g>
<defs>
<clipPath id="clip0_576_138">
<rect width="23" height="14" fill="white" transform="translate(0.5)"/>
</clipPath>
</defs>
</svg>
