<svg width="15" height="16" viewBox="0 0 15 16" fill="none" xmlns="http://www.w3.org/2000/svg">
<path id="Vector" d="M12.275 16C11.7068 16 11.2244 15.801 10.8279 15.4029C10.4314 15.0049 10.2332 14.5215 10.2332 13.9529C10.2332 13.8432 10.2437 13.7187 10.2648 13.5794C10.2858 13.4401 10.3228 13.3164 10.3757 13.2081L3.64048 9.24373C3.45156 9.49312 3.21525 9.6888 2.93156 9.83078C2.64785 9.97274 2.35191 10.0437 2.04373 10.0437C1.47602 10.0437 0.993474 9.84485 0.596084 9.44709C0.198695 9.04933 0 8.56632 0 7.99808C0 7.42986 0.198695 6.9475 0.596084 6.55101C0.993474 6.15452 1.47602 5.95627 2.04373 5.95627C2.35956 5.95627 2.65579 6.02213 2.93242 6.15385C3.20905 6.28556 3.44507 6.47611 3.64048 6.72549L10.3757 2.78705C10.3228 2.677 10.2858 2.55627 10.2648 2.42484C10.2437 2.29342 10.2332 2.16638 10.2332 2.04373C10.2332 1.47602 10.4321 0.993474 10.8298 0.596085C11.2276 0.198695 11.7106 0 12.2788 0C12.8471 0 13.3294 0.198513 13.7259 0.595537C14.1224 0.992548 14.3207 1.47464 14.3207 2.04181C14.3207 2.62338 14.122 3.10972 13.7246 3.50082C13.3272 3.89191 12.8446 4.08745 12.2769 4.08745C11.9638 4.08745 11.6701 4.02672 11.3959 3.90526C11.1217 3.7838 10.8847 3.59838 10.685 3.34899L3.966 7.24211C4.00486 7.35439 4.03482 7.48039 4.05587 7.62013C4.07693 7.75986 4.08745 7.88706 4.08745 8.00173C4.08745 8.11639 4.07693 8.23627 4.05587 8.36135C4.03482 8.48644 4.00486 8.60513 3.966 8.71741L10.685 12.63C10.8847 12.4119 11.1169 12.2378 11.3814 12.1077C11.6459 11.9776 11.9444 11.9125 12.2769 11.9125C12.8446 11.9125 13.3272 12.1075 13.7246 12.4973C14.122 12.8871 14.3207 13.3701 14.3207 13.9463C14.3207 14.5224 14.1218 15.0088 13.724 15.4053C13.3262 15.8018 12.8432 16 12.275 16ZM12.2805 3.43968C12.6657 3.43968 12.9941 3.30272 13.2656 3.0288C13.5371 2.75489 13.6729 2.42534 13.6729 2.04015C13.6729 1.65495 13.5359 1.32659 13.262 1.05505C12.9881 0.78353 12.6585 0.647768 12.2733 0.647768C11.8882 0.647768 11.5598 0.784722 11.2883 1.05863C11.0167 1.33255 10.881 1.66211 10.881 2.04731C10.881 2.4325 11.0179 2.76086 11.2918 3.03238C11.5658 3.30392 11.8953 3.43968 12.2805 3.43968ZM2.04731 9.39596C2.4325 9.39596 2.76086 9.259 3.03238 8.98507C3.30392 8.71117 3.43968 8.38161 3.43968 7.99642C3.43968 7.61123 3.30272 7.28287 3.0288 7.01135C2.75489 6.73981 2.42534 6.60404 2.04015 6.60404C1.65495 6.60404 1.32659 6.741 1.05505 7.01493C0.78353 7.28884 0.647768 7.61839 0.647768 8.00358C0.647768 8.38877 0.784723 8.71713 1.05863 8.98865C1.33255 9.26019 1.66211 9.39596 2.04731 9.39596ZM12.2805 15.3522C12.6657 15.3522 12.9941 15.2153 13.2656 14.9414C13.5371 14.6674 13.6729 14.3379 13.6729 13.9527C13.6729 13.5675 13.5359 13.2391 13.262 12.9676C12.9881 12.6961 12.6585 12.5603 12.2733 12.5603C11.8882 12.5603 11.5598 12.6973 11.2883 12.9712C11.0167 13.2451 10.881 13.5747 10.881 13.9599C10.881 14.345 11.0179 14.6734 11.2918 14.9449C11.5658 15.2165 11.8953 15.3522 12.2805 15.3522Z" fill="white"/>
</svg>
