<svg width="15" height="14" viewBox="0 0 15 14" fill="none" xmlns="http://www.w3.org/2000/svg">
<g id="Vector">
<mask id="path-1-inside-1_4122_342" fill="white">
<path d="M3.95261 12.435L7.36545 10.3697L10.7783 12.4594L9.8862 8.55368L12.8923 5.94858L8.92662 5.59625L7.36545 1.93414L5.80427 5.57189L1.83856 5.92422L4.84469 8.54805L3.95261 12.435ZM2.80937 14L4.01819 8.82169L0 5.34136L5.29263 4.88219L7.36545 0L9.43827 4.88219L14.7309 5.34136L10.7127 8.82169L11.9215 14L7.36545 11.2506L2.80937 14Z"/>
</mask>
<path d="M3.95261 12.435L2.97794 12.2114L2.4496 14.5135L4.47034 13.2906L3.95261 12.435ZM7.36545 10.3697L7.88764 9.5169L7.3685 9.19903L6.84771 9.51419L7.36545 10.3697ZM10.7783 12.4594L10.2561 13.3122L12.2822 14.5528L11.7532 12.2367L10.7783 12.4594ZM9.8862 8.55368L9.2313 7.79797L8.77763 8.19111L8.91131 8.77635L9.8862 8.55368ZM12.8923 5.94858L13.5472 6.7043L15.3281 5.16104L12.9808 4.9525L12.8923 5.94858ZM8.92662 5.59625L8.00673 5.98841L8.24159 6.53933L8.83813 6.59233L8.92662 5.59625ZM7.36545 1.93414L8.28535 1.54198L7.36852 -0.60866L6.4465 1.53976L7.36545 1.93414ZM5.80427 5.57189L5.89277 6.56797L6.48768 6.51511L6.72322 5.96626L5.80427 5.57189ZM1.83856 5.92422L1.75007 4.92814L-0.585633 5.13565L1.18098 6.6776L1.83856 5.92422ZM4.84469 8.54805L5.81936 8.77175L5.95326 8.1883L5.50227 7.79467L4.84469 8.54805ZM2.80937 14L1.83555 13.7727L1.29675 16.0808L3.32604 14.8562L2.80937 14ZM4.01819 8.82169L4.99201 9.04902L5.12926 8.46108L4.6729 8.0658L4.01819 8.82169ZM0 5.34136L-0.0864309 4.3451L-2.44172 4.54943L-0.654705 6.09724L0 5.34136ZM5.29263 4.88219L5.37906 5.87845L5.97811 5.82648L6.2131 5.27299L5.29263 4.88219ZM7.36545 0L8.28592 -0.390804L7.36545 -2.55883L6.44497 -0.390803L7.36545 0ZM9.43827 4.88219L8.5178 5.27299L8.75279 5.82648L9.35184 5.87845L9.43827 4.88219ZM14.7309 5.34136L15.3856 6.09724L17.1726 4.54943L14.8173 4.3451L14.7309 5.34136ZM10.7127 8.82169L10.058 8.0658L9.60164 8.46108L9.73888 9.04902L10.7127 8.82169ZM11.9215 14L11.4049 14.8562L13.4341 16.0808L12.8953 13.7727L11.9215 14ZM7.36545 11.2506L7.88212 10.3944L7.36545 10.0826L6.84878 10.3944L7.36545 11.2506ZM4.47034 13.2906L7.88319 11.2253L6.84771 9.51419L3.43487 11.5795L4.47034 13.2906ZM6.84326 11.2226L10.2561 13.3122L11.3005 11.6066L7.88764 9.5169L6.84326 11.2226ZM11.7532 12.2367L10.8611 8.33101L8.91131 8.77635L9.8034 12.6821L11.7532 12.2367ZM10.5411 9.3094L13.5472 6.7043L12.2374 5.19287L9.2313 7.79797L10.5411 9.3094ZM12.9808 4.9525L9.01512 4.60018L8.83813 6.59233L12.8038 6.94466L12.9808 4.9525ZM9.84652 5.2041L8.28535 1.54198L6.44555 2.3263L8.00673 5.98841L9.84652 5.2041ZM6.4465 1.53976L4.88532 5.17751L6.72322 5.96626L8.2844 2.32852L6.4465 1.53976ZM5.71578 4.57581L1.75007 4.92814L1.92706 6.92029L5.89277 6.56797L5.71578 4.57581ZM1.18098 6.6776L4.18712 9.30144L5.50227 7.79467L2.49614 5.17083L1.18098 6.6776ZM3.87003 8.32436L2.97794 12.2114L4.92727 12.6587L5.81936 8.77175L3.87003 8.32436ZM3.78319 14.2273L4.99201 9.04902L3.04437 8.59436L1.83555 13.7727L3.78319 14.2273ZM4.6729 8.0658L0.654705 4.58547L-0.654705 6.09724L3.36349 9.57757L4.6729 8.0658ZM0.0864309 6.33761L5.37906 5.87845L5.2062 3.88593L-0.0864309 4.3451L0.0864309 6.33761ZM6.2131 5.27299L8.28592 0.390803L6.44497 -0.390803L4.37215 4.49139L6.2131 5.27299ZM6.44497 0.390804L8.5178 5.27299L10.3587 4.49139L8.28592 -0.390804L6.44497 0.390804ZM9.35184 5.87845L14.6445 6.33761L14.8173 4.3451L9.5247 3.88593L9.35184 5.87845ZM14.0762 4.58547L10.058 8.0658L11.3674 9.57757L15.3856 6.09724L14.0762 4.58547ZM9.73888 9.04902L10.9477 14.2273L12.8953 13.7727L11.6865 8.59436L9.73888 9.04902ZM12.4382 13.1438L7.88212 10.3944L6.84878 12.1068L11.4049 14.8562L12.4382 13.1438ZM6.84878 10.3944L2.2927 13.1438L3.32604 14.8562L7.88212 12.1068L6.84878 10.3944Z" fill="url(#paint0_linear_4122_342)" mask="url(#path-1-inside-1_4122_342)"/>
</g>
<defs>
<linearGradient id="paint0_linear_4122_342" x1="0.920681" y1="-1.225" x2="13.8824" y2="15.8684" gradientUnits="userSpaceOnUse">
<stop stop-color="#0F52BA"/>
<stop offset="0.979167" stop-color="#8225AF"/>
</linearGradient>
</defs>
</svg>
