<svg width="16" height="16" viewBox="0 0 16 16" fill="none" xmlns="http://www.w3.org/2000/svg">
<g id="Group 234">
<path id="Vector" d="M6.26324 16L5.90429 13.4564C5.57722 13.3527 5.21825 13.192 4.82736 12.9744C4.43648 12.7567 4.10543 12.5231 3.8342 12.2735L1.48547 13.3368L0 10.7008L2.09231 9.15042C2.06268 8.9715 2.03847 8.78262 2.01967 8.58376C2.00087 8.3849 1.99147 8.19601 1.99147 8.01709C1.99147 7.84958 2.00087 7.66639 2.01967 7.46751C2.03847 7.26865 2.06268 7.06267 2.09231 6.84958L0 5.28204L1.48547 2.69742L3.81711 3.72649C4.12252 3.47692 4.45927 3.24615 4.82736 3.03418C5.19545 2.82222 5.54872 2.6661 5.88718 2.5658L6.26324 0H9.22396L9.58291 2.56069C9.95556 2.69857 10.3097 2.86124 10.6453 3.04871C10.9809 3.23618 11.2997 3.4621 11.6017 3.72649L14.0188 2.69742L15.4872 5.28204L13.3265 6.87351C13.3789 7.07864 13.4117 7.27493 13.4248 7.4624C13.4379 7.64987 13.4445 7.82907 13.4445 8C13.4445 8.15954 13.4351 8.33219 13.4162 8.51796C13.3974 8.7037 13.3675 8.91054 13.3265 9.13847L15.4701 10.7008L13.9846 13.3368L11.6017 12.2564C11.2849 12.5288 10.9576 12.7689 10.6197 12.9769C10.2818 13.1849 9.9362 13.339 9.58291 13.4393L9.22396 16H6.26324ZM7.69231 10.1197C8.28718 10.1197 8.78918 9.9151 9.19831 9.50598C9.60742 9.09687 9.81198 8.59487 9.81198 8C9.81198 7.40513 9.60742 6.90313 9.19831 6.49402C8.78918 6.0849 8.28718 5.88033 7.69231 5.88033C7.10884 5.88033 6.6097 6.0849 6.19489 6.49402C5.78006 6.90313 5.57264 7.40513 5.57264 8C5.57264 8.59487 5.78006 9.09687 6.19489 9.50598C6.6097 9.9151 7.10884 10.1197 7.69231 10.1197ZM7.69231 9.43589C7.29687 9.43589 6.9587 9.29544 6.67778 9.01453C6.39687 8.73361 6.25642 8.39544 6.25642 8C6.25642 7.60456 6.39687 7.26639 6.67778 6.98547C6.9587 6.70456 7.29687 6.56411 7.69231 6.56411C8.09916 6.56411 8.44019 6.70456 8.7154 6.98547C8.99062 7.26639 9.12822 7.60456 9.12822 8C9.12822 8.39544 8.99062 8.73361 8.7154 9.01453C8.44019 9.29544 8.09916 9.43589 7.69231 9.43589ZM6.81711 15.3162H8.653L8.9812 12.8444C9.43591 12.7259 9.8533 12.5578 10.2334 12.3402C10.6134 12.1225 10.9983 11.8302 11.388 11.4632L13.6752 12.4513L14.5641 10.9026L12.5436 9.40342C12.6029 9.12877 12.6482 8.88062 12.6795 8.65898C12.7108 8.43732 12.7265 8.21766 12.7265 8C12.7265 7.75954 12.7117 7.53419 12.6821 7.32393C12.6524 7.11368 12.6063 6.88263 12.5436 6.63078L14.5983 5.09745L13.7094 3.54871L11.371 4.53676C11.0872 4.21994 10.7191 3.92336 10.2667 3.647C9.81426 3.37064 9.38007 3.20683 8.96411 3.15556L8.67009 0.683755H6.81711L6.54018 3.13847C6.05927 3.23076 5.62309 3.38859 5.23162 3.61196C4.84017 3.83532 4.45698 4.13789 4.08207 4.51967L1.77778 3.54871L0.888889 5.09745L2.9094 6.57949C2.83875 6.79715 2.78776 7.02536 2.75642 7.26411C2.72507 7.50285 2.7094 7.75384 2.7094 8.01709C2.7094 8.25755 2.72507 8.49145 2.75642 8.7188C2.78776 8.94615 2.83305 9.17436 2.89231 9.40342L0.888889 10.9026L1.77778 12.4513L4.06496 11.4803C4.42051 11.8473 4.79687 12.1396 5.19402 12.3573C5.59118 12.5749 6.0342 12.743 6.52309 12.8615L6.81711 15.3162Z" fill="black"/>
</g>
</svg>
