<svg width="18" height="16" viewBox="0 0 18 16" fill="none" xmlns="http://www.w3.org/2000/svg">
<g id="Group 232">
<path id="Vector" d="M8.61154 7.09745C7.59661 7.09745 6.75143 6.75973 6.076 6.0843C5.40054 5.40885 5.06282 4.55972 5.06282 3.53692C5.06282 2.51409 5.40054 1.6689 6.076 1.00134C6.75143 0.333781 7.59661 0 8.61154 0C9.62647 0 10.4717 0.333781 11.1471 1.00134C11.8225 1.6689 12.1603 2.51409 12.1603 3.53692C12.1603 4.55972 11.8225 5.40885 11.1471 6.0843C10.4717 6.75973 9.62647 7.09745 8.61154 7.09745ZM0 16V14.2209C0 13.6783 0.155357 13.1934 0.466069 12.7659C0.776761 12.3385 1.18447 12.0049 1.68918 11.7652C2.90522 11.2289 4.08433 10.8228 5.22653 10.5468C6.36873 10.2708 7.49682 10.1328 8.6108 10.1328C9.72481 10.1328 10.852 10.272 11.9923 10.5503C13.1326 10.8287 14.3065 11.2373 15.5138 11.776C16.0356 12.0117 16.4509 12.3425 16.7598 12.7683C17.0686 13.1942 17.2231 13.6783 17.2231 14.2209V16H0ZM0.946316 15.0537H16.2768V14.2209C16.2768 13.9086 16.1715 13.6078 15.9609 13.3183C15.7504 13.0289 15.4621 12.7888 15.0962 12.5979C13.989 12.057 12.9064 11.6686 11.8483 11.4328C10.7902 11.197 9.71128 11.0791 8.61154 11.0791C7.51181 11.0791 6.42659 11.197 5.35589 11.4328C4.28517 11.6686 3.20646 12.057 2.11976 12.5979C1.75385 12.7888 1.4668 13.0289 1.25861 13.3183C1.05041 13.6078 0.946316 13.9086 0.946316 14.2209V15.0537ZM8.61154 6.15113C9.34809 6.15113 9.96596 5.90153 10.4651 5.40233C10.9643 4.90315 11.2139 4.28528 11.2139 3.54872C11.2139 2.81217 10.9643 2.1943 10.4651 1.69512C9.96596 1.19594 9.34809 0.946347 8.61154 0.946347C7.87499 0.946347 7.25712 1.19594 6.75794 1.69512C6.25876 2.1943 6.00916 2.81217 6.00916 3.54872C6.00916 4.28528 6.25876 4.90315 6.75794 5.40233C7.25712 5.90153 7.87499 6.15113 8.61154 6.15113Z" fill="black"/>
</g>
</svg>
