<svg width="13" height="16" viewBox="0 0 13 16" fill="none" xmlns="http://www.w3.org/2000/svg">
<path id="Vector" d="M1.23076 16C0.898282 16 0.610037 15.878 0.366022 15.634C0.122007 15.39 0 15.1017 0 14.7692V6.62904C0 6.28774 0.122007 5.99729 0.366022 5.75769C0.610037 5.51809 0.898282 5.39829 1.23076 5.39829H2.76922V3.45298C2.76922 2.49104 3.10458 1.67506 3.77529 1.00504C4.446 0.335015 5.26281 0 6.22573 0C7.18864 0 8.00427 0.335015 8.67264 1.00504C9.34103 1.67506 9.67522 2.49104 9.67522 3.45298V5.39829H11.2137C11.5462 5.39829 11.8344 5.51809 12.0784 5.75769C12.3224 5.99729 12.4444 6.28774 12.4444 6.62904V14.7692C12.4444 15.1017 12.3224 15.39 12.0784 15.634C11.8344 15.878 11.5462 16 11.2137 16H1.23076ZM1.23076 15.3162H11.2137C11.3732 15.3162 11.5043 15.265 11.6068 15.1624C11.7094 15.0598 11.7607 14.9288 11.7607 14.7692V6.62904C11.7607 6.4695 11.7094 6.33845 11.6068 6.23589C11.5043 6.13333 11.3732 6.08205 11.2137 6.08205H1.23076C1.07121 6.08205 0.940163 6.13333 0.8376 6.23589C0.735037 6.33845 0.683756 6.4695 0.683756 6.62904V14.7692C0.683756 14.9288 0.735037 15.0598 0.8376 15.1624C0.940163 15.265 1.07121 15.3162 1.23076 15.3162ZM6.22596 12C6.58359 12 6.88918 11.8738 7.14273 11.6215C7.3963 11.3692 7.52309 11.0652 7.52309 10.7094C7.52309 10.3675 7.39506 10.0635 7.139 9.79745C6.88294 9.53134 6.5761 9.39829 6.21849 9.39829C5.86086 9.39829 5.55527 9.53134 5.30171 9.79745C5.04814 10.0635 4.92136 10.3712 4.92136 10.7205C4.92136 11.0698 5.04939 11.3704 5.30544 11.6222C5.5615 11.8741 5.86834 12 6.22596 12ZM3.453 5.39829H8.99144V3.45298C8.99144 2.68375 8.72257 2.0299 8.18482 1.49144C7.64706 0.952985 6.99407 0.683755 6.22584 0.683755C5.45762 0.683755 4.80342 0.952985 4.26324 1.49144C3.72308 2.0299 3.453 2.68375 3.453 3.45298V5.39829Z" fill="black"/>
</svg>
