<svg width="15" height="18" viewBox="0 0 15 18" fill="none" xmlns="http://www.w3.org/2000/svg">
<g id="Group 505">
<path id="Vector" d="M7.2344 17.2718V16.4903H13.3937C13.5385 16.4903 13.6712 16.4251 13.7919 16.2949C13.9125 16.1646 13.9729 16.0213 13.9729 15.865V1.40674C13.9729 1.25044 13.9125 1.10716 13.7919 0.976898C13.6712 0.846648 13.5385 0.781523 13.3937 0.781523H7.2344V0H13.3937C13.7554 0 14.063 0.136846 14.3165 0.410536C14.5701 0.684243 14.6968 1.01631 14.6968 1.40674V15.865C14.6968 16.2555 14.5701 16.5876 14.3165 16.8613C14.063 17.135 13.7554 17.2718 13.3937 17.2718H7.2344ZM6.73847 11.9281L6.21539 11.383L8.39819 9.02667H0V8.24512H8.36922L6.18642 5.88882L6.7276 5.32416L9.80092 8.64176L6.73847 11.9281Z" fill="black"/>
</g>
</svg>
