<svg width="8" height="8" viewBox="0 0 8 8" fill="none" xmlns="http://www.w3.org/2000/svg">
<path id="Vector" d="M3.41 5.82L6.24 2.99L5.78 2.54L3.41 4.91L2.21 3.71L1.76 4.16L3.41 5.82ZM4 8C3.45333 8 2.93667 7.895 2.45 7.685C1.96333 7.475 1.53833 7.18833 1.175 6.825C0.811667 6.46167 0.525 6.03667 0.315 5.55C0.105 5.06333 0 4.54667 0 4C0 3.44667 0.105 2.92667 0.315 2.44C0.525 1.95333 0.811667 1.53 1.175 1.17C1.53833 0.81 1.96333 0.525 2.45 0.315C2.93667 0.105 3.45333 0 4 0C4.55333 0 5.07333 0.105 5.56 0.315C6.04667 0.525 6.47 0.81 6.83 1.17C7.19 1.53 7.475 1.95333 7.685 2.44C7.895 2.92667 8 3.44667 8 4C8 4.54667 7.895 5.06333 7.685 5.55C7.475 6.03667 7.19 6.46167 6.83 6.825C6.47 7.18833 6.04667 7.475 5.56 7.685C5.07333 7.895 4.55333 8 4 8ZM4 7.4C4.94667 7.4 5.75 7.06833 6.41 6.405C7.07 5.74167 7.4 4.94 7.4 4C7.4 3.05333 7.07 2.25 6.41 1.59C5.75 0.93 4.94667 0.6 4 0.6C3.06 0.6 2.25833 0.93 1.595 1.59C0.931667 2.25 0.6 3.05333 0.6 4C0.6 4.94 0.931667 5.74167 1.595 6.405C2.25833 7.06833 3.06 7.4 4 7.4Z" fill="#17C270"/>
</svg>
