<svg width="36" height="32" viewBox="0 0 36 32" fill="none" xmlns="http://www.w3.org/2000/svg">
<g id="Group 1939">
<path id="Vector" d="M17.7778 23.4666C20.9196 23.4666 23.4666 20.9196 23.4666 17.7778C23.4666 14.6359 20.9196 12.0889 17.7778 12.0889C14.6359 12.0889 12.0889 14.6359 12.0889 17.7778C12.0889 20.9196 14.6359 23.4666 17.7778 23.4666Z" fill="white"/>
<path id="Vector_2" d="M12.4444 0L9.19111 3.55556H3.55556C1.6 3.55556 0 5.15556 0 7.11111V28.4444C0 30.4 1.6 32 3.55556 32H32C33.9556 32 35.5556 30.4 35.5556 28.4444V7.11111C35.5556 5.15556 33.9556 3.55556 32 3.55556H26.3644L23.1111 0H12.4444ZM17.7778 26.6667C12.8711 26.6667 8.88889 22.6844 8.88889 17.7778C8.88889 12.8711 12.8711 8.88889 17.7778 8.88889C22.6844 8.88889 26.6667 12.8711 26.6667 17.7778C26.6667 22.6844 22.6844 26.6667 17.7778 26.6667Z" fill="white"/>
</g>
</svg>
