<svg width="40" height="40" viewBox="0 0 40 40" fill="none" xmlns="http://www.w3.org/2000/svg">
<circle cx="20" cy="20" r="20" fill="url(#paint0_linear_61_7)"/>
<path d="M22.9467 11H15.2667C14.5584 11 13.9525 11.4267 13.6965 12.0411L11.1195 18.0571C11.0427 18.2533 11 18.4581 11 18.68V20.3867C11 21.3253 11.768 22.0933 12.7067 22.0933H18.0912L17.2805 25.9931L17.2549 26.2661C17.2549 26.616 17.4 26.9403 17.6304 27.1707L18.5349 28.0667L24.1584 22.4432C24.4656 22.136 24.6533 21.7093 24.6533 21.24V12.7067C24.6533 11.768 23.8853 11 22.9467 11ZM22.9467 21.24L19.2432 24.9435L20.3867 20.3867H12.7067V18.68L15.2667 12.7067H22.9467V21.24ZM26.36 11H29.7733V21.24H26.36V11Z" fill="white"/>
<defs>
<linearGradient id="paint0_linear_61_7" x1="-9.38053" y1="-12.8" x2="66.6493" y2="4.39664" gradientUnits="userSpaceOnUse">
<stop stop-color="#0F52BA"/>
<stop offset="1" stop-color="#BA0FA9"/>
</linearGradient>
</defs>
</svg>
