<svg width="22" height="22" viewBox="0 0 22 22" fill="none" xmlns="http://www.w3.org/2000/svg">
<mask id="path-1-inside-1_60_85" fill="white">
<path d="M21.5 11C21.4999 13.2174 20.7978 15.3778 19.4944 17.1716C18.191 18.9654 16.3532 20.3006 14.2444 20.9857C12.1355 21.6708 9.86389 21.6708 7.75508 20.9855C5.64627 20.3003 3.80852 18.965 2.50522 17.1711C1.20193 15.3772 0.499984 13.2168 0.5 10.9994C0.500016 8.78208 1.20199 6.62165 2.50531 4.82778C3.80864 3.0339 5.64641 1.69867 7.75523 1.01345C9.86405 0.32823 12.1357 0.328199 14.2445 1.01336"/>
</mask>
<path d="M20.5 11C20.4999 13.0062 19.8647 14.9608 18.6854 16.5838L20.3034 17.7594C21.731 15.7948 22.4999 13.4286 22.5 11.0001L20.5 11ZM18.6854 16.5838C17.5062 18.2068 15.8434 19.4148 13.9354 20.0346L14.5533 21.9368C16.863 21.1864 18.8759 19.7241 20.3034 17.7594L18.6854 16.5838ZM13.9354 20.0346C12.0274 20.6545 9.97209 20.6545 8.06412 20.0345L7.44604 21.9366C9.75569 22.6871 12.2436 22.6872 14.5533 21.9368L13.9354 20.0346ZM8.06412 20.0345C6.15615 19.4145 4.49343 18.2064 3.31425 16.5834L1.6962 17.7589C3.12362 19.7236 5.13639 21.1861 7.44604 21.9366L8.06412 20.0345ZM3.31425 16.5834C2.13508 14.9603 1.49999 13.0056 1.5 10.9994L-0.5 10.9994C-0.500018 13.428 0.268776 15.7942 1.6962 17.7589L3.31425 16.5834ZM1.5 10.9994C1.50001 8.99327 2.13513 7.03859 3.31433 5.41556L1.6963 4.23999C0.268846 6.20471 -0.499982 8.5709 -0.5 10.9994L1.5 10.9994ZM3.31433 5.41556C4.49353 3.79253 6.15627 2.58446 8.06425 1.9645L7.4462 0.0623955C5.13654 0.812874 3.12375 2.27527 1.6963 4.23999L3.31433 5.41556ZM8.06425 1.9645C9.97223 1.34454 12.0275 1.34451 13.9355 1.96442L14.5535 0.0622983C12.2438 -0.688117 9.75586 -0.688083 7.4462 0.0623955L8.06425 1.9645Z" fill="url(#paint0_linear_60_85)" mask="url(#path-1-inside-1_60_85)"/>
<defs>
<linearGradient id="paint0_linear_60_85" x1="-5" y1="-9" x2="21" y2="24.5" gradientUnits="userSpaceOnUse">
<stop stop-color="#0F52BA"/>
<stop offset="1" stop-color="#8225AF"/>
</linearGradient>
</defs>
</svg>
