<svg width="14" height="14" viewBox="0 0 14 14" fill="none" xmlns="http://www.w3.org/2000/svg">
<path d="M5.85278 10.0154L10.8321 5.03611L10.3714 4.57991L5.85278 9.11346L3.57928 6.83995L3.13802 7.29616L5.85278 10.0154ZM7.00261 14C6.03762 14 5.13154 13.8163 4.28439 13.449C3.43722 13.0816 2.69521 12.5798 2.05837 11.9435C1.42154 11.3073 0.919269 10.566 0.551561 9.71962C0.183854 8.87325 0 7.96758 0 7.00261C0 6.03462 0.183679 5.12456 0.551036 4.27241C0.918407 3.42026 1.42022 2.67901 2.05646 2.04865C2.69271 1.4183 3.43402 0.919269 4.28038 0.551562C5.12675 0.183854 6.03242 0 6.99739 0C7.96538 0 8.87544 0.183679 9.72759 0.551036C10.5797 0.918406 11.321 1.41697 11.9514 2.04674C12.5817 2.67651 13.0807 3.41706 13.4484 4.26841C13.8161 5.11976 14 6.02942 14 6.99739C14 7.96238 13.8163 8.86846 13.449 9.71561C13.0816 10.5628 12.583 11.3048 11.9533 11.9416C11.3235 12.5785 10.5829 13.0807 9.73159 13.4484C8.88024 13.8161 7.97058 14 7.00261 14ZM7 13.4017C8.78092 13.4017 10.2931 12.7792 11.5365 11.5343C12.78 10.2894 13.4017 8.77792 13.4017 7C13.4017 5.21908 12.78 3.7069 11.5365 2.46346C10.2931 1.22001 8.78092 0.598286 7 0.598286C5.22208 0.598286 3.71065 1.22001 2.46571 2.46346C1.22076 3.7069 0.598286 5.21908 0.598286 7C0.598286 8.77792 1.22076 10.2894 2.46571 11.5343C3.71065 12.7792 5.22208 13.4017 7 13.4017Z" fill="url(#paint0_linear_56_40)"/>
<defs>
<linearGradient id="paint0_linear_56_40" x1="4.55058" y1="-2" x2="9.50285" y2="16.0285" gradientUnits="userSpaceOnUse">
<stop stop-color="#0F52BA"/>
<stop offset="1" stop-color="#8225AF"/>
</linearGradient>
</defs>
</svg>
