<svg width="16" height="14" viewBox="0 0 16 14" fill="none" xmlns="http://www.w3.org/2000/svg">
<path d="M3.76439 0H12.1376V8.86238L6.95719 14L6.87117 13.9538C6.80008 13.8847 6.74312 13.8038 6.70031 13.711C6.65749 13.6182 6.63609 13.5219 6.63609 13.422V13.3792L7.49235 8.86238H1.15596C0.861978 8.86238 0.59582 8.74322 0.357492 8.50489C0.119164 8.26656 0 8.00041 0 7.70642V6.59327C0 6.50764 0.0142712 6.42915 0.0428135 6.3578L2.35474 0.920489C2.4529 0.660041 2.64267 0.441514 2.92405 0.264908C3.20542 0.0883027 3.48554 0 3.76439 0ZM11.6667 0.470948H3.68196C3.52497 0.470948 3.36442 0.513761 3.20031 0.599388C3.03619 0.685015 2.91131 0.827727 2.82569 1.02752L0.470948 6.59327V7.70642C0.470948 7.89195 0.535168 8.0525 0.663609 8.18807C0.792049 8.32365 0.956167 8.39144 1.15596 8.39144H8.04893L7.10703 13.2294L11.6667 8.64832V0.470948ZM12.1376 8.86238V8.39144H15.263V0.470948H12.1376V0H15.7339V8.86238H12.1376Z" fill="url(#paint0_linear_56_11)"/>
<defs>
<linearGradient id="paint0_linear_56_11" x1="5.11418" y1="-2" x2="9.58603" y2="16.2959" gradientUnits="userSpaceOnUse">
<stop stop-color="#0F52BA"/>
<stop offset="1" stop-color="#8225AF"/>
</linearGradient>
</defs>
</svg>
