<svg width="13" height="14" viewBox="0 0 13 14" fill="none" xmlns="http://www.w3.org/2000/svg">
<path d="M2.17881 14C1.84272 14 1.55008 13.8754 1.30091 13.6262C1.05174 13.3771 0.927152 13.0844 0.927152 12.7483V1.0894H0V0.57947H3.33775V0H9.08609V0.57947H12.4238V1.0894H11.4967V12.7483C11.4967 13.1003 11.3761 13.3969 11.1348 13.6381C10.8936 13.8794 10.597 14 10.245 14H2.17881ZM10.9868 1.0894H1.43709V12.7483C1.43709 12.9647 1.51049 13.1424 1.65728 13.2815C1.80408 13.4205 1.97792 13.4901 2.17881 13.4901H10.245C10.4305 13.4901 10.6004 13.4128 10.755 13.2583C10.9095 13.1038 10.9868 12.9338 10.9868 12.7483V1.0894ZM4.45033 11.5894H4.96026V2.96689H4.45033V11.5894ZM7.46358 11.5894H7.97351V2.96689H7.46358V11.5894Z" fill="url(#paint0_linear_56_25)"/>
<defs>
<linearGradient id="paint0_linear_56_25" x1="4.03826" y1="-2" x2="9.51512" y2="15.6936" gradientUnits="userSpaceOnUse">
<stop stop-color="#0F52BA"/>
<stop offset="1" stop-color="#8225AF"/>
</linearGradient>
</defs>
</svg>
