<svg width="14" height="14" viewBox="0 0 14 14" fill="none" xmlns="http://www.w3.org/2000/svg">
<path d="M1.22727 14C0.882197 14 0.591387 13.8817 0.354841 13.6452C0.11828 13.4086 0 13.1178 0 12.7727V1.22727C0 0.882197 0.11828 0.591379 0.354841 0.354818C0.591387 0.118273 0.882197 0 1.22727 0H12.7727C13.1178 0 13.4086 0.118273 13.6452 0.354818C13.8817 0.591379 14 0.882197 14 1.22727V12.7727C14 13.1178 13.8817 13.4086 13.6452 13.6452C13.4086 13.8817 13.1178 14 12.7727 14H1.22727ZM1.22727 13.5H12.7727C12.9848 13.5 13.1591 13.4318 13.2955 13.2955C13.4318 13.1591 13.5 12.9848 13.5 12.7727V10.2045H9.90909C9.63636 10.7955 9.23331 11.25 8.69993 11.5682C8.16654 11.8864 7.59836 12.0455 6.99539 12.0455C6.3924 12.0455 5.82576 11.8864 5.29545 11.5682C4.76515 11.25 4.36364 10.7955 4.09091 10.2045H0.5V12.7727C0.5 12.9848 0.568182 13.1591 0.704545 13.2955C0.840909 13.4318 1.01515 13.5 1.22727 13.5ZM7.00395 11.5455C7.59223 11.5455 8.125 11.375 8.60227 11.0341C9.07955 10.6932 9.43182 10.25 9.65909 9.70455H13.5V1.22727C13.5 1.01515 13.4318 0.840909 13.2955 0.704545C13.1591 0.568182 12.9848 0.5 12.7727 0.5H1.22727C1.01515 0.5 0.840909 0.568182 0.704545 0.704545C0.568182 0.840909 0.5 1.01515 0.5 1.22727V9.70455H4.34091C4.56818 10.25 4.92177 10.6932 5.40168 11.0341C5.88159 11.375 6.41568 11.5455 7.00395 11.5455ZM7 7.84091L4.22727 5.06818L4.59091 4.72727L6.75 6.88636V2.31818H7.25V6.88636L9.40909 4.72727L9.77273 5.06818L7 7.84091ZM1.22727 13.5H0.5H13.5H1.22727Z" fill="url(#paint0_linear_56_22)"/>
<defs>
<linearGradient id="paint0_linear_56_22" x1="4.55058" y1="-2" x2="9.50285" y2="16.0285" gradientUnits="userSpaceOnUse">
<stop stop-color="#0F52BA"/>
<stop offset="1" stop-color="#8225AF"/>
</linearGradient>
</defs>
</svg>
