<svg width="23" height="22" viewBox="0 0 23 22" fill="none" xmlns="http://www.w3.org/2000/svg">
<g filter="url(#filter0_d_56_28)">
<path fill-rule="evenodd" clip-rule="evenodd" d="M14.2399 3.5023L17.3866 4.22619C18.201 4.41452 18.7086 5.22747 18.5202 6.04193C18.4599 6.30248 18.3317 6.54237 18.1486 6.73729L16.0704 9.12543L16.3545 12.3518V12.3656C16.4183 13.197 15.7999 13.9244 14.969 13.9952C14.6789 14.0182 14.3881 13.9581 14.1308 13.822L11.2734 12.6098L8.2947 13.8723C7.52821 14.1962 6.6443 13.8374 6.32037 13.0709L6.31872 13.067C6.27162 12.9559 6.23789 12.8396 6.21828 12.7206C6.20244 12.6204 6.19663 12.5189 6.20096 12.4176C6.19919 12.3974 6.19919 12.3771 6.20096 12.3569L6.48498 9.12716L4.36873 6.6888C3.82265 6.05838 3.89101 5.10468 4.52138 4.55861C4.69894 4.40478 4.90996 4.29455 5.13764 4.23658L5.17228 4.22619H5.18613L8.32068 3.50057L9.9832 0.7297C10.4153 0.0152494 11.3447 -0.213693 12.0592 0.218389C12.2744 0.348489 12.4536 0.530154 12.5809 0.747018L12.5913 0.762604L14.2399 3.5023ZM17.6378 6.25944C17.6875 6.20761 17.73 6.14938 17.7642 6.08626C17.9765 5.68998 17.8273 5.19668 17.4311 4.98441C17.3674 4.95029 17.2995 4.92483 17.2291 4.90864L13.9387 4.14665C13.8458 4.1257 13.7656 4.06746 13.717 3.98559V3.98386L11.9939 1.10909L11.9835 1.09177C11.7521 0.706317 11.2522 0.581368 10.8667 0.812692C10.7522 0.881401 10.6563 0.977255 10.5876 1.09177L8.85585 3.97174C8.80827 4.0598 8.72488 4.12293 8.62725 4.14492L5.34897 4.90171H5.32819C4.89039 5.00371 4.6182 5.44134 4.7202 5.87913C4.75012 6.00755 4.81077 6.12674 4.89697 6.22653L7.09288 8.76188C7.16709 8.83474 7.20458 8.93713 7.19506 9.04069L6.90758 12.3657C6.90897 12.3836 6.90897 12.4015 6.90758 12.4194C6.89966 12.4844 6.89966 12.5501 6.90758 12.6151C6.91628 12.6707 6.93079 12.7253 6.95088 12.7779C6.95902 12.7935 6.96599 12.8097 6.97166 12.8264C7.15116 13.2147 7.6006 13.3978 8.00034 13.2455C8.01757 13.2365 8.03554 13.2289 8.05403 13.223L11.1401 11.9155C11.2264 11.8789 11.3239 11.8789 11.4102 11.9155L14.408 13.1797C14.4271 13.1861 14.4456 13.1942 14.4634 13.2039C14.5989 13.2774 14.7532 13.3093 14.9067 13.2957H14.9171C15.3579 13.2562 15.6859 12.8712 15.6549 12.4298V12.4125L15.3639 9.04069C15.3554 8.94696 15.3854 8.85379 15.447 8.78266L17.6187 6.28022L17.6378 6.25944Z" fill="url(#paint0_linear_56_28)"/>
</g>
<defs>
<filter id="filter0_d_56_28" x="0" y="0" width="22.5596" height="22" filterUnits="userSpaceOnUse" color-interpolation-filters="sRGB">
<feFlood flood-opacity="0" result="BackgroundImageFix"/>
<feColorMatrix in="SourceAlpha" type="matrix" values="0 0 0 0 0 0 0 0 0 0 0 0 0 0 0 0 0 0 127 0" result="hardAlpha"/>
<feOffset dy="4"/>
<feGaussianBlur stdDeviation="2"/>
<feComposite in2="hardAlpha" operator="out"/>
<feColorMatrix type="matrix" values="0 0 0 0 0 0 0 0 0 0 0 0 0 0 0 0 0 0 0.25 0"/>
<feBlend mode="normal" in2="BackgroundImageFix" result="effect1_dropShadow_56_28"/>
<feBlend mode="normal" in="SourceGraphic" in2="effect1_dropShadow_56_28" result="shape"/>
</filter>
<linearGradient id="paint0_linear_56_28" x1="8.73243" y1="-2" x2="13.5197" y2="16.1244" gradientUnits="userSpaceOnUse">
<stop stop-color="#0F52BA"/>
<stop offset="1" stop-color="#8225AF"/>
</linearGradient>
</defs>
</svg>
