<svg width="18" height="18" viewBox="0 0 18 18" fill="none" xmlns="http://www.w3.org/2000/svg">
<path fill-rule="evenodd" clip-rule="evenodd" d="M4.875 2.25226H7.125C7.5375 2.25226 7.875 2.58976 7.875 3.00226V15.0023C7.875 15.4148 7.5375 15.7523 7.125 15.7523H4.875C4.4625 15.7523 4.125 15.4148 4.125 15.0023V3.00226C4.125 2.58976 4.4625 2.25226 4.875 2.25226ZM10.875 2.25226H13.125C13.5375 2.25226 13.875 2.58976 13.875 3.00226V15.0023C13.875 15.4148 13.5375 15.7523 13.125 15.7523H10.875C10.4625 15.7523 10.125 15.4148 10.125 15.0023V3.00226C10.125 2.58976 10.4625 2.25226 10.875 2.25226Z" fill="#000"/>
</svg>
