<svg width="148" height="36" viewBox="0 0 148 36" fill="none" xmlns="http://www.w3.org/2000/svg">
<g id="Asset 1 1" clip-path="url(#clip0_411_2996)">
<g id="Layer 1">
<g id="Group">
<g id="Group_2">
<path id="Vector" d="M2.88573 21.4197H0V1.21387H2.88573V21.4197ZM14.7493 12.4132H2.59944V9.90254H14.7521V12.4132H14.7493ZM14.4887 1.21387H17.3745V21.4197H14.4887V1.21387Z" fill="#2B3990"/>
<path id="Vector_2" d="M25.0554 21.5912C23.9189 21.5912 22.9226 21.3994 22.0666 21.013C21.2107 20.6293 20.5522 20.094 20.0884 19.4098C19.6275 18.7284 19.3956 17.9526 19.3956 17.0852C19.3956 16.2177 19.5932 15.5077 19.9882 14.835C20.3833 14.1622 21.0274 13.6211 21.9235 13.2175C22.8196 12.8138 24.0248 12.6106 25.545 12.6106H30.3946V14.6031H25.6595C24.2739 14.6031 23.3406 14.835 22.8596 15.2959C22.3787 15.7568 22.1382 16.3151 22.1382 16.9706C22.1382 17.7207 22.4359 18.3219 23.0343 18.7742C23.6297 19.2266 24.4571 19.4527 25.5163 19.4527C26.5756 19.4527 27.4659 19.2208 28.2446 18.7599C29.0233 18.299 29.5873 17.6234 29.9337 16.7388L30.4833 18.6454C30.1169 19.55 29.4728 20.2658 28.5481 20.7954C27.6234 21.325 26.4611 21.5884 25.0554 21.5884V21.5912ZM30.0768 21.4166V18.1845L29.9337 17.5776V12.0638C29.9337 10.89 29.5901 9.97963 28.9088 9.3355C28.2246 8.69136 27.1997 8.36786 25.8341 8.36786C24.9295 8.36786 24.0449 8.51673 23.1774 8.81446C22.3128 9.1122 21.58 9.51299 20.9845 10.0111L19.8308 7.93271C20.6209 7.29717 21.5685 6.81335 22.6736 6.47554C23.7815 6.13772 24.9381 5.97168 26.1519 5.97168C28.2475 5.97168 29.865 6.48126 31.0015 7.50043C32.1381 8.51959 32.7049 10.0798 32.7049 12.1754V21.4137H30.0768V21.4166Z" fill="#2B3990"/>
<path id="Vector_3" d="M35.3902 27.0194V6.12075H38.0469V10.2489L37.8723 13.7988L38.1614 17.3487V27.0194H35.3902ZM43.5006 21.5914C42.2295 21.5914 41.07 21.2994 40.0222 20.7097C38.9745 20.1228 38.1356 19.2525 37.5115 18.0988C36.8846 16.9451 36.5725 15.5022 36.5725 13.7702C36.5725 12.0382 36.876 10.5953 37.4829 9.44162C38.0898 8.2879 38.9172 7.42047 39.965 6.84504C41.0128 6.26961 42.1923 5.98047 43.5006 5.98047C45.0007 5.98047 46.329 6.30683 47.4828 6.96242C48.6365 7.618 49.5526 8.52552 50.2253 9.69069C50.8981 10.8559 51.2359 12.2157 51.2359 13.7759C51.2359 15.3362 50.8981 16.7017 50.2253 17.8755C49.5526 19.0493 48.6393 19.9625 47.4828 20.6181C46.329 21.2737 45.0007 21.6 43.5006 21.6V21.5914ZM43.2687 19.1666C44.2506 19.1666 45.1295 18.9462 45.9111 18.5025C46.6898 18.0587 47.3053 17.4289 47.7576 16.613C48.2099 15.7942 48.4361 14.8466 48.4361 13.7702C48.4361 12.6938 48.2099 11.7262 47.7576 10.9274C47.3053 10.1287 46.6898 9.50747 45.9111 9.06659C45.1324 8.62285 44.2506 8.40242 43.2687 8.40242C42.2867 8.40242 41.4365 8.62285 40.6578 9.06659C39.8791 9.51033 39.2636 10.1316 38.8113 10.9274C38.3589 11.7262 38.1328 12.6737 38.1328 13.7702C38.1328 14.8667 38.3589 15.7971 38.8113 16.613C39.2636 17.4318 39.8791 18.0616 40.6578 18.5025C41.4365 18.9462 42.3068 19.1666 43.2687 19.1666Z" fill="#2B3990"/>
<path id="Vector_4" d="M52.6215 27.0194V6.12075H55.2782V10.2489L55.1036 13.7988L55.3927 17.3487V27.0194H52.6215ZM60.7319 21.5914C59.4608 21.5914 58.3014 21.2994 57.2536 20.7097C56.2058 20.1228 55.367 19.2525 54.7429 18.0988C54.1159 16.9451 53.8039 15.5022 53.8039 13.7702C53.8039 12.0382 54.1073 10.5953 54.7142 9.44162C55.3212 8.2879 56.1485 7.42047 57.1963 6.84504C58.2441 6.26961 59.4236 5.98047 60.7319 5.98047C62.232 5.98047 63.5604 6.30683 64.7141 6.96242C65.8678 7.618 66.7839 8.52552 67.4567 9.69069C68.1294 10.8559 68.4672 12.2157 68.4672 13.7759C68.4672 15.3362 68.1294 16.7017 67.4567 17.8755C66.7839 19.0493 65.8707 19.9625 64.7141 20.6181C63.5604 21.2737 62.232 21.6 60.7319 21.6V21.5914ZM60.5 19.1666C61.482 19.1666 62.3608 18.9462 63.1424 18.5025C63.9211 18.0587 64.5366 17.4289 64.9889 16.613C65.4412 15.7942 65.6674 14.8466 65.6674 13.7702C65.6674 12.6938 65.4412 11.7262 64.9889 10.9274C64.5366 10.1287 63.9211 9.50747 63.1424 9.06659C62.3637 8.62285 61.482 8.40242 60.5 8.40242C59.5181 8.40242 58.6678 8.62285 57.8891 9.06659C57.1104 9.51033 56.4949 10.1316 56.0426 10.9274C55.5903 11.7262 55.3641 12.6737 55.3641 13.7702C55.3641 14.8667 55.5903 15.7971 56.0426 16.613C56.4949 17.4318 57.1104 18.0616 57.8891 18.5025C58.6678 18.9462 59.5381 19.1666 60.5 19.1666Z" fill="#2B3990"/>
<path id="Vector_5" d="M70.0848 27.1909C69.3548 27.1909 68.6419 27.0707 67.9491 26.8302C67.2563 26.5897 66.6608 26.2376 66.1599 25.7767L67.3422 23.6983C67.7258 24.0647 68.1495 24.3424 68.6133 24.5342C69.0742 24.726 69.5666 24.8234 70.0848 24.8234C70.7575 24.8234 71.3158 24.6487 71.7595 24.3023C72.2033 23.9559 72.6155 23.3404 72.9991 22.4558L73.9525 20.3488L74.2416 20.0024L80.2449 6.11768H82.9589L75.5413 22.9454C75.0976 24.0218 74.6023 24.8692 74.0555 25.4847C73.5059 26.1002 72.9047 26.5382 72.2519 26.7987C71.5964 27.0592 70.8749 27.1881 70.0876 27.1881L70.0848 27.1909ZM73.7206 21.909L66.7353 6.12054H69.621L75.5671 19.7447L73.7206 21.909Z" fill="#2B3990"/>
</g>
<g id="Group_3">
<path id="Vector_6" d="M85.5784 21.4197V1.21387H86.3857L95.9103 17.7524H95.478L104.945 1.21387H105.753L105.781 21.4197H104.828L104.799 2.65673H105.117L95.9389 18.6198H95.4207L86.1824 2.65673H86.5288V21.4197H85.5755H85.5784Z" fill="#2B3990"/>
<path id="Vector_7" d="M110.691 2.51082C110.442 2.51082 110.219 2.41349 110.027 2.22168C109.835 2.02987 109.738 1.81802 109.738 1.58613C109.738 1.31703 109.835 1.09086 110.027 0.907644C110.219 0.724423 110.439 0.632812 110.691 0.632812C110.96 0.632812 111.186 0.724423 111.37 0.907644C111.553 1.09086 111.644 1.30844 111.644 1.5575C111.644 1.80657 111.553 2.02987 111.37 2.22168C111.186 2.41349 110.96 2.51082 110.691 2.51082ZM110.23 21.4169V6.43862H111.183V21.4198H110.23V21.4169Z" fill="#2B3990"/>
<path id="Vector_8" d="M115.134 21.4196V0H116.087V21.4196H115.134Z" fill="#2B3990"/>
<path id="Vector_9" d="M123.997 21.5057C122.861 21.5057 121.896 21.3311 121.097 20.9875C120.299 20.6411 119.689 20.1459 119.265 19.5017C118.841 18.8576 118.63 18.1218 118.63 17.2945C118.63 16.5645 118.804 15.886 119.148 15.259C119.494 14.6349 120.067 14.1339 120.866 13.7589C121.664 13.3839 122.738 13.1949 124.083 13.1949H129.886V13.9736H124.083C122.446 13.9736 121.289 14.2828 120.605 14.8983C119.921 15.5138 119.58 16.2925 119.58 17.2372C119.58 18.2965 119.975 19.1381 120.762 19.7622C121.553 20.3892 122.649 20.7012 124.052 20.7012C125.455 20.7012 126.583 20.3892 127.487 19.7622C128.392 19.1381 129.076 18.2478 129.537 17.0912L129.855 17.7268C129.468 18.8633 128.775 19.7766 127.776 20.4694C126.777 21.1622 125.515 21.5086 123.995 21.5086L123.997 21.5057ZM129.568 21.4198V17.9272L129.54 17.4061V11.7206C129.54 10.2376 129.145 9.11254 128.358 8.34244C127.567 7.57234 126.422 7.18872 124.922 7.18872C123.826 7.18872 122.824 7.37767 121.919 7.7527C121.014 8.12773 120.236 8.61441 119.58 9.20988L119.059 8.51707C119.772 7.84431 120.645 7.30896 121.687 6.91389C122.726 6.51882 123.814 6.32129 124.948 6.32129C126.737 6.32129 128.108 6.77934 129.062 7.69258C130.015 8.60582 130.49 9.94849 130.49 11.7206V21.4198H129.566H129.568Z" fill="#2B3990"/>
<path id="Vector_10" d="M141.346 6.32129C142.577 6.32129 143.642 6.56177 144.535 7.04272C145.431 7.52367 146.127 8.23079 146.628 9.16407C147.129 10.0974 147.378 11.2482 147.378 12.6138V21.417H146.425V12.671C146.425 10.8818 145.972 9.52479 145.068 8.6001C144.163 7.6754 142.892 7.21449 141.257 7.21449C140.006 7.21449 138.93 7.46356 138.025 7.96455C137.121 8.46554 136.428 9.17552 135.947 10.1002C135.466 11.0249 135.225 12.1013 135.225 13.3323V21.4141H134.272V6.43866H135.197V10.6527L135.082 10.3922C135.543 9.14117 136.31 8.15063 137.378 7.41775C138.446 6.68773 139.769 6.32129 141.346 6.32129Z" fill="#2B3990"/>
</g>
<path id="Vector_11" d="M50.1767 33.9504C36.438 33.9504 24.0849 31.1047 15.5366 26.5786C23.2404 32.2814 35.8855 36.0002 50.1767 36.0002C64.4679 36.0002 77.113 32.2814 84.8169 26.5786C76.2685 31.1047 63.9154 33.9504 50.1767 33.9504Z" fill="#EF4136"/>
</g>
</g>
</g>
<defs>
<clipPath id="clip0_411_2996">
<rect width="147.378" height="36" fill="white"/>
</clipPath>
</defs>
</svg>
