<svg width="148" height="36" viewBox="0 0 148 36" fill="none" xmlns="http://www.w3.org/2000/svg">
<g id="Asset 1 2" clip-path="url(#clip0_34_120)">
<g id="Layer 1">
<g id="Group">
<g id="Group_2">
<path id="Vector" d="M2.88573 21.4197H0V1.21387H2.88573V21.4197ZM14.7493 12.4132H2.59944V9.90254H14.7521V12.4132H14.7493ZM14.4887 1.21387H17.3745V21.4197H14.4887V1.21387Z" fill="white"/>
<path id="Vector_2" d="M25.0554 21.5915C23.9189 21.5915 22.9226 21.3997 22.0666 21.0132C21.2107 20.6296 20.5522 20.0942 20.0884 19.41C19.6275 18.7287 19.3956 17.9528 19.3956 17.0854C19.3956 16.218 19.5932 15.508 19.9882 14.8352C20.3833 14.1625 21.0274 13.6214 21.9235 13.2177C22.8196 12.8141 24.0248 12.6108 25.545 12.6108H30.3946V14.6033H25.6595C24.2739 14.6033 23.3406 14.8352 22.8596 15.2961C22.3787 15.7571 22.1382 16.3153 22.1382 16.9709C22.1382 17.7209 22.4359 18.3221 23.0343 18.7745C23.6297 19.2268 24.4571 19.453 25.5163 19.453C26.5756 19.453 27.4659 19.2211 28.2446 18.7602C29.0233 18.2992 29.5873 17.6236 29.9337 16.739L30.4833 18.6456C30.1169 19.5503 29.4728 20.266 28.5481 20.7956C27.6234 21.3252 26.4611 21.5886 25.0554 21.5886V21.5915ZM30.0768 21.4169V18.1847L29.9337 17.5778V12.064C29.9337 10.8903 29.5901 9.97988 28.9088 9.33574C28.2246 8.69161 27.1997 8.36811 25.8341 8.36811C24.9295 8.36811 24.0449 8.51697 23.1774 8.81471C22.3128 9.11244 21.58 9.51324 20.9845 10.0114L19.8308 7.93296C20.6209 7.29741 21.5685 6.81359 22.6736 6.47578C23.7815 6.13797 24.9381 5.97192 26.1519 5.97192C28.2475 5.97192 29.865 6.48151 31.0015 7.50067C32.1381 8.51984 32.7049 10.0801 32.7049 12.1757V21.414H30.0768V21.4169Z" fill="white"/>
<path id="Vector_3" d="M35.3903 27.0194V6.12075H38.047V10.2489L37.8723 13.7988L38.1615 17.3487V27.0194H35.3903ZM43.5006 21.5914C42.2295 21.5914 41.0701 21.2994 40.0223 20.7097C38.9745 20.1228 38.1357 19.2525 37.5116 18.0988C36.8847 16.9451 36.5726 15.5022 36.5726 13.7702C36.5726 12.0382 36.8761 10.5953 37.483 9.44162C38.0899 8.2879 38.9173 7.42047 39.9651 6.84504C41.0128 6.26961 42.1923 5.98047 43.5006 5.98047C45.0008 5.98047 46.3291 6.30683 47.4828 6.96242C48.6365 7.618 49.5526 8.52552 50.2254 9.69069C50.8982 10.8559 51.236 12.2157 51.236 13.7759C51.236 15.3362 50.8982 16.7017 50.2254 17.8755C49.5526 19.0493 48.6394 19.9625 47.4828 20.6181C46.3291 21.2737 45.0008 21.6 43.5006 21.6V21.5914ZM43.2687 19.1666C44.2507 19.1666 45.1296 18.9462 45.9111 18.5025C46.6898 18.0587 47.3053 17.4289 47.7577 16.613C48.21 15.7942 48.4361 14.8466 48.4361 13.7702C48.4361 12.6938 48.21 11.7262 47.7577 10.9274C47.3053 10.1287 46.6898 9.50747 45.9111 9.06659C45.1324 8.62285 44.2507 8.40242 43.2687 8.40242C42.2868 8.40242 41.4365 8.62285 40.6579 9.06659C39.8792 9.51033 39.2637 10.1316 38.8113 10.9274C38.359 11.7262 38.1328 12.6737 38.1328 13.7702C38.1328 14.8667 38.359 15.7971 38.8113 16.613C39.2637 17.4318 39.8792 18.0616 40.6579 18.5025C41.4365 18.9462 42.3068 19.1666 43.2687 19.1666Z" fill="white"/>
<path id="Vector_4" d="M52.6216 27.0194V6.12075H55.2783V10.2489L55.1036 13.7988L55.3928 17.3487V27.0194H52.6216ZM60.732 21.5914C59.4609 21.5914 58.3014 21.2994 57.2536 20.7097C56.2058 20.1228 55.367 19.2525 54.7429 18.0988C54.116 16.9451 53.8039 15.5022 53.8039 13.7702C53.8039 12.0382 54.1074 10.5953 54.7143 9.44162C55.3212 8.2879 56.1486 7.42047 57.1964 6.84504C58.2442 6.26961 59.4236 5.98047 60.732 5.98047C62.2321 5.98047 63.5604 6.30683 64.7141 6.96242C65.8679 7.618 66.784 8.52552 67.4567 9.69069C68.1295 10.8559 68.4673 12.2157 68.4673 13.7759C68.4673 15.3362 68.1295 16.7017 67.4567 17.8755C66.784 19.0493 65.8707 19.9625 64.7141 20.6181C63.5604 21.2737 62.2321 21.6 60.732 21.6V21.5914ZM60.5001 19.1666C61.482 19.1666 62.3609 18.9462 63.1425 18.5025C63.9211 18.0587 64.5367 17.4289 64.989 16.613C65.4413 15.7942 65.6675 14.8466 65.6675 13.7702C65.6675 12.6938 65.4413 11.7262 64.989 10.9274C64.5367 10.1287 63.9211 9.50747 63.1425 9.06659C62.3638 8.62285 61.482 8.40242 60.5001 8.40242C59.5181 8.40242 58.6679 8.62285 57.8892 9.06659C57.1105 9.51033 56.495 10.1316 56.0427 10.9274C55.5903 11.7262 55.3642 12.6737 55.3642 13.7702C55.3642 14.8667 55.5903 15.7971 56.0427 16.613C56.495 17.4318 57.1105 18.0616 57.8892 18.5025C58.6679 18.9462 59.5382 19.1666 60.5001 19.1666Z" fill="white"/>
<path id="Vector_5" d="M70.0847 27.1912C69.3547 27.1912 68.6419 27.0709 67.9491 26.8304C67.2563 26.59 66.6608 26.2378 66.1598 25.7769L67.3421 23.6985C67.7258 24.065 68.1494 24.3427 68.6132 24.5345C69.0741 24.7263 69.5665 24.8236 70.0847 24.8236C70.7575 24.8236 71.3157 24.649 71.7595 24.3026C72.2032 23.9562 72.6155 23.3407 72.9991 22.4561L73.9524 20.349L74.2415 20.0026L80.2449 6.11792H82.9588L75.5413 22.9456C75.0975 24.022 74.6023 24.8694 74.0555 25.4849C73.5058 26.1004 72.9046 26.5384 72.2519 26.799C71.5963 27.0595 70.8749 27.1883 70.0876 27.1883L70.0847 27.1912ZM73.7205 21.9093L66.7352 6.12078H69.6209L75.567 19.745L73.7205 21.9093Z" fill="white"/>
</g>
<g id="Group_3">
<path id="Vector_6" d="M85.5784 21.4197V1.21387H86.3857L95.9103 17.7524H95.4781L104.945 1.21387H105.753L105.781 21.4197H104.828L104.799 2.65673H105.117L95.939 18.6198H95.4208L86.1825 2.65673H86.5289V21.4197H85.5756H85.5784Z" fill="white"/>
<path id="Vector_7" d="M110.691 2.5107C110.442 2.5107 110.219 2.41337 110.027 2.22156C109.835 2.02975 109.738 1.8179 109.738 1.58601C109.738 1.31691 109.835 1.09074 110.027 0.907521C110.219 0.724301 110.439 0.63269 110.691 0.63269C110.96 0.63269 111.186 0.724301 111.37 0.907521C111.553 1.09074 111.644 1.30832 111.644 1.55738C111.644 1.80645 111.553 2.02975 111.37 2.22156C111.186 2.41337 110.96 2.5107 110.691 2.5107ZM110.23 21.4168V6.4385H111.184V21.4196H110.23V21.4168Z" fill="white"/>
<path id="Vector_8" d="M115.134 21.4196V0H116.088V21.4196H115.134Z" fill="white"/>
<path id="Vector_9" d="M123.997 21.5056C122.861 21.5056 121.896 21.3309 121.097 20.9874C120.299 20.641 119.689 20.1457 119.265 19.5016C118.842 18.8575 118.63 18.1217 118.63 17.2944C118.63 16.5643 118.804 15.8859 119.148 15.2589C119.494 14.6348 120.067 14.1338 120.866 13.7588C121.664 13.3838 122.738 13.1948 124.083 13.1948H129.886V13.9735H124.083C122.446 13.9735 121.289 14.2827 120.605 14.8982C119.921 15.5137 119.58 16.2924 119.58 17.2371C119.58 18.2964 119.975 19.138 120.762 19.7621C121.553 20.3891 122.649 20.7011 124.052 20.7011C125.455 20.7011 126.583 20.3891 127.487 19.7621C128.392 19.138 129.076 18.2477 129.537 17.0911L129.855 17.7267C129.468 18.8632 128.776 19.7764 127.776 20.4692C126.777 21.162 125.515 21.5084 123.995 21.5084L123.997 21.5056ZM129.569 21.4197V17.9271L129.54 17.406V11.7205C129.54 10.2375 129.145 9.11242 128.358 8.34232C127.567 7.57222 126.422 7.1886 124.922 7.1886C123.826 7.1886 122.824 7.37755 121.919 7.75258C121.014 8.12761 120.236 8.61429 119.58 9.20975L119.059 8.51695C119.772 7.84419 120.645 7.30884 121.687 6.91377C122.726 6.5187 123.814 6.32117 124.948 6.32117C126.737 6.32117 128.109 6.77922 129.062 7.69246C130.015 8.6057 130.49 9.94836 130.49 11.7205V21.4197H129.566H129.569Z" fill="white"/>
<path id="Vector_10" d="M141.346 6.32117C142.577 6.32117 143.642 6.56164 144.535 7.0426C145.431 7.52355 146.127 8.23067 146.628 9.16395C147.129 10.0972 147.378 11.2481 147.378 12.6137V21.4168H146.425V12.6709C146.425 10.8816 145.973 9.52467 145.068 8.59997C144.163 7.67528 142.892 7.21437 141.257 7.21437C140.006 7.21437 138.93 7.46343 138.025 7.96443C137.121 8.46542 136.428 9.1754 135.947 10.1001C135.466 11.0248 135.225 12.1012 135.225 13.3322V21.414H134.272V6.43854H135.197V10.6526L135.082 10.3921C135.543 9.14105 136.31 8.15051 137.378 7.41763C138.446 6.68761 139.769 6.32117 141.346 6.32117Z" fill="white"/>
</g>
<path id="Vector_11" d="M50.1767 33.9503C36.438 33.9503 24.0849 31.1046 15.5365 26.5785C23.2404 32.2812 35.8854 36 50.1767 36C64.4679 36 77.113 32.2812 84.8168 26.5785C76.2684 31.1046 63.9153 33.9503 50.1767 33.9503Z" fill="white"/>
</g>
</g>
</g>
<defs>
<clipPath id="clip0_34_120">
<rect width="147.378" height="36" fill="white"/>
</clipPath>
</defs>
</svg>
