<svg width="148" height="36" viewBox="0 0 148 36" fill="none" xmlns="http://www.w3.org/2000/svg">
<g id="Asset 1 1" clip-path="url(#clip0_690_426)">
<g id="Layer 1">
<g id="Group">
<g id="Group_2">
<path id="Vector" d="M2.88573 21.4197H0V1.21387H2.88573V21.4197ZM14.7493 12.4132H2.59944V9.90254H14.7521V12.4132H14.7493ZM14.4887 1.21387H17.3745V21.4197H14.4887V1.21387Z" fill="white"/>
<path id="Vector_2" d="M25.0554 21.5915C23.9189 21.5915 22.9226 21.3997 22.0666 21.0132C21.2107 20.6296 20.5522 20.0942 20.0884 19.41C19.6275 18.7287 19.3956 17.9528 19.3956 17.0854C19.3956 16.218 19.5932 15.508 19.9882 14.8352C20.3833 14.1625 21.0274 13.6214 21.9235 13.2177C22.8196 12.8141 24.0248 12.6108 25.545 12.6108H30.3946V14.6033H25.6595C24.2739 14.6033 23.3406 14.8352 22.8596 15.2961C22.3787 15.7571 22.1382 16.3153 22.1382 16.9709C22.1382 17.7209 22.4359 18.3221 23.0343 18.7745C23.6297 19.2268 24.4571 19.453 25.5163 19.453C26.5756 19.453 27.4659 19.2211 28.2446 18.7602C29.0233 18.2992 29.5873 17.6236 29.9337 16.739L30.4833 18.6456C30.1169 19.5503 29.4728 20.266 28.5481 20.7956C27.6234 21.3252 26.4611 21.5886 25.0554 21.5886V21.5915ZM30.0768 21.4169V18.1847L29.9337 17.5778V12.064C29.9337 10.8903 29.5901 9.97988 28.9088 9.33574C28.2246 8.69161 27.1997 8.36811 25.8341 8.36811C24.9295 8.36811 24.0449 8.51697 23.1774 8.81471C22.3128 9.11244 21.58 9.51324 20.9845 10.0114L19.8308 7.93296C20.6209 7.29741 21.5685 6.81359 22.6736 6.47578C23.7815 6.13797 24.9381 5.97192 26.1519 5.97192C28.2475 5.97192 29.865 6.48151 31.0015 7.50067C32.1381 8.51984 32.7049 10.0801 32.7049 12.1757V21.414H30.0768V21.4169Z" fill="white"/>
<path id="Vector_3" d="M35.3902 27.0194V6.12075H38.0469V10.2489L37.8723 13.7988L38.1614 17.3487V27.0194H35.3902ZM43.5006 21.5914C42.2295 21.5914 41.0701 21.2994 40.0223 20.7097C38.9745 20.1228 38.1357 19.2525 37.5116 18.0988C36.8846 16.9451 36.5726 15.5022 36.5726 13.7702C36.5726 12.0382 36.876 10.5953 37.4829 9.44162C38.0899 8.2879 38.9172 7.42047 39.965 6.84504C41.0128 6.26961 42.1923 5.98047 43.5006 5.98047C45.0007 5.98047 46.3291 6.30683 47.4828 6.96242C48.6365 7.618 49.5526 8.52552 50.2254 9.69069C50.8981 10.8559 51.236 12.2157 51.236 13.7759C51.236 15.3362 50.8981 16.7017 50.2254 17.8755C49.5526 19.0493 48.6394 19.9625 47.4828 20.6181C46.3291 21.2737 45.0007 21.6 43.5006 21.6V21.5914ZM43.2687 19.1666C44.2507 19.1666 45.1295 18.9462 45.9111 18.5025C46.6898 18.0587 47.3053 17.4289 47.7576 16.613C48.21 15.7942 48.4361 14.8466 48.4361 13.7702C48.4361 12.6938 48.21 11.7262 47.7576 10.9274C47.3053 10.1287 46.6898 9.50747 45.9111 9.06659C45.1324 8.62285 44.2507 8.40242 43.2687 8.40242C42.2868 8.40242 41.4365 8.62285 40.6578 9.06659C39.8791 9.51033 39.2636 10.1316 38.8113 10.9274C38.359 11.7262 38.1328 12.6737 38.1328 13.7702C38.1328 14.8667 38.359 15.7971 38.8113 16.613C39.2636 17.4318 39.8791 18.0616 40.6578 18.5025C41.4365 18.9462 42.3068 19.1666 43.2687 19.1666Z" fill="white"/>
<path id="Vector_4" d="M52.6216 27.0194V6.12075H55.2783V10.2489L55.1036 13.7988L55.3928 17.3487V27.0194H52.6216ZM60.7319 21.5914C59.4608 21.5914 58.3014 21.2994 57.2536 20.7097C56.2058 20.1228 55.367 19.2525 54.7429 18.0988C54.1159 16.9451 53.8039 15.5022 53.8039 13.7702C53.8039 12.0382 54.1074 10.5953 54.7143 9.44162C55.3212 8.2879 56.1485 7.42047 57.1963 6.84504C58.2441 6.26961 59.4236 5.98047 60.7319 5.98047C62.232 5.98047 63.5604 6.30683 64.7141 6.96242C65.8678 7.618 66.7839 8.52552 67.4567 9.69069C68.1295 10.8559 68.4673 12.2157 68.4673 13.7759C68.4673 15.3362 68.1295 16.7017 67.4567 17.8755C66.7839 19.0493 65.8707 19.9625 64.7141 20.6181C63.5604 21.2737 62.232 21.6 60.7319 21.6V21.5914ZM60.5 19.1666C61.482 19.1666 62.3609 18.9462 63.1424 18.5025C63.9211 18.0587 64.5366 17.4289 64.9889 16.613C65.4413 15.7942 65.6674 14.8466 65.6674 13.7702C65.6674 12.6938 65.4413 11.7262 64.9889 10.9274C64.5366 10.1287 63.9211 9.50747 63.1424 9.06659C62.3637 8.62285 61.482 8.40242 60.5 8.40242C59.5181 8.40242 58.6678 8.62285 57.8891 9.06659C57.1105 9.51033 56.495 10.1316 56.0426 10.9274C55.5903 11.7262 55.3641 12.6737 55.3641 13.7702C55.3641 14.8667 55.5903 15.7971 56.0426 16.613C56.495 17.4318 57.1105 18.0616 57.8891 18.5025C58.6678 18.9462 59.5381 19.1666 60.5 19.1666Z" fill="white"/>
<path id="Vector_5" d="M70.0848 27.1912C69.3548 27.1912 68.6419 27.0709 67.9491 26.8304C67.2563 26.59 66.6608 26.2378 66.1599 25.7769L67.3422 23.6985C67.7258 24.065 68.1495 24.3427 68.6133 24.5345C69.0742 24.7263 69.5666 24.8236 70.0848 24.8236C70.7575 24.8236 71.3158 24.649 71.7595 24.3026C72.2033 23.9562 72.6155 23.3407 72.9991 22.4561L73.9525 20.349L74.2416 20.0026L80.2449 6.11792H82.9589L75.5413 22.9456C75.0976 24.022 74.6023 24.8694 74.0555 25.4849C73.5059 26.1004 72.9047 26.5384 72.2519 26.799C71.5964 27.0595 70.8749 27.1883 70.0876 27.1883L70.0848 27.1912ZM73.7206 21.9093L66.7353 6.12078H69.621L75.5671 19.745L73.7206 21.9093Z" fill="white"/>
</g>
<g id="Group_3">
<path id="Vector_6" d="M85.5784 21.4197V1.21387H86.3857L95.9103 17.7524H95.478L104.945 1.21387H105.753L105.781 21.4197H104.828L104.799 2.65673H105.117L95.9389 18.6198H95.4207L86.1824 2.65673H86.5288V21.4197H85.5755H85.5784Z" fill="white"/>
<path id="Vector_7" d="M110.691 2.51058C110.442 2.51058 110.219 2.41324 110.027 2.22144C109.835 2.02963 109.738 1.81778 109.738 1.58589C109.738 1.31678 109.835 1.09062 110.027 0.907399C110.219 0.724179 110.439 0.632568 110.691 0.632568C110.96 0.632568 111.186 0.724179 111.37 0.907399C111.553 1.09062 111.644 1.30819 111.644 1.55726C111.644 1.80633 111.553 2.02963 111.37 2.22144C111.186 2.41324 110.96 2.51058 110.691 2.51058ZM110.23 21.4167V6.43837H111.183V21.4195H110.23V21.4167Z" fill="white"/>
<path id="Vector_8" d="M115.134 21.4196V0H116.087V21.4196H115.134Z" fill="white"/>
<path id="Vector_9" d="M123.997 21.5055C122.861 21.5055 121.896 21.3308 121.097 20.9873C120.299 20.6409 119.689 20.1456 119.265 19.5015C118.841 18.8573 118.63 18.1216 118.63 17.2942C118.63 16.5642 118.804 15.8857 119.148 15.2588C119.494 14.6347 120.067 14.1337 120.866 13.7587C121.664 13.3836 122.738 13.1947 124.083 13.1947H129.886V13.9734H124.083C122.446 13.9734 121.289 14.2826 120.605 14.8981C119.921 15.5136 119.58 16.2923 119.58 17.237C119.58 18.2962 119.975 19.1379 120.762 19.762C121.553 20.389 122.649 20.701 124.052 20.701C125.455 20.701 126.583 20.389 127.487 19.762C128.392 19.1379 129.076 18.2476 129.537 17.091L129.855 17.7265C129.468 18.8631 128.775 19.7763 127.776 20.4691C126.777 21.1619 125.515 21.5083 123.995 21.5083L123.997 21.5055ZM129.568 21.4196V17.9269L129.54 17.4059V11.7203C129.54 10.2374 129.145 9.1123 128.358 8.3422C127.567 7.5721 126.422 7.18848 124.922 7.18848C123.826 7.18848 122.824 7.37743 121.919 7.75246C121.014 8.12749 120.236 8.61417 119.58 9.20963L119.059 8.51683C119.772 7.84407 120.645 7.30872 121.687 6.91365C122.726 6.51858 123.814 6.32104 124.948 6.32104C126.737 6.32104 128.108 6.7791 129.062 7.69234C130.015 8.60558 130.49 9.94824 130.49 11.7203V21.4196H129.566H129.568Z" fill="white"/>
<path id="Vector_10" d="M141.346 6.32104C142.577 6.32104 143.642 6.56152 144.535 7.04248C145.431 7.52343 146.127 8.23055 146.628 9.16383C147.129 10.0971 147.378 11.248 147.378 12.6135V21.4167H146.425V12.6708C146.425 10.8815 145.972 9.52454 145.068 8.59985C144.163 7.67516 142.892 7.21425 141.257 7.21425C140.006 7.21425 138.93 7.46331 138.025 7.96431C137.121 8.4653 136.428 9.17528 135.947 10.1C135.466 11.0247 135.225 12.1011 135.225 13.3321V21.4138H134.272V6.43842H135.197V10.6525L135.082 10.392C135.543 9.14093 136.31 8.15039 137.378 7.41751C138.446 6.68749 139.769 6.32104 141.346 6.32104Z" fill="white"/>
</g>
<path id="Vector_11" d="M50.1767 33.9501C36.438 33.9501 24.0849 31.1045 15.5366 26.5784C23.2404 32.2811 35.8855 35.9999 50.1767 35.9999C64.4679 35.9999 77.113 32.2811 84.8169 26.5784C76.2685 31.1045 63.9154 33.9501 50.1767 33.9501Z" fill="#EF4136"/>
</g>
</g>
</g>
<defs>
<clipPath id="clip0_690_426">
<rect width="147.378" height="36" fill="white"/>
</clipPath>
</defs>
</svg>
