<svg width="14" height="14" viewBox="0 0 14 14" fill="none" xmlns="http://www.w3.org/2000/svg">
<path id="Vector" d="M7 6.00003C6.175 6.00003 5.46875 5.70628 4.88125 5.11878C4.29375 4.53128 4 3.82503 4 3.00003C4 2.17501 4.29375 1.46875 4.88125 0.88125C5.46875 0.29375 6.175 0 7 0C7.825 0 8.53125 0.29375 9.11875 0.88125C9.70625 1.46875 10 2.17501 10 3.00003C10 3.82503 9.70625 4.53128 9.11875 5.11878C8.53125 5.70628 7.825 6.00003 7 6.00003ZM0 13.2308V11.5846C0 11.1718 0.120192 10.7856 0.360575 10.426C0.600958 10.0664 0.924358 9.78719 1.33078 9.58848C2.27436 9.13591 3.21858 8.79648 4.16345 8.5702C5.10833 8.34392 6.05385 8.23078 7 8.23078C7.94615 8.23078 8.89167 8.34392 9.83655 8.5702C10.7814 8.79648 11.7256 9.13591 12.6692 9.58848C13.0756 9.78719 13.399 10.0664 13.6394 10.426C13.8798 10.7856 14 11.1718 14 11.5846V13.2308H0ZM1 12.2308H13V11.5846C13 11.3628 12.9285 11.1545 12.7856 10.9596C12.6426 10.7648 12.4449 10.6 12.1923 10.4654C11.3692 10.0667 10.5206 9.76123 9.6464 9.54905C8.77222 9.33687 7.89008 9.23078 7 9.23078C6.10992 9.23078 5.22778 9.33687 4.3536 9.54905C3.4794 9.76123 2.63077 10.0667 1.8077 10.4654C1.55513 10.6 1.35737 10.7648 1.21442 10.9596C1.07147 11.1545 1 11.3628 1 11.5846V12.2308ZM7 5.00003C7.55 5.00003 8.02083 4.80419 8.4125 4.41253C8.80417 4.02086 9 3.55003 9 3.00003C9 2.45003 8.80417 1.97919 8.4125 1.58753C8.02083 1.19586 7.55 1.00003 7 1.00003C6.45 1.00003 5.97917 1.19586 5.5875 1.58753C5.19583 1.97919 5 2.45003 5 3.00003C5 3.55003 5.19583 4.02086 5.5875 4.41253C5.97917 4.80419 6.45 5.00003 7 5.00003Z" fill="#B6B6B6"/>
</svg>
