<svg width="14" height="18" viewBox="0 0 14 18" fill="none" xmlns="http://www.w3.org/2000/svg">
<path id="Vector" d="M5.95 11.7808L10.9077 6.82307L10.1942 6.1096L5.95 10.3538L3.81155 8.21537L3.09808 8.92885L5.95 11.7808ZM7 17.8846C4.99102 17.2885 3.32211 16.0715 1.99327 14.2336C0.664425 12.3958 0 10.3256 0 8.02307V2.61537L7 0L14 2.61537V8.02307C14 10.3256 13.3356 12.3958 12.0067 14.2336C10.6779 16.0715 9.00898 17.2885 7 17.8846ZM7 16.8231C8.73333 16.2731 10.1667 15.1731 11.3 13.5231C12.4333 11.8731 13 10.0397 13 8.02307V3.29807L7 1.0673L1 3.29807V8.02307C1 10.0397 1.56667 11.8731 2.7 13.5231C3.83333 15.1731 5.26667 16.2731 7 16.8231Z" fill="#B6B6B6"/>
</svg>
