<svg width="14" height="18" viewBox="0 0 14 18" fill="none" xmlns="http://www.w3.org/2000/svg">
<path id="Vector" d="M1.61537 18C1.16794 18 0.78685 17.8426 0.4721 17.5279C0.157367 17.2132 0 16.8321 0 16.3846V7.61538C0 7.16794 0.157367 6.78685 0.4721 6.4721C0.78685 6.15737 1.16794 6 1.61537 6H3V4C3 2.8859 3.38814 1.94071 4.16442 1.16443C4.94071 0.388142 5.8859 0 7 0C8.1141 0 9.05929 0.388142 9.83557 1.16443C10.6119 1.94071 11 2.8859 11 4V6H12.3846C12.8321 6 13.2132 6.15737 13.5279 6.4721C13.8426 6.78685 14 7.16794 14 7.61538V16.3846C14 16.8321 13.8426 17.2132 13.5279 17.5279C13.2132 17.8426 12.8321 18 12.3846 18H1.61537ZM1.61537 17H12.3846C12.5641 17 12.7115 16.9423 12.8269 16.8269C12.9423 16.7115 13 16.5641 13 16.3846V7.61538C13 7.43589 12.9423 7.28846 12.8269 7.17307C12.7115 7.05769 12.5641 7 12.3846 7H1.61537C1.43589 7 1.28846 7.05769 1.17308 7.17307C1.05769 7.28846 1 7.43589 1 7.61538V16.3846C1 16.5641 1.05769 16.7115 1.17308 16.8269C1.28846 16.9423 1.43589 17 1.61537 17ZM7 13.5C7.4218 13.5 7.77725 13.3554 8.06635 13.0663C8.35545 12.7773 8.5 12.4218 8.5 12C8.5 11.5782 8.35545 11.2228 8.06635 10.9337C7.77725 10.6446 7.4218 10.5 7 10.5C6.5782 10.5 6.22275 10.6446 5.93365 10.9337C5.64455 11.2228 5.5 11.5782 5.5 12C5.5 12.4218 5.64455 12.7773 5.93365 13.0663C6.22275 13.3554 6.5782 13.5 7 13.5ZM4 6H10V4C10 3.16667 9.70833 2.45833 9.125 1.875C8.54167 1.29167 7.83333 1 7 1C6.16667 1 5.45833 1.29167 4.875 1.875C4.29167 2.45833 4 3.16667 4 4V6Z" fill="#B6B6B6"/>
</svg>
