<svg width="15" height="18" viewBox="0 0 15 18" fill="none" xmlns="http://www.w3.org/2000/svg">
<path id="Vector" d="M1.57206 18C1.13647 18 0.765566 17.8469 0.45934 17.5407C0.153113 17.2345 0 16.8636 0 16.428V7.56159C0 7.126 0.153113 6.75509 0.45934 6.44887C0.765566 6.14264 1.13647 5.98953 1.57206 5.98953H3.03405V3.983C3.03405 2.87024 3.4197 1.92822 4.191 1.15694C4.9623 0.385648 5.90242 0 7.01136 0C8.1203 0 9.06042 0.385648 9.83172 1.15694C10.603 1.92822 10.9887 2.87024 10.9887 3.983V5.98953H12.4507C12.8862 5.98953 13.2572 6.14264 13.5634 6.44887C13.8696 6.75509 14.0227 7.126 14.0227 7.56159V16.428C14.0227 16.8636 13.8696 17.2345 13.5634 17.5407C13.2572 17.8469 12.8862 18 12.4507 18H1.57206ZM1.57206 17.0568H12.4507C12.6341 17.0568 12.7847 16.9978 12.9026 16.8799C13.0205 16.762 13.0795 16.6114 13.0795 16.428V7.56159C13.0795 7.37817 13.0205 7.22751 12.9026 7.10961C12.7847 6.99171 12.6341 6.93275 12.4507 6.93275H1.57206C1.38866 6.93275 1.23801 6.99171 1.12011 7.10961C1.00221 7.22751 0.943255 7.37817 0.943255 7.56159V16.428C0.943255 16.6114 1.00221 16.762 1.12011 16.8799C1.23801 16.9978 1.38866 17.0568 1.57206 17.0568ZM7.0097 13.4804C7.42729 13.4804 7.77956 13.3374 8.06651 13.0516C8.35347 12.7657 8.49695 12.414 8.49695 11.9964C8.49695 11.5788 8.35402 11.2266 8.06817 10.9396C7.78231 10.6527 7.43059 10.5092 7.01302 10.5092C6.59543 10.5092 6.24316 10.6521 5.95621 10.938C5.66925 11.2238 5.52577 11.5755 5.52577 11.9931C5.52577 12.4107 5.6687 12.763 5.95455 13.0499C6.24041 13.3369 6.59213 13.4804 7.0097 13.4804ZM3.97731 5.98953H10.0454V3.97488C10.0454 3.13544 9.75061 2.42031 9.16102 1.82949C8.57142 1.23867 7.85548 0.943254 7.0132 0.943254C6.17092 0.943254 5.45437 1.23861 4.86354 1.82931C4.27272 2.42003 3.97731 3.13734 3.97731 3.98124V5.98953Z" fill="#0F52BA"/>
</svg>
