<svg width="159" height="159" viewBox="0 0 159 159" fill="none" xmlns="http://www.w3.org/2000/svg">
<g id="Frame">
<rect width="159" height="159" rx="10" fill="white"/>
<g id="Group">
<path id="Vector" d="M7.95 55.65H2.64999V60.95H7.95V55.65Z" fill="black"/>
<path id="Vector_2" d="M7.95 71.55H2.64999V76.85H7.95V71.55Z" fill="black"/>
<path id="Vector_3" d="M7.95 92.75H2.64999V98.05H7.95V92.75Z" fill="black"/>
<path id="Vector_4" d="M7.95 98.05H2.64999V103.35H7.95V98.05Z" fill="black"/>
<path id="Vector_5" d="M7.95 108.65H2.64999V113.95H7.95V108.65Z" fill="black"/>
<path id="Vector_6" d="M13.25 45.05H7.94998V50.35H13.25V45.05Z" fill="black"/>
<path id="Vector_7" d="M13.25 60.95H7.94998V66.25H13.25V60.95Z" fill="black"/>
<path id="Vector_8" d="M13.25 66.25H7.94998V71.55H13.25V66.25Z" fill="black"/>
<path id="Vector_9" d="M13.25 76.85H7.94998V82.15H13.25V76.85Z" fill="black"/>
<path id="Vector_10" d="M13.25 87.45H7.94998V92.75H13.25V87.45Z" fill="black"/>
<path id="Vector_11" d="M13.25 92.75H7.94998V98.05H13.25V92.75Z" fill="black"/>
<path id="Vector_12" d="M13.25 98.05H7.94998V103.35H13.25V98.05Z" fill="black"/>
<path id="Vector_13" d="M13.25 103.35H7.94998V108.65H13.25V103.35Z" fill="black"/>
<path id="Vector_14" d="M13.25 108.65H7.94998V113.95H13.25V108.65Z" fill="black"/>
<path id="Vector_15" d="M18.55 45.05H13.25V50.35H18.55V45.05Z" fill="black"/>
<path id="Vector_16" d="M18.55 55.65H13.25V60.95H18.55V55.65Z" fill="black"/>
<path id="Vector_17" d="M18.55 60.95H13.25V66.25H18.55V60.95Z" fill="black"/>
<path id="Vector_18" d="M18.55 71.55H13.25V76.85H18.55V71.55Z" fill="black"/>
<path id="Vector_19" d="M18.55 82.15H13.25V87.45H18.55V82.15Z" fill="black"/>
<path id="Vector_20" d="M18.55 87.45H13.25V92.75H18.55V87.45Z" fill="black"/>
<path id="Vector_21" d="M18.55 98.05H13.25V103.35H18.55V98.05Z" fill="black"/>
<path id="Vector_22" d="M18.55 108.65H13.25V113.95H18.55V108.65Z" fill="black"/>
<path id="Vector_23" d="M23.85 55.65H18.55V60.95H23.85V55.65Z" fill="black"/>
<path id="Vector_24" d="M23.85 66.25H18.55V71.55H23.85V66.25Z" fill="black"/>
<path id="Vector_25" d="M23.85 82.15H18.55V87.45H23.85V82.15Z" fill="black"/>
<path id="Vector_26" d="M23.85 87.45H18.55V92.75H23.85V87.45Z" fill="black"/>
<path id="Vector_27" d="M23.85 92.75H18.55V98.05H23.85V92.75Z" fill="black"/>
<path id="Vector_28" d="M23.85 103.35H18.55V108.65H23.85V103.35Z" fill="black"/>
<path id="Vector_29" d="M29.15 50.35H23.85V55.65H29.15V50.35Z" fill="black"/>
<path id="Vector_30" d="M29.15 55.65H23.85V60.95H29.15V55.65Z" fill="black"/>
<path id="Vector_31" d="M29.15 60.95H23.85V66.25H29.15V60.95Z" fill="black"/>
<path id="Vector_32" d="M29.15 66.25H23.85V71.55H29.15V66.25Z" fill="black"/>
<path id="Vector_33" d="M29.15 71.55H23.85V76.85H29.15V71.55Z" fill="black"/>
<path id="Vector_34" d="M29.15 87.45H23.85V92.75H29.15V87.45Z" fill="black"/>
<path id="Vector_35" d="M29.15 92.75H23.85V98.05H29.15V92.75Z" fill="black"/>
<path id="Vector_36" d="M29.15 98.05H23.85V103.35H29.15V98.05Z" fill="black"/>
<path id="Vector_37" d="M29.15 103.35H23.85V108.65H29.15V103.35Z" fill="black"/>
<path id="Vector_38" d="M29.15 108.65H23.85V113.95H29.15V108.65Z" fill="black"/>
<path id="Vector_39" d="M34.45 50.35H29.15V55.65H34.45V50.35Z" fill="black"/>
<path id="Vector_40" d="M34.45 71.55H29.15V76.85H34.45V71.55Z" fill="black"/>
<path id="Vector_41" d="M34.45 76.85H29.15V82.15H34.45V76.85Z" fill="black"/>
<path id="Vector_42" d="M34.45 103.35H29.15V108.65H34.45V103.35Z" fill="black"/>
<path id="Vector_43" d="M34.45 108.65H29.15V113.95H34.45V108.65Z" fill="black"/>
<path id="Vector_44" d="M39.75 45.05H34.45V50.35H39.75V45.05Z" fill="black"/>
<path id="Vector_45" d="M39.75 55.65H34.45V60.95H39.75V55.65Z" fill="black"/>
<path id="Vector_46" d="M39.75 66.25H34.45V71.55H39.75V66.25Z" fill="black"/>
<path id="Vector_47" d="M39.75 76.85H34.45V82.15H39.75V76.85Z" fill="black"/>
<path id="Vector_48" d="M39.75 87.45H34.45V92.75H39.75V87.45Z" fill="black"/>
<path id="Vector_49" d="M39.75 98.05H34.45V103.35H39.75V98.05Z" fill="black"/>
<path id="Vector_50" d="M39.75 108.65H34.45V113.95H39.75V108.65Z" fill="black"/>
<path id="Vector_51" d="M45.05 55.65H39.75V60.95H45.05V55.65Z" fill="black"/>
<path id="Vector_52" d="M45.05 66.25H39.75V71.55H45.05V66.25Z" fill="black"/>
<path id="Vector_53" d="M45.05 71.55H39.75V76.85H45.05V71.55Z" fill="black"/>
<path id="Vector_54" d="M45.05 82.15H39.75V87.45H45.05V82.15Z" fill="black"/>
<path id="Vector_55" d="M45.05 87.45H39.75V92.75H45.05V87.45Z" fill="black"/>
<path id="Vector_56" d="M45.05 92.75H39.75V98.05H45.05V92.75Z" fill="black"/>
<path id="Vector_57" d="M45.05 98.05H39.75V103.35H45.05V98.05Z" fill="black"/>
<path id="Vector_58" d="M50.35 7.94998H45.05V13.25H50.35V7.94998Z" fill="black"/>
<path id="Vector_59" d="M50.35 13.25H45.05V18.55H50.35V13.25Z" fill="black"/>
<path id="Vector_60" d="M50.35 18.55H45.05V23.85H50.35V18.55Z" fill="black"/>
<path id="Vector_61" d="M50.35 29.15H45.05V34.45H50.35V29.15Z" fill="black"/>
<path id="Vector_62" d="M50.35 34.45H45.05V39.75H50.35V34.45Z" fill="black"/>
<path id="Vector_63" d="M50.35 66.25H45.05V71.55H50.35V66.25Z" fill="black"/>
<path id="Vector_64" d="M50.35 71.55H45.05V76.85H50.35V71.55Z" fill="black"/>
<path id="Vector_65" d="M50.35 76.85H45.05V82.15H50.35V76.85Z" fill="black"/>
<path id="Vector_66" d="M50.35 87.45H45.05V92.75H50.35V87.45Z" fill="black"/>
<path id="Vector_67" d="M50.35 103.35H45.05V108.65H50.35V103.35Z" fill="black"/>
<path id="Vector_68" d="M50.35 140.45H45.05V145.75H50.35V140.45Z" fill="black"/>
<path id="Vector_69" d="M50.35 145.75H45.05V151.05H50.35V145.75Z" fill="black"/>
<path id="Vector_70" d="M55.65 23.85H50.35V29.15H55.65V23.85Z" fill="black"/>
<path id="Vector_71" d="M55.65 60.95H50.35V66.25H55.65V60.95Z" fill="black"/>
<path id="Vector_72" d="M55.65 66.25H50.35V71.55H55.65V66.25Z" fill="black"/>
<path id="Vector_73" d="M55.65 76.85H50.35V82.15H55.65V76.85Z" fill="black"/>
<path id="Vector_74" d="M55.65 87.45H50.35V92.75H55.65V87.45Z" fill="black"/>
<path id="Vector_75" d="M55.65 113.95H50.35V119.25H55.65V113.95Z" fill="black"/>
<path id="Vector_76" d="M55.65 119.25H50.35V124.55H55.65V119.25Z" fill="black"/>
<path id="Vector_77" d="M55.65 124.55H50.35V129.85H55.65V124.55Z" fill="black"/>
<path id="Vector_78" d="M55.65 129.85H50.35V135.15H55.65V129.85Z" fill="black"/>
<path id="Vector_79" d="M55.65 135.15H50.35V140.45H55.65V135.15Z" fill="black"/>
<path id="Vector_80" d="M55.65 140.45H50.35V145.75H55.65V140.45Z" fill="black"/>
<path id="Vector_81" d="M55.65 151.05H50.35V156.35H55.65V151.05Z" fill="black"/>
<path id="Vector_82" d="M60.95 2.64999H55.65V7.95H60.95V2.64999Z" fill="black"/>
<path id="Vector_83" d="M60.95 7.94998H55.65V13.25H60.95V7.94998Z" fill="black"/>
<path id="Vector_84" d="M60.95 18.55H55.65V23.85H60.95V18.55Z" fill="black"/>
<path id="Vector_85" d="M60.95 34.45H55.65V39.75H60.95V34.45Z" fill="black"/>
<path id="Vector_86" d="M60.95 55.65H55.65V60.95H60.95V55.65Z" fill="black"/>
<path id="Vector_87" d="M60.95 60.95H55.65V66.25H60.95V60.95Z" fill="black"/>
<path id="Vector_88" d="M60.95 71.55H55.65V76.85H60.95V71.55Z" fill="black"/>
<path id="Vector_89" d="M60.95 87.45H55.65V92.75H60.95V87.45Z" fill="black"/>
<path id="Vector_90" d="M60.95 92.75H55.65V98.05H60.95V92.75Z" fill="black"/>
<path id="Vector_91" d="M60.95 119.25H55.65V124.55H60.95V119.25Z" fill="black"/>
<path id="Vector_92" d="M60.95 129.85H55.65V135.15H60.95V129.85Z" fill="black"/>
<path id="Vector_93" d="M60.95 135.15H55.65V140.45H60.95V135.15Z" fill="black"/>
<path id="Vector_94" d="M60.95 145.75H55.65V151.05H60.95V145.75Z" fill="black"/>
<path id="Vector_95" d="M66.25 23.85H60.95V29.15H66.25V23.85Z" fill="black"/>
<path id="Vector_96" d="M66.25 45.05H60.95V50.35H66.25V45.05Z" fill="black"/>
<path id="Vector_97" d="M66.25 60.95H60.95V66.25H66.25V60.95Z" fill="black"/>
<path id="Vector_98" d="M66.25 66.25H60.95V71.55H66.25V66.25Z" fill="black"/>
<path id="Vector_99" d="M66.25 87.45H60.95V92.75H66.25V87.45Z" fill="black"/>
<path id="Vector_100" d="M66.25 98.05H60.95V103.35H66.25V98.05Z" fill="black"/>
<path id="Vector_101" d="M66.25 108.65H60.95V113.95H66.25V108.65Z" fill="black"/>
<path id="Vector_102" d="M66.25 151.05H60.95V156.35H66.25V151.05Z" fill="black"/>
<path id="Vector_103" d="M71.55 7.94998H66.25V13.25H71.55V7.94998Z" fill="black"/>
<path id="Vector_104" d="M71.55 18.55H66.25V23.85H71.55V18.55Z" fill="black"/>
<path id="Vector_105" d="M71.55 23.85H66.25V29.15H71.55V23.85Z" fill="black"/>
<path id="Vector_106" d="M71.55 34.45H66.25V39.75H71.55V34.45Z" fill="black"/>
<path id="Vector_107" d="M71.55 39.75H66.25V45.05H71.55V39.75Z" fill="black"/>
<path id="Vector_108" d="M71.55 50.35H66.25V55.65H71.55V50.35Z" fill="black"/>
<path id="Vector_109" d="M71.55 82.15H66.25V87.45H71.55V82.15Z" fill="black"/>
<path id="Vector_110" d="M71.55 87.45H66.25V92.75H71.55V87.45Z" fill="black"/>
<path id="Vector_111" d="M71.55 92.75H66.25V98.05H71.55V92.75Z" fill="black"/>
<path id="Vector_112" d="M71.55 113.95H66.25V119.25H71.55V113.95Z" fill="black"/>
<path id="Vector_113" d="M71.55 124.55H66.25V129.85H71.55V124.55Z" fill="black"/>
<path id="Vector_114" d="M71.55 135.15H66.25V140.45H71.55V135.15Z" fill="black"/>
<path id="Vector_115" d="M71.55 145.75H66.25V151.05H71.55V145.75Z" fill="black"/>
<path id="Vector_116" d="M71.55 151.05H66.25V156.35H71.55V151.05Z" fill="black"/>
<path id="Vector_117" d="M76.85 45.05H71.55V50.35H76.85V45.05Z" fill="black"/>
<path id="Vector_118" d="M76.85 60.95H71.55V66.25H76.85V60.95Z" fill="black"/>
<path id="Vector_119" d="M76.85 66.25H71.55V71.55H76.85V66.25Z" fill="black"/>
<path id="Vector_120" d="M76.85 71.55H71.55V76.85H76.85V71.55Z" fill="black"/>
<path id="Vector_121" d="M76.85 87.45H71.55V92.75H76.85V87.45Z" fill="black"/>
<path id="Vector_122" d="M76.85 98.05H71.55V103.35H76.85V98.05Z" fill="black"/>
<path id="Vector_123" d="M76.85 103.35H71.55V108.65H76.85V103.35Z" fill="black"/>
<path id="Vector_124" d="M76.85 119.25H71.55V124.55H76.85V119.25Z" fill="black"/>
<path id="Vector_125" d="M76.85 124.55H71.55V129.85H76.85V124.55Z" fill="black"/>
<path id="Vector_126" d="M76.85 135.15H71.55V140.45H76.85V135.15Z" fill="black"/>
<path id="Vector_127" d="M76.85 140.45H71.55V145.75H76.85V140.45Z" fill="black"/>
<path id="Vector_128" d="M76.85 151.05H71.55V156.35H76.85V151.05Z" fill="black"/>
<path id="Vector_129" d="M82.15 2.64999H76.85V7.95H82.15V2.64999Z" fill="black"/>
<path id="Vector_130" d="M82.15 7.94998H76.85V13.25H82.15V7.94998Z" fill="black"/>
<path id="Vector_131" d="M82.15 13.25H76.85V18.55H82.15V13.25Z" fill="black"/>
<path id="Vector_132" d="M82.15 18.55H76.85V23.85H82.15V18.55Z" fill="black"/>
<path id="Vector_133" d="M82.15 34.45H76.85V39.75H82.15V34.45Z" fill="black"/>
<path id="Vector_134" d="M82.15 45.05H76.85V50.35H82.15V45.05Z" fill="black"/>
<path id="Vector_135" d="M82.15 50.35H76.85V55.65H82.15V50.35Z" fill="black"/>
<path id="Vector_136" d="M82.15 60.95H76.85V66.25H82.15V60.95Z" fill="black"/>
<path id="Vector_137" d="M82.15 71.55H76.85V76.85H82.15V71.55Z" fill="black"/>
<path id="Vector_138" d="M82.15 76.85H76.85V82.15H82.15V76.85Z" fill="black"/>
<path id="Vector_139" d="M82.15 87.45H76.85V92.75H82.15V87.45Z" fill="black"/>
<path id="Vector_140" d="M82.15 92.75H76.85V98.05H82.15V92.75Z" fill="black"/>
<path id="Vector_141" d="M82.15 98.05H76.85V103.35H82.15V98.05Z" fill="black"/>
<path id="Vector_142" d="M82.15 103.35H76.85V108.65H82.15V103.35Z" fill="black"/>
<path id="Vector_143" d="M82.15 108.65H76.85V113.95H82.15V108.65Z" fill="black"/>
<path id="Vector_144" d="M82.15 113.95H76.85V119.25H82.15V113.95Z" fill="black"/>
<path id="Vector_145" d="M82.15 124.55H76.85V129.85H82.15V124.55Z" fill="black"/>
<path id="Vector_146" d="M82.15 129.85H76.85V135.15H82.15V129.85Z" fill="black"/>
<path id="Vector_147" d="M82.15 135.15H76.85V140.45H82.15V135.15Z" fill="black"/>
<path id="Vector_148" d="M82.15 151.05H76.85V156.35H82.15V151.05Z" fill="black"/>
<path id="Vector_149" d="M87.45 2.64999H82.15V7.95H87.45V2.64999Z" fill="black"/>
<path id="Vector_150" d="M87.45 7.94998H82.15V13.25H87.45V7.94998Z" fill="black"/>
<path id="Vector_151" d="M87.45 23.85H82.15V29.15H87.45V23.85Z" fill="black"/>
<path id="Vector_152" d="M87.45 29.15H82.15V34.45H87.45V29.15Z" fill="black"/>
<path id="Vector_153" d="M87.45 39.75H82.15V45.05H87.45V39.75Z" fill="black"/>
<path id="Vector_154" d="M87.45 45.05H82.15V50.35H87.45V45.05Z" fill="black"/>
<path id="Vector_155" d="M87.45 55.65H82.15V60.95H87.45V55.65Z" fill="black"/>
<path id="Vector_156" d="M87.45 66.25H82.15V71.55H87.45V66.25Z" fill="black"/>
<path id="Vector_157" d="M87.45 71.55H82.15V76.85H87.45V71.55Z" fill="black"/>
<path id="Vector_158" d="M87.45 92.75H82.15V98.05H87.45V92.75Z" fill="black"/>
<path id="Vector_159" d="M87.45 98.05H82.15V103.35H87.45V98.05Z" fill="black"/>
<path id="Vector_160" d="M87.45 108.65H82.15V113.95H87.45V108.65Z" fill="black"/>
<path id="Vector_161" d="M87.45 113.95H82.15V119.25H87.45V113.95Z" fill="black"/>
<path id="Vector_162" d="M87.45 119.25H82.15V124.55H87.45V119.25Z" fill="black"/>
<path id="Vector_163" d="M87.45 129.85H82.15V135.15H87.45V129.85Z" fill="black"/>
<path id="Vector_164" d="M87.45 135.15H82.15V140.45H87.45V135.15Z" fill="black"/>
<path id="Vector_165" d="M92.75 7.94998H87.45V13.25H92.75V7.94998Z" fill="black"/>
<path id="Vector_166" d="M92.75 13.25H87.45V18.55H92.75V13.25Z" fill="black"/>
<path id="Vector_167" d="M92.75 34.45H87.45V39.75H92.75V34.45Z" fill="black"/>
<path id="Vector_168" d="M92.75 39.75H87.45V45.05H92.75V39.75Z" fill="black"/>
<path id="Vector_169" d="M92.75 45.05H87.45V50.35H92.75V45.05Z" fill="black"/>
<path id="Vector_170" d="M92.75 55.65H87.45V60.95H92.75V55.65Z" fill="black"/>
<path id="Vector_171" d="M92.75 76.85H87.45V82.15H92.75V76.85Z" fill="black"/>
<path id="Vector_172" d="M92.75 82.15H87.45V87.45H92.75V82.15Z" fill="black"/>
<path id="Vector_173" d="M92.75 87.45H87.45V92.75H92.75V87.45Z" fill="black"/>
<path id="Vector_174" d="M92.75 92.75H87.45V98.05H92.75V92.75Z" fill="black"/>
<path id="Vector_175" d="M92.75 98.05H87.45V103.35H92.75V98.05Z" fill="black"/>
<path id="Vector_176" d="M92.75 103.35H87.45V108.65H92.75V103.35Z" fill="black"/>
<path id="Vector_177" d="M92.75 129.85H87.45V135.15H92.75V129.85Z" fill="black"/>
<path id="Vector_178" d="M92.75 135.15H87.45V140.45H92.75V135.15Z" fill="black"/>
<path id="Vector_179" d="M92.75 145.75H87.45V151.05H92.75V145.75Z" fill="black"/>
<path id="Vector_180" d="M92.75 151.05H87.45V156.35H92.75V151.05Z" fill="black"/>
<path id="Vector_181" d="M98.05 7.94998H92.75V13.25H98.05V7.94998Z" fill="black"/>
<path id="Vector_182" d="M98.05 45.05H92.75V50.35H98.05V45.05Z" fill="black"/>
<path id="Vector_183" d="M98.05 55.65H92.75V60.95H98.05V55.65Z" fill="black"/>
<path id="Vector_184" d="M98.05 60.95H92.75V66.25H98.05V60.95Z" fill="black"/>
<path id="Vector_185" d="M98.05 66.25H92.75V71.55H98.05V66.25Z" fill="black"/>
<path id="Vector_186" d="M98.05 71.55H92.75V76.85H98.05V71.55Z" fill="black"/>
<path id="Vector_187" d="M98.05 87.45H92.75V92.75H98.05V87.45Z" fill="black"/>
<path id="Vector_188" d="M98.05 113.95H92.75V119.25H98.05V113.95Z" fill="black"/>
<path id="Vector_189" d="M98.05 135.15H92.75V140.45H98.05V135.15Z" fill="black"/>
<path id="Vector_190" d="M103.35 2.64999H98.05V7.95H103.35V2.64999Z" fill="black"/>
<path id="Vector_191" d="M103.35 18.55H98.05V23.85H103.35V18.55Z" fill="black"/>
<path id="Vector_192" d="M103.35 34.45H98.05V39.75H103.35V34.45Z" fill="black"/>
<path id="Vector_193" d="M103.35 39.75H98.05V45.05H103.35V39.75Z" fill="black"/>
<path id="Vector_194" d="M103.35 55.65H98.05V60.95H103.35V55.65Z" fill="black"/>
<path id="Vector_195" d="M103.35 71.55H98.05V76.85H103.35V71.55Z" fill="black"/>
<path id="Vector_196" d="M103.35 82.15H98.05V87.45H103.35V82.15Z" fill="black"/>
<path id="Vector_197" d="M103.35 87.45H98.05V92.75H103.35V87.45Z" fill="black"/>
<path id="Vector_198" d="M103.35 92.75H98.05V98.05H103.35V92.75Z" fill="black"/>
<path id="Vector_199" d="M103.35 98.05H98.05V103.35H103.35V98.05Z" fill="black"/>
<path id="Vector_200" d="M103.35 119.25H98.05V124.55H103.35V119.25Z" fill="black"/>
<path id="Vector_201" d="M103.35 124.55H98.05V129.85H103.35V124.55Z" fill="black"/>
<path id="Vector_202" d="M103.35 135.15H98.05V140.45H103.35V135.15Z" fill="black"/>
<path id="Vector_203" d="M103.35 140.45H98.05V145.75H103.35V140.45Z" fill="black"/>
<path id="Vector_204" d="M108.65 39.75H103.35V45.05H108.65V39.75Z" fill="black"/>
<path id="Vector_205" d="M108.65 50.35H103.35V55.65H108.65V50.35Z" fill="black"/>
<path id="Vector_206" d="M108.65 55.65H103.35V60.95H108.65V55.65Z" fill="black"/>
<path id="Vector_207" d="M108.65 71.55H103.35V76.85H108.65V71.55Z" fill="black"/>
<path id="Vector_208" d="M108.65 76.85H103.35V82.15H108.65V76.85Z" fill="black"/>
<path id="Vector_209" d="M108.65 92.75H103.35V98.05H108.65V92.75Z" fill="black"/>
<path id="Vector_210" d="M108.65 113.95H103.35V119.25H108.65V113.95Z" fill="black"/>
<path id="Vector_211" d="M108.65 119.25H103.35V124.55H108.65V119.25Z" fill="black"/>
<path id="Vector_212" d="M108.65 135.15H103.35V140.45H108.65V135.15Z" fill="black"/>
<path id="Vector_213" d="M108.65 140.45H103.35V145.75H108.65V140.45Z" fill="black"/>
<path id="Vector_214" d="M108.65 151.05H103.35V156.35H108.65V151.05Z" fill="black"/>
<path id="Vector_215" d="M113.95 7.94998H108.65V13.25H113.95V7.94998Z" fill="black"/>
<path id="Vector_216" d="M113.95 13.25H108.65V18.55H113.95V13.25Z" fill="black"/>
<path id="Vector_217" d="M113.95 29.15H108.65V34.45H113.95V29.15Z" fill="black"/>
<path id="Vector_218" d="M113.95 34.45H108.65V39.75H113.95V34.45Z" fill="black"/>
<path id="Vector_219" d="M113.95 45.05H108.65V50.35H113.95V45.05Z" fill="black"/>
<path id="Vector_220" d="M113.95 60.95H108.65V66.25H113.95V60.95Z" fill="black"/>
<path id="Vector_221" d="M113.95 71.55H108.65V76.85H113.95V71.55Z" fill="black"/>
<path id="Vector_222" d="M113.95 76.85H108.65V82.15H113.95V76.85Z" fill="black"/>
<path id="Vector_223" d="M113.95 87.45H108.65V92.75H113.95V87.45Z" fill="black"/>
<path id="Vector_224" d="M113.95 92.75H108.65V98.05H113.95V92.75Z" fill="black"/>
<path id="Vector_225" d="M113.95 103.35H108.65V108.65H113.95V103.35Z" fill="black"/>
<path id="Vector_226" d="M113.95 108.65H108.65V113.95H113.95V108.65Z" fill="black"/>
<path id="Vector_227" d="M113.95 113.95H108.65V119.25H113.95V113.95Z" fill="black"/>
<path id="Vector_228" d="M113.95 119.25H108.65V124.55H113.95V119.25Z" fill="black"/>
<path id="Vector_229" d="M113.95 124.55H108.65V129.85H113.95V124.55Z" fill="black"/>
<path id="Vector_230" d="M113.95 129.85H108.65V135.15H113.95V129.85Z" fill="black"/>
<path id="Vector_231" d="M119.25 45.05H113.95V50.35H119.25V45.05Z" fill="black"/>
<path id="Vector_232" d="M119.25 55.65H113.95V60.95H119.25V55.65Z" fill="black"/>
<path id="Vector_233" d="M119.25 66.25H113.95V71.55H119.25V66.25Z" fill="black"/>
<path id="Vector_234" d="M119.25 71.55H113.95V76.85H119.25V71.55Z" fill="black"/>
<path id="Vector_235" d="M119.25 87.45H113.95V92.75H119.25V87.45Z" fill="black"/>
<path id="Vector_236" d="M119.25 98.05H113.95V103.35H119.25V98.05Z" fill="black"/>
<path id="Vector_237" d="M119.25 108.65H113.95V113.95H119.25V108.65Z" fill="black"/>
<path id="Vector_238" d="M119.25 129.85H113.95V135.15H119.25V129.85Z" fill="black"/>
<path id="Vector_239" d="M119.25 135.15H113.95V140.45H119.25V135.15Z" fill="black"/>
<path id="Vector_240" d="M119.25 145.75H113.95V151.05H119.25V145.75Z" fill="black"/>
<path id="Vector_241" d="M119.25 151.05H113.95V156.35H119.25V151.05Z" fill="black"/>
<path id="Vector_242" d="M124.55 55.65H119.25V60.95H124.55V55.65Z" fill="black"/>
<path id="Vector_243" d="M124.55 60.95H119.25V66.25H124.55V60.95Z" fill="black"/>
<path id="Vector_244" d="M124.55 66.25H119.25V71.55H124.55V66.25Z" fill="black"/>
<path id="Vector_245" d="M124.55 87.45H119.25V92.75H124.55V87.45Z" fill="black"/>
<path id="Vector_246" d="M124.55 92.75H119.25V98.05H124.55V92.75Z" fill="black"/>
<path id="Vector_247" d="M124.55 103.35H119.25V108.65H124.55V103.35Z" fill="black"/>
<path id="Vector_248" d="M124.55 108.65H119.25V113.95H124.55V108.65Z" fill="black"/>
<path id="Vector_249" d="M124.55 119.25H119.25V124.55H124.55V119.25Z" fill="black"/>
<path id="Vector_250" d="M124.55 129.85H119.25V135.15H124.55V129.85Z" fill="black"/>
<path id="Vector_251" d="M124.55 140.45H119.25V145.75H124.55V140.45Z" fill="black"/>
<path id="Vector_252" d="M124.55 145.75H119.25V151.05H124.55V145.75Z" fill="black"/>
<path id="Vector_253" d="M129.85 45.05H124.55V50.35H129.85V45.05Z" fill="black"/>
<path id="Vector_254" d="M129.85 50.35H124.55V55.65H129.85V50.35Z" fill="black"/>
<path id="Vector_255" d="M129.85 55.65H124.55V60.95H129.85V55.65Z" fill="black"/>
<path id="Vector_256" d="M129.85 66.25H124.55V71.55H129.85V66.25Z" fill="black"/>
<path id="Vector_257" d="M129.85 71.55H124.55V76.85H129.85V71.55Z" fill="black"/>
<path id="Vector_258" d="M129.85 76.85H124.55V82.15H129.85V76.85Z" fill="black"/>
<path id="Vector_259" d="M129.85 82.15H124.55V87.45H129.85V82.15Z" fill="black"/>
<path id="Vector_260" d="M129.85 87.45H124.55V92.75H129.85V87.45Z" fill="black"/>
<path id="Vector_261" d="M129.85 98.05H124.55V103.35H129.85V98.05Z" fill="black"/>
<path id="Vector_262" d="M129.85 108.65H124.55V113.95H129.85V108.65Z" fill="black"/>
<path id="Vector_263" d="M129.85 129.85H124.55V135.15H129.85V129.85Z" fill="black"/>
<path id="Vector_264" d="M129.85 145.75H124.55V151.05H129.85V145.75Z" fill="black"/>
<path id="Vector_265" d="M135.15 55.65H129.85V60.95H135.15V55.65Z" fill="black"/>
<path id="Vector_266" d="M135.15 60.95H129.85V66.25H135.15V60.95Z" fill="black"/>
<path id="Vector_267" d="M135.15 82.15H129.85V87.45H135.15V82.15Z" fill="black"/>
<path id="Vector_268" d="M135.15 98.05H129.85V103.35H135.15V98.05Z" fill="black"/>
<path id="Vector_269" d="M135.15 108.65H129.85V113.95H135.15V108.65Z" fill="black"/>
<path id="Vector_270" d="M135.15 113.95H129.85V119.25H135.15V113.95Z" fill="black"/>
<path id="Vector_271" d="M135.15 119.25H129.85V124.55H135.15V119.25Z" fill="black"/>
<path id="Vector_272" d="M135.15 124.55H129.85V129.85H135.15V124.55Z" fill="black"/>
<path id="Vector_273" d="M135.15 129.85H129.85V135.15H135.15V129.85Z" fill="black"/>
<path id="Vector_274" d="M135.15 135.15H129.85V140.45H135.15V135.15Z" fill="black"/>
<path id="Vector_275" d="M135.15 140.45H129.85V145.75H135.15V140.45Z" fill="black"/>
<path id="Vector_276" d="M135.15 151.05H129.85V156.35H135.15V151.05Z" fill="black"/>
<path id="Vector_277" d="M140.45 45.05H135.15V50.35H140.45V45.05Z" fill="black"/>
<path id="Vector_278" d="M140.45 55.65H135.15V60.95H140.45V55.65Z" fill="black"/>
<path id="Vector_279" d="M140.45 66.25H135.15V71.55H140.45V66.25Z" fill="black"/>
<path id="Vector_280" d="M140.45 76.85H135.15V82.15H140.45V76.85Z" fill="black"/>
<path id="Vector_281" d="M140.45 87.45H135.15V92.75H140.45V87.45Z" fill="black"/>
<path id="Vector_282" d="M140.45 98.05H135.15V103.35H140.45V98.05Z" fill="black"/>
<path id="Vector_283" d="M140.45 103.35H135.15V108.65H140.45V103.35Z" fill="black"/>
<path id="Vector_284" d="M140.45 129.85H135.15V135.15H140.45V129.85Z" fill="black"/>
<path id="Vector_285" d="M140.45 140.45H135.15V145.75H140.45V140.45Z" fill="black"/>
<path id="Vector_286" d="M140.45 145.75H135.15V151.05H140.45V145.75Z" fill="black"/>
<path id="Vector_287" d="M145.75 45.05H140.45V50.35H145.75V45.05Z" fill="black"/>
<path id="Vector_288" d="M145.75 50.35H140.45V55.65H145.75V50.35Z" fill="black"/>
<path id="Vector_289" d="M145.75 55.65H140.45V60.95H145.75V55.65Z" fill="black"/>
<path id="Vector_290" d="M145.75 76.85H140.45V82.15H145.75V76.85Z" fill="black"/>
<path id="Vector_291" d="M145.75 82.15H140.45V87.45H145.75V82.15Z" fill="black"/>
<path id="Vector_292" d="M145.75 87.45H140.45V92.75H145.75V87.45Z" fill="black"/>
<path id="Vector_293" d="M145.75 92.75H140.45V98.05H145.75V92.75Z" fill="black"/>
<path id="Vector_294" d="M145.75 98.05H140.45V103.35H145.75V98.05Z" fill="black"/>
<path id="Vector_295" d="M145.75 108.65H140.45V113.95H145.75V108.65Z" fill="black"/>
<path id="Vector_296" d="M145.75 124.55H140.45V129.85H145.75V124.55Z" fill="black"/>
<path id="Vector_297" d="M145.75 135.15H140.45V140.45H145.75V135.15Z" fill="black"/>
<path id="Vector_298" d="M145.75 151.05H140.45V156.35H145.75V151.05Z" fill="black"/>
<path id="Vector_299" d="M151.05 45.05H145.75V50.35H151.05V45.05Z" fill="black"/>
<path id="Vector_300" d="M151.05 50.35H145.75V55.65H151.05V50.35Z" fill="black"/>
<path id="Vector_301" d="M151.05 55.65H145.75V60.95H151.05V55.65Z" fill="black"/>
<path id="Vector_302" d="M151.05 60.95H145.75V66.25H151.05V60.95Z" fill="black"/>
<path id="Vector_303" d="M151.05 76.85H145.75V82.15H151.05V76.85Z" fill="black"/>
<path id="Vector_304" d="M151.05 87.45H145.75V92.75H151.05V87.45Z" fill="black"/>
<path id="Vector_305" d="M151.05 98.05H145.75V103.35H151.05V98.05Z" fill="black"/>
<path id="Vector_306" d="M151.05 113.95H145.75V119.25H151.05V113.95Z" fill="black"/>
<path id="Vector_307" d="M151.05 119.25H145.75V124.55H151.05V119.25Z" fill="black"/>
<path id="Vector_308" d="M151.05 129.85H145.75V135.15H151.05V129.85Z" fill="black"/>
<path id="Vector_309" d="M151.05 145.75H145.75V151.05H151.05V145.75Z" fill="black"/>
<path id="Vector_310" d="M156.35 50.35H151.05V55.65H156.35V50.35Z" fill="black"/>
<path id="Vector_311" d="M156.35 55.65H151.05V60.95H156.35V55.65Z" fill="black"/>
<path id="Vector_312" d="M156.35 66.25H151.05V71.55H156.35V66.25Z" fill="black"/>
<path id="Vector_313" d="M156.35 82.15H151.05V87.45H156.35V82.15Z" fill="black"/>
<path id="Vector_314" d="M156.35 98.05H151.05V103.35H156.35V98.05Z" fill="black"/>
<path id="Vector_315" d="M156.35 103.35H151.05V108.65H156.35V103.35Z" fill="black"/>
<path id="Vector_316" d="M156.35 108.65H151.05V113.95H156.35V108.65Z" fill="black"/>
<path id="Vector_317" d="M156.35 124.55H151.05V129.85H156.35V124.55Z" fill="black"/>
<path id="Vector_318" d="M156.35 135.15H151.05V140.45H156.35V135.15Z" fill="black"/>
<path id="Vector_319" d="M156.35 145.75H151.05V151.05H156.35V145.75Z" fill="black"/>
</g>
<g id="Group_2">
<path id="Vector_320" d="M7.95 2.64999H2.64999V7.95H7.95V2.64999Z" fill="black"/>
<path id="Vector_321" d="M7.95 7.94998H2.64999V13.25H7.95V7.94998Z" fill="black"/>
<path id="Vector_322" d="M7.95 13.25H2.64999V18.55H7.95V13.25Z" fill="black"/>
<path id="Vector_323" d="M7.95 18.55H2.64999V23.85H7.95V18.55Z" fill="black"/>
<path id="Vector_324" d="M7.95 23.85H2.64999V29.15H7.95V23.85Z" fill="black"/>
<path id="Vector_325" d="M7.95 29.15H2.64999V34.45H7.95V29.15Z" fill="black"/>
<path id="Vector_326" d="M7.95 34.45H2.64999V39.75H7.95V34.45Z" fill="black"/>
<path id="Vector_327" d="M13.25 2.64999H7.94998V7.95H13.25V2.64999Z" fill="black"/>
<path id="Vector_328" d="M13.25 34.45H7.94998V39.75H13.25V34.45Z" fill="black"/>
<path id="Vector_329" d="M18.55 2.64999H13.25V7.95H18.55V2.64999Z" fill="black"/>
<path id="Vector_330" d="M18.55 34.45H13.25V39.75H18.55V34.45Z" fill="black"/>
<path id="Vector_331" d="M23.85 2.64999H18.55V7.95H23.85V2.64999Z" fill="black"/>
<path id="Vector_332" d="M23.85 34.45H18.55V39.75H23.85V34.45Z" fill="black"/>
<path id="Vector_333" d="M29.15 2.64999H23.85V7.95H29.15V2.64999Z" fill="black"/>
<path id="Vector_334" d="M29.15 34.45H23.85V39.75H29.15V34.45Z" fill="black"/>
<path id="Vector_335" d="M34.45 2.64999H29.15V7.95H34.45V2.64999Z" fill="black"/>
<path id="Vector_336" d="M34.45 34.45H29.15V39.75H34.45V34.45Z" fill="black"/>
<path id="Vector_337" d="M39.75 2.64999H34.45V7.95H39.75V2.64999Z" fill="black"/>
<path id="Vector_338" d="M39.75 7.94998H34.45V13.25H39.75V7.94998Z" fill="black"/>
<path id="Vector_339" d="M39.75 13.25H34.45V18.55H39.75V13.25Z" fill="black"/>
<path id="Vector_340" d="M39.75 18.55H34.45V23.85H39.75V18.55Z" fill="black"/>
<path id="Vector_341" d="M39.75 23.85H34.45V29.15H39.75V23.85Z" fill="black"/>
<path id="Vector_342" d="M39.75 29.15H34.45V34.45H39.75V29.15Z" fill="black"/>
<path id="Vector_343" d="M39.75 34.45H34.45V39.75H39.75V34.45Z" fill="black"/>
</g>
<g id="Group_3">
<path id="Vector_344" d="M18.55 13.25H13.25V18.55H18.55V13.25Z" fill="black"/>
<path id="Vector_345" d="M18.55 18.55H13.25V23.85H18.55V18.55Z" fill="black"/>
<path id="Vector_346" d="M18.55 23.85H13.25V29.15H18.55V23.85Z" fill="black"/>
<path id="Vector_347" d="M23.85 13.25H18.55V18.55H23.85V13.25Z" fill="black"/>
<path id="Vector_348" d="M23.85 18.55H18.55V23.85H23.85V18.55Z" fill="black"/>
<path id="Vector_349" d="M23.85 23.85H18.55V29.15H23.85V23.85Z" fill="black"/>
<path id="Vector_350" d="M29.15 13.25H23.85V18.55H29.15V13.25Z" fill="black"/>
<path id="Vector_351" d="M29.15 18.55H23.85V23.85H29.15V18.55Z" fill="black"/>
<path id="Vector_352" d="M29.15 23.85H23.85V29.15H29.15V23.85Z" fill="black"/>
</g>
<g id="Group_4">
<path id="Vector_353" d="M124.55 2.64999H119.25V7.95H124.55V2.64999Z" fill="black"/>
<path id="Vector_354" d="M124.55 7.94998H119.25V13.25H124.55V7.94998Z" fill="black"/>
<path id="Vector_355" d="M124.55 13.25H119.25V18.55H124.55V13.25Z" fill="black"/>
<path id="Vector_356" d="M124.55 18.55H119.25V23.85H124.55V18.55Z" fill="black"/>
<path id="Vector_357" d="M124.55 23.85H119.25V29.15H124.55V23.85Z" fill="black"/>
<path id="Vector_358" d="M124.55 29.15H119.25V34.45H124.55V29.15Z" fill="black"/>
<path id="Vector_359" d="M124.55 34.45H119.25V39.75H124.55V34.45Z" fill="black"/>
<path id="Vector_360" d="M129.85 2.64999H124.55V7.95H129.85V2.64999Z" fill="black"/>
<path id="Vector_361" d="M129.85 34.45H124.55V39.75H129.85V34.45Z" fill="black"/>
<path id="Vector_362" d="M135.15 2.64999H129.85V7.95H135.15V2.64999Z" fill="black"/>
<path id="Vector_363" d="M135.15 34.45H129.85V39.75H135.15V34.45Z" fill="black"/>
<path id="Vector_364" d="M140.45 2.64999H135.15V7.95H140.45V2.64999Z" fill="black"/>
<path id="Vector_365" d="M140.45 34.45H135.15V39.75H140.45V34.45Z" fill="black"/>
<path id="Vector_366" d="M145.75 2.64999H140.45V7.95H145.75V2.64999Z" fill="black"/>
<path id="Vector_367" d="M145.75 34.45H140.45V39.75H145.75V34.45Z" fill="black"/>
<path id="Vector_368" d="M151.05 2.64999H145.75V7.95H151.05V2.64999Z" fill="black"/>
<path id="Vector_369" d="M151.05 34.45H145.75V39.75H151.05V34.45Z" fill="black"/>
<path id="Vector_370" d="M156.35 2.64999H151.05V7.95H156.35V2.64999Z" fill="black"/>
<path id="Vector_371" d="M156.35 7.94998H151.05V13.25H156.35V7.94998Z" fill="black"/>
<path id="Vector_372" d="M156.35 13.25H151.05V18.55H156.35V13.25Z" fill="black"/>
<path id="Vector_373" d="M156.35 18.55H151.05V23.85H156.35V18.55Z" fill="black"/>
<path id="Vector_374" d="M156.35 23.85H151.05V29.15H156.35V23.85Z" fill="black"/>
<path id="Vector_375" d="M156.35 29.15H151.05V34.45H156.35V29.15Z" fill="black"/>
<path id="Vector_376" d="M156.35 34.45H151.05V39.75H156.35V34.45Z" fill="black"/>
</g>
<g id="Group_5">
<path id="Vector_377" d="M135.15 13.25H129.85V18.55H135.15V13.25Z" fill="black"/>
<path id="Vector_378" d="M135.15 18.55H129.85V23.85H135.15V18.55Z" fill="black"/>
<path id="Vector_379" d="M135.15 23.85H129.85V29.15H135.15V23.85Z" fill="black"/>
<path id="Vector_380" d="M140.45 13.25H135.15V18.55H140.45V13.25Z" fill="black"/>
<path id="Vector_381" d="M140.45 18.55H135.15V23.85H140.45V18.55Z" fill="black"/>
<path id="Vector_382" d="M140.45 23.85H135.15V29.15H140.45V23.85Z" fill="black"/>
<path id="Vector_383" d="M145.75 13.25H140.45V18.55H145.75V13.25Z" fill="black"/>
<path id="Vector_384" d="M145.75 18.55H140.45V23.85H145.75V18.55Z" fill="black"/>
<path id="Vector_385" d="M145.75 23.85H140.45V29.15H145.75V23.85Z" fill="black"/>
</g>
<g id="Group_6">
<path id="Vector_386" d="M7.95 119.25H2.64999V124.55H7.95V119.25Z" fill="black"/>
<path id="Vector_387" d="M7.95 124.55H2.64999V129.85H7.95V124.55Z" fill="black"/>
<path id="Vector_388" d="M7.95 129.85H2.64999V135.15H7.95V129.85Z" fill="black"/>
<path id="Vector_389" d="M7.95 135.15H2.64999V140.45H7.95V135.15Z" fill="black"/>
<path id="Vector_390" d="M7.95 140.45H2.64999V145.75H7.95V140.45Z" fill="black"/>
<path id="Vector_391" d="M7.95 145.75H2.64999V151.05H7.95V145.75Z" fill="black"/>
<path id="Vector_392" d="M7.95 151.05H2.64999V156.35H7.95V151.05Z" fill="black"/>
<path id="Vector_393" d="M13.25 119.25H7.94998V124.55H13.25V119.25Z" fill="black"/>
<path id="Vector_394" d="M13.25 151.05H7.94998V156.35H13.25V151.05Z" fill="black"/>
<path id="Vector_395" d="M18.55 119.25H13.25V124.55H18.55V119.25Z" fill="black"/>
<path id="Vector_396" d="M18.55 151.05H13.25V156.35H18.55V151.05Z" fill="black"/>
<path id="Vector_397" d="M23.85 119.25H18.55V124.55H23.85V119.25Z" fill="black"/>
<path id="Vector_398" d="M23.85 151.05H18.55V156.35H23.85V151.05Z" fill="black"/>
<path id="Vector_399" d="M29.15 119.25H23.85V124.55H29.15V119.25Z" fill="black"/>
<path id="Vector_400" d="M29.15 151.05H23.85V156.35H29.15V151.05Z" fill="black"/>
<path id="Vector_401" d="M34.45 119.25H29.15V124.55H34.45V119.25Z" fill="black"/>
<path id="Vector_402" d="M34.45 151.05H29.15V156.35H34.45V151.05Z" fill="black"/>
<path id="Vector_403" d="M39.75 119.25H34.45V124.55H39.75V119.25Z" fill="black"/>
<path id="Vector_404" d="M39.75 124.55H34.45V129.85H39.75V124.55Z" fill="black"/>
<path id="Vector_405" d="M39.75 129.85H34.45V135.15H39.75V129.85Z" fill="black"/>
<path id="Vector_406" d="M39.75 135.15H34.45V140.45H39.75V135.15Z" fill="black"/>
<path id="Vector_407" d="M39.75 140.45H34.45V145.75H39.75V140.45Z" fill="black"/>
<path id="Vector_408" d="M39.75 145.75H34.45V151.05H39.75V145.75Z" fill="black"/>
<path id="Vector_409" d="M39.75 151.05H34.45V156.35H39.75V151.05Z" fill="black"/>
</g>
<g id="Group_7">
<path id="Vector_410" d="M18.55 129.85H13.25V135.15H18.55V129.85Z" fill="black"/>
<path id="Vector_411" d="M18.55 135.15H13.25V140.45H18.55V135.15Z" fill="black"/>
<path id="Vector_412" d="M18.55 140.45H13.25V145.75H18.55V140.45Z" fill="black"/>
<path id="Vector_413" d="M23.85 129.85H18.55V135.15H23.85V129.85Z" fill="black"/>
<path id="Vector_414" d="M23.85 135.15H18.55V140.45H23.85V135.15Z" fill="black"/>
<path id="Vector_415" d="M23.85 140.45H18.55V145.75H23.85V140.45Z" fill="black"/>
<path id="Vector_416" d="M29.15 129.85H23.85V135.15H29.15V129.85Z" fill="black"/>
<path id="Vector_417" d="M29.15 135.15H23.85V140.45H29.15V135.15Z" fill="black"/>
<path id="Vector_418" d="M29.15 140.45H23.85V145.75H29.15V140.45Z" fill="black"/>
</g>
</g>
</svg>
