<svg width="47" height="47" viewBox="0 0 47 47" fill="none" xmlns="http://www.w3.org/2000/svg">
<circle cx="23.5" cy="23.5" r="23" fill="white" stroke="url(#paint0_linear_18_16)"/>
<path d="M22.6363 23.422H19.6543V26.446H18.4643V23.422H15.4963V22.344H18.4643V19.306H19.6543V22.344H22.6363V23.422ZM30.345 20.286C30.1396 19.25 29.5003 18.732 28.427 18.732C27.5963 18.732 26.9756 19.054 26.565 19.698C26.1543 20.3327 25.9536 21.3827 25.963 22.848C26.1776 22.3627 26.5323 21.9847 27.027 21.714C27.531 21.434 28.091 21.294 28.707 21.294C29.6683 21.294 30.4336 21.5927 31.003 22.19C31.5816 22.7873 31.871 23.6133 31.871 24.668C31.871 25.3027 31.745 25.872 31.493 26.376C31.2503 26.88 30.877 27.2813 30.373 27.58C29.8783 27.8787 29.2763 28.028 28.567 28.028C27.6056 28.028 26.8543 27.8133 26.313 27.384C25.7716 26.9547 25.3936 26.362 25.179 25.606C24.9643 24.85 24.857 23.9167 24.857 22.806C24.857 19.3807 26.0516 17.668 28.441 17.668C29.3556 17.668 30.0743 17.9153 30.597 18.41C31.1196 18.9047 31.4276 19.53 31.521 20.286H30.345ZM28.441 22.372C28.0396 22.372 27.6616 22.456 27.307 22.624C26.9523 22.7827 26.663 23.03 26.439 23.366C26.2243 23.6927 26.117 24.094 26.117 24.57C26.117 25.2793 26.3223 25.858 26.733 26.306C27.1436 26.7447 27.7316 26.964 28.497 26.964C29.1503 26.964 29.6683 26.7633 30.051 26.362C30.443 25.9513 30.639 25.4007 30.639 24.71C30.639 23.982 30.4523 23.4127 30.079 23.002C29.7056 22.582 29.1596 22.372 28.441 22.372Z" fill="black"/>
<defs>
<linearGradient id="paint0_linear_18_16" x1="2" y1="5.35709e-07" x2="38.5" y2="50.5" gradientUnits="userSpaceOnUse">
<stop stop-color="#0F52BA"/>
<stop offset="1" stop-color="#8225AF"/>
</linearGradient>
</defs>
</svg>
