<svg width="2" height="14" viewBox="0 0 2 14" fill="none" xmlns="http://www.w3.org/2000/svg">
<g clip-path="url(#clip0_576_186)">
<path d="M0.874858 14C0.632671 14 0.426315 13.9138 0.255789 13.7413C0.085263 13.5688 0 13.3615 0 13.1193C0 12.8771 0.086234 12.6692 0.258702 12.4956C0.43117 12.322 0.638497 12.2352 0.880684 12.2352C1.12287 12.2352 1.32923 12.3224 1.49975 12.4968C1.67028 12.6712 1.75554 12.8808 1.75554 13.1256C1.75554 13.368 1.66931 13.5743 1.49684 13.7446C1.32437 13.9149 1.11705 14 0.874858 14ZM0.874858 7.87777C0.632671 7.87777 0.426315 7.79154 0.255789 7.61907C0.085263 7.4466 0 7.23927 0 6.99709C0 6.7549 0.086234 6.54854 0.258702 6.37802C0.43117 6.20749 0.638497 6.12223 0.880684 6.12223C1.12287 6.12223 1.32923 6.20846 1.49975 6.38093C1.67028 6.5534 1.75554 6.76073 1.75554 7.00291C1.75554 7.2451 1.66931 7.45146 1.49684 7.62198C1.32437 7.79251 1.11705 7.87777 0.874858 7.87777ZM0.874858 1.76479C0.632671 1.76479 0.426315 1.6776 0.255789 1.50322C0.085263 1.32884 0 1.11922 0 0.874354C0 0.632038 0.086234 0.42573 0.258702 0.255429C0.43117 0.0851437 0.638497 0 0.880684 0C1.12287 0 1.32923 0.0862348 1.49975 0.258703C1.67028 0.431171 1.75554 0.638498 1.75554 0.880685C1.75554 1.12287 1.66931 1.33077 1.49684 1.50438C1.32437 1.67798 1.11705 1.76479 0.874858 1.76479Z" fill="#0F52BA"/>
</g>
<defs>
<clipPath id="clip0_576_186">
<rect width="2" height="14" fill="white"/>
</clipPath>
</defs>
</svg>
