<svg width="14" height="14" viewBox="0 0 14 14" fill="none" xmlns="http://www.w3.org/2000/svg">
<g clip-path="url(#clip0_576_197)">
<path d="M7.0035 14C6.03565 14 5.12557 13.8163 4.27326 13.449C3.42093 13.0817 2.67953 12.5832 2.04905 11.9535C1.41858 11.3238 0.919454 10.5834 0.551672 9.73213C0.183891 8.88089 0 7.97135 0 7.0035C0 6.03565 0.183656 5.12557 0.550969 4.27326C0.918294 3.42094 1.4168 2.67954 2.04647 2.04907C2.67617 1.41859 3.41663 0.919455 4.26787 0.551673C5.11911 0.183891 6.02865 0 6.9965 0C7.96435 0 8.87443 0.183656 9.72674 0.550968C10.5791 0.918294 11.3205 1.4168 11.9509 2.04647C12.5814 2.67617 13.0805 3.41663 13.4483 4.26787C13.8161 5.11911 14 6.02865 14 6.9965C14 7.96435 13.8163 8.87443 13.449 9.72674C13.0817 10.5791 12.5832 11.3205 11.9535 11.951C11.3238 12.5814 10.5834 13.0805 9.73213 13.4483C8.88089 13.8161 7.97135 14 7.0035 14ZM7 13.5575C8.82878 13.5575 10.3789 12.9218 11.6503 11.6503C12.9218 10.3789 13.5575 8.82878 13.5575 7C13.5575 6.16023 13.4033 5.36024 13.0948 4.60005C12.7864 3.83986 12.3506 3.14464 11.7874 2.51437L2.51437 11.7874C3.13123 12.364 3.82193 12.8032 4.58647 13.1049C5.35101 13.4066 6.15552 13.5575 7 13.5575ZM2.21264 11.4856L11.4856 2.21264C10.8822 1.63602 10.1948 1.19684 9.42359 0.895115C8.65234 0.593391 7.84448 0.442529 7 0.442529C5.17122 0.442529 3.62111 1.07824 2.34967 2.34967C1.07824 3.62111 0.442529 5.17122 0.442529 7C0.442529 7.84448 0.596743 8.64899 0.905172 9.41353C1.2136 10.1781 1.64943 10.8688 2.21264 11.4856Z" fill="#0F52BA"/>
</g>
<defs>
<clipPath id="clip0_576_197">
<rect width="14" height="14" fill="white"/>
</clipPath>
</defs>
</svg>
