<svg width="22" height="24" viewBox="0 0 22 24" fill="none" xmlns="http://www.w3.org/2000/svg">
<g clip-path="url(#clip0_576_199)">
<path d="M1.81089 24C1.31853 24 0.893628 23.8213 0.536177 23.4638C0.178725 23.1064 0 22.6815 0 22.1891V4.00808C0 3.51572 0.178725 3.09082 0.536177 2.73337C0.893628 2.37592 1.31853 2.19719 1.81089 2.19719H4.1288V0H5.71028V2.19719H15.6821V0H17.2273V2.19719H19.5332C20.0255 2.19719 20.4504 2.37592 20.8079 2.73337C21.1653 3.09082 21.3441 3.51572 21.3441 4.00808V22.1891C21.3441 22.6815 21.1653 23.1064 20.8079 23.4638C20.4504 23.8213 20.0255 24 19.5332 24H1.81089ZM1.81089 22.5755H19.5332C19.6298 22.5755 19.7183 22.5352 19.7988 22.4547C19.8793 22.3742 19.9195 22.2857 19.9195 22.1891V9.71833H1.42453V22.1891C1.42453 22.2857 1.46477 22.3742 1.54525 22.4547C1.62575 22.5352 1.7143 22.5755 1.81089 22.5755ZM1.42453 8.29383H19.9195V4.00808C19.9195 3.91149 19.8793 3.82294 19.7988 3.74244C19.7183 3.66196 19.6298 3.62172 19.5332 3.62172H1.81089C1.7143 3.62172 1.62575 3.66196 1.54525 3.74244C1.46477 3.82294 1.42453 3.91149 1.42453 4.00808V8.29383ZM10.672 14.6801C10.3646 14.6801 10.1026 14.5718 9.88613 14.3553C9.66963 14.1388 9.56139 13.8769 9.56139 13.5694C9.56139 13.262 9.66963 13 9.88613 12.7835C10.1026 12.567 10.3646 12.4588 10.672 12.4588C10.9795 12.4588 11.2414 12.567 11.4579 12.7835C11.6744 13 11.7827 13.262 11.7827 13.5694C11.7827 13.8769 11.6744 14.1388 11.4579 14.3553C11.2414 14.5718 10.9795 14.6801 10.672 14.6801ZM5.64989 14.6801C5.34245 14.6801 5.08048 14.5718 4.86398 14.3553C4.64749 14.1388 4.53924 13.8769 4.53924 13.5694C4.53924 13.262 4.64749 13 4.86398 12.7835C5.08048 12.567 5.34245 12.4588 5.64989 12.4588C5.95732 12.4588 6.21929 12.567 6.43579 12.7835C6.65229 13 6.76053 13.262 6.76053 13.5694C6.76053 13.8769 6.65229 14.1388 6.43579 14.3553C6.21929 14.5718 5.95732 14.6801 5.64989 14.6801ZM15.6942 14.6801C15.3867 14.6801 15.1248 14.5718 14.9083 14.3553C14.6918 14.1388 14.5835 13.8769 14.5835 13.5694C14.5835 13.262 14.6918 13 14.9083 12.7835C15.1248 12.567 15.3867 12.4588 15.6942 12.4588C16.0016 12.4588 16.2636 12.567 16.4801 12.7835C16.6966 13 16.8048 13.262 16.8048 13.5694C16.8048 13.8769 16.6966 14.1388 16.4801 14.3553C16.2636 14.5718 16.0016 14.6801 15.6942 14.6801ZM10.672 19.6057C10.3646 19.6057 10.1026 19.4974 9.88613 19.2809C9.66963 19.0644 9.56139 18.8024 9.56139 18.495C9.56139 18.1876 9.66963 17.9256 9.88613 17.7091C10.1026 17.4926 10.3646 17.3843 10.672 17.3843C10.9795 17.3843 11.2414 17.4926 11.4579 17.7091C11.6744 17.9256 11.7827 18.1876 11.7827 18.495C11.7827 18.8024 11.6744 19.0644 11.4579 19.2809C11.2414 19.4974 10.9795 19.6057 10.672 19.6057ZM5.64989 19.6057C5.34245 19.6057 5.08048 19.4974 4.86398 19.2809C4.64749 19.0644 4.53924 18.8024 4.53924 18.495C4.53924 18.1876 4.64749 17.9256 4.86398 17.7091C5.08048 17.4926 5.34245 17.3843 5.64989 17.3843C5.95732 17.3843 6.21929 17.4926 6.43579 17.7091C6.65229 17.9256 6.76053 18.1876 6.76053 18.495C6.76053 18.8024 6.65229 19.0644 6.43579 19.2809C6.21929 19.4974 5.95732 19.6057 5.64989 19.6057ZM15.6942 19.6057C15.3867 19.6057 15.1248 19.4974 14.9083 19.2809C14.6918 19.0644 14.5835 18.8024 14.5835 18.495C14.5835 18.1876 14.6918 17.9256 14.9083 17.7091C15.1248 17.4926 15.3867 17.3843 15.6942 17.3843C16.0016 17.3843 16.2636 17.4926 16.4801 17.7091C16.6966 17.9256 16.8048 18.1876 16.8048 18.495C16.8048 18.8024 16.6966 19.0644 16.4801 19.2809C16.2636 19.4974 16.0016 19.6057 15.6942 19.6057Z" fill="#0F52BA"/>
</g>
<defs>
<clipPath id="clip0_576_199">
<rect width="22" height="24" fill="white"/>
</clipPath>
</defs>
</svg>
