<svg width="18" height="18" viewBox="0 0 18 18" fill="none" xmlns="http://www.w3.org/2000/svg">
<g clip-path="url(#clip0_576_204)">
<path d="M16.2643 17.3333C14.4343 17.3333 12.593 16.8635 10.7403 15.9239C8.88757 14.9843 7.21524 13.7701 5.72324 12.2813C4.23126 10.7924 3.01547 9.12324 2.07587 7.2737C1.13629 5.42417 0.666504 3.58441 0.666504 1.75441C0.666504 1.44362 0.770099 1.18463 0.97729 0.977437C1.18448 0.77023 1.44347 0.666626 1.75427 0.666626H4.56354C4.81439 0.666626 5.03318 0.747661 5.21991 0.909731C5.40663 1.0718 5.52773 1.29031 5.58323 1.56524L6.17158 4.20994C6.21068 4.45208 6.20501 4.67216 6.15456 4.87017C6.10411 5.06818 6.00753 5.23224 5.86482 5.36236L3.54577 7.63031C4.48915 9.19923 5.53532 10.5525 6.68427 11.6901C7.83323 12.8277 9.15748 13.8058 10.657 14.6243L12.8799 12.3182C13.0439 12.1378 13.2277 12.0123 13.4314 11.9417C13.635 11.8711 13.8466 11.8604 14.066 11.9095L16.4535 12.4355C16.7234 12.4908 16.9407 12.6188 17.1052 12.8194C17.2698 13.02 17.3521 13.2603 17.3521 13.5403V16.2455C17.3521 16.5563 17.2485 16.8153 17.0413 17.0225C16.8341 17.2297 16.5751 17.3333 16.2643 17.3333ZM2.97825 6.61822L5.00814 4.64886C5.03337 4.62362 5.05072 4.58894 5.06018 4.5448C5.06964 4.50065 5.07121 4.45966 5.0649 4.42183L4.52763 1.93412C4.52132 1.88367 4.50083 1.84584 4.46615 1.82062C4.43146 1.79539 4.38889 1.78277 4.33844 1.78277H1.91506C1.87722 1.78277 1.84569 1.79539 1.82047 1.82062C1.79524 1.84584 1.78262 1.87737 1.78262 1.91521C1.77002 2.56095 1.86682 3.27132 2.07302 4.04632C2.27923 4.82132 2.58097 5.67862 2.97825 6.61822ZM11.7032 15.1483C12.3754 15.4787 13.1113 15.736 13.9109 15.9201C14.7105 16.1043 15.4414 16.2064 16.1035 16.2266C16.1413 16.2266 16.1729 16.214 16.1981 16.1888C16.2233 16.1636 16.2359 16.132 16.2359 16.0942V13.6803C16.2359 13.6298 16.2233 13.5872 16.1981 13.5526C16.1729 13.5179 16.135 13.4974 16.0846 13.4911L13.8542 13.0314C13.8163 13.0251 13.7832 13.0266 13.7548 13.0361C13.7265 13.0456 13.6965 13.0629 13.665 13.0881L11.7032 15.1483Z" fill="#0F52BA"/>
</g>
<defs>
<clipPath id="clip0_576_204">
<rect width="18" height="18" fill="white"/>
</clipPath>
</defs>
</svg>
