<svg width="16" height="14" viewBox="0 0 16 14" fill="none" xmlns="http://www.w3.org/2000/svg">
<g clip-path="url(#clip0_576_206)">
<path d="M0.430701 12.7277V13.9998H7.29296H7.6021H15.2683V12.5968C15.2683 12.0766 15.0895 11.5664 14.7649 11.16C14.4403 10.7536 13.9822 10.4664 13.4749 10.3514L12.2467 10.0731L12.2468 9.56234C12.5203 9.44236 12.7722 9.27174 12.9898 9.0541C13.2594 8.7845 13.4639 8.45179 13.581 8.09223C13.6099 8.00437 13.6334 7.91502 13.652 7.82457C14.0566 7.77282 14.3704 7.42654 14.3704 7.00805C14.3704 6.78924 14.284 6.58196 14.1313 6.42834V4.54011C14.1313 3.41337 13.1649 2.45774 12.0032 2.41434V2.41227H11.9984C11.854 2.24001 11.6411 2.13901 11.4133 2.13867H11.4097C11.407 2.13867 11.4043 2.13867 11.4015 2.13867C10.6162 2.13867 9.87139 2.4502 9.30364 3.0164C8.72177 3.59669 8.40131 4.36387 8.40131 5.17664V6.43817C8.25468 6.59074 8.17158 6.7945 8.17158 7.00805C8.17158 7.42648 8.4853 7.77269 8.88985 7.82457C8.9084 7.91496 8.93192 8.00424 8.96074 8.09198C9.18341 8.77337 9.68463 9.30235 10.3144 9.57106V10.0731L9.08628 10.3515C8.68034 10.4435 8.30609 10.646 8.00631 10.9314C8.01086 10.8785 8.0137 10.8253 8.0137 10.772C8.0137 10.1948 7.75445 9.65728 7.30236 9.29706C7.15564 9.18033 7.07149 9.00705 7.07149 8.82169V5.67536C7.07149 4.84509 6.74423 4.06316 6.15002 3.47365C5.56672 2.89493 4.80013 2.58053 3.99196 2.58616C3.185 2.59253 2.42639 2.91027 1.85589 3.4808C1.27878 4.05763 0.960948 4.82484 0.960948 5.64104V8.80716C0.960948 8.99493 0.875129 9.16969 0.725533 9.28655C0.264443 9.64621 0 10.1876 0 10.772C0 11.2614 0.19269 11.7335 0.531761 12.0831C0.466222 12.2866 0.430701 12.5033 0.430701 12.7277ZM7.29296 13.6907H0.739847V12.7277C0.739847 11.8963 1.30614 11.1873 2.11697 11.0036L3.44441 10.7027L3.44444 10.109C3.62489 10.153 3.81312 10.1769 4.00693 10.1769C4.20744 10.1769 4.40214 10.1517 4.58831 10.1046L4.58828 10.7027L5.91578 11.0036C6.24975 11.0793 6.54204 11.2442 6.77053 11.47C6.23791 11.7437 5.64549 11.8881 5.04519 11.8881H1.36945V12.1972H5.04519C5.71836 12.1972 6.38262 12.0299 6.97488 11.7123C7.17678 12.001 7.2929 12.3518 7.2929 12.7277L7.29296 13.6907ZM1.94143 8.97144C2.05338 9.16846 2.19258 9.34795 2.35408 9.50474V9.80774C2.35408 10.079 2.38796 10.3481 2.45393 10.6102L2.07437 10.6962C1.98623 10.4108 1.94143 10.1154 1.94143 9.81618V8.97144ZM2.75544 10.5418C2.69445 10.3022 2.66326 10.056 2.66326 9.80774V9.75864C2.80961 9.85949 2.96789 9.94401 3.13535 10.0104V10.4557L2.75544 10.5418ZM6.02021 10.5555C6.01192 10.605 6.00252 10.6546 5.99226 10.7041C5.98954 10.7034 5.98688 10.7027 5.98413 10.7021L5.57528 10.6094C5.64113 10.3476 5.67495 10.0788 5.67495 9.80777V9.49034C5.83005 9.33709 5.96385 9.16252 6.07233 8.97168V9.92614C6.07233 10.1365 6.05477 10.3482 6.02021 10.5555ZM5.36581 9.80774C5.36581 10.0557 5.33461 10.3017 5.27377 10.541L4.89745 10.4557V10.0029C5.06377 9.93535 5.22063 9.84953 5.36578 9.74786L5.36581 9.80774ZM13.6957 7.50024C13.6994 7.44549 13.7016 7.39056 13.7016 7.33538V7.27117C13.857 7.2132 13.9838 7.0982 14.0583 6.9533C14.0603 6.97139 14.0613 6.98963 14.0613 7.00802C14.0613 7.23997 13.907 7.43631 13.6957 7.50024ZM13.8222 4.54011V6.65498C13.8222 6.75829 13.7757 6.85289 13.7016 6.91747V6.74528C13.7016 6.48619 13.6246 6.23599 13.4787 6.02154C13.4242 5.94175 13.3819 5.85361 13.3529 5.7596C13.3242 5.66661 13.3097 5.56994 13.3097 5.47222V5.15163C13.3097 4.66736 12.9155 4.27335 12.4322 4.27335L12.0766 4.27076C12.1428 4.08042 12.1772 3.8786 12.1772 3.67639V2.90353C12.1772 2.84702 12.1711 2.79122 12.1591 2.73693C13.082 2.85301 13.8222 3.63138 13.8222 4.54011ZM8.71045 5.17661C8.71045 4.44657 8.99864 3.75711 9.52196 3.23524C10.0314 2.72722 10.6986 2.44776 11.402 2.44776C11.4044 2.44776 11.4069 2.44776 11.4093 2.44776H11.4131C11.566 2.44797 11.7079 2.52442 11.7928 2.65222C11.842 2.72651 11.8681 2.81338 11.8681 2.90344V3.6763C11.8681 3.91453 11.8136 4.14234 11.7063 4.3533C11.4494 4.85711 10.939 5.17009 10.3743 5.17009C9.96422 5.17009 9.579 5.3297 9.28964 5.6194C8.99991 5.9092 8.84032 6.29427 8.84032 6.70376V6.89058C8.75942 6.81428 8.71048 6.70642 8.71048 6.58845L8.71045 5.17661ZM8.48076 7.00805C8.48076 6.98212 8.48342 6.95655 8.48725 6.93123C8.56373 7.07406 8.6869 7.18918 8.84032 7.25453V7.33541C8.84032 7.39056 8.84255 7.44553 8.84623 7.50021C8.63502 7.43619 8.48076 7.23991 8.48076 7.00805ZM9.25458 7.99568C9.18484 7.78351 9.14947 7.56136 9.14947 7.33541V6.70382C9.14947 6.3769 9.27687 6.06946 9.5083 5.838C9.73935 5.6067 10.0469 5.4793 10.3743 5.4793C11.0234 5.4793 11.613 5.1367 11.9355 4.57882L12.431 4.58247C12.745 4.58247 13.0005 4.83779 13.0005 5.1516V5.47219C13.0005 5.60082 13.0196 5.72816 13.0574 5.85067C13.0956 5.97433 13.1514 6.09048 13.2232 6.19568C13.334 6.35838 13.3925 6.54842 13.3925 6.74525V7.33541C13.3925 7.56136 13.3571 7.78351 13.2873 7.99608C13.185 8.3099 13.0066 8.60021 12.7713 8.83551C12.3705 9.23631 11.8377 9.45704 11.2712 9.45704C10.3506 9.45704 9.54023 8.86985 9.25458 7.99568ZM11.2711 9.76619C11.4998 9.76619 11.7235 9.73416 11.9377 9.67341V10.1029L11.2807 10.4457L10.6236 10.1029V9.67885C10.8308 9.7358 11.0481 9.76619 11.2711 9.76619ZM9.15469 10.653L10.4478 10.3599L11.2806 10.7944L12.1134 10.3599L13.4066 10.653C14.3207 10.8602 14.9591 11.6595 14.9591 12.5968V13.6907H13.6455V12.7897H13.3363V13.6907H9.18626V12.7897H8.87711V13.6907H7.6021V12.7277V12.5968C7.6021 11.6595 8.24055 10.8602 9.15469 10.653ZM0.309269 10.772C0.309269 10.2835 0.530308 9.83095 0.915874 9.53019C1.14106 9.35431 1.27022 9.09074 1.27022 8.80713V5.64101C1.27022 4.90741 1.55587 4.21786 2.07461 3.69939C2.58742 3.18658 3.26928 2.90099 3.99453 2.89527C4.7196 2.88844 5.40807 3.17286 5.93241 3.69309C6.46766 4.22411 6.76246 4.92809 6.76246 5.67536V8.82169C6.76246 9.1018 6.88915 9.36325 7.10991 9.5389C7.48791 9.84004 7.70465 10.2895 7.70465 10.772C7.70465 11.1346 7.58405 11.4757 7.36174 11.753C7.13418 11.3222 6.75783 10.9798 6.28882 10.796C6.30236 10.733 6.31457 10.6696 6.32515 10.6064C6.36252 10.3824 6.38147 10.1535 6.38147 9.92611V7.36555C6.38147 6.42062 5.77648 5.59504 4.87603 5.31125L4.7831 5.60608C5.55423 5.84913 6.07233 6.55621 6.07233 7.36555V7.80231C6.07233 8.94117 5.14582 9.86771 4.00696 9.86771C2.8681 9.86771 1.94156 8.94117 1.94156 7.80231L1.94143 7.40793C1.94143 6.73202 2.33454 6.11184 2.94449 5.82263L2.96177 5.81469C3.69049 5.47905 4.16138 4.74344 4.16138 3.94065V3.67618H3.85223V3.94065C3.85223 4.61653 3.45962 5.23643 2.85035 5.52552L2.83214 5.53389C2.10327 5.86987 1.63229 6.60548 1.63229 7.4079V9.81615C1.63229 10.1449 1.68135 10.4693 1.77768 10.7828C1.28802 10.965 0.89612 11.3189 0.663952 11.7664C0.43673 11.4874 0.309269 11.1355 0.309269 10.772Z" fill="#0F52BA"/>
<path d="M3.73774 8.66199L3.45874 8.79508C3.5607 9.00879 3.7796 9.14688 4.01644 9.14688C4.25306 9.14688 4.47193 9.00882 4.57408 8.7952L4.29519 8.66187C4.24412 8.76867 4.13472 8.83771 4.01644 8.83771C3.89807 8.83771 3.78866 8.76874 3.73774 8.66199Z" fill="#0F52BA"/>
<path d="M3.14152 7.19873C3.0596 7.19873 2.99316 7.26514 2.99316 7.34709V7.52516C2.99316 7.60708 3.05957 7.67352 3.14152 7.67352C3.22342 7.67352 3.28985 7.60711 3.28985 7.52516V7.34709C3.28985 7.26514 3.22342 7.19873 3.14152 7.19873Z" fill="#0F52BA"/>
<path d="M4.87224 7.67352C4.95413 7.67352 5.02056 7.60711 5.02056 7.52516V7.34709C5.02056 7.26517 4.95416 7.19873 4.87224 7.19873C4.79031 7.19873 4.72388 7.26513 4.72388 7.34709V7.52516C4.72388 7.60711 4.79031 7.67352 4.87224 7.67352Z" fill="#0F52BA"/>
<path d="M11.8491 8.33991L11.5702 8.20654C11.5172 8.31746 11.4036 8.38909 11.2809 8.38909C11.158 8.38909 11.0445 8.3175 10.9917 8.20667L10.7126 8.33982C10.8166 8.55755 11.0396 8.69827 11.2809 8.69827C11.522 8.69824 11.745 8.55758 11.8491 8.33991Z" fill="#0F52BA"/>
<path d="M10.3838 6.70483C10.2998 6.70483 10.2317 6.77294 10.2317 6.85693V7.03951C10.2317 7.12351 10.2998 7.19161 10.3838 7.19161C10.4678 7.19161 10.5359 7.12351 10.5359 7.03951V6.85693C10.5359 6.77294 10.4678 6.70483 10.3838 6.70483Z" fill="#0F52BA"/>
<path d="M12.1582 7.19161C12.2423 7.19161 12.3103 7.12351 12.3103 7.03951V6.85693C12.3103 6.77294 12.2423 6.70483 12.1582 6.70483C12.0742 6.70483 12.0061 6.77294 12.0061 6.85693V7.03951C12.0061 7.12351 12.0742 7.19161 12.1582 7.19161Z" fill="#0F52BA"/>
<path d="M8.55095 0.00507645C8.25442 -0.024076 7.95866 0.0733048 7.73939 0.272116C7.66448 0.340036 7.60052 0.417817 7.54867 0.502646C7.49686 0.417817 7.43287 0.340036 7.35796 0.272085C7.13872 0.0733048 6.8429 -0.0240451 6.54639 0.00507645C6.07702 0.0511391 5.69451 0.406996 5.61624 0.870436C5.60752 0.922064 5.60248 0.974835 5.60131 1.0273C5.59614 1.25953 5.6776 1.49309 5.83063 1.68494L6.03343 1.93918L7.24744 3.25852C7.32185 3.34895 7.43129 3.4007 7.54871 3.4007C7.66612 3.4007 7.77559 3.34895 7.85 3.25852L9.05684 1.9475L9.26675 1.68497C9.41981 1.49309 9.50124 1.25953 9.49607 1.0273C9.49493 0.97502 9.48989 0.922249 9.48117 0.870436C9.40284 0.406996 9.02033 0.05117 8.55095 0.00507645ZM9.02506 1.49222L8.82569 1.74216L7.61931 3.05269L7.6122 3.06101C7.59097 3.0876 7.56333 3.09158 7.54871 3.09158C7.53411 3.09158 7.50648 3.08763 7.48524 3.06104L6.27169 1.7422L6.07232 1.49225C5.96437 1.35688 5.90683 1.1942 5.91039 1.03428C5.91122 0.996753 5.91487 0.958976 5.92112 0.922033C5.97621 0.595792 6.24578 0.345291 6.57663 0.3128C6.78954 0.29184 6.99333 0.358801 7.15037 0.501193C7.30532 0.641669 7.39416 0.842088 7.39416 1.05107V1.2637H7.70331V1.05107C7.70331 0.842088 7.79216 0.641669 7.9471 0.501193C8.10415 0.358832 8.30794 0.291871 8.52084 0.3128C8.85169 0.34526 9.12127 0.595792 9.17639 0.922002C9.18263 0.959099 9.18622 0.996846 9.18708 1.03425C9.19058 1.19417 9.13304 1.35681 9.02506 1.49222Z" fill="#0F52BA"/>
</g>
<defs>
<clipPath id="clip0_576_206">
<rect width="16" height="14" fill="white"/>
</clipPath>
</defs>
</svg>
