<svg width="24" height="22" viewBox="0 0 24 22" fill="none" xmlns="http://www.w3.org/2000/svg">
<g clip-path="url(#clip0_576_221)">
<path d="M15.2668 0.166992H5.66683C4.7815 0.166992 4.02416 0.700325 3.70416 1.46833L0.482829 8.98833C0.386829 9.23366 0.333496 9.48966 0.333496 9.76699V11.9003C0.333496 13.0737 1.2935 14.0337 2.46683 14.0337H9.1975L8.18416 18.9083L8.15216 19.2497C8.15216 19.687 8.3335 20.0923 8.6215 20.3803L9.75216 21.5003L16.7815 14.471C17.1655 14.087 17.4002 13.5537 17.4002 12.967V2.30033C17.4002 1.12699 16.4402 0.166992 15.2668 0.166992ZM15.2668 12.967L10.6375 17.5963L12.0668 11.9003H2.46683V9.76699L5.66683 2.30033H15.2668V12.967ZM19.5335 0.166992H23.8002V12.967H19.5335V0.166992Z" fill="#0F52BA"/>
</g>
<defs>
<clipPath id="clip0_576_221">
<rect width="24" height="22" fill="white"/>
</clipPath>
</defs>
</svg>
