<svg width="32" height="32" viewBox="0 0 32 32" fill="none" xmlns="http://www.w3.org/2000/svg">
<path d="M8.86641 24.9333C8.3603 24.9333 7.93377 24.7599 7.58684 24.4129C7.23988 24.066 7.06641 23.6395 7.06641 23.1333V19.9667H7.79974V23.1333C7.79974 23.4 7.91085 23.6445 8.13307 23.8667C8.3553 24.0889 8.59974 24.2 8.86641 24.2H23.1331C23.3997 24.2 23.6442 24.0889 23.8664 23.8667C24.0886 23.6445 24.1997 23.4 24.1997 23.1333V19.9667H24.9331V23.1333C24.9331 23.6395 24.7596 24.066 24.4127 24.4129C24.0657 24.7599 23.6392 24.9333 23.1331 24.9333H8.86641ZM15.9997 20.0667L11.9331 16L12.4664 15.5L15.6331 18.6333V6.46667H16.3664V18.6333L19.5331 15.5L20.0664 16L15.9997 20.0667Z" fill="#0F52BA"/>
</svg>
