<svg width="18" height="18" viewBox="0 0 18 18" fill="none" xmlns="http://www.w3.org/2000/svg">
<g clip-path="url(#clip0_576_237)">
<path d="M15.5743 0H2.42554C1.08598 0 0 1.08593 0 2.42554V15.5744C0 16.914 1.08593 17.9999 2.42554 17.9999H8.91044L8.92149 11.5677H7.25041C7.03324 11.5677 6.85698 11.3921 6.85614 11.1749L6.84813 9.10158C6.84729 8.88323 7.02408 8.70577 7.24244 8.70577H8.91048V6.70238C8.91048 4.37746 10.3304 3.11152 12.4044 3.11152H14.1062C14.324 3.11152 14.5006 3.28805 14.5006 3.50583V5.2541C14.5006 5.4718 14.3241 5.64828 14.1065 5.64841L13.0621 5.6489C11.9342 5.6489 11.7158 6.18486 11.7158 6.97142V8.70582H14.1941C14.4303 8.70582 14.6135 8.91202 14.5857 9.14654L14.3399 11.2199C14.3164 11.4183 14.1482 11.5678 13.9484 11.5678H11.7268L11.7158 18H15.5744C16.9139 18 17.9999 16.9141 17.9999 15.5745V2.42554C17.9998 1.08593 16.9139 0 15.5743 0Z" fill="#475993"/>
</g>
<defs>
<clipPath id="clip0_576_237">
<rect width="18" height="18" fill="white"/>
</clipPath>
</defs>
</svg>
