<svg width="18" height="18" viewBox="0 0 18 18" fill="none" xmlns="http://www.w3.org/2000/svg">
<g clip-path="url(#clip0_576_239)">
<path d="M17.64 9.20009C17.64 8.4601 17.58 7.9201 17.45 7.36011H9V10.7001H13.96C13.86 11.5301 13.32 12.7801 12.12 13.6201L12.1032 13.7319L14.7749 15.8016L14.96 15.8201C16.66 14.2501 17.64 11.9401 17.64 9.20009Z" fill="#4285F4"/>
<path d="M8.99998 18C11.4299 18 13.4699 17.2 14.96 15.82L12.12 13.62C11.36 14.15 10.34 14.52 8.99998 14.52C6.62 14.52 4.60001 12.95 3.87995 10.78L3.7744 10.789L0.996292 12.939L0.959961 13.04C2.43995 15.98 5.47995 18 8.99998 18Z" fill="#34A853"/>
<path d="M3.87996 10.7801C3.68997 10.2201 3.58001 9.62004 3.58001 9.00008C3.58001 8.38004 3.68997 7.78006 3.86997 7.22007L3.86493 7.1008L1.05201 4.91626L0.959977 4.96004C0.350004 6.18005 0 7.55008 0 9.00008C0 10.4501 0.350004 11.82 0.959977 13.04L3.87996 10.7801Z" fill="#FBBC05"/>
<path d="M8.99998 3.47998C10.69 3.47998 11.8299 4.20997 12.48 4.82002L15.02 2.34C13.46 0.890004 11.4299 0 8.99998 0C5.47995 0 2.43995 2.01998 0.959961 4.95996L3.86995 7.21999C4.60001 5.05 6.62 3.47998 8.99998 3.47998Z" fill="#EB4335"/>
</g>
<defs>
<clipPath id="clip0_576_239">
<rect width="18" height="18" fill="white"/>
</clipPath>
</defs>
</svg>
