<svg width="18" height="18" viewBox="0 0 18 18" fill="none" xmlns="http://www.w3.org/2000/svg">
<g clip-path="url(#clip0_576_248)">
<path d="M1.67574 8.50233H4.81512C4.72965 7.77246 4.52778 7.07435 4.2095 6.40802C3.89124 5.74169 3.48863 5.16785 3.00167 4.68651C2.62605 5.22633 2.31707 5.81563 2.07471 6.4544C1.83236 7.09319 1.69937 7.77583 1.67574 8.50233ZM13.1855 8.50233H16.3249C16.3013 7.78145 16.1683 7.10302 15.9259 6.46706C15.6836 5.83109 15.3746 5.2432 14.999 4.70339C14.4625 5.22858 14.0475 5.81057 13.754 6.44936C13.4605 7.08813 13.271 7.77246 13.1855 8.50233ZM3.00167 13.283C3.52125 12.7578 3.93201 12.1781 4.23397 11.5438C4.53593 10.9095 4.72965 10.2275 4.81512 9.49759H1.67574C1.70498 10.2241 1.83938 10.9017 2.07893 11.5303C2.31847 12.159 2.62605 12.7432 3.00167 13.283ZM14.999 13.283C15.3746 12.7432 15.6836 12.1576 15.9259 11.5261C16.1683 10.8946 16.3013 10.2185 16.3249 9.49759H13.1855C13.271 10.2275 13.4605 10.9095 13.754 11.5438C14.0475 12.1781 14.4625 12.7578 14.999 13.283ZM5.81543 8.50233H8.50269V1.67538C7.5569 1.7496 6.67465 1.98212 5.85593 2.37292C5.0372 2.76373 4.30789 3.28583 3.66799 3.93922C4.27303 4.53864 4.75998 5.23028 5.12885 6.01414C5.49772 6.79799 5.72658 7.62738 5.81543 8.50233ZM9.49796 8.50233H12.1852C12.2741 7.62738 12.5038 6.79658 12.8743 6.00991C13.2449 5.22325 13.7355 4.53303 14.3462 3.93922C13.7119 3.28583 12.9817 2.76373 12.1557 2.37292C11.3297 1.98212 10.4437 1.7496 9.49796 1.67538V8.50233ZM8.50269 16.3245V9.49759H5.81543C5.72658 10.3838 5.49913 11.2123 5.13308 11.9833C4.76701 12.7542 4.27865 13.4365 3.66799 14.0303C4.30789 14.6837 5.02173 15.2109 5.80953 15.6118C6.59732 16.0127 7.49504 16.2503 8.50269 16.3245ZM9.49796 16.3245C10.5 16.2503 11.3999 16.0155 12.1979 15.6202C12.9958 15.2249 13.7119 14.7006 14.3462 14.0472C13.7355 13.4534 13.2449 12.7682 12.8743 11.9917C12.5038 11.2151 12.2741 10.3838 12.1852 9.49759H9.49796V16.3245ZM9.00033 17.3333C7.84873 17.3333 6.76601 17.1143 5.75218 16.6762C4.73835 16.2382 3.85638 15.6441 3.10627 14.894C2.35616 14.1439 1.76208 13.2619 1.32406 12.2481C0.886013 11.2343 0.666992 10.1516 0.666992 8.99996C0.666992 7.84836 0.886013 6.76565 1.32406 5.75182C1.76208 4.73798 2.35616 3.85601 3.10627 3.10591C3.85638 2.35579 4.73835 1.76172 5.75218 1.32369C6.76601 0.885648 7.84873 0.666626 9.00033 0.666626C10.1519 0.666626 11.2346 0.885648 12.2485 1.32369C13.2623 1.76172 14.1443 2.35579 14.8944 3.10591C15.6445 3.85601 16.2386 4.73798 16.6766 5.75182C17.1146 6.76565 17.3337 7.84836 17.3337 8.99996C17.3337 10.1516 17.1146 11.2343 16.6766 12.2481C16.2386 13.2619 15.6445 14.1439 14.8944 14.894C14.1443 15.6441 13.2623 16.2382 12.2485 16.6762C11.2346 17.1143 10.1519 17.3333 9.00033 17.3333Z" fill="#0F52BA"/>
</g>
<defs>
<clipPath id="clip0_576_248">
<rect width="18" height="18" fill="white"/>
</clipPath>
</defs>
</svg>
