<svg width="14" height="18" viewBox="0 0 14 18" fill="none" xmlns="http://www.w3.org/2000/svg">
<g clip-path="url(#clip0_576_250)">
<path d="M7.14036 8.71754C7.53329 8.71754 7.86829 8.57763 8.14536 8.29783C8.42244 8.01802 8.56099 7.68165 8.56099 7.28874C8.56099 6.8958 8.42108 6.56081 8.14126 6.28374C7.86145 6.00665 7.52508 5.86811 7.13216 5.86811C6.73923 5.86811 6.40423 6.00802 6.12717 6.28784C5.85008 6.56765 5.71154 6.90402 5.71154 7.29693C5.71154 7.68986 5.85145 8.02486 6.13126 8.30193C6.41108 8.579 6.74745 8.71754 7.14036 8.71754ZM7.13626 16.0148C8.96732 14.3816 10.3623 12.8242 11.3211 11.3428C12.2799 9.86127 12.7593 8.56694 12.7593 7.45975C12.7593 5.7675 12.2218 4.37664 11.1469 3.28717C10.072 2.19769 8.73512 1.65295 7.13626 1.65295C5.5374 1.65295 4.20052 2.19769 3.12563 3.28717C2.05071 4.37664 1.51326 5.7675 1.51326 7.45975C1.51326 8.56694 2.00081 9.86127 2.97592 11.3428C3.95103 12.8242 5.33781 14.3816 7.13626 16.0148ZM7.13626 17.3333C4.92978 15.4213 3.2752 13.642 2.17251 11.9953C1.06983 10.3485 0.518494 8.8367 0.518494 7.45975C0.518494 5.43649 1.17297 3.79849 2.48191 2.54575C3.79085 1.293 5.3423 0.666626 7.13626 0.666626C8.93023 0.666626 10.4817 1.293 11.7906 2.54575C13.0996 3.79849 13.754 5.43649 13.754 7.45975C13.754 8.8367 13.2027 10.3485 12.1 11.9953C10.9973 13.642 9.34274 15.4213 7.13626 17.3333Z" fill="#0F52BA"/>
</g>
<defs>
<clipPath id="clip0_576_250">
<rect width="14" height="18" fill="white"/>
</clipPath>
</defs>
</svg>
