<svg width="26" height="20" viewBox="0 0 26 20" fill="none" xmlns="http://www.w3.org/2000/svg">
<g clip-path="url(#clip0_576_254)">
<path d="M2.01493 20C1.44838 20 0.970933 19.8058 0.582575 19.4174C0.194192 19.0291 0 18.5516 0 17.9851V2.01493C0 1.44838 0.194192 0.97092 0.582575 0.582537C0.970933 0.194179 1.44838 0 2.01493 0H23.9552C24.5218 0 24.9992 0.194179 25.3876 0.582537C25.776 0.97092 25.9701 1.44838 25.9701 2.01493V17.9851C25.9701 18.5516 25.776 19.0291 25.3876 19.4174C24.9992 19.8058 24.5218 20 23.9552 20H2.01493ZM12.9851 9.51493L0.820895 1.34328V17.9851C0.820895 18.3333 0.932836 18.6194 1.15672 18.8433C1.3806 19.0672 1.66667 19.1791 2.01493 19.1791H23.9552C24.3035 19.1791 24.5896 19.0672 24.8134 18.8433C25.0373 18.6194 25.1493 18.3333 25.1493 17.9851V1.34328L12.9851 9.51493ZM12.9851 8.47015L24.5149 0.820895H1.49254L12.9851 8.47015ZM0.820895 1.34328V0.820895V17.9851C0.820895 18.3333 0.932836 18.6194 1.15672 18.8433C1.3806 19.0672 1.66667 19.1791 2.01493 19.1791H0.820895V1.34328Z" fill="#0F52BA"/>
</g>
<defs>
<clipPath id="clip0_576_254">
<rect width="26" height="20" fill="white"/>
</clipPath>
</defs>
</svg>
