<svg width="23" height="14" viewBox="0 0 23 14" fill="none" xmlns="http://www.w3.org/2000/svg">
<g clip-path="url(#clip0_576_256)">
<path d="M0 13.9324V13.1884H12.4444V13.9324H0ZM0 7.47343V6.72947H5.68116V7.47343H0ZM0 1.01449V0.270531H5.68116V1.01449H0ZM22.4541 14L17.2464 8.79227C16.7955 9.17552 16.2939 9.47423 15.7415 9.68841C15.1892 9.90258 14.6087 10.0097 14 10.0097C12.6023 10.0097 11.4187 9.52496 10.4493 8.55556C9.47987 7.58615 8.99517 6.40258 8.99517 5.00483C8.99517 3.60709 9.47987 2.42351 10.4493 1.45411C11.4187 0.484702 12.6023 0 14 0C15.3977 0 16.5813 0.484702 17.5507 1.45411C18.5201 2.42351 19.0048 3.60709 19.0048 5.00483C19.0048 5.61353 18.8977 6.19404 18.6836 6.74638C18.4694 7.29871 18.1707 7.80032 17.7874 8.25121L22.9952 13.4589L22.4541 14ZM13.9881 9.2657C15.1683 9.2657 16.1755 8.85261 17.0097 8.02643C17.8438 7.20025 18.2609 6.19703 18.2609 5.01677C18.2609 3.83651 17.8478 2.82931 17.0216 1.99517C16.1954 1.16103 15.1922 0.743961 14.0119 0.743961C12.8317 0.743961 11.8245 1.15705 10.9903 1.98323C10.1562 2.80941 9.73913 3.81263 9.73913 4.99289C9.73913 6.17315 10.1522 7.18035 10.9784 8.01449C11.8046 8.84863 12.8078 9.2657 13.9881 9.2657Z" fill="#0F52BA"/>
</g>
<defs>
<clipPath id="clip0_576_256">
<rect width="23" height="14" fill="white"/>
</clipPath>
</defs>
</svg>
