<svg width="20" height="20" viewBox="0 0 20 20" fill="none" xmlns="http://www.w3.org/2000/svg">
<g clip-path="url(#clip0_576_258)">
<path d="M1.48288 20C1.07718 20 0.728608 19.8542 0.437165 19.5625C0.145722 19.2708 0 18.922 0 18.516C0 18.1099 0.145722 17.7611 0.437165 17.4694C0.728608 17.1777 1.07718 17.0319 1.48288 17.0319C1.88861 17.0319 2.2372 17.1777 2.52864 17.4694C2.82006 17.7611 2.96577 18.1099 2.96577 18.516C2.96577 18.922 2.82006 19.2708 2.52864 19.5625C2.2372 19.8542 1.88861 20 1.48288 20ZM9.99222 20C9.58652 20 9.23795 19.8542 8.9465 19.5625C8.65506 19.2708 8.50934 18.922 8.50934 18.516C8.50934 18.1099 8.65506 17.7611 8.9465 17.4694C9.23795 17.1777 9.58652 17.0319 9.99222 17.0319C10.3979 17.0319 10.7465 17.1777 11.0379 17.4694C11.3294 17.7611 11.4751 18.1099 11.4751 18.516C11.4751 18.922 11.3294 19.2708 11.0379 19.5625C10.7465 19.8542 10.3979 20 9.99222 20ZM18.5016 20C18.0958 20 17.7473 19.8542 17.4558 19.5625C17.1644 19.2708 17.0187 18.922 17.0187 18.516C17.0187 18.1099 17.1644 17.7611 17.4558 17.4694C17.7473 17.1777 18.0958 17.0319 18.5016 17.0319C18.9073 17.0319 19.2558 17.1777 19.5473 17.4694C19.8387 17.7611 19.9844 18.1099 19.9844 18.516C19.9844 18.922 19.8387 19.2708 19.5473 19.5625C19.2558 19.8542 18.9073 20 18.5016 20ZM1.48288 11.484C1.07718 11.484 0.728608 11.3382 0.437165 11.0465C0.145722 10.7549 0 10.406 0 10C0 9.59398 0.145722 9.24514 0.437165 8.95347C0.728608 8.6618 1.07718 8.51596 1.48288 8.51596C1.88861 8.51596 2.2372 8.6618 2.52864 8.95347C2.82006 9.24514 2.96577 9.59398 2.96577 10C2.96577 10.406 2.82006 10.7549 2.52864 11.0465C2.2372 11.3382 1.88861 11.484 1.48288 11.484ZM9.99222 11.484C9.58652 11.484 9.23795 11.3382 8.9465 11.0465C8.65506 10.7549 8.50934 10.406 8.50934 10C8.50934 9.59398 8.65506 9.24514 8.9465 8.95347C9.23795 8.6618 9.58652 8.51596 9.99222 8.51596C10.3979 8.51596 10.7465 8.6618 11.0379 8.95347C11.3294 9.24514 11.4751 9.59398 11.4751 10C11.4751 10.406 11.3294 10.7549 11.0379 11.0465C10.7465 11.3382 10.3979 11.484 9.99222 11.484ZM18.5016 11.484C18.0958 11.484 17.7473 11.3382 17.4558 11.0465C17.1644 10.7549 17.0187 10.406 17.0187 10C17.0187 9.59398 17.1644 9.24514 17.4558 8.95347C17.7473 8.6618 18.0958 8.51596 18.5016 8.51596C18.9073 8.51596 19.2558 8.6618 19.5473 8.95347C19.8387 9.24514 19.9844 9.59398 19.9844 10C19.9844 10.406 19.8387 10.7549 19.5473 11.0465C19.2558 11.3382 18.9073 11.484 18.5016 11.484ZM1.48288 2.96808C1.07718 2.96808 0.728608 2.82225 0.437165 2.53061C0.145722 2.23894 0 1.89008 0 1.48404C0 1.07802 0.145722 0.729175 0.437165 0.437505C0.728608 0.145835 1.07718 0 1.48288 0C1.88861 0 2.2372 0.145835 2.52864 0.437505C2.82006 0.729175 2.96577 1.07802 2.96577 1.48404C2.96577 1.89008 2.82006 2.23894 2.52864 2.53061C2.2372 2.82225 1.88861 2.96808 1.48288 2.96808ZM9.99222 2.96808C9.58652 2.96808 9.23795 2.82225 8.9465 2.53061C8.65506 2.23894 8.50934 1.89008 8.50934 1.48404C8.50934 1.07802 8.65506 0.729175 8.9465 0.437505C9.23795 0.145835 9.58652 0 9.99222 0C10.3979 0 10.7465 0.145835 11.0379 0.437505C11.3294 0.729175 11.4751 1.07802 11.4751 1.48404C11.4751 1.89008 11.3294 2.23894 11.0379 2.53061C10.7465 2.82225 10.3979 2.96808 9.99222 2.96808ZM18.5016 2.96808C18.0958 2.96808 17.7473 2.82225 17.4558 2.53061C17.1644 2.23894 17.0187 1.89008 17.0187 1.48404C17.0187 1.07802 17.1644 0.729175 17.4558 0.437505C17.7473 0.145835 18.0958 0 18.5016 0C18.9073 0 19.2558 0.145835 19.5473 0.437505C19.8387 0.729175 19.9844 1.07802 19.9844 1.48404C19.9844 1.89008 19.8387 2.23894 19.5473 2.53061C19.2558 2.82225 18.9073 2.96808 18.5016 2.96808Z" fill="#0F52BA"/>
</g>
<defs>
<clipPath id="clip0_576_258">
<rect width="20" height="20" fill="white"/>
</clipPath>
</defs>
</svg>
