<svg width="91" height="92" viewBox="0 0 91 92" fill="none" xmlns="http://www.w3.org/2000/svg">
<path d="M22.0892 29.5113L29.0547 25.063L22.0892 20.6147V29.5113ZM24.6124 37.063C22.9532 37.063 21.3988 36.7482 19.9492 36.1185C18.4996 35.4888 17.2286 34.6284 16.1363 33.5375C15.044 32.4466 14.1826 31.1772 13.5521 29.7294C12.9217 28.2816 12.6064 26.7282 12.6064 25.069C12.6064 23.4098 12.9213 21.8497 13.5509 20.3886C14.1806 18.9274 15.041 17.6565 16.1319 16.5757C17.2228 15.4949 18.4922 14.6392 19.94 14.0087C21.3877 13.3782 22.9412 13.063 24.6004 13.063C26.2596 13.063 27.8197 13.3778 29.2808 14.0075C30.7419 14.6372 32.0129 15.4918 33.0937 16.5712C34.1745 17.6507 35.0302 18.9201 35.6607 20.3793C36.2911 21.8386 36.6064 23.3978 36.6064 25.057C36.6064 26.7162 36.2915 28.2706 35.6619 29.7202C35.0322 31.1698 34.1776 32.4408 33.0982 33.5331C32.0187 34.6254 30.7493 35.4868 29.2901 36.1173C27.8308 36.7478 26.2716 37.063 24.6124 37.063ZM24.6064 36.3044C27.7328 36.3044 30.388 35.2124 32.5719 33.0285C34.7558 30.8446 35.8478 28.1894 35.8478 25.063C35.8478 21.9365 34.7558 19.2814 32.5719 17.0975C30.388 14.9136 27.7328 13.8216 24.6064 13.8216C21.48 13.8216 18.8248 14.9136 16.6409 17.0975C14.457 19.2814 13.365 21.9365 13.365 25.063C13.365 28.1894 14.457 30.8446 16.6409 33.0285C18.8248 35.2124 21.48 36.3044 24.6064 36.3044Z" fill="#0F52BA"/>
</svg>
