<svg width="32" height="32" viewBox="0 0 32 32" fill="none" xmlns="http://www.w3.org/2000/svg">
<path d="M21.5004 11.6667V7.53332H10.5004V11.6667H9.76706V6.79999H22.2337V11.6667H21.5004ZM23.5171 15.6667C23.8615 15.6667 24.1559 15.5442 24.4004 15.2994C24.6448 15.0546 24.7671 14.7657 24.7671 14.4327C24.7671 14.0998 24.6447 13.8111 24.4 13.5667C24.1552 13.3222 23.8665 13.2 23.5337 13.2C23.1782 13.2 22.8837 13.3224 22.6504 13.5673C22.4171 13.8121 22.3004 14.101 22.3004 14.4339C22.3004 14.7669 22.4171 15.0555 22.6504 15.3C22.8837 15.5444 23.1726 15.6667 23.5171 15.6667ZM21.5004 25.5333V18.9333H10.5004V25.5333H21.5004ZM22.2337 26.2667H9.76706V20.7667H5.40039V13.7667C5.40039 13.19 5.60595 12.6958 6.01706 12.2842C6.42817 11.8725 6.93372 11.6667 7.53372 11.6667H24.4671C25.0715 11.6667 25.5782 11.8725 25.9871 12.2842C26.3959 12.6958 26.6004 13.19 26.6004 13.7667V20.7667H22.2337V26.2667ZM25.8671 20.0333V13.7595C25.8671 13.3865 25.7329 13.0667 25.4646 12.8C25.1962 12.5333 24.8637 12.4 24.4671 12.4H7.53372C7.13706 12.4 6.80456 12.5358 6.53622 12.8075C6.26789 13.0792 6.13372 13.3989 6.13372 13.7667V20.0333H9.76706V18.2H22.2337V20.0333H25.8671Z" fill="#0F52BA"/>
</svg>
