<svg width="19" height="18" viewBox="0 0 19 18" fill="none" xmlns="http://www.w3.org/2000/svg">
<g clip-path="url(#clip0_576_266)">
<path d="M2.11486 17.3333C1.74138 17.3333 1.41907 17.1977 1.14793 16.9266C0.876783 16.6554 0.741211 16.3331 0.741211 15.9596V5.21422C0.741211 4.84076 0.876783 4.51846 1.14793 4.24731C1.41907 3.97617 1.74138 3.8406 2.11486 3.8406H6.62953V2.04025C6.62953 1.66677 6.7651 1.34447 7.03625 1.07334C7.30738 0.802199 7.62968 0.666626 8.00316 0.666626H11.5746C11.948 0.666626 12.2703 0.802199 12.5415 1.07334C12.8126 1.34447 12.9482 1.66677 12.9482 2.04025V3.8406H17.4629C17.8363 3.8406 18.1586 3.97617 18.4298 4.24731C18.7009 4.51846 18.8365 4.84076 18.8365 5.21422V15.9596C18.8365 16.3331 18.7009 16.6554 18.4298 16.9266C18.1586 17.1977 17.8363 17.3333 17.4629 17.3333H2.11486ZM7.71011 3.8406H11.8676V2.04025C11.8676 1.96698 11.8371 1.89982 11.776 1.83878C11.715 1.77771 11.6478 1.74718 11.5746 1.74718H8.00316C7.92989 1.74718 7.86273 1.77771 7.80168 1.83878C7.74063 1.89982 7.71011 1.96698 7.71011 2.04025V3.8406ZM17.7559 11.6684H11.6625V12.9871H7.94454V11.6684H1.82179V15.9596C1.82179 16.0329 1.85231 16.1001 1.91336 16.1611C1.97442 16.2222 2.04159 16.2527 2.11486 16.2527H17.4629C17.5361 16.2527 17.6033 16.2222 17.6644 16.1611C17.7254 16.1001 17.7559 16.0329 17.7559 15.9596V11.6684ZM9.02512 11.9065H10.5819V10.3498H9.02512V11.9065ZM1.82179 10.5879H7.94454V9.2692H11.6625V10.5879H17.7559V5.21422C17.7559 5.14097 17.7254 5.07381 17.6644 5.01275C17.6033 4.9517 17.5361 4.92117 17.4629 4.92117H2.11486C2.04159 4.92117 1.97442 4.9517 1.91336 5.01275C1.85231 5.07381 1.82179 5.14097 1.82179 5.21422V10.5879Z" fill="#0F52BA"/>
</g>
<defs>
<clipPath id="clip0_576_266">
<rect width="19" height="18" fill="white"/>
</clipPath>
</defs>
</svg>
