<svg width="19" height="18" viewBox="0 0 19 18" fill="none" xmlns="http://www.w3.org/2000/svg">
<g clip-path="url(#clip0_576_274)">
<path d="M9.42918 8.41801C8.30468 8.41801 7.3776 8.05319 6.64795 7.32354C5.91831 6.5939 5.55349 5.66495 5.55349 4.53671C5.55349 3.40845 5.91831 2.48136 6.64795 1.75546C7.3776 1.02957 8.30468 0.666626 9.42918 0.666626C10.5537 0.666626 11.4808 1.02957 12.2104 1.75546C12.94 2.48136 13.3049 3.40845 13.3049 4.53671C13.3049 5.66495 12.94 6.5939 12.2104 7.32354C11.4808 8.05319 10.5537 8.41801 9.42918 8.41801ZM0.666687 17.3333V15.1157C0.666687 14.4881 0.832951 13.9414 1.16548 13.4756C1.49801 13.0098 1.93014 12.6518 2.46189 12.4016C3.69163 11.8549 4.87706 11.443 6.01819 11.1659C7.15935 10.8888 8.29622 10.7502 9.42883 10.7502C10.5615 10.7502 11.6954 10.8918 12.8308 11.1749C13.9662 11.458 15.1463 11.8695 16.3712 12.4096C16.9237 12.6591 17.3652 13.0155 17.6958 13.4791C18.0264 13.9426 18.1917 14.4881 18.1917 15.1157V17.3333H0.666687ZM1.99228 16.0077H16.8661V15.1157C16.8661 14.8117 16.7698 14.5203 16.5774 14.2417C16.3849 13.9631 16.1336 13.7444 15.8235 13.5856C14.6747 13.0269 13.591 12.6356 12.5726 12.4117C11.5541 12.1878 10.5063 12.0758 9.42918 12.0758C8.35201 12.0758 7.29634 12.1878 6.26217 12.4117C5.228 12.6356 4.14622 13.0269 3.01682 13.5856C2.70677 13.7444 2.4585 13.9631 2.27201 14.2417C2.08552 14.5203 1.99228 14.8117 1.99228 15.1157V16.0077ZM9.42918 7.09245C10.1586 7.09245 10.766 6.84978 11.2513 6.36446C11.7366 5.87915 11.9793 5.27177 11.9793 4.54232C11.9793 3.81287 11.7366 3.20549 11.2513 2.72018C10.766 2.23487 10.1586 1.99222 9.42918 1.99222C8.69973 1.99222 8.09235 2.23487 7.60704 2.72018C7.12173 3.20549 6.87908 3.81287 6.87908 4.54232C6.87908 5.27177 7.12173 5.87915 7.60704 6.36446C8.09235 6.84978 8.69973 7.09245 9.42918 7.09245Z" fill="#0F52BA"/>
</g>
<defs>
<clipPath id="clip0_576_274">
<rect width="19" height="18" fill="white"/>
</clipPath>
</defs>
</svg>
