<svg width="19" height="18" viewBox="0 0 19 18" fill="none" xmlns="http://www.w3.org/2000/svg">
<g clip-path="url(#clip0_576_268)">
<mask id="mask0_576_268" style="mask-type:luminance" maskUnits="userSpaceOnUse" x="0" y="0" width="19" height="18">
<path d="M19 0H0V18H19V0Z" fill="white"/>
</mask>
<g mask="url(#mask0_576_268)">
<path d="M9.429 8.41801C8.3045 8.41801 7.37742 8.05319 6.64777 7.32354C5.91813 6.5939 5.55331 5.66495 5.55331 4.53671C5.55331 3.40845 5.91813 2.48136 6.64777 1.75546C7.37742 1.02957 8.3045 0.666626 9.429 0.666626C10.5535 0.666626 11.4806 1.02957 12.2102 1.75546C12.9398 2.48136 13.3047 3.40845 13.3047 4.53671C13.3047 5.66495 12.9398 6.5939 12.2102 7.32354C11.4806 8.05319 10.5535 8.41801 9.429 8.41801ZM0.666504 17.3333V15.1157C0.666504 14.4881 0.832768 13.9414 1.1653 13.4756C1.49783 13.0098 1.92996 12.6518 2.46171 12.4016C3.69145 11.8549 4.87688 11.443 6.01801 11.1659C7.15917 10.8888 8.29604 10.7502 9.42865 10.7502C10.5613 10.7502 11.6952 10.8918 12.8306 11.1749C13.966 11.458 15.1461 11.8695 16.371 12.4096C16.9235 12.6591 17.365 13.0155 17.6956 13.4791C18.0262 13.9426 18.1915 14.4881 18.1915 15.1157V17.3333H0.666504ZM1.9921 16.0077H16.8659V15.1157C16.8659 14.8117 16.7696 14.5203 16.5772 14.2417C16.3847 13.9631 16.1334 13.7444 15.8233 13.5856C14.6745 13.0269 13.5908 12.6356 12.5724 12.4117C11.5539 12.1878 10.5061 12.0758 9.429 12.0758C8.35183 12.0758 7.29616 12.1878 6.26199 12.4117C5.22782 12.6356 4.14604 13.0269 3.01664 13.5856C2.70659 13.7444 2.45832 13.9631 2.27183 14.2417C2.08534 14.5203 1.9921 14.8117 1.9921 15.1157V16.0077ZM9.429 7.09245C10.1584 7.09245 10.7658 6.84978 11.2511 6.36446C11.7364 5.87915 11.9791 5.27177 11.9791 4.54232C11.9791 3.81287 11.7364 3.20549 11.2511 2.72018C10.7658 2.23487 10.1584 1.99222 9.429 1.99222C8.69955 1.99222 8.09217 2.23487 7.60686 2.72018C7.12155 3.20549 6.8789 3.81287 6.8789 4.54232C6.8789 5.27177 7.12155 5.87915 7.60686 6.36446C8.09217 6.84978 8.69955 7.09245 9.429 7.09245Z" fill="#0F52BA"/>
</g>
</g>
<defs>
<clipPath id="clip0_576_268">
<rect width="19" height="18" fill="white"/>
</clipPath>
</defs>
</svg>
