<svg width="12" height="12" viewBox="0 0 12 12" fill="none" xmlns="http://www.w3.org/2000/svg">
<path id="Vector" d="M6.06738 9.43462C6.18485 9.43462 6.28547 9.39036 6.36923 9.30185C6.45299 9.21333 6.49487 9.11033 6.49487 8.99287C6.49487 8.88395 6.45275 8.78547 6.36852 8.69743C6.28427 8.6094 6.18342 8.56538 6.06595 8.56538C5.94848 8.56538 5.84573 8.60964 5.75768 8.69817C5.66965 8.78668 5.62563 8.8854 5.62563 8.99432C5.62563 9.11178 5.66989 9.21453 5.75842 9.30257C5.84693 9.3906 5.94992 9.43462 6.06738 9.43462ZM5.72692 7.28333H6.26153C6.27009 7.02863 6.31902 6.80321 6.40833 6.60705C6.49766 6.41089 6.6842 6.18718 6.96795 5.9359C7.28675 5.63847 7.5141 5.36795 7.65 5.12435C7.7859 4.88076 7.85385 4.61228 7.85385 4.3189C7.85385 3.80972 7.68612 3.39444 7.35067 3.07307C7.0152 2.7517 6.59404 2.59102 6.08718 2.59102C5.64529 2.59102 5.25234 2.7079 4.90833 2.94167C4.56431 3.17542 4.30641 3.46282 4.13462 3.80385L4.64615 4.00897C4.77692 3.7235 4.95384 3.50107 5.17692 3.34167C5.39999 3.18227 5.68675 3.10257 6.03718 3.10257C6.47478 3.10257 6.80598 3.22244 7.03077 3.46218C7.25556 3.70193 7.36795 3.98718 7.36795 4.31795C7.36795 4.55385 7.30427 4.76945 7.17692 4.96475C7.04957 5.16004 6.86838 5.36153 6.63333 5.56923C6.31709 5.85812 6.08696 6.1421 5.94295 6.42115C5.79893 6.70022 5.72692 6.98761 5.72692 7.28333ZM6.00223 12C5.1751 12 4.39847 11.8426 3.67233 11.5277C2.94619 11.2128 2.31018 10.7827 1.76432 10.2373C1.21846 9.69196 0.787944 9.05656 0.472767 8.3311C0.157589 7.60564 0 6.82936 0 6.00223C0 5.17253 0.157439 4.39248 0.472317 3.66207C0.787206 2.93166 1.21733 2.29629 1.76268 1.75598C2.30804 1.21568 2.94344 0.787945 3.6689 0.472767C4.39436 0.157589 5.17064 0 5.99777 0C6.82747 0 7.60752 0.157439 8.33793 0.472317C9.06835 0.787205 9.70371 1.21455 10.244 1.75435C10.7843 2.29415 11.2121 2.92891 11.5272 3.65863C11.8424 4.38837 12 5.16808 12 5.99777C12 6.8249 11.8426 7.60153 11.5277 8.32767C11.2128 9.05381 10.7855 9.68982 10.2457 10.2357C9.70585 10.7815 9.07109 11.2121 8.34137 11.5272C7.61163 11.8424 6.83192 12 6.00223 12ZM6 11.4872C7.5265 11.4872 8.82266 10.9536 9.88847 9.88653C10.9543 8.81945 11.4872 7.52393 11.4872 6C11.4872 4.4735 10.9543 3.17734 9.88847 2.11153C8.82266 1.04572 7.5265 0.512816 6 0.512816C4.47607 0.512816 3.18056 1.04572 2.11347 2.11153C1.04637 3.17734 0.512817 4.4735 0.512817 6C0.512817 7.52393 1.04637 8.81945 2.11347 9.88653C3.18056 10.9536 4.47607 11.4872 6 11.4872Z" fill="#0F52BA"/>
</svg>
