<svg width="24" height="24" viewBox="0 0 24 24" fill="none" xmlns="http://www.w3.org/2000/svg">
<g clip-path="url(#clip0_576_282)">
<path d="M16.5137 9.95131C16.89 9.95131 17.2148 9.81274 17.4878 9.53563C17.7609 9.25853 17.8974 8.93184 17.8974 8.55552C17.8974 8.1792 17.7589 7.85448 17.4818 7.58141C17.2047 7.30834 16.878 7.17178 16.5017 7.17178C16.1253 7.17178 15.8006 7.31035 15.5276 7.58746C15.2545 7.86456 15.1179 8.19125 15.1179 8.56757C15.1179 8.94389 15.2565 9.26861 15.5336 9.54168C15.8107 9.81475 16.1374 9.95131 16.5137 9.95131ZM7.49832 9.95131C7.87469 9.95131 8.19936 9.81274 8.47243 9.53563C8.7455 9.25853 8.88206 8.93184 8.88206 8.55552C8.88206 8.1792 8.74349 7.85448 8.46638 7.58141C8.18933 7.30834 7.86259 7.17178 7.48627 7.17178C7.10995 7.17178 6.78523 7.31035 6.51216 7.58746C6.23909 7.86456 6.10258 8.19125 6.10258 8.56757C6.10258 8.94389 6.2411 9.26861 6.51821 9.54168C6.79531 9.81475 7.122 9.95131 7.49832 9.95131ZM12 18.5052C13.2615 18.5052 14.4235 18.1662 15.4859 17.4885C16.5483 16.8107 17.3487 15.9051 17.8872 14.7718H6.1128C6.6564 15.9051 7.4581 16.8107 8.51794 17.4885C9.57778 18.1662 10.7385 18.5052 12 18.5052ZM12.0045 24C10.3451 24 8.78496 23.6851 7.32413 23.0554C5.8633 22.4256 4.59259 21.5709 3.51197 20.4913C2.43137 19.4117 1.57589 18.1422 0.945533 16.6827C0.315178 15.2232 0 13.6638 0 12.0045C0 10.3451 0.314878 8.78496 0.944635 7.32413C1.57441 5.8633 2.4291 4.59259 3.5087 3.51197C4.5883 2.43137 5.85782 1.57589 7.31726 0.945533C8.77675 0.315179 10.3362 0 11.9955 0C13.6549 0 15.215 0.314878 16.6759 0.944635C18.1367 1.57441 19.4074 2.4291 20.488 3.5087C21.5687 4.5883 22.4241 5.85782 23.0544 7.31726C23.6848 8.77675 24 10.3362 24 11.9955C24 13.6549 23.6851 15.215 23.0554 16.6759C22.4256 18.1367 21.5709 19.4074 20.4913 20.488C19.4117 21.5687 18.1422 22.4241 16.6827 23.0544C15.2232 23.6848 13.6638 24 12.0045 24ZM11.9975 22.9744C15.0605 22.9744 17.6557 21.9115 19.7832 19.7856C21.9107 17.6599 22.9744 15.0655 22.9744 12.0025C22.9744 8.93952 21.9115 6.34426 19.7856 4.21683C17.6599 2.08937 15.0655 1.02563 12.0025 1.02563C8.93952 1.02563 6.34426 2.08853 4.21683 4.21433C2.08937 6.34013 1.02564 8.93453 1.02564 11.9975C1.02564 15.0605 2.08853 17.6557 4.21433 19.7832C6.34013 21.9107 8.93453 22.9744 11.9975 22.9744Z" fill="#0F52BA"/>
</g>
<defs>
<clipPath id="clip0_576_282">
<rect width="24" height="24" fill="white"/>
</clipPath>
</defs>
</svg>
