<svg width="15" height="14" viewBox="0 0 15 14" fill="none" xmlns="http://www.w3.org/2000/svg">
<g clip-path="url(#clip0_576_284)">
<path fill-rule="evenodd" clip-rule="evenodd" d="M10.2399 3.5023L13.3866 4.22619C14.201 4.41452 14.7086 5.22747 14.5202 6.04193C14.4599 6.30248 14.3317 6.54237 14.1486 6.73729L12.0704 9.12543L12.3545 12.3518V12.3656C12.4183 13.197 11.7999 13.9244 10.969 13.9952C10.6789 14.0182 10.3881 13.9581 10.1308 13.822L7.27338 12.6098L4.2947 13.8723C3.52821 14.1962 2.6443 13.8374 2.32037 13.0709L2.31872 13.067C2.27162 12.9559 2.23789 12.8396 2.21828 12.7206C2.20244 12.6204 2.19663 12.5189 2.20096 12.4176C2.19919 12.3974 2.19919 12.3771 2.20096 12.357L2.48498 9.12716L0.368727 6.6888C-0.17735 6.05838 -0.108988 5.10468 0.521385 4.55861C0.698937 4.40478 0.909956 4.29455 1.13764 4.23658L1.17228 4.22619H1.18613L4.32068 3.50057L5.9832 0.729701C6.41528 0.0152499 7.34473 -0.213693 8.05923 0.218389C8.27436 0.34849 8.45364 0.530155 8.58088 0.747019L8.59128 0.762605L10.2399 3.5023ZM13.6378 6.25944C13.6875 6.20761 13.73 6.14938 13.7642 6.08626C13.9765 5.68998 13.8273 5.19668 13.4311 4.98441C13.3674 4.95029 13.2995 4.92483 13.2291 4.90864L9.93866 4.14665C9.84579 4.1257 9.76561 4.06746 9.71699 3.98559V3.98386L7.99385 1.10909L7.98346 1.09177C7.75214 0.706317 7.25217 0.581368 6.86672 0.812692C6.7522 0.881401 6.65635 0.977256 6.58764 1.09177L4.85585 3.97174C4.80827 4.0598 4.72488 4.12293 4.62725 4.14492L1.34897 4.90171H1.32819C0.890391 5.00371 0.618197 5.44134 0.720199 5.87914C0.750116 6.00755 0.810772 6.12674 0.896972 6.22653L3.09288 8.76188C3.16709 8.83474 3.20458 8.93713 3.19506 9.04069L2.90758 12.3657C2.90897 12.3836 2.90897 12.4015 2.90758 12.4194C2.89966 12.4844 2.89966 12.5501 2.90758 12.6151C2.91628 12.6707 2.93079 12.7253 2.95088 12.7779C2.95902 12.7935 2.96599 12.8097 2.97166 12.8264C3.15116 13.2147 3.6006 13.3978 4.00034 13.2455C4.01757 13.2365 4.03554 13.2289 4.05403 13.223L7.14008 11.9155C7.22641 11.8789 7.32391 11.8789 7.41024 11.9155L10.408 13.1797C10.4271 13.1861 10.4456 13.1942 10.4634 13.2039C10.5989 13.2774 10.7532 13.3093 10.9067 13.2957H10.9171C11.3579 13.2562 11.6859 12.8712 11.6549 12.4298V12.4125L11.3639 9.04069C11.3554 8.94696 11.3854 8.85379 11.447 8.78266L13.6187 6.28022L13.6378 6.25944Z" fill="#0F52BA"/>
</g>
<defs>
<clipPath id="clip0_576_284">
<rect width="15" height="14" fill="white"/>
</clipPath>
</defs>
</svg>
