<svg width="35" height="24" viewBox="0 0 35 24" fill="none" xmlns="http://www.w3.org/2000/svg">
<g clip-path="url(#clip0_576_288)">
<path d="M7.51958 23.6426C5.4352 23.6426 3.66084 22.9183 2.19652 21.4699C0.732175 20.0214 0 18.2656 0 16.2025C0 14.2228 0.712926 12.5036 2.13877 11.0448C3.56464 9.58598 5.23842 8.82845 7.16007 8.77211C7.46793 6.25745 8.57493 4.16675 10.4812 2.50005C12.3875 0.833345 14.628 0 17.2027 0C20.0208 0 22.3898 0.983498 24.3095 2.9505C26.2293 4.9175 27.1893 7.29229 27.1893 10.0749V12.2582H28.2446C29.9288 12.1803 31.3591 12.6887 32.5354 13.7836C33.7117 14.8785 34.2999 16.262 34.2999 17.9342C34.2999 19.5088 33.7447 20.8539 32.6343 21.9694C31.524 23.0848 30.1696 23.6426 28.5711 23.6426H18.8649C18.2059 23.6426 17.6453 23.415 17.1833 22.9599C16.7213 22.5047 16.4903 21.9526 16.4903 21.3033V10.4714L12.503 14.4318L11.5498 13.5254L17.1499 8.00864L22.7501 13.5254L21.7969 14.4318L17.8096 10.4714V21.3033C17.8096 21.5632 17.9195 21.8015 18.1394 22.0181C18.3592 22.2347 18.6011 22.343 18.8649 22.343H28.5052C29.7475 22.343 30.8039 21.9124 31.6746 21.0512C32.5453 20.1899 32.9806 19.1546 32.9806 17.9451C32.9806 16.7357 32.5453 15.7021 31.6746 14.8444C30.8039 13.9867 29.7436 13.5578 28.4936 13.5578H25.87V10.0749C25.87 7.67678 25.0219 5.61469 23.3255 3.88865C21.6292 2.1626 19.5586 1.29957 17.1136 1.29957C14.6687 1.29957 12.5909 2.1626 10.8803 3.88865C9.16969 5.61469 8.31442 7.67678 8.31442 10.0749H7.40084C5.7606 10.0749 4.33696 10.6711 3.12986 11.8635C1.92277 13.0559 1.31921 14.515 1.31921 16.241C1.31921 17.9106 1.92449 19.345 3.13505 20.5442C4.34558 21.7434 5.80707 22.343 7.51958 22.343H12.5986V23.6426H7.51958Z" fill="#0F52BA"/>
</g>
<defs>
<clipPath id="clip0_576_288">
<rect width="34.3636" height="24" fill="white"/>
</clipPath>
</defs>
</svg>
