<svg width="11" height="14" viewBox="0 0 11 14" fill="none" xmlns="http://www.w3.org/2000/svg">
<path id="Vector" d="M4.58551 9.13043L8.44058 5.27536L8.03478 4.86957L4.58551 8.31884L2.84058 6.57391L2.43478 6.97971L4.58551 9.13043ZM5.43768 14C3.88213 13.513 2.58696 12.5527 1.55217 11.1188C0.517391 9.68502 0 8.06184 0 6.24928V2.02899L5.43768 0L10.8754 2.02899V6.24928C10.8754 8.06184 10.358 9.68502 9.32319 11.1188C8.28841 12.5527 6.99324 13.513 5.43768 14ZM5.43768 13.3913C6.84444 12.9449 8.00773 12.0522 8.92754 10.713C9.84734 9.37391 10.3072 7.88599 10.3072 6.24928V2.41449L5.43768 0.608696L0.568116 2.41449V6.24928C0.568116 7.88599 1.02802 9.37391 1.94783 10.713C2.86763 12.0522 4.03092 12.9449 5.43768 13.3913Z" fill="url(#paint0_linear_1217_403)"/>
<defs>
<linearGradient id="paint0_linear_1217_403" x1="0" y1="7" x2="10.8754" y2="7" gradientUnits="userSpaceOnUse">
<stop stop-color="#0F52BA"/>
<stop offset="1" stop-color="#8225AF"/>
</linearGradient>
</defs>
</svg>
