<svg width="14" height="14" viewBox="0 0 14 14" fill="none" xmlns="http://www.w3.org/2000/svg">
<path id="Vector" d="M0 5.06425C0 4.15177 0.172719 3.29795 0.518156 2.50279C0.863594 1.70764 1.33613 1.01024 1.93575 0.410615L2.34637 0.782123C1.78585 1.32961 1.3459 1.96834 1.02654 2.69832C0.70717 3.42831 0.547486 4.21695 0.547486 5.06425H0ZM12.5922 5.06425C12.5922 4.21695 12.4325 3.42505 12.1131 2.68855C11.7938 1.95205 11.3538 1.31006 10.7933 0.76257L11.2039 0.410615C11.8035 1.01024 12.2761 1.70764 12.6215 2.50279C12.9669 3.29795 13.1397 4.15177 13.1397 5.06425H12.5922ZM1.32961 12.0447V11.4972H2.50279V5.0838C2.50279 4.08007 2.82542 3.20019 3.47067 2.44413C4.11592 1.68808 4.92737 1.22533 5.90503 1.05587V0.664804C5.90503 0.482309 5.97021 0.325885 6.10056 0.195531C6.23091 0.0651769 6.38734 0 6.56983 0C6.75233 0 6.90875 0.0651769 7.03911 0.195531C7.16946 0.325885 7.23464 0.482309 7.23464 0.664804V1.05587C8.21229 1.22533 9.02374 1.68808 9.669 2.44413C10.3142 3.20019 10.6369 4.08007 10.6369 5.0838V11.4972H11.8101V12.0447H1.32961ZM6.56983 14C6.24395 14 5.96695 13.8859 5.73883 13.6578C5.51071 13.4297 5.39665 13.1527 5.39665 12.8268H7.74302C7.74302 13.1527 7.62896 13.4297 7.40084 13.6578C7.17272 13.8859 6.89572 14 6.56983 14ZM3.05028 11.4972H10.0894V5.0838C10.0894 4.10615 9.74721 3.27514 9.06285 2.59078C8.37849 1.90642 7.54749 1.56425 6.56983 1.56425C5.59218 1.56425 4.76117 1.90642 4.07682 2.59078C3.39246 3.27514 3.05028 4.10615 3.05028 5.0838V11.4972Z" fill="url(#paint0_linear_1217_427)"/>
<defs>
<linearGradient id="paint0_linear_1217_427" x1="0" y1="7" x2="13.1397" y2="7" gradientUnits="userSpaceOnUse">
<stop stop-color="#0F52BA"/>
<stop offset="1" stop-color="#8225AF"/>
</linearGradient>
</defs>
</svg>
