<svg width="15" height="14" viewBox="0 0 15 14" fill="none" xmlns="http://www.w3.org/2000/svg">
<path id="Vector" d="M5.06215 14L3.79661 11.8644L1.38418 11.3503L1.62147 8.85876L0 7L1.62147 5.14124L1.38418 2.64972L3.79661 2.13559L5.06215 0L7.31638 0.949152L9.57062 0L10.8362 2.13559L13.2486 2.64972L13.0113 5.14124L14.6328 7L13.0113 8.85876L13.2486 11.3503L10.8362 11.8644L9.57062 14L7.31638 13.0508L5.06215 14ZM5.29943 13.2881L7.31638 12.4576L9.33333 13.2881L10.4802 11.3898L12.6554 10.9153L12.4576 8.66102L13.9209 7L12.4576 5.33898L12.6554 3.08475L10.4802 2.61017L9.33333 0.711864L7.31638 1.54237L5.29943 0.711864L4.15254 2.61017L1.9774 3.08475L2.17514 5.33898L0.711864 7L2.17514 8.66102L1.9774 10.9153L4.15254 11.3898L5.29943 13.2881ZM6.48588 9.09604L10.2429 5.33898L9.84746 4.9435L6.48588 8.30508L4.78531 6.60452L4.38983 7L6.48588 9.09604Z" fill="url(#paint0_linear_1217_455)"/>
<defs>
<linearGradient id="paint0_linear_1217_455" x1="0" y1="7" x2="14.6328" y2="7" gradientUnits="userSpaceOnUse">
<stop stop-color="#0F52BA"/>
<stop offset="1" stop-color="#8225AF"/>
</linearGradient>
</defs>
</svg>
