<svg width="14" height="14" viewBox="0 0 14 14" fill="none" xmlns="http://www.w3.org/2000/svg">
<path id="Vector" d="M9.09195 11.6063V13.477C9.09195 13.6245 9.03496 13.7486 8.92098 13.8491C8.80699 13.9497 8.67625 14 8.52874 14H0.522989C0.375479 14 0.251437 13.9497 0.150862 13.8491C0.0502874 13.7486 0 13.6245 0 13.477V8.79023C0 8.64272 0.0502874 8.51868 0.150862 8.4181C0.251437 8.31753 0.375479 8.26724 0.522989 8.26724H3.25862V3.72126C3.25862 2.68423 3.61957 1.80476 4.34147 1.08285C5.06338 0.360949 5.94956 0 7 0H10.2989C11.3359 0 12.212 0.360949 12.9272 1.08285C13.6424 1.80476 14 2.68423 14 3.72126V14H13.5575V11.6063H9.09195ZM9.09195 11.1638H13.5575V3.72126C13.5575 2.80939 13.239 2.03496 12.602 1.39799C11.965 0.761015 11.1973 0.442529 10.2989 0.442529H7C6.08812 0.442529 5.31035 0.761015 4.66667 1.39799C4.02299 2.03496 3.70115 2.80939 3.70115 3.72126V8.26724H8.52874C8.67625 8.26724 8.80699 8.31753 8.92098 8.4181C9.03496 8.51868 9.09195 8.64272 9.09195 8.79023V11.1638ZM5.91379 4.76724V4.32471H11.3448V4.76724H5.91379ZM4.54598 11.0431L8.64943 8.70977H0.442529L4.54598 11.0431ZM4.54598 11.6063L0.442529 9.25287V13.5575H8.64943V9.25287L4.54598 11.6063Z" fill="black"/>
</svg>