<svg width="11" height="14" viewBox="0 0 11 14" fill="none" xmlns="http://www.w3.org/2000/svg">
<path id="Vector" d="M1.10526 14C0.80848 14 0.550073 13.89 0.330044 13.67C0.110015 13.4499 0 13.1915 0 12.8947V5.81287C0 5.50551 0.110015 5.24445 0.330044 5.0297C0.550073 4.81497 0.80848 4.7076 1.10526 4.7076H2.51754V2.96784C2.51754 2.13882 2.80527 1.43692 3.38073 0.862146C3.95619 0.287382 4.65892 0 5.48892 0C6.31892 0 7.02047 0.287382 7.59357 0.862146C8.16667 1.43692 8.45322 2.13882 8.45322 2.96784V4.7076H9.8655C10.1623 4.7076 10.4207 4.81497 10.6407 5.0297C10.8607 5.24445 10.9708 5.50551 10.9708 5.81287V12.8947C10.9708 13.1915 10.8607 13.4499 10.6407 13.67C10.4207 13.89 10.1623 14 9.8655 14H1.10526ZM1.10526 13.5497H9.8655C10.0565 13.5497 10.2135 13.4883 10.3363 13.3655C10.4591 13.2427 10.5205 13.0858 10.5205 12.8947V5.81287C10.5205 5.62183 10.4591 5.46491 10.3363 5.34211C10.2135 5.2193 10.0565 5.15789 9.8655 5.15789H1.10526C0.91423 5.15789 0.75731 5.2193 0.634503 5.34211C0.511696 5.46491 0.450292 5.62183 0.450292 5.81287V12.8947C0.450292 13.0858 0.511696 13.2427 0.634503 13.3655C0.75731 13.4883 0.91423 13.5497 1.10526 13.5497ZM5.48882 10.4386C5.78672 10.4386 6.04142 10.3326 6.25292 10.1207C6.46443 9.90879 6.57018 9.65315 6.57018 9.3538C6.57018 9.06725 6.46328 8.81481 6.24949 8.59649C6.03569 8.37817 5.77984 8.26901 5.48194 8.26901C5.18404 8.26901 4.92934 8.37817 4.71784 8.59649C4.50634 8.81481 4.40058 9.07066 4.40058 9.36404C4.40058 9.65741 4.50748 9.90984 4.72127 10.1213C4.93507 10.3328 5.19092 10.4386 5.48882 10.4386ZM2.96784 4.7076H8.00292V2.96784C8.00292 2.26852 7.75852 1.6741 7.2697 1.18458C6.78088 0.695054 6.1873 0.450292 5.48898 0.450292C4.79067 0.450292 4.19591 0.695054 3.70468 1.18458C3.21345 1.6741 2.96784 2.26852 2.96784 2.96784V4.7076Z" fill="black"/>
</svg>
